<?xml version="1.0" standalone="no"?>
<!DOCTYPE svg PUBLIC "-//W3C//DTD SVG 1.1//EN" "http://www.w3.org/Graphics/SVG/1.1/DTD/svg11.dtd" >
<svg>
<metadata>
Created by FontForge 20090622 at Fri Aug 11 14:05:40 2017
 By deploy user
Copyright &#194;&#169; 2017 by Ren&#195;&#169; Bieder. All rights reserved.
</metadata>
<defs>
<font id="Quarion-Bold" horiz-adv-x="600" >
  <font-face 
    font-family="Quarion"
    font-weight="700"
    font-stretch="normal"
    units-per-em="1000"
    panose-1="2 1 0 3 6 0 0 0 0 0"
    ascent="773"
    descent="-227"
    x-height="500"
    cap-height="700"
    bbox="-458 -337 1359 950"
    underline-thickness="50"
    underline-position="-50"
    unicode-range="U+0020-U+FB01"
  />
<missing-glyph 
d="M50 0v700h500v-700h-500zM300 415l136 220h-272zM115 116l150 243l-150 242v-485zM485 116v485l-150 -242zM153 65h294l-147 237z" />
    <glyph glyph-name="arrowleft" unicode="&#x3c;&#x2014;" horiz-adv-x="800" 
d="M750 443v-186l-456 8l217 -124l-124 -129l-337 326v24l338 326l123 -130l-213 -125z" />
    <glyph glyph-name="arrowright" unicode="&#x2d;&#x3e;" horiz-adv-x="800" 
d="M412 688l338 -326v-24l-337 -326l-124 129l217 124l-456 -8v186l452 -10l-213 125z" />
    <glyph glyph-name="fi" unicode="fi" horiz-adv-x="677" 
d="M430 651q0 42 30 70.5t73 28.5t73 -28.5t30 -70.5t-30 -70t-73 -28t-73 28t-30 70zM620 500v-500h-175v380h-185v-380h-175v380h-71v120h71v24q0 86 63.5 136t172.5 50q40 0 65 -4v-117q-22 6 -43 6q-37 0 -60 -18t-23 -55v-22h360z" />
    <glyph glyph-name=".notdef" 
d="M50 0v700h500v-700h-500zM300 415l136 220h-272zM115 116l150 243l-150 242v-485zM485 116v485l-150 -242zM153 65h294l-147 237z" />
    <glyph glyph-name=".null" horiz-adv-x="0" 
 />
    <glyph glyph-name="nonmarkingreturn" horiz-adv-x="333" 
 />
    <glyph glyph-name="space" unicode=" " horiz-adv-x="200" 
 />
    <glyph glyph-name="exclam" unicode="!" horiz-adv-x="348" 
d="M60 700h228l-45 -443h-139zM279 92q0 -42 -30 -70.5t-73 -28.5t-73 28.5t-30 70.5t30 70t73 28t73 -28t30 -70z" />
    <glyph glyph-name="quotedbl" unicode="&#x22;" horiz-adv-x="480" 
d="M40 700h190l-30 -288h-130zM250 700h190l-30 -288h-130z" />
    <glyph glyph-name="numbersign" unicode="#" horiz-adv-x="779" 
d="M739 400h-126l-30 -114h127v-128h-159l-41 -158h-140l41 158h-138l-41 -158h-140l41 158h-93v128h125l30 114h-126v128h159l43 169h140l-43 -169h138l44 169h139l-43 -169h93v-128zM444 286l29 114h-138l-30 -114h139z" />
    <glyph glyph-name="dollar" unicode="$" horiz-adv-x="674" 
d="M374 -10v-95h-76v99q-103 12 -173 63.5t-95 133.5l184 38q16 -64 84 -89v140q-78 20 -127 40q-122 50 -122 172q0 93 67 151.5t182 65.5v96h76v-97q94 -10 160 -57t91 -123l-179 -30q-17 55 -72 74v-133q83 -20 137 -42q53 -19 93 -66q40 -46 40 -124q0 -94 -74.5 -154
t-195.5 -63zM298 460v117q-26 -6 -41.5 -21.5t-15.5 -37.5q0 -35 57 -58zM458 190q0 46 -84 70v-131q84 6 84 61z" />
    <glyph glyph-name="percent" unicode="%" horiz-adv-x="936" 
d="M25 524q0 78 56.5 130.5t140.5 52.5q82 0 137 -52.5t55 -130.5t-55.5 -131.5t-138.5 -53.5t-139 53.5t-56 131.5zM641 700h120l-241 -349l-227 -351h-122l256 357zM295 524q0 35 -20.5 57.5t-54.5 22.5q-35 -1 -55 -23t-20 -57q0 -36 21 -58.5t56 -22.5q33 0 53 22.5
t20 58.5zM911 178q0 -78 -55 -130.5t-137 -52.5q-84 0 -140.5 52.5t-56.5 130.5t56 131.5t139 53.5t138.5 -53.5t55.5 -131.5zM642 178q0 -35 20 -57t55 -23q34 0 54.5 22.5t20.5 57.5q0 36 -20 58.5t-53 22.5q-35 0 -56 -22.5t-21 -58.5z" />
    <glyph glyph-name="ampersand" unicode="&#x26;" horiz-adv-x="732" 
d="M722 0h-200l-37 40q-92 -50 -200 -50q-117 0 -186 53t-69 150q0 65 33.5 107.5t107.5 79.5q-39 44 -54.5 75.5t-15.5 69.5q0 83 61 134t161 51q99 0 159 -49.5t60 -130.5q0 -114 -148 -183l96 -101q26 53 38 121l150 -35q-22 -113 -85 -196zM249 531q0 -22 11.5 -40.5
t43.5 -50.5q57 26 79.5 45.5t22.5 47.5q0 31 -21.5 50t-56.5 19q-34 0 -56.5 -19.5t-22.5 -51.5zM387 145l-131 143q-62 -34 -62 -84q0 -38 27 -58t75 -20q52 0 91 19z" />
    <glyph glyph-name="quotesingle" unicode="'" horiz-adv-x="270" 
d="M40 700h190l-30 -288h-130z" />
    <glyph glyph-name="parenleft" unicode="(" horiz-adv-x="377" 
d="M40 287q0 109 44 220q46 111 129 193h154q-154 -184 -154 -413t154 -413h-154q-83 82 -129 193q-44 111 -44 220z" />
    <glyph glyph-name="parenright" unicode=")" horiz-adv-x="377" 
d="M164 -126h-154q154 184 154 413t-154 413h154q84 -83 128 -193q45 -109 45 -220t-45 -220q-44 -110 -128 -193z" />
    <glyph glyph-name="asterisk" unicode="*" horiz-adv-x="482" 
d="M452 603l-123 -57l123 -58l-55 -97l-112 80l13 -136h-112l13 135l-112 -79l-57 97l126 58l-126 57l57 98l112 -80l-13 136h112l-13 -136l112 80z" />
    <glyph glyph-name="plus" unicode="+" horiz-adv-x="559" 
d="M210 268h-175v120h175v181h139v-181h175v-120h-175v-181h-139v181z" />
    <glyph glyph-name="comma" unicode="," horiz-adv-x="294" 
d="M59 -154l-10 65q41 1 80 20q37 18 37 40q0 17 -21 20q-100 17 -100 99q0 45 28.5 71.5t75.5 26.5q55 0 84 -40t29 -107q0 -88 -55 -141t-148 -54z" />
    <glyph glyph-name="hyphen" unicode="-" horiz-adv-x="409" 
d="M40 355h329v-147h-329v147z" />
    <glyph glyph-name="period" unicode="." horiz-adv-x="294" 
d="M252 92q0 -42 -30 -70.5t-73 -28.5t-73 28.5t-30 70.5t30 70t73 28t73 -28t30 -70z" />
    <glyph glyph-name="slash" unicode="/" horiz-adv-x="441" 
d="M-20 -126l166 423l138 403h157l-166 -422l-139 -404h-156z" />
    <glyph glyph-name="zero" unicode="0" horiz-adv-x="682" 
d="M652 350q0 -167 -83.5 -263.5t-227.5 -96.5t-227.5 96.5t-83.5 263.5t83.5 263.5t227.5 96.5t227.5 -96.5t83.5 -263.5zM450 350q0 112 -25 159.5t-84 47.5t-84 -47.5t-25 -159.5t25 -159.5t84 -47.5t84 47.5t25 159.5z" />
    <glyph glyph-name="one" unicode="1" horiz-adv-x="492" 
d="M264 700h148v-700h-200v549l-141 -114l-61 146z" />
    <glyph glyph-name="two" unicode="2" horiz-adv-x="620" 
d="M260 138l324 23v-161h-555v126l186 133q108 78 142 127t34 86q0 39 -25 62.5t-67 23.5q-43 0 -71 -29t-29 -81l-191 36q13 101 94 163.5t197 62.5q125 0 205 -62q79 -61 79 -182q0 -66 -57 -142q-56 -76 -225 -165z" />
    <glyph glyph-name="three" unicode="3" horiz-adv-x="620" 
d="M593 186q0 -91 -76.5 -143.5t-200.5 -52.5q-117 0 -199 60.5t-99 158.5l188 29q7 -47 37.5 -73t76.5 -26q43 0 69 21t26 55q0 38 -29.5 60t-85.5 22h-44v114h49q96 0 96 78q0 32 -25 52t-65 20q-44 0 -71.5 -28t-29.5 -75l-192 33q17 98 97.5 158.5t195.5 60.5
q120 0 195 -54.5t75 -143.5q0 -59 -28.5 -97.5t-92.5 -58.5q133 -39 133 -170z" />
    <glyph glyph-name="four" unicode="4" horiz-adv-x="670" 
d="M640 279v-140h-72v-139h-185v139h-363v116l307 445h241v-421h72zM398 584l-211 -305h196z" />
    <glyph glyph-name="five" unicode="5" horiz-adv-x="640" 
d="M609 242q0 -112 -79.5 -182t-205.5 -70q-106 0 -183 50t-96 141l178 47q9 -49 38 -73.5t70 -24.5q45 0 67.5 27.5t22.5 72.5q0 44 -23 69.5t-64 25.5q-61 0 -88 -52l-175 27l38 400h476l-20 -147h-321l-21 -185q56 101 171 101q94 0 154.5 -63.5t60.5 -163.5z" />
    <glyph glyph-name="six" unicode="6" horiz-adv-x="650" 
d="M618 247q0 -116 -80 -186.5t-210 -70.5t-210.5 69.5t-80.5 187.5q0 56 21.5 110.5t74.5 131.5l146 211h241l-233 -254q47 29 105 29q98 0 162 -63t64 -165zM432 242q0 46 -28.5 74.5t-75.5 28.5t-76 -28.5t-29 -74.5q0 -47 28.5 -76t75.5 -29t76 29t29 76z" />
    <glyph glyph-name="seven" unicode="7" horiz-adv-x="620" 
d="M61 700h521v-129l-283 -571h-228l337 547h-367z" />
    <glyph glyph-name="eight" unicode="8" horiz-adv-x="640" 
d="M618 195q0 -96 -78 -150.5t-216 -54.5q-141 0 -221.5 55t-80.5 152q0 118 151 170q-124 43 -124 153q0 89 72.5 139.5t202.5 50.5q127 0 198.5 -51t71.5 -140q0 -108 -122 -152q146 -55 146 -172zM228 503q0 -36 26 -59t69 -23q42 0 67.5 22.5t25.5 58.5q0 38 -25.5 60
t-68.5 22t-68.5 -22t-25.5 -59zM422 216q0 39 -27 63t-73 24q-45 0 -72.5 -24t-27.5 -62q0 -40 27.5 -63.5t73.5 -23.5q45 0 72 23.5t27 62.5z" />
    <glyph glyph-name="nine" unicode="9" horiz-adv-x="650" 
d="M613 453q0 -56 -21.5 -110.5t-74.5 -131.5l-146 -211h-241l233 254q-47 -29 -105 -29q-98 0 -162 62.5t-64 165.5q0 116 80 186.5t210 70.5t210.5 -69.5t80.5 -187.5zM322 355q47 0 76 28.5t29 74.5q0 47 -28.5 76t-75.5 29t-76 -29t-29 -76q0 -46 28.5 -74.5t75.5 -28.5
z" />
    <glyph glyph-name="colon" unicode=":" horiz-adv-x="294" 
d="M46 407q0 42 30 70.5t73 28.5t73 -28.5t30 -70.5t-30 -70t-73 -28t-73 28t-30 70zM252 92q0 -42 -30 -70.5t-73 -28.5t-73 28.5t-30 70.5t30 70t73 28t73 -28t30 -70z" />
    <glyph glyph-name="semicolon" unicode=";" horiz-adv-x="290" 
d="M47 407q0 42 30 70.5t73 28.5t73 -28.5t30 -70.5t-30 -70t-73 -28t-73 28t-30 70zM60 -154l-10 65q41 1 80 20q37 18 37 40q0 17 -21 20q-100 17 -100 99q0 45 28.5 71.5t75.5 26.5q55 0 84 -40t29 -107q0 -88 -55 -141t-148 -54z" />
    <glyph glyph-name="less" unicode="&#x3c;" horiz-adv-x="496" 
d="M446 571v-141l-279 -99l279 -99v-142l-406 179v123z" />
    <glyph glyph-name="equal" unicode="=" horiz-adv-x="532" 
d="M50 474h432v-121h-432v121zM50 270h432v-121h-432v121z" />
    <glyph glyph-name="greater" unicode="&#x3e;" horiz-adv-x="496" 
d="M50 571l406 -179v-123l-406 -179v142l279 99l-279 99v141z" />
    <glyph glyph-name="question" unicode="?" horiz-adv-x="559" 
d="M181 257v10q2 50 25 77t75 58q44 27 60.5 45.5t16.5 45.5q0 29 -20 47t-53 18q-35 0 -64 -24t-36 -63l-175 56q25 83 102 133t177 50q109 0 174.5 -58.5t65.5 -151.5q-3 -70 -32 -105t-89 -67q-32 -17 -44.5 -28.5t-12.5 -26.5v-16h-170zM379 92q0 -42 -30 -70.5
t-73 -28.5t-73 28.5t-30 70.5t30 70t73 28t73 -28t30 -70z" />
    <glyph glyph-name="at" unicode="@" horiz-adv-x="887" 
d="M661 469l-33 -219q-3 -18 -3 -33q0 -52 44 -52q43 0 77.5 46t34.5 126q0 131 -87 219t-232 88q-156 0 -247.5 -102t-91.5 -264q0 -158 89 -249.5t249 -91.5q169 0 282 116l42 -71q-129 -117 -321 -117q-196 0 -315 112t-119 300q-2 188 120 311.5t311 121.5
q175 2 286.5 -106t109.5 -272q0 -117 -56 -181.5t-155 -64.5q-105 0 -132 78q-37 -78 -121 -78q-70 0 -120.5 51.5t-50.5 135.5q0 87 52.5 147.5t127.5 60.5q43 0 74.5 -21t43.5 -61l9 70h132zM504 299q0 41 -17 62.5t-47 21.5q-40 0 -61 -35q-20 -35 -20 -77
q0 -40 19.5 -62.5t49.5 -22.5q35 0 55.5 32.5t20.5 80.5z" />
    <glyph glyph-name="A" unicode="A" horiz-adv-x="805" 
d="M577 0l-49 138h-271l-50 -138h-192l282 700h213l280 -700h-213zM306 277h172l-85 241z" />
    <glyph glyph-name="B" unicode="B" horiz-adv-x="704" 
d="M684 189q0 -84 -65 -136.5t-163 -52.5h-386v700h361q98 0 161 -49.5t63 -128.5q0 -61 -39 -104.5t-122 -57.5q98 -11 144 -56.5t46 -114.5zM265 566v-155h90q41 0 68 22.5t27 58.5q0 33 -24.5 53.5t-64.5 20.5h-96zM474 214q0 33 -26 53t-69 20h-114v-152h114
q46 0 70.5 20.5t24.5 58.5z" />
    <glyph glyph-name="C" unicode="C" horiz-adv-x="806" 
d="M577 289l204 -36q-30 -121 -128.5 -192t-237.5 -71q-166 -2 -277 100t-108 259q-3 158 108 260.5t277 100.5q139 0 237.5 -71t128.5 -192l-204 -36q-13 73 -52 108.5t-110 35.5q-79 0 -127 -55t-48 -150t48 -150t127 -55q71 0 110 35.5t52 108.5z" />
    <glyph glyph-name="D" unicode="D" horiz-adv-x="803" 
d="M70 0v700h307q164 2 281.5 -99t114.5 -251q3 -150 -114.5 -251t-281.5 -99h-307zM270 147h111q83 0 132 55q50 56 50 148q0 91 -50 147t-132 56h-111v-406z" />
    <glyph glyph-name="E" unicode="E" horiz-adv-x="657" 
d="M607 545h-342v-111h297v-143h-297v-136h342v-155h-537v700h537v-155z" />
    <glyph glyph-name="F" unicode="F" horiz-adv-x="647" 
d="M602 544h-332v-130h302v-150h-302v-264h-200v700h532v-156z" />
    <glyph glyph-name="G" unicode="G" horiz-adv-x="802" 
d="M437 225v139h308v-280q-52 -36 -131 -65q-82 -29 -183 -29q-179 0 -290 99t-111 259q0 162 107 262t278 100q132 0 226 -64.5t128 -178.5l-191 -43q-29 131 -159 131q-82 0 -131 -56t-49 -149q0 -99 53.5 -153.5t151.5 -54.5q61 0 121 15v68h-128z" />
    <glyph glyph-name="H" unicode="H" horiz-adv-x="837" 
d="M567 700h200v-700h-200v273h-297v-273h-200v700h200v-272h297v272z" />
    <glyph glyph-name="I" unicode="I" horiz-adv-x="360" 
d="M80 700h200v-700h-200v700z" />
    <glyph glyph-name="J" unicode="J" horiz-adv-x="658" 
d="M15 186l179 78q24 -70 44.5 -93t71.5 -26q40 0 61.5 24.5t21.5 70.5v460h200v-419q0 -139 -73.5 -215t-210.5 -76q-122 0 -187 52q-67 53 -107 144z" />
    <glyph glyph-name="K" unicode="K" horiz-adv-x="752" 
d="M757 0h-259l-228 329v-329h-200v700h200v-301l246 301h234l-300 -333z" />
    <glyph glyph-name="L" unicode="L" horiz-adv-x="625" 
d="M270 156h340v-156h-540v700h200v-544z" />
    <glyph glyph-name="M" unicode="M" horiz-adv-x="996" 
d="M645 700h281v-700h-208v506l-214 -427h-34l-214 429v-508h-186v700h290l143 -293z" />
    <glyph glyph-name="N" unicode="N" horiz-adv-x="868" 
d="M626 700h172v-700h-266l-290 506v-506h-172v700h269l287 -491v491z" />
    <glyph glyph-name="O" unicode="O" horiz-adv-x="830" 
d="M800 349q3 -157 -108 -259t-277 -100q-166 -2 -277 100t-108 259q-3 158 108 260.5t277 100.5q166 2 277 -100.5t108 -260.5zM590 350q0 95 -48 150t-127 55t-127 -55t-48 -150t48 -150t127 -55t127 55t48 150z" />
    <glyph glyph-name="P" unicode="P" horiz-adv-x="696" 
d="M686 472q0 -100 -77.5 -162t-202.5 -62h-136v-248h-200v700h336q125 0 202.5 -63t77.5 -165zM476 472q0 35 -25 56.5t-66 21.5h-115v-164h115q41 0 66 23.5t25 62.5z" />
    <glyph glyph-name="Q" unicode="Q" horiz-adv-x="845" 
d="M598 33h257l-30 -151l-472 109q-154 36 -238.5 129t-84.5 229q-3 158 108 260.5t277 100.5q172 0 278 -100t106 -261q0 -104 -53.5 -187t-147.5 -129zM415 145q79 0 126.5 55t47.5 150t-47.5 150t-126.5 55t-127 -55t-48 -150t48 -150t127 -55z" />
    <glyph glyph-name="R" unicode="R" horiz-adv-x="724" 
d="M714 0h-241l-145 248h-58v-248h-200v700h336q125 0 202.5 -63t77.5 -165q0 -80 -51 -137t-139 -77zM270 550v-164h115q41 0 66 23.5t25 62.5q0 35 -25 56.5t-66 21.5h-115z" />
    <glyph glyph-name="S" unicode="S" horiz-adv-x="674" 
d="M30 191l184 38q12 -47 52.5 -73.5t93.5 -26.5q49 0 73.5 16.5t24.5 44.5q0 22 -20 39q-17 15 -43 24t-87 25q-72 18 -132 40q-127 52 -127 174q0 99 75.5 158.5t202.5 59.5q111 0 190.5 -48.5t107.5 -133.5l-179 -30q-12 37 -44.5 59.5t-73.5 22.5q-40 0 -63.5 -17
t-23.5 -45q4 -33 32 -47.5t108 -33.5t133 -42q58 -23 94 -70t36 -118q0 -97 -78.5 -157t-204.5 -60t-214 53.5t-117 147.5z" />
    <glyph glyph-name="T" unicode="T" horiz-adv-x="680" 
d="M660 700v-155h-220v-545h-200v545h-220v155h640z" />
    <glyph glyph-name="U" unicode="U" horiz-adv-x="779" 
d="M517 700h202v-430q0 -123 -93.5 -201.5t-235.5 -78.5q-143 0 -236.5 78t-93.5 202v430h200v-428q0 -56 36 -90.5t94 -34.5q57 0 92 34.5t35 90.5v428z" />
    <glyph glyph-name="V" unicode="V" horiz-adv-x="751" 
d="M551 700h190l-267 -700h-198l-266 700h219l161 -481z" />
    <glyph glyph-name="W" unicode="W" horiz-adv-x="1153" 
d="M952 700h186l-198 -700h-231l-139 458l-129 -458h-230l-196 700h207l118 -495l147 495h192l154 -513z" />
    <glyph glyph-name="X" unicode="X" horiz-adv-x="769" 
d="M754 0h-257l-125 211l-130 -211h-205l229 340l-251 360h257l134 -232l132 232h205l-242 -354z" />
    <glyph glyph-name="Y" unicode="Y" horiz-adv-x="689" 
d="M501 700h193l-247 -443v-257h-200v254l-252 446h220l143 -272z" />
    <glyph glyph-name="Z" unicode="Z" horiz-adv-x="689" 
d="M298 154h357v-154h-621v120l354 426h-339v154h596v-120z" />
    <glyph glyph-name="bracketleft" unicode="[" horiz-adv-x="406" 
d="M366 570h-121v-567h121v-129h-301v826h301v-130z" />
    <glyph glyph-name="backslash" unicode="\" horiz-adv-x="441" 
d="M461 -126h-156l-139 404l-166 422h157l138 -403z" />
    <glyph glyph-name="bracketright" unicode="]" horiz-adv-x="406" 
d="M40 570v130h301v-826h-301v129h121v567h-121z" />
    <glyph glyph-name="asciicircum" unicode="^" horiz-adv-x="495" 
d="M475 384h-133l-96 205l-95 -205h-131l167 316h120z" />
    <glyph glyph-name="underscore" unicode="_" horiz-adv-x="502" 
d="M10 -47h482v-112h-482v112z" />
    <glyph glyph-name="grave" unicode="`" horiz-adv-x="500" 
d="M404 557h-149l-159 143h247z" />
    <glyph glyph-name="a" unicode="a" horiz-adv-x="547" 
d="M498 321v-321h-168v72q-32 -81 -141 -81q-79 0 -124 37.5t-45 102.5q0 58 34 92q31 31 73 47t116 30q51 10 69 17.5t18 19.5v1q0 22 -17 35.5t-45 13.5q-62 0 -81 -61l-157 49q31 63 95 98.5t148 35.5q101 0 163 -51t62 -137zM330 186v39q-34 -7 -42 -8
q-41 -8 -56.5 -12.5t-28.5 -17.5t-15 -37q0 -19 14 -30.5t36 -11.5q34 0 62 22q30 22 30 56z" />
    <glyph glyph-name="b" unicode="b" horiz-adv-x="640" 
d="M615 250q0 -117 -63.5 -188t-169.5 -71q-110 0 -153 87v-78h-175v700h175v-278q43 88 153 88q106 0 169.5 -71.5t63.5 -188.5zM439 250q0 58 -29.5 93.5t-78.5 35.5t-78.5 -35.5t-29.5 -93.5t29.5 -93.5t78.5 -35.5t78.5 35.5t29.5 93.5z" />
    <glyph glyph-name="c" unicode="c" horiz-adv-x="606" 
d="M25 250q0 118 77 189t207 71q107 0 179 -50.5t95 -140.5l-171 -32q-17 92 -101 92q-51 0 -80 -33.5t-29 -95.5t29 -95.5t80 -33.5q84 0 101 92l171 -32q-23 -90 -95 -140.5t-179 -50.5q-130 0 -207 71t-77 189z" />
    <glyph glyph-name="d" unicode="d" horiz-adv-x="640" 
d="M411 700h175v-700h-175v78q-43 -87 -153 -87q-106 0 -169.5 71t-63.5 188t63.5 188.5t169.5 71.5q110 0 153 -88v278zM417 250q0 58 -29.5 93.5t-78.5 35.5t-78.5 -35.5t-29.5 -93.5t29.5 -93.5t78.5 -35.5t78.5 35.5t29.5 93.5z" />
    <glyph glyph-name="e" unicode="e" horiz-adv-x="574" 
d="M548 212h-345q12 -101 96 -101q71 0 81 61l164 -37q-32 -70 -95 -107.5t-150 -37.5q-125 0 -199.5 70t-74.5 188q0 115 73.5 188.5t190.5 73.5q116 0 188 -69.5t72 -180.5q0 -37 -1 -48zM205 308h170q-6 85 -80 85t-90 -85z" />
    <glyph glyph-name="f" unicode="f" horiz-adv-x="387" 
d="M260 522v-22h127v-120h-127v-380h-175v380h-71v120h71v24q0 86 63.5 136t172.5 50q48 0 88 -8v-121q-26 14 -66 14q-37 0 -60 -18t-23 -55z" />
    <glyph glyph-name="g" unicode="g" horiz-adv-x="628" 
d="M401 500h175v-511q0 -94 -75.5 -151.5t-197.5 -57.5q-101 0 -177 40q-74 39 -100 107l168 50q8 -35 36.5 -54t70.5 -19q45 0 72.5 22t27.5 57v109q-43 -81 -150 -81q-103 0 -164.5 68.5t-61.5 180.5q0 113 61.5 181.5t164.5 68.5q107 0 150 -82v72zM408 260
q0 57 -27.5 90.5t-76.5 33.5q-48 0 -75 -33t-27 -91t27 -91t75 -33q49 0 76.5 33.5t27.5 90.5z" />
    <glyph glyph-name="h" unicode="h" 
d="M551 317v-317h-175v295q0 35 -19.5 55t-52.5 20q-34 0 -55.5 -23t-21.5 -64v-283h-175v700h175v-280q37 90 149 90q86 0 130.5 -50t44.5 -143z" />
    <glyph glyph-name="i" unicode="i" horiz-adv-x="289" 
d="M42 651q0 42 30 70.5t73 28.5t73 -28.5t30 -70.5t-30 -70t-73 -28t-73 28t-30 70zM57 0v500h175v-500h-175z" />
    <glyph glyph-name="j" unicode="j" horiz-adv-x="288" 
d="M41 651q0 42 30 70.5t73 28.5t73 -28.5t30 -70.5t-30 -70t-73 -28t-73 28t-30 70zM232 500v-544q0 -80 -59.5 -128t-163.5 -48q-41 0 -81 8v121q26 -14 56 -14q73 0 73 63v542h175z" />
    <glyph glyph-name="k" unicode="k" horiz-adv-x="592" 
d="M600 0h-220l-151 238v-238h-175v700h175v-399l159 199h202l-199 -219z" />
    <glyph glyph-name="l" unicode="l" horiz-adv-x="283" 
d="M54 0v700h175v-700h-175z" />
    <glyph glyph-name="m" unicode="m" horiz-adv-x="924" 
d="M875 317v-317h-175v295q0 35 -19.5 55t-52.5 20q-34 0 -55.5 -23t-21.5 -64v-283h-175v295q0 35 -19.5 55t-52.5 20q-34 0 -55.5 -23t-21.5 -64v-283h-175v500h175v-80q37 90 149 90q121 0 160 -99q44 99 164 99q86 0 130.5 -50t44.5 -143z" />
    <glyph glyph-name="n" unicode="n" 
d="M551 317v-317h-175v295q0 35 -19.5 55t-52.5 20q-34 0 -55.5 -23t-21.5 -64v-283h-175v500h175v-80q37 90 149 90q86 0 130.5 -50t44.5 -143z" />
    <glyph glyph-name="o" unicode="o" horiz-adv-x="622" 
d="M597 250q0 -117 -78.5 -188t-207.5 -71t-207.5 71t-78.5 188q0 118 78.5 189t207.5 71t207.5 -71t78.5 -189zM420 250q0 62 -29 96t-80 34t-80 -34t-29 -96t29 -95.5t80 -33.5t80 33.5t29 95.5z" />
    <glyph glyph-name="p" unicode="p" horiz-adv-x="640" 
d="M615 250q0 -117 -63.5 -188.5t-169.5 -71.5q-111 0 -155 92v-292h-175v710h175v-83q44 92 155 92q106 0 169.5 -71t63.5 -188zM439 250q0 58 -29.5 93.5t-78.5 35.5t-78.5 -35.5t-29.5 -93.5t29.5 -93.5t78.5 -35.5t78.5 35.5t29.5 93.5z" />
    <glyph glyph-name="q" unicode="q" horiz-adv-x="640" 
d="M413 500h175v-710h-175v292q-44 -92 -155 -92q-106 0 -169.5 71.5t-63.5 188.5t63.5 188t169.5 71q111 0 155 -92v83zM417 250q0 58 -29.5 93.5t-78.5 35.5t-78.5 -35.5t-29.5 -93.5t29.5 -93.5t78.5 -35.5t78.5 35.5t29.5 93.5z" />
    <glyph glyph-name="r" unicode="r" horiz-adv-x="436" 
d="M419 502v-172q-30 5 -57 5q-64 0 -92 -28q-27 -26 -35 -64t-8 -114v-129h-175v500h175v-133q32 140 143 140q27 0 49 -5z" />
    <glyph glyph-name="s" unicode="s" horiz-adv-x="491" 
d="M15 130l160 36q8 -30 31.5 -47.5t55.5 -17.5q52 0 52 34q0 21 -22.5 32.5t-79.5 25.5q-56 13 -96 29q-93 38 -93 128q0 71 60 115t152 44q160 0 223 -111l-150 -38q-9 20 -27.5 32.5t-40.5 12.5q-21 0 -33.5 -9.5t-12.5 -24.5q0 -17 18.5 -26t71.5 -23q58 -14 96 -30
q96 -37 96 -138q0 -72 -63.5 -117.5t-157.5 -45.5q-91 0 -154.5 36.5t-85.5 102.5z" />
    <glyph glyph-name="t" unicode="t" horiz-adv-x="425" 
d="M395 380h-140v-197q0 -63 76 -63q30 0 56 14v-136q-40 -8 -81 -8q-101 0 -163 46q-63 47 -63 130v214h-81v120h81v160h175v-160h140v-120z" />
    <glyph glyph-name="u" unicode="u" 
d="M373 500h175v-500h-175v80q-37 -90 -149 -90q-86 0 -130.5 50t-44.5 143v317h175v-295q0 -35 19.5 -55t52.5 -20q34 0 55.5 23t21.5 64v283z" />
    <glyph glyph-name="v" unicode="v" horiz-adv-x="569" 
d="M386 500h175l-182 -500h-188l-183 500h193l93 -328z" />
    <glyph glyph-name="w" unicode="w" horiz-adv-x="857" 
d="M682 500h172l-148 -500h-203l-78 260l-70 -260h-203l-149 500h194l75 -364l91 364h155l91 -362z" />
    <glyph glyph-name="x" unicode="x" horiz-adv-x="558" 
d="M545 0h-203l-76 136l-83 -136h-170l168 254l-168 247h203l71 -128l78 128h170l-168 -254z" />
    <glyph glyph-name="y" unicode="y" horiz-adv-x="569" 
d="M385 500h176l-292 -710h-201l138 246l-198 464h194l94 -264z" />
    <glyph glyph-name="z" unicode="z" horiz-adv-x="511" 
d="M249 123h240v-123h-460v100l243 277h-230v123h432v-100z" />
    <glyph glyph-name="braceleft" unicode="{" horiz-adv-x="423" 
d="M300 531q0 -12 1 -15l12 -82q0 -3 0.5 -7t1 -6.5t0.5 -5v-3.5q0 -93 -118 -126q118 -34 118 -127q0 -1 -2 -23l-12 -78q-1 -3 -1 -16q0 -49 55 -49h38v-119h-68q-87 0 -143 42t-56 110q0 15 2 27l14 83q0 4 0.5 9t1 8t0.5 4q0 68 -76 68h-38v120h38q76 0 76 68
q0 1 -0.5 4t-1 8t-0.5 9l-14 87q-2 24 -2 26q0 68 56 110.5t143 42.5h68v-120h-38q-55 0 -55 -49z" />
    <glyph glyph-name="bar" unicode="|" horiz-adv-x="273" 
d="M70 700h133v-826h-133v826z" />
    <glyph glyph-name="braceright" unicode="}" horiz-adv-x="423" 
d="M355 345h38v-120h-38q-76 0 -76 -68q0 -1 0.5 -4t1 -8t0.5 -9l14 -83q2 -12 2 -27q0 -68 -56 -110t-143 -42h-68v119h38q55 0 55 49q0 13 -1 16l-12 78q-2 22 -2 23q0 93 118 127q-118 33 -118 126v3.5t0.5 5t1 6.5t0.5 7l12 82q1 3 1 15q0 49 -55 49h-38v120h68
q87 0 143 -42.5t56 -110.5q0 -2 -2 -26l-14 -87q0 -4 -0.5 -9t-1 -8t-0.5 -4q0 -68 76 -68z" />
    <glyph glyph-name="asciitilde" unicode="~" horiz-adv-x="482" 
d="M107 242l-72 24q7 66 39.5 103.5t89.5 37.5q37 0 89 -23q48 -20 73 -20t35.5 10.5t13.5 33.5l72 -24q-6 -67 -38 -104t-88 -37q-37 0 -91 23q-49 20 -74 20q-24 0 -33.5 -10t-15.5 -34z" />
    <glyph glyph-name="exclamdown" unicode="&#xa1;" horiz-adv-x="348" 
d="M73 404q0 42 30 70.5t73 28.5t73 -28.5t30 -70.5t-30 -70t-73 -28t-73 28t-30 70zM60 -204l44 443h139l45 -443h-228z" />
    <glyph glyph-name="cent" unicode="&#xa2;" horiz-adv-x="606" 
d="M412 213l171 -32q-21 -81 -83.5 -131t-155.5 -59v-96h-76v97q-113 11 -178 80q-65 71 -65 178t65 177q64 70 178 81v97h76v-96q93 -9 155.5 -59t83.5 -131l-171 -32q-12 71 -68 88v-250q56 17 68 88zM268 128v244q-66 -25 -66 -122t66 -122z" />
    <glyph glyph-name="sterling" unicode="&#xa3;" horiz-adv-x="633" 
d="M211 124l392 27v-151h-573v111q81 86 99 135h-109v120h88l-17 28q-27 51 -27 108q0 96 69 152q70 56 181 56q195 0 289 -173l-175 -60q-33 81 -102 81q-39 0 -59.5 -19.5t-20.5 -53.5q0 -31 34 -92l15 -27h191v-120h-173q-8 -25 -28.5 -49t-73.5 -73z" />
    <glyph glyph-name="currency" unicode="&#xa4;" horiz-adv-x="574" 
d="M452 201l78 -78l-68 -68l-81 81q-45 -21 -94 -21t-94 21l-81 -81l-68 68l77 77q-29 44 -29 100q0 54 28 97l-76 76l68 68l80 -80q43 22 97 22q49 0 94 -21l79 79l68 -68l-76 -76q27 -43 27 -97q0 -55 -29 -99zM362 300q0 35 -20.5 57.5t-54.5 22.5q-35 -1 -55 -23
t-20 -57q0 -36 21 -58.5t56 -22.5q33 0 53 22.5t20 58.5z" />
    <glyph glyph-name="yen" unicode="&#xa5;" horiz-adv-x="669" 
d="M674 700l-211 -367h113v-75h-139v-55h139v-75h-139v-128h-200v128h-144v75h144v55h-144v75h115l-213 367h220l133 -243l133 243h193z" />
    <glyph glyph-name="brokenbar" unicode="&#xa6;" horiz-adv-x="273" 
d="M70 350v350h133v-350h-133zM203 230v-356h-133v356h133z" />
    <glyph glyph-name="section" unicode="&#xa7;" horiz-adv-x="553" 
d="M412 204q86 -51 86 -136q0 -74 -59 -119t-156 -45q-88 0 -151.5 36.5t-84.5 102.5l152 26q6 -29 29.5 -47t56.5 -18q28 0 44.5 11.5t16.5 31.5t-24 33t-86 33q-70 23 -107 40q-46 20 -75 56t-29 85q0 93 116 116q-86 51 -86 136q0 74 59 119q58 45 156 45
q88 0 151.5 -36.5t84.5 -102.5l-152 -26q-6 29 -29.5 47t-56.5 18q-28 0 -44.5 -11.5t-16.5 -31.5t24 -33t86 -33q70 -23 107 -40q46 -20 75 -56t29 -85q0 -93 -116 -116zM289 257l30 -11q48 11 48 45q0 20 -22.5 33.5t-80.5 32.5l-30 11q-48 -11 -48 -45q0 -20 22.5 -33.5
t80.5 -32.5z" />
    <glyph glyph-name="dieresis" unicode="&#xa8;" horiz-adv-x="500" 
d="M42 652q0 41 27.5 68t66.5 27t66.5 -27t27.5 -68t-27 -67.5t-67 -26.5t-67 26.5t-27 67.5zM268 652q0 41 27.5 68t66.5 27t66.5 -27t27.5 -68t-27 -67.5t-67 -26.5t-67 26.5t-27 67.5z" />
    <glyph glyph-name="copyright" unicode="&#xa9;" horiz-adv-x="798" 
d="M40 352q-2 151 102.5 256t257.5 102q152 2 256.5 -102t101.5 -254q2 -153 -102.5 -257.5t-257.5 -102.5q-152 -3 -256.5 102t-101.5 256zM699 354q2 127 -85.5 215.5t-213.5 87.5q-126 2 -214 -88t-86 -217q-2 -129 85 -218t213 -87q128 -2 215.5 88t85.5 219zM196 352
q0 88 56.5 140.5t151.5 52.5q80 0 133.5 -38t69.5 -104l-128 -27q-11 72 -75 72q-37 0 -57 -25t-20 -71t20 -71t57 -25q64 0 75 72l128 -27q-16 -66 -69.5 -104t-133.5 -38q-94 0 -152 53q-56 53 -56 140z" />
    <glyph glyph-name="ordfeminine" unicode="&#xaa;" horiz-adv-x="492" 
d="M441 555v-280h-147v62q-27 -70 -121 -70q-68 0 -107 32.5t-39 86.5t29 83q28 28 64 40t101 21q43 7 58 11.5t15 15.5v3q0 23 -14.5 37t-38.5 14q-26 0 -45 -15.5t-26 -43.5l-138 38q23 60 79.5 93.5t134.5 33.5q89 0 142 -44t53 -118zM294 437v22q-5 -1 -14 -3l-9 -1
q-52 -7 -73.5 -17t-21.5 -33q0 -17 12 -26.5t31 -9.5q28 0 51.5 19.5t23.5 48.5zM71 84v120h358v-120h-358z" />
    <glyph glyph-name="guillemotleft" unicode="&#xab;" horiz-adv-x="559" 
d="M250 282l103 173h176l-156 -196l156 -195h-176l-103 172v46zM30 282l103 173h176l-156 -196l156 -195h-176l-103 172v46z" />
    <glyph glyph-name="registered" unicode="&#xae;" horiz-adv-x="530" 
d="M500 480q0 -96 -66.5 -162.5t-162.5 -66.5t-163.5 66t-67.5 162q0 95 68 163t163 68q96 0 162.5 -67.5t66.5 -162.5zM454 480q0 83 -51.5 135t-131.5 52q-81 0 -132 -52.5t-51 -135.5q0 -80 52.5 -132.5t130.5 -52.5t130.5 52.5t52.5 133.5zM326 460l59 -80h-73l-40 75
h-27v-75h-60v211h105q38 0 61.5 -18.5t23.5 -49.5q0 -46 -49 -63zM245 546v-50h41q29 0 29 27q0 23 -29 23h-41z" />
    <glyph glyph-name="overscore" unicode="&#xaf;" horiz-adv-x="500" 
d="M99 701h303v-108h-303v108z" />
    <glyph glyph-name="degree" unicode="&#xb0;" horiz-adv-x="454" 
d="M50 560q0 71 51.5 119t127.5 48q75 0 125 -48t50 -119t-50 -119t-126 -48t-127 48t-51 119zM296 560q0 32 -18.5 52.5t-49.5 20.5q-32 -1 -50.5 -20.5t-18.5 -52.5t19 -53t51 -20q30 0 48.5 20t18.5 53z" />
    <glyph glyph-name="plusminus" unicode="&#xb1;" horiz-adv-x="559" 
d="M210 318h-175v120h175v131h139v-131h175v-120h-175v-131h-139v131zM35 0v120h489v-120h-489z" />
    <glyph glyph-name="uni00B2" unicode="&#xb2;" horiz-adv-x="355" 
d="M166 468l176 21v-103h-322v83l116 81q74 53 74 88q0 15 -10 24.5t-25 9.5q-20 0 -31.5 -12t-10.5 -33l-123 23q8 55 53 86.5t113 31.5q70 0 114.5 -35t44.5 -95q-1 -43 -26.5 -77.5t-110.5 -76.5z" />
    <glyph glyph-name="uni00B3" unicode="&#xb3;" horiz-adv-x="367" 
d="M347 492q0 -52 -42 -81t-110 -29q-71 0 -116.5 31t-56.5 83l122 21q4 -42 48 -42q39 0 39 31q0 33 -52 33h-22v72h25q42 0 42 33q0 15 -10.5 23t-26.5 8q-36 0 -41 -39l-123 21q11 51 55.5 81t111.5 30t109 -30t42 -81q0 -65 -77 -80q83 -18 83 -85z" />
    <glyph glyph-name="acute" unicode="&#xb4;" horiz-adv-x="500" 
d="M96 557l61 143h247l-159 -143h-149z" />
    <glyph glyph-name="paragraph" unicode="&#xb6;" horiz-adv-x="660" 
d="M276 299h-33q-96 0 -154.5 54t-58.5 143q0 92 58.5 148.5t154.5 56.5h347v-701h-116v596h-82v-596h-116v299z" />
    <glyph glyph-name="middot" unicode="&#xb7;" horiz-adv-x="294" 
d="M252 322q0 -42 -30 -70.5t-73 -28.5t-73 28.5t-30 70.5t30 70t73 28t73 -28t30 -70z" />
    <glyph glyph-name="cedilla" unicode="&#xb8;" horiz-adv-x="516" 
d="M383 -133q0 -48 -34.5 -76.5t-94.5 -28.5q-45 0 -79.5 16.5t-41.5 31.5l61 56q29 -29 55 -29q17 0 27.5 9t10.5 24q0 16 -11 26t-30 10q-13 0 -30 -7l-29 19l25 82h99l-38 -43q3 1 12 1q43 0 70.5 -24t27.5 -67z" />
    <glyph glyph-name="uni00B9" unicode="&#xb9;" horiz-adv-x="298" 
d="M151 760h97v-374h-122v284l-76 -61l-40 92z" />
    <glyph glyph-name="ordmasculine" unicode="&#xba;" horiz-adv-x="541" 
d="M31 492q0 102 64.5 163.5t174.5 61.5t175 -61.5t65 -163.5t-65 -163.5t-175 -61.5t-174.5 61.5t-64.5 163.5zM358 492q0 54 -23 84t-65 30t-64.5 -30t-22.5 -84q0 -55 22.5 -84.5t64.5 -29.5q43 0 65.5 29.5t22.5 84.5zM92 84v120h358v-120h-358z" />
    <glyph glyph-name="guillemotright" unicode="&#xbb;" horiz-adv-x="559" 
d="M309 282v-46l-103 -172h-176l156 195l-156 196h176zM529 282v-46l-103 -172h-176l156 195l-156 196h176z" />
    <glyph glyph-name="onequarter" unicode="&#xbc;" horiz-adv-x="768" 
d="M151 700h97v-374h-122v284l-76 -61l-40 92zM563 700h120l-241 -349l-227 -351h-122l256 357zM743 152v-79h-38v-73h-115v73h-177v64l150 237h142v-222h38zM507 152h83l12 150z" />
    <glyph glyph-name="onehalf" unicode="&#xbd;" horiz-adv-x="803" 
d="M151 700h97v-374h-122v284l-76 -61l-40 92zM563 700h120l-241 -349l-227 -351h-122l256 357zM614 82l176 21v-103h-322v83l116 81q74 53 74 88q0 15 -10 24.5t-25 9.5q-20 0 -31.5 -12t-10.5 -33l-123 23q8 55 53 86.5t113 31.5q70 0 114.5 -35t44.5 -95
q-1 -43 -26.5 -77.5t-110.5 -76.5z" />
    <glyph glyph-name="threequarters" unicode="&#xbe;" horiz-adv-x="807" 
d="M347 432q0 -52 -42 -81t-110 -29q-71 0 -116.5 31t-56.5 83l122 21q4 -42 48 -42q39 0 39 31q0 33 -52 33h-22v72h25q42 0 42 33q0 15 -10.5 23t-26.5 8q-36 0 -41 -39l-123 21q11 51 55.5 81t111.5 30t109 -30t42 -81q0 -65 -77 -80q83 -18 83 -85zM602 700h120
l-241 -349l-227 -351h-122l256 357zM782 152v-79h-38v-73h-115v73h-177v64l150 237h142v-222h38zM546 152h83l12 150z" />
    <glyph glyph-name="questiondown" unicode="&#xbf;" horiz-adv-x="559" 
d="M180 417q0 42 30 70.5t73 28.5t73 -28.5t30 -70.5t-30 -70t-73 -28t-73 28t-30 70zM378 252v-10q-2 -50 -25 -77t-75 -58q-44 -27 -60.5 -45.5t-16.5 -45.5q0 -29 20 -47t53 -18q35 0 64 24t36 63l175 -56q-25 -83 -102 -133t-177 -50q-109 0 -174.5 58.5t-65.5 151.5
q3 70 32 105t89 67q32 17 44.5 28.5t12.5 26.5v16h170z" />
    <glyph glyph-name="Agrave" unicode="&#xc0;" horiz-adv-x="805" 
d="M577 0l-49 138h-271l-50 -138h-192l282 700h213l280 -700h-213zM306 277h172l-85 241zM481 757h-149l-159 143h247z" />
    <glyph glyph-name="Aacute" unicode="&#xc1;" horiz-adv-x="805" 
d="M577 0l-49 138h-271l-50 -138h-192l282 700h213l280 -700h-213zM306 277h172l-85 241zM330 757l61 143h247l-159 -143h-149z" />
    <glyph glyph-name="Acircumflex" unicode="&#xc2;" horiz-adv-x="805" 
d="M577 0l-49 138h-271l-50 -138h-192l282 700h213l280 -700h-213zM306 277h172l-85 241zM212 757l127 143h125l131 -143h-130l-60 45l-60 -45h-133z" />
    <glyph glyph-name="Atilde" unicode="&#xc3;" horiz-adv-x="805" 
d="M577 0l-49 138h-271l-50 -138h-192l282 700h213l280 -700h-213zM306 277h172l-85 241zM393 778q-35 19 -48 19q-28 0 -45 -42l-75 20q5 68 35.5 106t76.5 38q32 0 73 -26q37 -20 52 -20t24 9t21 33l75 -20q-5 -66 -36.5 -104.5t-79.5 -38.5q-29 0 -73 26z" />
    <glyph glyph-name="Adieresis" unicode="&#xc4;" horiz-adv-x="805" 
d="M577 0l-49 138h-271l-50 -138h-192l282 700h213l280 -700h-213zM306 277h172l-85 241zM195 852q0 41 27.5 68t66.5 27t66.5 -27t27.5 -68t-27 -67.5t-67 -26.5t-67 26.5t-27 67.5zM421 852q0 41 27.5 68t66.5 27t66.5 -27t27.5 -68t-27 -67.5t-67 -26.5t-67 26.5
t-27 67.5z" />
    <glyph glyph-name="Aring" unicode="&#xc5;" horiz-adv-x="805" 
d="M577 0l-49 138h-271l-50 -138h-192l282 700h213l280 -700h-213zM306 277h172l-85 241zM284 839q0 48 34 79.5t85 31.5t85 -31.5t34 -79.5t-34 -79.5t-85 -31.5t-85 31.5t-34 79.5zM452 839q0 22 -13.5 35t-35.5 13t-35.5 -13t-13.5 -35t13.5 -35.5t35.5 -13.5t35.5 13.5
t13.5 35.5z" />
    <glyph glyph-name="AE" unicode="&#xc6;" horiz-adv-x="1119" 
d="M1069 545h-342v-111h297v-143h-297v-136h342v-155h-537v138h-239l-81 -138h-197l422 700h632v-155zM374 277h158v269z" />
    <glyph glyph-name="Ccedilla" unicode="&#xc7;" horiz-adv-x="806" 
d="M577 289l204 -36q-28 -113 -117 -184q-89 -69 -215 -78l-30 -34q3 1 12 1q43 0 70.5 -24t27.5 -67q0 -48 -34.5 -76.5t-94.5 -28.5q-45 0 -79.5 16.5t-41.5 31.5l61 56q29 -29 55 -29q17 0 27.5 9t10.5 24q0 16 -11 26t-30 10q-13 0 -30 -7l-29 19l23 76
q-145 17 -235.5 114t-90.5 241q-3 158 108 260.5t277 100.5q139 0 237.5 -71t128.5 -192l-204 -36q-13 73 -52 108.5t-110 35.5q-79 0 -127 -55t-48 -150t48 -150t127 -55q71 0 110 35.5t52 108.5z" />
    <glyph glyph-name="Egrave" unicode="&#xc8;" horiz-adv-x="657" 
d="M607 545h-342v-111h297v-143h-297v-136h342v-155h-537v700h537v-155zM427 757h-149l-159 143h247z" />
    <glyph glyph-name="Eacute" unicode="&#xc9;" horiz-adv-x="657" 
d="M607 545h-342v-111h297v-143h-297v-136h342v-155h-537v700h537v-155zM276 757l61 143h247l-159 -143h-149z" />
    <glyph glyph-name="Ecircumflex" unicode="&#xca;" horiz-adv-x="657" 
d="M607 545h-342v-111h297v-143h-297v-136h342v-155h-537v700h537v-155zM158 757l127 143h125l131 -143h-130l-60 45l-60 -45h-133z" />
    <glyph glyph-name="Edieresis" unicode="&#xcb;" horiz-adv-x="657" 
d="M141 852q0 41 27.5 68t66.5 27t66.5 -27t27.5 -68t-27 -67.5t-67 -26.5t-67 26.5t-27 67.5zM367 852q0 41 27.5 68t66.5 27t66.5 -27t27.5 -68t-27 -67.5t-67 -26.5t-67 26.5t-27 67.5zM607 545h-342v-111h297v-143h-297v-136h342v-155h-537v700h537v-155z" />
    <glyph glyph-name="Igrave" unicode="&#xcc;" horiz-adv-x="360" 
d="M80 700h200v-700h-200v700zM258 757h-149l-159 143h247z" />
    <glyph glyph-name="Iacute" unicode="&#xcd;" horiz-adv-x="360" 
d="M80 700h200v-700h-200v700zM107 757l61 143h247l-159 -143h-149z" />
    <glyph glyph-name="Icircumflex" unicode="&#xce;" horiz-adv-x="360" 
d="M80 700h200v-700h-200v700zM-11 757l127 143h125l131 -143h-130l-60 45l-60 -45h-133z" />
    <glyph glyph-name="Idieresis" unicode="&#xcf;" horiz-adv-x="360" 
d="M-28 852q0 41 27.5 68t66.5 27t66.5 -27t27.5 -68t-27 -67.5t-67 -26.5t-67 26.5t-27 67.5zM198 852q0 41 27.5 68t66.5 27t66.5 -27t27.5 -68t-27 -67.5t-67 -26.5t-67 26.5t-27 67.5zM80 700h200v-700h-200v700z" />
    <glyph glyph-name="Eth" unicode="&#xd0;" horiz-adv-x="820" 
d="M790 350q3 -150 -114.5 -251t-281.5 -99h-307v281h-57v135h57v284h307q164 2 281.5 -99t114.5 -251zM580 350q0 91 -50 147t-132 56h-111v-137h146v-135h-146v-134h111q83 0 132 55q50 56 50 148z" />
    <glyph glyph-name="Ntilde" unicode="&#xd1;" horiz-adv-x="868" 
d="M626 700h172v-700h-266l-290 506v-506h-172v700h269l287 -491v491zM424 778q-35 19 -48 19q-28 0 -45 -42l-75 20q5 68 35.5 106t76.5 38q32 0 73 -26q37 -20 52 -20t24 9t21 33l75 -20q-5 -66 -37 -104.5t-79 -38.5q-29 0 -73 26z" />
    <glyph glyph-name="Ograve" unicode="&#xd2;" horiz-adv-x="830" 
d="M800 349q3 -157 -108 -259t-277 -100q-166 -2 -277 100t-108 259q-3 158 108 260.5t277 100.5q166 2 277 -100.5t108 -260.5zM590 350q0 95 -48 150t-127 55t-127 -55t-48 -150t48 -150t127 -55t127 55t48 150zM493 757h-149l-159 143h247z" />
    <glyph glyph-name="Oacute" unicode="&#xd3;" horiz-adv-x="830" 
d="M800 349q3 -157 -108 -259t-277 -100q-166 -2 -277 100t-108 259q-3 158 108 260.5t277 100.5q166 2 277 -100.5t108 -260.5zM590 350q0 95 -48 150t-127 55t-127 -55t-48 -150t48 -150t127 -55t127 55t48 150zM342 757l61 143h247l-159 -143h-149z" />
    <glyph glyph-name="Ocircumflex" unicode="&#xd4;" horiz-adv-x="830" 
d="M800 349q3 -157 -108 -259t-277 -100q-166 -2 -277 100t-108 259q-3 158 108 260.5t277 100.5q166 2 277 -100.5t108 -260.5zM590 350q0 95 -48 150t-127 55t-127 -55t-48 -150t48 -150t127 -55t127 55t48 150zM224 757l127 143h125l131 -143h-130l-60 45l-60 -45h-133z
" />
    <glyph glyph-name="Otilde" unicode="&#xd5;" horiz-adv-x="830" 
d="M800 349q3 -157 -108 -259t-277 -100q-166 -2 -277 100t-108 259q-3 158 108 260.5t277 100.5q166 2 277 -100.5t108 -260.5zM590 350q0 95 -48 150t-127 55t-127 -55t-48 -150t48 -150t127 -55t127 55t48 150zM405 778q-35 19 -48 19q-28 0 -45 -42l-75 20
q5 68 35.5 106t76.5 38q32 0 73 -26q37 -20 52 -20t24 9t21 33l75 -20q-5 -66 -36.5 -104.5t-79.5 -38.5q-29 0 -73 26z" />
    <glyph glyph-name="Odieresis" unicode="&#xd6;" horiz-adv-x="830" 
d="M207 852q0 41 27.5 68t66.5 27t66.5 -27t27.5 -68t-27 -67.5t-67 -26.5t-67 26.5t-27 67.5zM433 852q0 41 27.5 68t66.5 27t66.5 -27t27.5 -68t-27 -67.5t-67 -26.5t-67 26.5t-27 67.5zM800 349q3 -157 -108 -259t-277 -100q-166 -2 -277 100t-108 259q-3 158 108 260.5
t277 100.5q166 2 277 -100.5t108 -260.5zM590 350q0 95 -48 150t-127 55t-127 -55t-48 -150t48 -150t127 -55t127 55t48 150z" />
    <glyph glyph-name="multiply" unicode="&#xd7;" horiz-adv-x="536" 
d="M176 328l-141 141l92 92l141 -141l139 139l92 -92l-139 -139l141 -141l-92 -92l-141 141l-139 -139l-92 92z" />
    <glyph glyph-name="Oslash" unicode="&#xd8;" horiz-adv-x="830" 
d="M800 349q3 -157 -108 -259t-277 -100q-119 0 -211 52l-81 -88l-74 69l74 81q-93 101 -93 245q-3 158 108 260.5t277 100.5q120 0 213 -54l75 82l74 -69l-69 -75q92 -98 92 -245zM257 251l254 277q-41 27 -96 27q-79 0 -127 -55t-48 -150q0 -54 17 -99zM590 350
q0 53 -16 97l-253 -276q41 -26 94 -26q79 0 127 55t48 150z" />
    <glyph glyph-name="Ugrave" unicode="&#xd9;" horiz-adv-x="779" 
d="M517 700h202v-430q0 -123 -93.5 -201.5t-235.5 -78.5q-143 0 -236.5 78t-93.5 202v430h200v-428q0 -56 36 -90.5t94 -34.5q57 0 92 34.5t35 90.5v428zM468 757h-149l-159 143h247z" />
    <glyph glyph-name="Uacute" unicode="&#xda;" horiz-adv-x="779" 
d="M517 700h202v-430q0 -123 -93.5 -201.5t-235.5 -78.5q-143 0 -236.5 78t-93.5 202v430h200v-428q0 -56 36 -90.5t94 -34.5q57 0 92 34.5t35 90.5v428zM317 757l61 143h247l-159 -143h-149z" />
    <glyph glyph-name="Ucircumflex" unicode="&#xdb;" horiz-adv-x="779" 
d="M517 700h202v-430q0 -123 -93.5 -201.5t-235.5 -78.5q-143 0 -236.5 78t-93.5 202v430h200v-428q0 -56 36 -90.5t94 -34.5q57 0 92 34.5t35 90.5v428zM199 757l127 143h125l131 -143h-130l-60 45l-60 -45h-133z" />
    <glyph glyph-name="Udieresis" unicode="&#xdc;" horiz-adv-x="779" 
d="M182 852q0 41 27.5 68t66.5 27t66.5 -27t27.5 -68t-27 -67.5t-67 -26.5t-67 26.5t-27 67.5zM408 852q0 41 27.5 68t66.5 27t66.5 -27t27.5 -68t-27 -67.5t-67 -26.5t-67 26.5t-27 67.5zM517 700h202v-430q0 -123 -93.5 -201.5t-235.5 -78.5q-143 0 -236.5 78t-93.5 202
v430h200v-428q0 -56 36 -90.5t94 -34.5q57 0 92 34.5t35 90.5v428z" />
    <glyph glyph-name="Yacute" unicode="&#xdd;" horiz-adv-x="689" 
d="M501 700h193l-247 -443v-257h-200v254l-252 446h220l143 -272zM288 757l61 143h247l-159 -143h-149z" />
    <glyph glyph-name="Thorn" unicode="&#xde;" horiz-adv-x="696" 
d="M686 358q0 -100 -77.5 -162t-202.5 -62h-136v-134h-200v700h200v-114h136q125 0 202.5 -63t77.5 -165zM476 358q0 36 -25.5 57t-70.5 21h-110v-164h110q45 0 70.5 23.5t25.5 62.5z" />
    <glyph glyph-name="germandbls" unicode="&#xdf;" horiz-adv-x="663" 
d="M54 0v471q0 111 70.5 175t198.5 64q113 0 182.5 -50t69.5 -132q0 -45 -19.5 -74.5t-60.5 -60.5q-35 -28 -35 -42q0 -10 10.5 -17.5t41.5 -20.5q64 -24 96.5 -55.5t34.5 -97.5q0 -82 -61.5 -126t-172.5 -44q-53 0 -133 20l29 145q59 -34 94 -34q31 0 50.5 14t19.5 37
q0 22 -15 35t-56 33q-50 23 -71 44.5t-21 57.5q0 28 12 48t41 46q25 22 35.5 38.5t10.5 36.5q0 30 -23 49.5t-61 19.5q-45 0 -69.5 -28.5t-24.5 -81.5v-470h-173z" />
    <glyph glyph-name="agrave" unicode="&#xe0;" horiz-adv-x="547" 
d="M498 321v-321h-168v72q-32 -81 -141 -81q-79 0 -124 37.5t-45 102.5q0 58 34 92q31 31 73 47t116 30q51 10 69 17.5t18 19.5v1q0 22 -17 35.5t-45 13.5q-62 0 -81 -61l-157 49q31 63 95 98.5t148 35.5q101 0 163 -51t62 -137zM330 186v39q-34 -7 -42 -8
q-41 -8 -56.5 -12.5t-28.5 -17.5t-15 -37q0 -19 14 -30.5t36 -11.5q34 0 62 22q30 22 30 56zM349 557h-149l-159 143h247z" />
    <glyph glyph-name="aacute" unicode="&#xe1;" horiz-adv-x="547" 
d="M498 321v-321h-168v72q-32 -81 -141 -81q-79 0 -124 37.5t-45 102.5q0 58 34 92q31 31 73 47t116 30q51 10 69 17.5t18 19.5v1q0 22 -17 35.5t-45 13.5q-62 0 -81 -61l-157 49q31 63 95 98.5t148 35.5q101 0 163 -51t62 -137zM330 186v39q-34 -7 -42 -8
q-41 -8 -56.5 -12.5t-28.5 -17.5t-15 -37q0 -19 14 -30.5t36 -11.5q34 0 62 22q30 22 30 56zM198 557l61 143h247l-159 -143h-149z" />
    <glyph glyph-name="acircumflex" unicode="&#xe2;" horiz-adv-x="547" 
d="M498 321v-321h-168v72q-32 -81 -141 -81q-79 0 -124 37.5t-45 102.5q0 58 34 92q31 31 73 47t116 30q51 10 69 17.5t18 19.5v1q0 22 -17 35.5t-45 13.5q-62 0 -81 -61l-157 49q31 63 95 98.5t148 35.5q101 0 163 -51t62 -137zM330 186v39q-34 -7 -42 -8
q-41 -8 -56.5 -12.5t-28.5 -17.5t-15 -37q0 -19 14 -30.5t36 -11.5q34 0 62 22q30 22 30 56zM80 557l127 143h125l131 -143h-130l-60 45l-60 -45h-133z" />
    <glyph glyph-name="atilde" unicode="&#xe3;" horiz-adv-x="547" 
d="M498 321v-321h-168v72q-32 -81 -141 -81q-79 0 -124 37.5t-45 102.5q0 58 34 92q31 31 73 47t116 30q51 10 69 17.5t18 19.5v1q0 22 -17 35.5t-45 13.5q-62 0 -81 -61l-157 49q31 63 95 98.5t148 35.5q101 0 163 -51t62 -137zM330 186v39q-34 -7 -42 -8
q-41 -8 -56.5 -12.5t-28.5 -17.5t-15 -37q0 -19 14 -30.5t36 -11.5q34 0 62 22q30 22 30 56zM261 598q-35 19 -48 19q-28 0 -45 -42l-75 20q5 68 35.5 106t76.5 38q32 0 73 -26q37 -20 52 -20t24 9t21 33l75 -20q-5 -66 -36.5 -104.5t-79.5 -38.5q-29 0 -73 26z" />
    <glyph glyph-name="adieresis" unicode="&#xe4;" horiz-adv-x="547" 
d="M63 652q0 41 27.5 68t66.5 27t66.5 -27t27.5 -68t-27 -67.5t-67 -26.5t-67 26.5t-27 67.5zM289 652q0 41 27.5 68t66.5 27t66.5 -27t27.5 -68t-27 -67.5t-67 -26.5t-67 26.5t-27 67.5zM498 321v-321h-168v72q-32 -81 -141 -81q-79 0 -124 37.5t-45 102.5q0 58 34 92
q31 31 73 47t116 30q51 10 69 17.5t18 19.5v1q0 22 -17 35.5t-45 13.5q-62 0 -81 -61l-157 49q31 63 95 98.5t148 35.5q101 0 163 -51t62 -137zM330 186v39q-34 -7 -42 -8q-41 -8 -56.5 -12.5t-28.5 -17.5t-15 -37q0 -19 14 -30.5t36 -11.5q34 0 62 22q30 22 30 56z" />
    <glyph glyph-name="aring" unicode="&#xe5;" horiz-adv-x="547" 
d="M498 321v-321h-168v72q-32 -81 -141 -81q-79 0 -124 37.5t-45 102.5q0 58 34 92q31 31 73 47t116 30q51 10 69 17.5t18 19.5v1q0 22 -17 35.5t-45 13.5q-62 0 -81 -61l-157 49q31 63 95 98.5t148 35.5q101 0 163 -51t62 -137zM330 186v39q-34 -7 -42 -8
q-41 -8 -56.5 -12.5t-28.5 -17.5t-15 -37q0 -19 14 -30.5t36 -11.5q34 0 62 22q30 22 30 56zM152 659q0 48 34 79.5t85 31.5t85 -31.5t34 -79.5t-34 -79.5t-85 -31.5t-85 31.5t-34 79.5zM320 659q0 22 -13.5 35t-35.5 13t-35.5 -13t-13.5 -35t13.5 -35.5t35.5 -13.5
t35.5 13.5t13.5 35.5z" />
    <glyph glyph-name="ae" unicode="&#xe6;" horiz-adv-x="877" 
d="M851 212h-345q12 -101 96 -101q71 0 81 61l164 -37q-32 -70 -95 -107.5t-150 -37.5q-133 0 -206 76q-75 -75 -178 -75q-98 0 -148 36t-50 104q0 58 34 92q31 31 73 47t116 30q51 10 69 17.5t18 19.5v1q0 21 -18 35t-45 14q-28 0 -49.5 -16t-30.5 -45l-157 49
q65 134 233 134q102 0 154 -58q73 59 175 59q116 0 188 -69.5t72 -180.5q0 -37 -1 -48zM508 308h170q-6 85 -80 85t-90 -85zM330 186v25l-1 14q-34 -7 -42 -8q-41 -8 -56.5 -12.5t-28 -17.5t-14.5 -37q0 -19 14.5 -30.5t39.5 -11.5q32 0 60 22t28 56z" />
    <glyph glyph-name="ccedilla" unicode="&#xe7;" horiz-adv-x="606" 
d="M412 213l171 -32q-22 -85 -89 -135.5t-165 -54.5l-29 -34q3 1 12 1q43 0 70.5 -24t27.5 -67q0 -48 -34.5 -76.5t-94.5 -28.5q-45 0 -79.5 16.5t-41.5 31.5l61 56q29 -29 55 -29q17 0 27.5 9t10.5 24q0 16 -11 26t-30 10q-13 0 -30 -7l-29 19l24 78q-100 19 -156.5 86.5
t-56.5 167.5q0 118 77 189t207 71q107 0 179 -50.5t95 -140.5l-171 -32q-17 92 -101 92q-51 0 -80 -33.5t-29 -95.5t29 -95.5t80 -33.5q84 0 101 92z" />
    <glyph glyph-name="egrave" unicode="&#xe8;" horiz-adv-x="574" 
d="M548 212h-345q12 -101 96 -101q71 0 81 61l164 -37q-32 -70 -95 -107.5t-150 -37.5q-125 0 -199.5 70t-74.5 188q0 115 73.5 188.5t190.5 73.5q116 0 188 -69.5t72 -180.5q0 -37 -1 -48zM205 308h170q-6 85 -80 85t-90 -85zM375 557h-149l-159 143h247z" />
    <glyph glyph-name="eacute" unicode="&#xe9;" horiz-adv-x="574" 
d="M548 212h-345q12 -101 96 -101q71 0 81 61l164 -37q-32 -70 -95 -107.5t-150 -37.5q-125 0 -199.5 70t-74.5 188q0 115 73.5 188.5t190.5 73.5q116 0 188 -69.5t72 -180.5q0 -37 -1 -48zM205 308h170q-6 85 -80 85t-90 -85zM224 557l61 143h247l-159 -143h-149z" />
    <glyph glyph-name="ecircumflex" unicode="&#xea;" horiz-adv-x="574" 
d="M548 212h-345q12 -101 96 -101q71 0 81 61l164 -37q-32 -70 -95 -107.5t-150 -37.5q-125 0 -199.5 70t-74.5 188q0 115 73.5 188.5t190.5 73.5q116 0 188 -69.5t72 -180.5q0 -37 -1 -48zM205 308h170q-6 85 -80 85t-90 -85zM106 557l127 143h125l131 -143h-130l-60 45
l-60 -45h-133z" />
    <glyph glyph-name="edieresis" unicode="&#xeb;" horiz-adv-x="574" 
d="M89 652q0 41 27.5 68t66.5 27t66.5 -27t27.5 -68t-27 -67.5t-67 -26.5t-67 26.5t-27 67.5zM315 652q0 41 27.5 68t66.5 27t66.5 -27t27.5 -68t-27 -67.5t-67 -26.5t-67 26.5t-27 67.5zM548 212h-345q12 -101 96 -101q71 0 81 61l164 -37q-32 -70 -95 -107.5t-150 -37.5
q-125 0 -199.5 70t-74.5 188q0 115 73.5 188.5t190.5 73.5q116 0 188 -69.5t72 -180.5q0 -37 -1 -48zM205 308h170q-6 85 -80 85t-90 -85z" />
    <glyph glyph-name="igrave" unicode="&#xec;" horiz-adv-x="279" 
d="M52 0v500h175v-500h-175zM218 557h-149l-159 143h247z" />
    <glyph glyph-name="iacute" unicode="&#xed;" horiz-adv-x="279" 
d="M52 0v500h175v-500h-175zM67 557l61 143h247l-159 -143h-149z" />
    <glyph glyph-name="icircumflex" unicode="&#xee;" horiz-adv-x="279" 
d="M52 0v500h175v-500h-175zM-51 557l127 143h125l131 -143h-130l-60 45l-60 -45h-133z" />
    <glyph glyph-name="idieresis" unicode="&#xef;" horiz-adv-x="279" 
d="M-68 652q0 41 27.5 68t66.5 27t66.5 -27t27.5 -68t-27 -67.5t-67 -26.5t-67 26.5t-27 67.5zM158 652q0 41 27.5 68t66.5 27t66.5 -27t27.5 -68t-27 -67.5t-67 -26.5t-67 26.5t-27 67.5zM52 0v500h175v-500h-175z" />
    <glyph glyph-name="eth" unicode="&#xf0;" horiz-adv-x="622" 
d="M596 266q0 -127 -78 -201t-207 -74t-207.5 71t-78.5 187q0 109 64.5 179.5t175.5 70.5q105 0 185 -65q-67 73 -191 124l-145 -60l-26 60l77 33q-69 20 -118 29l165 100q73 -29 122 -59l99 42l26 -61l-59 -24q196 -144 196 -352zM420 245q0 60 -29 92.5t-80 32.5
t-80 -32.5t-29 -92.5t28.5 -92t80.5 -32t80.5 32t28.5 92z" />
    <glyph glyph-name="ntilde" unicode="&#xf1;" 
d="M551 317v-317h-175v295q0 35 -19.5 55t-52.5 20q-34 0 -55.5 -23t-21.5 -64v-283h-175v500h175v-80q37 90 149 90q86 0 130.5 -50t44.5 -143zM275 598q-35 19 -48 19q-28 0 -45 -42l-75 20q5 68 35.5 106t76.5 38q32 0 73 -26q37 -20 52 -20t24 9t21 33l75 -20
q-5 -66 -37 -104.5t-79 -38.5q-29 0 -73 26z" />
    <glyph glyph-name="ograve" unicode="&#xf2;" horiz-adv-x="622" 
d="M597 250q0 -117 -78.5 -188t-207.5 -71t-207.5 71t-78.5 188q0 118 78.5 189t207.5 71t207.5 -71t78.5 -189zM420 250q0 62 -29 96t-80 34t-80 -34t-29 -96t29 -95.5t80 -33.5t80 33.5t29 95.5zM389 557h-149l-159 143h247z" />
    <glyph glyph-name="oacute" unicode="&#xf3;" horiz-adv-x="622" 
d="M597 250q0 -117 -78.5 -188t-207.5 -71t-207.5 71t-78.5 188q0 118 78.5 189t207.5 71t207.5 -71t78.5 -189zM420 250q0 62 -29 96t-80 34t-80 -34t-29 -96t29 -95.5t80 -33.5t80 33.5t29 95.5zM238 557l61 143h247l-159 -143h-149z" />
    <glyph glyph-name="ocircumflex" unicode="&#xf4;" horiz-adv-x="622" 
d="M597 250q0 -117 -78.5 -188t-207.5 -71t-207.5 71t-78.5 188q0 118 78.5 189t207.5 71t207.5 -71t78.5 -189zM420 250q0 62 -29 96t-80 34t-80 -34t-29 -96t29 -95.5t80 -33.5t80 33.5t29 95.5zM120 557l127 143h125l131 -143h-130l-60 45l-60 -45h-133z" />
    <glyph glyph-name="otilde" unicode="&#xf5;" horiz-adv-x="622" 
d="M597 250q0 -117 -78.5 -188t-207.5 -71t-207.5 71t-78.5 188q0 118 78.5 189t207.5 71t207.5 -71t78.5 -189zM420 250q0 62 -29 96t-80 34t-80 -34t-29 -96t29 -95.5t80 -33.5t80 33.5t29 95.5zM301 598q-35 19 -48 19q-28 0 -45 -42l-75 20q5 68 35.5 106t76.5 38
q32 0 73 -26q37 -20 52 -20t24 9t21 33l75 -20q-5 -66 -36.5 -104.5t-79.5 -38.5q-29 0 -73 26z" />
    <glyph glyph-name="odieresis" unicode="&#xf6;" horiz-adv-x="622" 
d="M103 652q0 41 27.5 68t66.5 27t66.5 -27t27.5 -68t-27 -67.5t-67 -26.5t-67 26.5t-27 67.5zM329 652q0 41 27.5 68t66.5 27t66.5 -27t27.5 -68t-27 -67.5t-67 -26.5t-67 26.5t-27 67.5zM597 250q0 -117 -78.5 -188t-207.5 -71t-207.5 71t-78.5 188q0 118 78.5 189
t207.5 71t207.5 -71t78.5 -189zM420 250q0 62 -29 96t-80 34t-80 -34t-29 -96t29 -95.5t80 -33.5t80 33.5t29 95.5z" />
    <glyph glyph-name="divide" unicode="&#xf7;" horiz-adv-x="559" 
d="M182 532q0 41 27.5 67.5t69.5 26.5q40 0 68.5 -26.5t28.5 -67.5q0 -39 -28.5 -65.5t-68.5 -26.5q-41 0 -69 26.5t-28 65.5zM35 268v120h489v-120h-489zM376 125q0 -41 -28.5 -67.5t-68.5 -26.5q-42 0 -69.5 26.5t-27.5 67.5q0 39 28 65.5t69 26.5q40 0 68.5 -26.5
t28.5 -65.5z" />
    <glyph glyph-name="oslash" unicode="&#xf8;" horiz-adv-x="622" 
d="M597 250q0 -117 -78.5 -188t-207.5 -71q-76 0 -136 25l-58 -70l-65 54l51 62q-78 69 -78 188q0 118 78.5 189t207.5 71q75 0 140 -27l67 80l65 -54l-61 -73q75 -72 75 -186zM209 190l151 183q-21 10 -49 10q-52 0 -81.5 -35t-29.5 -98q0 -34 9 -60zM422 250q0 28 -7 56
l-149 -180q22 -8 45 -8q52 0 81.5 34.5t29.5 97.5z" />
    <glyph glyph-name="ugrave" unicode="&#xf9;" 
d="M373 500h175v-500h-175v80q-37 -90 -149 -90q-86 0 -130.5 50t-44.5 143v317h175v-295q0 -35 19.5 -55t52.5 -20q34 0 55.5 23t21.5 64v283zM378 557h-149l-159 143h247z" />
    <glyph glyph-name="uacute" unicode="&#xfa;" 
d="M373 500h175v-500h-175v80q-37 -90 -149 -90q-86 0 -130.5 50t-44.5 143v317h175v-295q0 -35 19.5 -55t52.5 -20q34 0 55.5 23t21.5 64v283zM227 557l61 143h247l-159 -143h-149z" />
    <glyph glyph-name="ucircumflex" unicode="&#xfb;" 
d="M373 500h175v-500h-175v80q-37 -90 -149 -90q-86 0 -130.5 50t-44.5 143v317h175v-295q0 -35 19.5 -55t52.5 -20q34 0 55.5 23t21.5 64v283zM109 557l127 143h125l131 -143h-130l-60 45l-60 -45h-133z" />
    <glyph glyph-name="udieresis" unicode="&#xfc;" 
d="M92 652q0 41 27.5 68t66.5 27t66.5 -27t27.5 -68t-27 -67.5t-67 -26.5t-67 26.5t-27 67.5zM318 652q0 41 27.5 68t66.5 27t66.5 -27t27.5 -68t-27 -67.5t-67 -26.5t-67 26.5t-27 67.5zM373 500h175v-500h-175v80q-37 -90 -149 -90q-86 0 -130.5 50t-44.5 143v317h175
v-295q0 -35 19.5 -55t52.5 -20q34 0 55.5 23t21.5 64v283z" />
    <glyph glyph-name="yacute" unicode="&#xfd;" horiz-adv-x="569" 
d="M385 500h176l-292 -710h-201l138 246l-198 464h194l94 -264zM217 557l61 143h247l-159 -143h-149z" />
    <glyph glyph-name="thorn" unicode="&#xfe;" horiz-adv-x="640" 
d="M615 250q0 -117 -63.5 -188.5t-169.5 -71.5q-111 0 -155 92v-292h-175v910h175v-283q44 92 155 92q106 0 169.5 -71t63.5 -188zM439 250q0 58 -29.5 93.5t-78.5 35.5t-78.5 -35.5t-29.5 -93.5t29.5 -93.5t78.5 -35.5t78.5 35.5t29.5 93.5z" />
    <glyph glyph-name="ydieresis" unicode="&#xff;" horiz-adv-x="569" 
d="M82 652q0 41 27.5 68t66.5 27t66.5 -27t27.5 -68t-27 -67.5t-67 -26.5t-67 26.5t-27 67.5zM308 652q0 41 27.5 68t66.5 27t66.5 -27t27.5 -68t-27 -67.5t-67 -26.5t-67 26.5t-27 67.5zM385 500h176l-292 -710h-201l138 246l-198 464h194l94 -264z" />
    <glyph glyph-name="Amacron" unicode="&#x100;" horiz-adv-x="805" 
d="M577 0l-49 138h-271l-50 -138h-192l282 700h213l280 -700h-213zM306 277h172l-85 241zM252 881h303v-108h-303v108z" />
    <glyph glyph-name="amacron" unicode="&#x101;" horiz-adv-x="547" 
d="M498 321v-321h-168v72q-32 -81 -141 -81q-79 0 -124 37.5t-45 102.5q0 58 34 92q31 31 73 47t116 30q51 10 69 17.5t18 19.5v1q0 22 -17 35.5t-45 13.5q-62 0 -81 -61l-157 49q31 63 95 98.5t148 35.5q101 0 163 -51t62 -137zM330 186v39q-34 -7 -42 -8
q-41 -8 -56.5 -12.5t-28.5 -17.5t-15 -37q0 -19 14 -30.5t36 -11.5q34 0 62 22q30 22 30 56zM120 701h303v-108h-303v108z" />
    <glyph glyph-name="Abreve" unicode="&#x102;" horiz-adv-x="805" 
d="M577 0l-49 138h-271l-50 -138h-192l282 700h213l280 -700h-213zM306 277h172l-85 241zM241 900h110q5 -37 51 -37q22 0 36.5 10.5t16.5 26.5h110q-4 -66 -49 -106t-114 -40q-71 0 -114 39.5t-47 106.5z" />
    <glyph glyph-name="abreve" unicode="&#x103;" horiz-adv-x="547" 
d="M498 321v-321h-168v72q-32 -81 -141 -81q-79 0 -124 37.5t-45 102.5q0 58 34 92q31 31 73 47t116 30q51 10 69 17.5t18 19.5v1q0 22 -17 35.5t-45 13.5q-62 0 -81 -61l-157 49q31 63 95 98.5t148 35.5q101 0 163 -51t62 -137zM330 186v39q-34 -7 -42 -8
q-41 -8 -56.5 -12.5t-28.5 -17.5t-15 -37q0 -19 14 -30.5t36 -11.5q34 0 62 22q30 22 30 56zM109 700h110q5 -37 51 -37q22 0 36.5 10.5t16.5 26.5h110q-4 -66 -49 -106t-114 -40q-71 0 -114 39.5t-47 106.5z" />
    <glyph glyph-name="Aogonek" unicode="&#x104;" horiz-adv-x="805" 
d="M577 0l-49 138h-271l-50 -138h-192l282 700h213l280 -700h-213zM306 277h172l-85 241zM489 -102q0 59 88 102h98q-47 -39 -47 -65q0 -22 22 -22q17 0 31 10l24 -96q-39 -15 -87 -15q-57 0 -93 22t-36 64z" />
    <glyph glyph-name="aogonek" unicode="&#x105;" horiz-adv-x="547" 
d="M421 -56q0 -22 22 -22q17 0 31 10l24 -96q-39 -15 -87 -15q-57 0 -93 22t-36 64q0 54 70 93h-22v72q-32 -81 -141 -81q-79 0 -124 37.5t-45 102.5q0 58 34 92q31 31 73 47t116 30q51 10 69 17.5t18 19.5v1q0 22 -17 35.5t-45 13.5q-62 0 -81 -61l-157 49q31 63 95 98.5
t148 35.5q101 0 163 -51t62 -137v-321h-40q-37 -33 -37 -56zM330 186v39q-34 -7 -42 -8q-41 -8 -56.5 -12.5t-28.5 -17.5t-15 -37q0 -19 14 -30.5t36 -11.5q34 0 62 22q30 22 30 56z" />
    <glyph glyph-name="Cacute" unicode="&#x106;" horiz-adv-x="806" 
d="M577 289l204 -36q-30 -121 -128.5 -192t-237.5 -71q-166 -2 -277 100t-108 259q-3 158 108 260.5t277 100.5q139 0 237.5 -71t128.5 -192l-204 -36q-13 73 -52 108.5t-110 35.5q-79 0 -127 -55t-48 -150t48 -150t127 -55q71 0 110 35.5t52 108.5zM330 757l61 143h247
l-159 -143h-149z" />
    <glyph glyph-name="cacute" unicode="&#x107;" horiz-adv-x="606" 
d="M25 250q0 118 77 189t207 71q107 0 179 -50.5t95 -140.5l-171 -32q-17 92 -101 92q-51 0 -80 -33.5t-29 -95.5t29 -95.5t80 -33.5q84 0 101 92l171 -32q-23 -90 -95 -140.5t-179 -50.5q-130 0 -207 71t-77 189zM243 557l61 143h247l-159 -143h-149z" />
    <glyph glyph-name="Ccaron" unicode="&#x10c;" horiz-adv-x="806" 
d="M577 289l204 -36q-30 -121 -128.5 -192t-237.5 -71q-166 -2 -277 100t-108 259q-3 158 108 260.5t277 100.5q139 0 237.5 -71t128.5 -192l-204 -36q-13 73 -52 108.5t-110 35.5q-79 0 -127 -55t-48 -150t48 -150t127 -55q71 0 110 35.5t52 108.5zM211 900h133l60 -45
l60 45h130l-131 -143h-125z" />
    <glyph glyph-name="ccaron" unicode="&#x10d;" horiz-adv-x="606" 
d="M25 250q0 118 77 189t207 71q107 0 179 -50.5t95 -140.5l-171 -32q-17 92 -101 92q-51 0 -80 -33.5t-29 -95.5t29 -95.5t80 -33.5q84 0 101 92l171 -32q-23 -90 -95 -140.5t-179 -50.5q-130 0 -207 71t-77 189zM124 700h133l60 -45l60 45h130l-131 -143h-125z" />
    <glyph glyph-name="Dcaron" unicode="&#x10e;" horiz-adv-x="803" 
d="M70 0v700h307q164 2 281.5 -99t114.5 -251q3 -150 -114.5 -251t-281.5 -99h-307zM270 147h111q83 0 132 55q50 56 50 148q0 91 -50 147t-132 56h-111v-406zM180 900h133l60 -45l60 45h130l-131 -143h-125z" />
    <glyph glyph-name="dcaron" unicode="&#x10f;" horiz-adv-x="640" 
d="M411 700h175v-700h-175v78q-43 -87 -153 -87q-106 0 -169.5 71t-63.5 188t63.5 188.5t169.5 71.5q110 0 153 -88v278zM417 250q0 58 -29.5 93.5t-78.5 35.5t-78.5 -35.5t-29.5 -93.5t29.5 -93.5t78.5 -35.5t78.5 35.5t29.5 93.5zM644 700h171l-79 -162h-101z" />
    <glyph glyph-name="Dcroat" unicode="&#x110;" horiz-adv-x="820" 
d="M790 350q3 -150 -114.5 -251t-281.5 -99h-307v281h-57v135h57v284h307q164 2 281.5 -99t114.5 -251zM580 350q0 91 -50 147t-132 56h-111v-137h146v-135h-146v-134h111q83 0 132 55q50 56 50 148z" />
    <glyph glyph-name="dslash" unicode="&#x111;" horiz-adv-x="640" 
d="M630 638v-95h-44v-543h-175v78q-43 -87 -153 -87q-106 0 -169.5 71t-63.5 188t63.5 188.5t169.5 71.5q110 0 153 -88v121h-123v95h123v62h175v-62h44zM417 250q0 58 -29.5 93.5t-78.5 35.5t-78.5 -35.5t-29.5 -93.5t29.5 -93.5t78.5 -35.5t78.5 35.5t29.5 93.5z" />
    <glyph glyph-name="Emacron" unicode="&#x112;" horiz-adv-x="657" 
d="M607 545h-342v-111h297v-143h-297v-136h342v-155h-537v700h537v-155zM198 881h303v-108h-303v108z" />
    <glyph glyph-name="emacron" unicode="&#x113;" horiz-adv-x="574" 
d="M548 212h-345q12 -101 96 -101q71 0 81 61l164 -37q-32 -70 -95 -107.5t-150 -37.5q-125 0 -199.5 70t-74.5 188q0 115 73.5 188.5t190.5 73.5q116 0 188 -69.5t72 -180.5q0 -37 -1 -48zM205 308h170q-6 85 -80 85t-90 -85zM146 701h303v-108h-303v108z" />
    <glyph glyph-name="Edotaccent" unicode="&#x116;" horiz-adv-x="657" 
d="M607 545h-342v-111h297v-143h-297v-136h342v-155h-537v700h537v-155zM246 851q0 42 30 70.5t73 28.5t73 -28.5t30 -70.5t-30 -70t-73 -28t-73 28t-30 70z" />
    <glyph glyph-name="edotaccent" unicode="&#x117;" horiz-adv-x="574" 
d="M548 212h-345q12 -101 96 -101q71 0 81 61l164 -37q-32 -70 -95 -107.5t-150 -37.5q-125 0 -199.5 70t-74.5 188q0 115 73.5 188.5t190.5 73.5q116 0 188 -69.5t72 -180.5q0 -37 -1 -48zM205 308h170q-6 85 -80 85t-90 -85zM194 651q0 42 30 70.5t73 28.5t73 -28.5
t30 -70.5t-30 -70t-73 -28t-73 28t-30 70z" />
    <glyph glyph-name="Eogonek" unicode="&#x118;" horiz-adv-x="657" 
d="M607 545h-342v-111h297v-143h-297v-136h342v-155h-537v700h537v-155zM391 -102q0 59 88 102h98q-47 -39 -47 -65q0 -22 22 -22q17 0 31 10l24 -96q-39 -15 -87 -15q-57 0 -93 22t-36 64z" />
    <glyph glyph-name="eogonek" unicode="&#x119;" horiz-adv-x="574" 
d="M548 212h-345q12 -101 96 -101q71 0 81 61l164 -37q-17 -39 -42 -64l-6 -6q-56 -61 -56 -90q0 -13 7.5 -20.5t19.5 -7.5q17 0 31 10l24 -96q-39 -15 -87 -15q-129 0 -129 76q0 36 52 73q-35 -5 -59 -5q-125 0 -199.5 70t-74.5 188q0 115 73.5 188.5t190.5 73.5
q116 0 188 -69.5t72 -180.5q0 -37 -1 -48zM205 308h170q-6 85 -80 85t-90 -85z" />
    <glyph glyph-name="Ecaron" unicode="&#x11a;" horiz-adv-x="657" 
d="M607 545h-342v-111h297v-143h-297v-136h342v-155h-537v700h537v-155zM157 900h133l60 -45l60 45h130l-131 -143h-125z" />
    <glyph glyph-name="ecaron" unicode="&#x11b;" horiz-adv-x="574" 
d="M548 212h-345q12 -101 96 -101q71 0 81 61l164 -37q-32 -70 -95 -107.5t-150 -37.5q-125 0 -199.5 70t-74.5 188q0 115 73.5 188.5t190.5 73.5q116 0 188 -69.5t72 -180.5q0 -37 -1 -48zM205 308h170q-6 85 -80 85t-90 -85zM105 700h133l60 -45l60 45h130l-131 -143h-125
z" />
    <glyph glyph-name="Gbreve" unicode="&#x11e;" horiz-adv-x="802" 
d="M437 225v139h308v-280q-52 -36 -131 -65q-82 -29 -183 -29q-179 0 -290 99t-111 259q0 162 107 262t278 100q132 0 226 -64.5t128 -178.5l-191 -43q-29 131 -159 131q-82 0 -131 -56t-49 -149q0 -99 53.5 -153.5t151.5 -54.5q61 0 121 15v68h-128zM247 900h110
q5 -37 51 -37q22 0 36.5 10.5t16.5 26.5h110q-4 -66 -49 -106t-114 -40q-71 0 -114 39.5t-47 106.5z" />
    <glyph glyph-name="gbreve" unicode="&#x11f;" horiz-adv-x="628" 
d="M401 500h175v-511q0 -94 -75.5 -151.5t-197.5 -57.5q-101 0 -177 40q-74 39 -100 107l168 50q8 -35 36.5 -54t70.5 -19q45 0 72.5 22t27.5 57v109q-43 -81 -150 -81q-103 0 -164.5 68.5t-61.5 180.5q0 113 61.5 181.5t164.5 68.5q107 0 150 -82v72zM408 260
q0 57 -27.5 90.5t-76.5 33.5q-48 0 -75 -33t-27 -91t27 -91t75 -33q49 0 76.5 33.5t27.5 90.5zM152 700h110q5 -37 51 -37q22 0 36.5 10.5t16.5 26.5h110q-4 -66 -49 -106t-114 -40q-71 0 -114 39.5t-47 106.5z" />
    <glyph glyph-name="Gcommaaccent" unicode="&#x122;" horiz-adv-x="802" 
d="M437 225v139h308v-280q-52 -36 -131 -65q-82 -29 -183 -29q-179 0 -290 99t-111 259q0 162 107 262t278 100q132 0 226 -64.5t128 -178.5l-191 -43q-29 131 -159 131q-82 0 -131 -56t-49 -149q0 -99 53.5 -153.5t151.5 -54.5q61 0 121 15v68h-128zM334 -337l-9 59
q41 1 67.5 11t26.5 27q0 16 -20 19q-89 18 -89 88q0 40 25 63.5t67 23.5q49 0 75 -35.5t26 -95.5q0 -156 -169 -160z" />
    <glyph glyph-name="gcommaaccent" unicode="&#x123;" horiz-adv-x="628" 
d="M401 500h175v-511q0 -94 -75.5 -151.5t-197.5 -57.5q-101 0 -177 40q-74 39 -100 107l168 50q8 -35 36.5 -54t70.5 -19q45 0 72.5 22t27.5 57v109q-43 -81 -150 -81q-103 0 -164.5 68.5t-61.5 180.5q0 113 61.5 181.5t164.5 68.5q107 0 150 -82v72zM408 260
q0 57 -27.5 90.5t-76.5 33.5q-48 0 -75 -33t-27 -91t27 -91t75 -33q49 0 76.5 33.5t27.5 90.5zM393 842l9 -59q-41 -1 -67.5 -11t-26.5 -27q0 -16 20 -19q89 -18 89 -88q0 -40 -25 -63.5t-67 -23.5q-49 0 -75 35.5t-26 95.5q0 156 169 160z" />
    <glyph glyph-name="hbar" unicode="&#x127;" 
d="M551 317v-317h-175v295q0 35 -19.5 55t-52.5 20q-34 0 -55.5 -23t-21.5 -64v-283h-175v543h-62v95h62v62h175v-62h105v-95h-105v-123q37 90 149 90q86 0 130.5 -50t44.5 -143z" />
    <glyph glyph-name="Imacron" unicode="&#x12a;" horiz-adv-x="360" 
d="M80 700h200v-700h-200v700zM29 881h303v-108h-303v108z" />
    <glyph glyph-name="imacron" unicode="&#x12b;" horiz-adv-x="279" 
d="M52 0v500h175v-500h-175zM-11 701h303v-108h-303v108z" />
    <glyph glyph-name="Iogonek" unicode="&#x12e;" horiz-adv-x="360" 
d="M80 700h200v-700h-200v700zM65 -102q0 59 88 102h98q-47 -39 -47 -65q0 -22 22 -22q17 0 31 10l24 -96q-39 -15 -87 -15q-57 0 -93 22t-36 64z" />
    <glyph glyph-name="iogonek" unicode="&#x12f;" horiz-adv-x="279" 
d="M37 651q0 42 30 70.5t73 28.5t73 -28.5t30 -70.5t-30 -70t-73 -28t-73 28t-30 70zM215 -67l24 -96q-39 -15 -87 -15q-57 0 -93 22t-36 64q0 53 69 92h-40v500h175v-500h-29q-36 -31 -36 -55q0 -22 22 -22q17 0 31 10z" />
    <glyph glyph-name="Idot" unicode="&#x130;" horiz-adv-x="360" 
d="M80 700h200v-700h-200v700zM77 851q0 42 30 70.5t73 28.5t73 -28.5t30 -70.5t-30 -70t-73 -28t-73 28t-30 70z" />
    <glyph glyph-name="dotlessi" unicode="&#x131;" horiz-adv-x="279" 
d="M52 0v500h175v-500h-175z" />
    <glyph glyph-name="IJ" unicode="&#x132;" horiz-adv-x="1018" 
d="M80 700h200v-700h-200v700zM375 186l179 78q24 -70 44.5 -93t71.5 -26q40 0 61.5 24.5t21.5 70.5v460h200v-419q0 -139 -73.5 -215t-210.5 -76q-122 0 -187 52q-67 53 -107 144z" />
    <glyph glyph-name="ij" unicode="&#x133;" horiz-adv-x="577" 
d="M42 651q0 42 30 70.5t73 28.5t73 -28.5t30 -70.5t-30 -70t-73 -28t-73 28t-30 70zM330 651q0 42 30 70.5t73 28.5t73 -28.5t30 -70.5t-30 -70t-73 -28t-73 28t-30 70zM57 0v500h175v-500h-175zM521 500v-544q0 -80 -59.5 -128t-163.5 -48q-41 0 -81 8v121q26 -14 56 -14
q73 0 73 63v542h175z" />
    <glyph glyph-name="Kcommaaccent" unicode="&#x136;" horiz-adv-x="752" 
d="M757 0h-259l-228 329v-329h-200v700h200v-301l246 301h234l-300 -333zM286 -337l-9 59q41 1 67.5 11t26.5 27q0 16 -20 19q-89 18 -89 88q0 40 25 63.5t67 23.5q49 0 75 -35.5t26 -95.5q0 -156 -169 -160z" />
    <glyph glyph-name="kcommaaccent" unicode="&#x137;" horiz-adv-x="592" 
d="M600 0h-220l-151 238v-238h-175v700h175v-399l159 199h202l-199 -219zM216 -337l-9 59q41 1 67.5 11t26.5 27q0 16 -20 19q-89 18 -89 88q0 40 25 63.5t67 23.5q49 0 75 -35.5t26 -95.5q0 -156 -169 -160z" />
    <glyph glyph-name="Lacute" unicode="&#x139;" horiz-adv-x="625" 
d="M270 156h340v-156h-540v700h200v-544zM100 757l61 143h247l-159 -143h-149z" />
    <glyph glyph-name="lacute" unicode="&#x13a;" horiz-adv-x="283" 
d="M54 0v700h175v-700h-175zM69 757l61 143h247l-159 -143h-149z" />
    <glyph glyph-name="Lcommaaccent" unicode="&#x13b;" horiz-adv-x="625" 
d="M270 156h340v-156h-540v700h200v-544zM260 -337l-9 59q41 1 67.5 11t26.5 27q0 16 -20 19q-89 18 -89 88q0 40 25 63.5t67 23.5q49 0 75 -35.5t26 -95.5q0 -156 -169 -160z" />
    <glyph glyph-name="lcommaaccent" unicode="&#x13c;" horiz-adv-x="283" 
d="M54 0v700h175v-700h-175zM67 -337l-9 59q41 1 67.5 11t26.5 27q0 16 -20 19q-89 18 -89 88q0 40 25 63.5t67 23.5q49 0 75 -35.5t26 -95.5q0 -156 -169 -160z" />
    <glyph glyph-name="Lcaron" unicode="&#x13d;" horiz-adv-x="625" 
d="M270 156h340v-156h-540v700h200v-544zM-19 900h133l60 -45l60 45h130l-131 -143h-125z" />
    <glyph glyph-name="lcaron" unicode="&#x13e;" horiz-adv-x="283" 
d="M54 0v700h175v-700h-175zM-50 900h133l60 -45l60 45h130l-131 -143h-125z" />
    <glyph glyph-name="Lslash" unicode="&#x141;" horiz-adv-x="645" 
d="M290 156h340v-156h-540v234l-65 -24v116l65 24v350h200v-276l196 72v-118l-196 -71v-151z" />
    <glyph glyph-name="lslash" unicode="&#x142;" horiz-adv-x="326" 
d="M312 498v-121l-65 -30v-347h-175v267l-58 -27v121l58 27v312h175v-232z" />
    <glyph glyph-name="Nacute" unicode="&#x143;" horiz-adv-x="868" 
d="M626 700h172v-700h-266l-290 506v-506h-172v700h269l287 -491v491zM361 757l61 143h247l-159 -143h-149z" />
    <glyph glyph-name="nacute" unicode="&#x144;" 
d="M551 317v-317h-175v295q0 35 -19.5 55t-52.5 20q-34 0 -55.5 -23t-21.5 -64v-283h-175v500h175v-80q37 90 149 90q86 0 130.5 -50t44.5 -143zM212 557l61 143h247l-159 -143h-149z" />
    <glyph glyph-name="Ncommaaccent" unicode="&#x145;" horiz-adv-x="868" 
d="M626 700h172v-700h-266l-290 506v-506h-172v700h269l287 -491v491zM359 -337l-9 59q41 1 67.5 11t26.5 27q0 16 -20 19q-89 18 -89 88q0 40 25 63.5t67 23.5q49 0 75 -35.5t26 -95.5q0 -156 -169 -160z" />
    <glyph glyph-name="ncommaaccent" unicode="&#x146;" 
d="M551 317v-317h-175v295q0 35 -19.5 55t-52.5 20q-34 0 -55.5 -23t-21.5 -64v-283h-175v500h175v-80q37 90 149 90q86 0 130.5 -50t44.5 -143zM225 -337l-9 59q41 1 67.5 11t26.5 27q0 16 -20 19q-89 18 -89 88q0 40 25 63.5t67 23.5q49 0 75 -35.5t26 -95.5
q0 -156 -169 -160z" />
    <glyph glyph-name="Ncaron" unicode="&#x147;" horiz-adv-x="868" 
d="M626 700h172v-700h-266l-290 506v-506h-172v700h269l287 -491v491zM242 900h133l60 -45l60 45h130l-131 -143h-125z" />
    <glyph glyph-name="ncaron" unicode="&#x148;" 
d="M551 317v-317h-175v295q0 35 -19.5 55t-52.5 20q-34 0 -55.5 -23t-21.5 -64v-283h-175v500h175v-80q37 90 149 90q86 0 130.5 -50t44.5 -143zM93 700h133l60 -45l60 45h130l-131 -143h-125z" />
    <glyph glyph-name="Omacron" unicode="&#x14c;" horiz-adv-x="830" 
d="M800 349q3 -157 -108 -259t-277 -100q-166 -2 -277 100t-108 259q-3 158 108 260.5t277 100.5q166 2 277 -100.5t108 -260.5zM590 350q0 95 -48 150t-127 55t-127 -55t-48 -150t48 -150t127 -55t127 55t48 150zM264 881h303v-108h-303v108z" />
    <glyph glyph-name="omacron" unicode="&#x14d;" horiz-adv-x="622" 
d="M597 250q0 -117 -78.5 -188t-207.5 -71t-207.5 71t-78.5 188q0 118 78.5 189t207.5 71t207.5 -71t78.5 -189zM420 250q0 62 -29 96t-80 34t-80 -34t-29 -96t29 -95.5t80 -33.5t80 33.5t29 95.5zM160 701h303v-108h-303v108z" />
    <glyph glyph-name="Ohungarumlaut" unicode="&#x150;" horiz-adv-x="830" 
d="M800 349q3 -157 -108 -259t-277 -100q-166 -2 -277 100t-108 259q-3 158 108 260.5t277 100.5q166 2 277 -100.5t108 -260.5zM590 350q0 95 -48 150t-127 55t-127 -55t-48 -150t48 -150t127 -55t127 55t48 150zM710 900l-159 -143h-99l38 107l-119 -107h-99l51 143h387z
" />
    <glyph glyph-name="ohungarumlaut" unicode="&#x151;" horiz-adv-x="622" 
d="M597 250q0 -117 -78.5 -188t-207.5 -71t-207.5 71t-78.5 188q0 118 78.5 189t207.5 71t207.5 -71t78.5 -189zM420 250q0 62 -29 96t-80 34t-80 -34t-29 -96t29 -95.5t80 -33.5t80 33.5t29 95.5zM616 700l-159 -143h-99l38 107l-119 -107h-99l51 143h387z" />
    <glyph glyph-name="OE" unicode="&#x152;" horiz-adv-x="1090" 
d="M1040 545h-337v-111h292v-143h-292v-136h337v-155h-614q-164 -2 -282 99t-114 251q-4 150 114 251t282 99h614v-155zM503 147v406h-81q-82 0 -132 -56t-50 -147q0 -92 50 -148q49 -55 132 -55h81z" />
    <glyph glyph-name="oe" unicode="&#x153;" horiz-adv-x="970" 
d="M944 212h-345q12 -101 96 -101q71 0 81 61l164 -37q-32 -70 -95 -107.5t-150 -37.5q-117 0 -190 61q-75 -60 -194 -60q-129 0 -207.5 71t-78.5 188q0 118 78.5 189t207.5 71q120 0 196 -61q73 61 178 61q116 0 188 -69.5t72 -180.5q0 -37 -1 -48zM601 308h170
q-6 85 -80 85t-90 -85zM420 250q0 62 -29 96t-80 34t-80 -34t-29 -96t29 -95.5t80 -33.5t80 33.5t29 95.5z" />
    <glyph glyph-name="Racute" unicode="&#x154;" horiz-adv-x="724" 
d="M714 0h-241l-145 248h-58v-248h-200v700h336q125 0 202.5 -63t77.5 -165q0 -80 -51 -137t-139 -77zM270 550v-164h115q41 0 66 23.5t25 62.5q0 35 -25 56.5t-66 21.5h-115zM267 757l61 143h247l-159 -143h-149z" />
    <glyph glyph-name="racute" unicode="&#x155;" horiz-adv-x="436" 
d="M419 502v-172q-30 5 -57 5q-64 0 -92 -28q-27 -26 -35 -64t-8 -114v-129h-175v500h175v-133q32 140 143 140q27 0 49 -5zM145 557l61 143h247l-159 -143h-149z" />
    <glyph glyph-name="Rcommaaccent" unicode="&#x156;" horiz-adv-x="724" 
d="M714 0h-241l-145 248h-58v-248h-200v700h336q125 0 202.5 -63t77.5 -165q0 -80 -51 -137t-139 -77zM270 550v-164h115q41 0 66 23.5t25 62.5q0 35 -25 56.5t-66 21.5h-115zM285 -337l-9 59q41 1 67.5 11t26.5 27q0 16 -20 19q-89 18 -89 88q0 40 25 63.5t67 23.5
q49 0 75 -35.5t26 -95.5q0 -156 -169 -160z" />
    <glyph glyph-name="rcommaaccent" unicode="&#x157;" horiz-adv-x="436" 
d="M419 502v-172q-30 5 -57 5q-64 0 -92 -28q-27 -26 -35 -64t-8 -114v-129h-175v500h175v-133q32 140 143 140q27 0 49 -5zM70 -337l-9 59q41 1 67.5 11t26.5 27q0 16 -20 19q-89 18 -89 88q0 40 25 63.5t67 23.5q49 0 75 -35.5t26 -95.5q0 -156 -169 -160z" />
    <glyph glyph-name="Rcaron" unicode="&#x158;" horiz-adv-x="724" 
d="M714 0h-241l-145 248h-58v-248h-200v700h336q125 0 202.5 -63t77.5 -165q0 -80 -51 -137t-139 -77zM270 550v-164h115q41 0 66 23.5t25 62.5q0 35 -25 56.5t-66 21.5h-115zM148 900h133l60 -45l60 45h130l-131 -143h-125z" />
    <glyph glyph-name="rcaron" unicode="&#x159;" horiz-adv-x="436" 
d="M419 502v-172q-30 5 -57 5q-64 0 -92 -28q-27 -26 -35 -64t-8 -114v-129h-175v500h175v-133q32 140 143 140q27 0 49 -5zM26 700h133l60 -45l60 45h130l-131 -143h-125z" />
    <glyph glyph-name="Sacute" unicode="&#x15a;" horiz-adv-x="674" 
d="M30 191l184 38q12 -47 52.5 -73.5t93.5 -26.5q49 0 73.5 16.5t24.5 44.5q0 22 -20 39q-17 15 -43 24t-87 25q-72 18 -132 40q-127 52 -127 174q0 99 75.5 158.5t202.5 59.5q111 0 190.5 -48.5t107.5 -133.5l-179 -30q-12 37 -44.5 59.5t-73.5 22.5q-40 0 -63.5 -17
t-23.5 -45q4 -33 32 -47.5t108 -33.5t133 -42q58 -23 94 -70t36 -118q0 -97 -78.5 -157t-204.5 -60t-214 53.5t-117 147.5zM264 757l61 143h247l-159 -143h-149z" />
    <glyph glyph-name="sacute" unicode="&#x15b;" horiz-adv-x="491" 
d="M15 130l160 36q8 -30 31.5 -47.5t55.5 -17.5q52 0 52 34q0 21 -22.5 32.5t-79.5 25.5q-56 13 -96 29q-93 38 -93 128q0 71 60 115t152 44q160 0 223 -111l-150 -38q-9 20 -27.5 32.5t-40.5 12.5q-21 0 -33.5 -9.5t-12.5 -24.5q0 -17 18.5 -26t71.5 -23q58 -14 96 -30
q96 -37 96 -138q0 -72 -63.5 -117.5t-157.5 -45.5q-91 0 -154.5 36.5t-85.5 102.5zM168 557l61 143h247l-159 -143h-149z" />
    <glyph glyph-name="Scedilla" unicode="&#x15e;" horiz-adv-x="674" 
d="M382 -10l-29 -33q3 1 12 1q43 0 70.5 -24t27.5 -67q0 -48 -34.5 -76.5t-94.5 -28.5q-45 0 -79.5 16.5t-41.5 31.5l61 56q29 -29 55 -29q17 0 27.5 9t10.5 24q0 16 -11 26t-30 10q-13 0 -30 -7l-29 19l23 77q-99 13 -167 64t-93 132l184 38q12 -47 52.5 -73.5t93.5 -26.5
q49 0 73.5 16.5t24.5 44.5q0 22 -20 39q-17 15 -43 24t-87 25q-72 18 -132 40q-127 52 -127 174q0 99 75.5 158.5t202.5 59.5q111 0 190.5 -48.5t107.5 -133.5l-179 -30q-12 37 -44.5 59.5t-73.5 22.5q-40 0 -63.5 -17t-23.5 -45q4 -33 32 -47.5t108 -33.5t133 -42
q58 -23 94 -70t36 -118q0 -92 -72 -151.5t-190 -65.5z" />
    <glyph glyph-name="scedilla" unicode="&#x15f;" horiz-adv-x="491" 
d="M289 -7l-31 -36q3 1 12 1q43 0 70.5 -24t27.5 -67q0 -48 -34.5 -76.5t-94.5 -28.5q-45 0 -79.5 16.5t-41.5 31.5l61 56q29 -29 55 -29q17 0 27.5 9t10.5 24q0 16 -11 26t-30 10q-13 0 -30 -7l-29 19l24 77q-143 23 -181 135l160 36q8 -30 31.5 -47.5t55.5 -17.5
q52 0 52 34q0 21 -22.5 32.5t-79.5 25.5q-56 13 -96 29q-93 38 -93 128q0 71 60 115t152 44q160 0 223 -111l-150 -38q-9 20 -27.5 32.5t-40.5 12.5q-21 0 -33.5 -9.5t-12.5 -24.5q0 -17 18.5 -26t71.5 -23q58 -14 96 -30q96 -37 96 -138q0 -65 -53 -109q-54 -45 -134 -52z
" />
    <glyph glyph-name="Scaron" unicode="&#x160;" horiz-adv-x="674" 
d="M30 191l184 38q12 -47 52.5 -73.5t93.5 -26.5q49 0 73.5 16.5t24.5 44.5q0 22 -20 39q-17 15 -43 24t-87 25q-72 18 -132 40q-127 52 -127 174q0 99 75.5 158.5t202.5 59.5q111 0 190.5 -48.5t107.5 -133.5l-179 -30q-12 37 -44.5 59.5t-73.5 22.5q-40 0 -63.5 -17
t-23.5 -45q4 -33 32 -47.5t108 -33.5t133 -42q58 -23 94 -70t36 -118q0 -97 -78.5 -157t-204.5 -60t-214 53.5t-117 147.5zM145 900h133l60 -45l60 45h130l-131 -143h-125z" />
    <glyph glyph-name="scaron" unicode="&#x161;" horiz-adv-x="491" 
d="M15 130l160 36q8 -30 31.5 -47.5t55.5 -17.5q52 0 52 34q0 21 -22.5 32.5t-79.5 25.5q-56 13 -96 29q-93 38 -93 128q0 71 60 115t152 44q160 0 223 -111l-150 -38q-9 20 -27.5 32.5t-40.5 12.5q-21 0 -33.5 -9.5t-12.5 -24.5q0 -17 18.5 -26t71.5 -23q58 -14 96 -30
q96 -37 96 -138q0 -72 -63.5 -117.5t-157.5 -45.5q-91 0 -154.5 36.5t-85.5 102.5zM49 700h133l60 -45l60 45h130l-131 -143h-125z" />
    <glyph glyph-name="uni0162" unicode="&#x162;" horiz-adv-x="680" 
d="M660 700v-155h-220v-545h-200v545h-220v155h640zM466 -133q0 -48 -34.5 -76.5t-94.5 -28.5q-45 0 -79.5 16.5t-41.5 31.5l61 56q29 -29 55 -29q17 0 27.5 9t10.5 24q0 16 -11 26t-30 10q-13 0 -30 -7l-29 19l25 82h99l-38 -43q3 1 12 1q43 0 70.5 -24t27.5 -67z" />
    <glyph glyph-name="uni0163" unicode="&#x163;" horiz-adv-x="425" 
d="M398 -133q0 -48 -34.5 -76.5t-94.5 -28.5q-45 0 -79.5 16.5t-41.5 31.5l61 56q29 -29 55 -29q17 0 27.5 9t10.5 24q0 16 -11 26t-30 10q-13 0 -30 -7l-29 19l25 81q-69 16 -108 60t-39 107v214h-81v120h81v160h175v-160h140v-120h-140v-197q0 -63 76 -63q30 0 56 14v-136
q-30 -6 -70 -8l-29 -33q3 1 12 1q43 0 70.5 -24t27.5 -67z" />
    <glyph glyph-name="Tcaron" unicode="&#x164;" horiz-adv-x="680" 
d="M660 700v-155h-220v-545h-200v545h-220v155h640zM148 900h133l60 -45l60 45h130l-131 -143h-125z" />
    <glyph glyph-name="tcaron" unicode="&#x165;" horiz-adv-x="425" 
d="M395 380h-140v-197q0 -63 76 -63q30 0 56 14v-136q-40 -8 -81 -8q-101 0 -163 46q-63 47 -63 130v214h-81v120h81v160h175v-160h140v-120zM306 700h171l-79 -162h-101z" />
    <glyph glyph-name="Tbar" unicode="&#x166;" horiz-adv-x="680" 
d="M660 545h-220v-123h105v-123h-105v-299h-200v299h-105v123h105v123h-220v155h640v-155z" />
    <glyph glyph-name="tbar" unicode="&#x167;" horiz-adv-x="425" 
d="M395 380h-140v-62h114v-95h-114v-40q0 -63 76 -63q30 0 56 14v-136q-40 -8 -81 -8q-101 0 -163 46q-63 47 -63 130v57h-73v95h73v62h-81v120h81v160h175v-160h140v-120z" />
    <glyph glyph-name="Umacron" unicode="&#x16a;" horiz-adv-x="779" 
d="M517 700h202v-430q0 -123 -93.5 -201.5t-235.5 -78.5q-143 0 -236.5 78t-93.5 202v430h200v-428q0 -56 36 -90.5t94 -34.5q57 0 92 34.5t35 90.5v428zM239 881h303v-108h-303v108z" />
    <glyph glyph-name="umacron" unicode="&#x16b;" 
d="M373 500h175v-500h-175v80q-37 -90 -149 -90q-86 0 -130.5 50t-44.5 143v317h175v-295q0 -35 19.5 -55t52.5 -20q34 0 55.5 23t21.5 64v283zM149 701h303v-108h-303v108z" />
    <glyph glyph-name="Uring" unicode="&#x16e;" horiz-adv-x="779" 
d="M517 700h202v-430q0 -123 -93.5 -201.5t-235.5 -78.5q-143 0 -236.5 78t-93.5 202v430h200v-428q0 -56 36 -90.5t94 -34.5q57 0 92 34.5t35 90.5v428zM271 839q0 48 34 79.5t85 31.5t85 -31.5t34 -79.5t-34 -79.5t-85 -31.5t-85 31.5t-34 79.5zM439 839q0 22 -13.5 35
t-35.5 13t-35.5 -13t-13.5 -35t13.5 -35.5t35.5 -13.5t35.5 13.5t13.5 35.5z" />
    <glyph glyph-name="uring" unicode="&#x16f;" 
d="M373 500h175v-500h-175v80q-37 -90 -149 -90q-86 0 -130.5 50t-44.5 143v317h175v-295q0 -35 19.5 -55t52.5 -20q34 0 55.5 23t21.5 64v283zM181 659q0 48 34 79.5t85 31.5t85 -31.5t34 -79.5t-34 -79.5t-85 -31.5t-85 31.5t-34 79.5zM349 659q0 22 -13.5 35t-35.5 13
t-35.5 -13t-13.5 -35t13.5 -35.5t35.5 -13.5t35.5 13.5t13.5 35.5z" />
    <glyph glyph-name="Uhungarumlaut" unicode="&#x170;" horiz-adv-x="779" 
d="M517 700h202v-430q0 -123 -93.5 -201.5t-235.5 -78.5q-143 0 -236.5 78t-93.5 202v430h200v-428q0 -56 36 -90.5t94 -34.5q57 0 92 34.5t35 90.5v428zM685 900l-159 -143h-99l38 107l-119 -107h-99l51 143h387z" />
    <glyph glyph-name="uhungarumlaut" unicode="&#x171;" 
d="M373 500h175v-500h-175v80q-37 -90 -149 -90q-86 0 -130.5 50t-44.5 143v317h175v-295q0 -35 19.5 -55t52.5 -20q34 0 55.5 23t21.5 64v283zM605 700l-159 -143h-99l38 107l-119 -107h-99l51 143h387z" />
    <glyph glyph-name="Uogonek" unicode="&#x172;" horiz-adv-x="779" 
d="M517 700h202v-430q0 -100 -63 -172q-61 -71 -166 -97q-37 -33 -37 -56q0 -22 22 -22q17 0 31 10l24 -96q-39 -15 -87 -15q-57 0 -93 22t-36 64q0 47 53 83q-134 6 -220.5 83.5t-86.5 195.5v430h200v-428q0 -56 36 -90.5t94 -34.5q57 0 92 34.5t35 90.5v428z" />
    <glyph glyph-name="uogonek" unicode="&#x173;" 
d="M441 -55q0 -22 22 -22q17 0 31 10l24 -96q-39 -15 -87 -15q-57 0 -93 22t-36 64q0 54 71 93v79q-37 -90 -149 -90q-86 0 -130.5 50t-44.5 143v317h175v-295q0 -35 19.5 -55t52.5 -20q34 0 55.5 23t21.5 64v283h175v-500h-71q-36 -31 -36 -55z" />
    <glyph glyph-name="Wcircumflex" unicode="&#x174;" horiz-adv-x="1153" 
d="M952 700h186l-198 -700h-231l-139 458l-129 -458h-230l-196 700h207l118 -495l147 495h192l154 -513zM386 757l127 143h125l131 -143h-130l-60 45l-60 -45h-133z" />
    <glyph glyph-name="wcircumflex" unicode="&#x175;" horiz-adv-x="857" 
d="M682 500h172l-148 -500h-203l-78 260l-70 -260h-203l-149 500h194l75 -364l91 364h155l91 -362zM253 557l127 143h125l131 -143h-130l-60 45l-60 -45h-133z" />
    <glyph glyph-name="Ycircumflex" unicode="&#x176;" horiz-adv-x="689" 
d="M501 700h193l-247 -443v-257h-200v254l-252 446h220l143 -272zM170 757l127 143h125l131 -143h-130l-60 45l-60 -45h-133z" />
    <glyph glyph-name="ycircumflex" unicode="&#x177;" horiz-adv-x="569" 
d="M385 500h176l-292 -710h-201l138 246l-198 464h194l94 -264zM99 557l127 143h125l131 -143h-130l-60 45l-60 -45h-133z" />
    <glyph glyph-name="Ydieresis" unicode="&#x178;" horiz-adv-x="689" 
d="M153 852q0 41 27.5 68t66.5 27t66.5 -27t27.5 -68t-27 -67.5t-67 -26.5t-67 26.5t-27 67.5zM379 852q0 41 27.5 68t66.5 27t66.5 -27t27.5 -68t-27 -67.5t-67 -26.5t-67 26.5t-27 67.5zM501 700h193l-247 -443v-257h-200v254l-252 446h220l143 -272z" />
    <glyph glyph-name="Zacute" unicode="&#x179;" horiz-adv-x="689" 
d="M298 154h357v-154h-621v120l354 426h-339v154h596v-120zM272 757l61 143h247l-159 -143h-149z" />
    <glyph glyph-name="zacute" unicode="&#x17a;" horiz-adv-x="511" 
d="M249 123h240v-123h-460v100l243 277h-230v123h432v-100zM183 557l61 143h247l-159 -143h-149z" />
    <glyph glyph-name="Zdotaccent" unicode="&#x17b;" horiz-adv-x="689" 
d="M298 154h357v-154h-621v120l354 426h-339v154h596v-120zM242 851q0 42 30 70.5t73 28.5t73 -28.5t30 -70.5t-30 -70t-73 -28t-73 28t-30 70z" />
    <glyph glyph-name="zdotaccent" unicode="&#x17c;" horiz-adv-x="511" 
d="M249 123h240v-123h-460v100l243 277h-230v123h432v-100zM153 651q0 42 30 70.5t73 28.5t73 -28.5t30 -70.5t-30 -70t-73 -28t-73 28t-30 70z" />
    <glyph glyph-name="Zcaron" unicode="&#x17d;" horiz-adv-x="689" 
d="M298 154h357v-154h-621v120l354 426h-339v154h596v-120zM153 900h133l60 -45l60 45h130l-131 -143h-125z" />
    <glyph glyph-name="zcaron" unicode="&#x17e;" horiz-adv-x="511" 
d="M249 123h240v-123h-460v100l243 277h-230v123h432v-100zM64 700h133l60 -45l60 45h130l-131 -143h-125z" />
    <glyph glyph-name="Scommaaccent" unicode="&#x218;" horiz-adv-x="674" 
d="M30 191l184 38q12 -47 52.5 -73.5t93.5 -26.5q49 0 73.5 16.5t24.5 44.5q0 22 -20 39q-17 15 -43 24t-87 25q-72 18 -132 40q-127 52 -127 174q0 99 75.5 158.5t202.5 59.5q111 0 190.5 -48.5t107.5 -133.5l-179 -30q-12 37 -44.5 59.5t-73.5 22.5q-40 0 -63.5 -17
t-23.5 -45q4 -33 32 -47.5t108 -33.5t133 -42q58 -23 94 -70t36 -118q0 -97 -78.5 -157t-204.5 -60t-214 53.5t-117 147.5zM262 -337l-9 59q41 1 67.5 11t26.5 27q0 16 -20 19q-89 18 -89 88q0 40 25 63.5t67 23.5q49 0 75 -35.5t26 -95.5q0 -156 -169 -160z" />
    <glyph glyph-name="scommaaccent" unicode="&#x219;" horiz-adv-x="491" 
d="M15 130l160 36q8 -30 31.5 -47.5t55.5 -17.5q52 0 52 34q0 21 -22.5 32.5t-79.5 25.5q-56 13 -96 29q-93 38 -93 128q0 71 60 115t152 44q160 0 223 -111l-150 -38q-9 20 -27.5 32.5t-40.5 12.5q-21 0 -33.5 -9.5t-12.5 -24.5q0 -17 18.5 -26t71.5 -23q58 -14 96 -30
q96 -37 96 -138q0 -72 -63.5 -117.5t-157.5 -45.5q-91 0 -154.5 36.5t-85.5 102.5zM166 -337l-9 59q41 1 67.5 11t26.5 27q0 16 -20 19q-89 18 -89 88q0 40 25 63.5t67 23.5q49 0 75 -35.5t26 -95.5q0 -156 -169 -160z" />
    <glyph glyph-name="uni021A" unicode="&#x21a;" horiz-adv-x="680" 
d="M660 700v-155h-220v-545h-200v545h-220v155h640zM265 -337l-9 59q41 1 67.5 11t26.5 27q0 16 -20 19q-89 18 -89 88q0 40 25 63.5t67 23.5q49 0 75 -35.5t26 -95.5q0 -156 -169 -160z" />
    <glyph glyph-name="uni021B" unicode="&#x21b;" horiz-adv-x="425" 
d="M395 380h-140v-197q0 -63 76 -63q30 0 56 14v-136q-40 -8 -81 -8q-101 0 -163 46q-63 47 -63 130v214h-81v120h81v160h175v-160h140v-120zM197 -337l-9 59q41 1 67.5 11t26.5 27q0 16 -20 19q-89 18 -89 88q0 40 25 63.5t67 23.5q49 0 75 -35.5t26 -95.5
q0 -156 -169 -160z" />
    <glyph glyph-name="uni0237" unicode="&#x237;" horiz-adv-x="289" 
d="M227 500v-544q0 -80 -59.5 -128t-163.5 -48q-41 0 -81 8v121q26 -14 56 -14q73 0 73 63v542h175z" />
    <glyph glyph-name="circumflex" unicode="&#x2c6;" horiz-adv-x="500" 
d="M59 557l127 143h125l131 -143h-130l-60 45l-60 -45h-133z" />
    <glyph glyph-name="caron" unicode="&#x2c7;" horiz-adv-x="500" 
d="M58 700h133l60 -45l60 45h130l-131 -143h-125z" />
    <glyph glyph-name="breve" unicode="&#x2d8;" horiz-adv-x="500" 
d="M88 700h110q5 -37 51 -37q22 0 36.5 10.5t16.5 26.5h110q-4 -66 -49 -106t-114 -40q-71 0 -114 39.5t-47 106.5z" />
    <glyph glyph-name="dotaccent" unicode="&#x2d9;" horiz-adv-x="500" 
d="M147 651q0 42 30 70.5t73 28.5t73 -28.5t30 -70.5t-30 -70t-73 -28t-73 28t-30 70z" />
    <glyph glyph-name="ring" unicode="&#x2da;" horiz-adv-x="500" 
d="M131 659q0 48 34 79.5t85 31.5t85 -31.5t34 -79.5t-34 -79.5t-85 -31.5t-85 31.5t-34 79.5zM299 659q0 22 -13.5 35t-35.5 13t-35.5 -13t-13.5 -35t13.5 -35.5t35.5 -13.5t35.5 13.5t13.5 35.5z" />
    <glyph glyph-name="ogonek" unicode="&#x2db;" horiz-adv-x="500" 
d="M127 -102q0 59 88 102h98q-47 -39 -47 -65q0 -22 22 -22q17 0 31 10l24 -96q-39 -15 -87 -15q-57 0 -93 22t-36 64z" />
    <glyph glyph-name="tilde" unicode="&#x2dc;" horiz-adv-x="500" 
d="M240 598q-35 19 -48 19q-28 0 -45 -42l-75 20q5 68 35.5 106t76.5 38q32 0 73 -26q37 -20 52 -20t24 9t21 33l75 -20q-5 -66 -37 -104.5t-79 -38.5q-29 0 -73 26z" />
    <glyph glyph-name="hungarumlaut" unicode="&#x2dd;" horiz-adv-x="500" 
d="M469 700l-159 -143h-99l38 107l-119 -107h-99l51 143h387z" />
    <glyph glyph-name="gravecomb" unicode="&#x300;" horiz-adv-x="0" 
d="M-146 757h-149l-159 143h247z" />
    <glyph glyph-name="acutecomb" unicode="&#x301;" horiz-adv-x="0" 
d="M-404 757l61 143h247l-159 -143h-149z" />
    <glyph glyph-name="uni0302" unicode="&#x302;" horiz-adv-x="0" 
d="M-441 757l127 143h125l131 -143h-130l-60 45l-60 -45h-133z" />
    <glyph glyph-name="tildecomb" unicode="&#x303;" horiz-adv-x="0" 
d="M-260 778q-35 19 -48 19q-28 0 -45 -42l-75 20q5 68 35.5 106t76.5 38q32 0 73 -26q37 -20 52 -20t24 9t21 33l75 -20q-5 -66 -37 -104.5t-79 -38.5q-29 0 -73 26z" />
    <glyph glyph-name="uni0304" unicode="&#x304;" horiz-adv-x="0" 
d="M-401 881h303v-108h-303v108z" />
    <glyph glyph-name="uni0306" unicode="&#x306;" horiz-adv-x="0" 
d="M-412 900h110q5 -37 51 -37q22 0 36.5 10.5t16.5 26.5h110q-4 -66 -49 -106t-114 -40q-71 0 -114 39.5t-47 106.5z" />
    <glyph glyph-name="uni0307" unicode="&#x307;" horiz-adv-x="0" 
d="M-353 851q0 42 30 70.5t73 28.5t73 -28.5t30 -70.5t-30 -70t-73 -28t-73 28t-30 70z" />
    <glyph glyph-name="uni0308" unicode="&#x308;" horiz-adv-x="0" 
d="M-458 852q0 41 27.5 68t66.5 27t66.5 -27t27.5 -68t-27 -67.5t-67 -26.5t-67 26.5t-27 67.5zM-232 852q0 41 27.5 68t66.5 27t66.5 -27t27.5 -68t-27 -67.5t-67 -26.5t-67 26.5t-27 67.5z" />
    <glyph glyph-name="uni030A" unicode="&#x30a;" horiz-adv-x="0" 
d="M-369 839q0 48 34 79.5t85 31.5t85 -31.5t34 -79.5t-34 -79.5t-85 -31.5t-85 31.5t-34 79.5zM-201 839q0 22 -13.5 35t-35.5 13t-35.5 -13t-13.5 -35t13.5 -35.5t35.5 -13.5t35.5 13.5t13.5 35.5z" />
    <glyph glyph-name="uni030B" unicode="&#x30b;" horiz-adv-x="0" 
d="M9 900l-159 -143h-99l38 107l-119 -107h-99l51 143h387z" />
    <glyph glyph-name="uni030C" unicode="&#x30c;" horiz-adv-x="0" 
d="M-442 900h133l60 -45l60 45h130l-131 -143h-125z" />
    <glyph glyph-name="uni0312" unicode="&#x312;" horiz-adv-x="0" 
d="M-171 842l9 -59q-41 -1 -67.5 -11t-26.5 -27q0 -16 20 -19q89 -18 89 -88q0 -40 -25 -63.5t-67 -23.5q-49 0 -75 35.5t-26 95.5q0 156 169 160z" />
    <glyph glyph-name="uni0326" unicode="&#x326;" horiz-adv-x="0" 
d="M-325 -337l-9 59q41 1 67.5 11t26.5 27q0 16 -20 19q-89 18 -89 88q0 40 25 63.5t67 23.5q49 0 75 -35.5t26 -95.5q0 -156 -169 -160z" />
    <glyph glyph-name="uni0327" unicode="&#x327;" horiz-adv-x="0" 
d="M-107 -133q0 -48 -34.5 -76.5t-94.5 -28.5q-45 0 -79.5 16.5t-41.5 31.5l61 56q29 -29 55 -29q17 0 27.5 9t10.5 24q0 16 -11 26t-30 10q-13 0 -30 -7l-29 19l25 82h99l-38 -43q3 1 12 1q43 0 70.5 -24t27.5 -67z" />
    <glyph glyph-name="uni0328" unicode="&#x328;" horiz-adv-x="0" 
d="M-373 -102q0 59 88 102h98q-47 -39 -47 -65q0 -22 22 -22q17 0 31 10l24 -96q-39 -15 -87 -15q-57 0 -93 22t-36 64z" />
    <glyph glyph-name="uni0335" unicode="&#x335;" horiz-adv-x="0" 
d="M-421 303v95h342v-95h-342z" />
    <glyph glyph-name="uni0400" unicode="&#x400;" horiz-adv-x="657" 
d="M607 545h-342v-111h297v-143h-297v-136h342v-155h-537v700h537v-155zM427 757h-149l-159 143h247z" />
    <glyph glyph-name="uni0401" unicode="&#x401;" horiz-adv-x="657" 
d="M141 852q0 41 27.5 68t66.5 27t66.5 -27t27.5 -68t-27 -67.5t-67 -26.5t-67 26.5t-27 67.5zM367 852q0 41 27.5 68t66.5 27t66.5 -27t27.5 -68t-27 -67.5t-67 -26.5t-67 26.5t-27 67.5zM607 545h-342v-111h297v-143h-297v-136h342v-155h-537v700h537v-155z" />
    <glyph glyph-name="uni0402" unicode="&#x402;" horiz-adv-x="778" 
d="M729 292v-90q0 -91 -60 -151.5t-159 -60.5q-29 0 -70 3v134q16 -6 28 -6q37 0 49 15.5t12 56.5v63q0 30 -15.5 47t-40.5 17q-51 0 -98 -34v-286h-200v545h-175v155h572v-155h-197v-139q74 74 179 74q73 0 124 -53.5t51 -134.5z" />
    <glyph glyph-name="uni0403" unicode="&#x403;" horiz-adv-x="643" 
d="M598 700v-155h-328v-545h-200v700h528zM269 757l61 143h247l-159 -143h-149z" />
    <glyph glyph-name="uni0404" unicode="&#x404;" horiz-adv-x="806" 
d="M577 289l204 -36q-30 -121 -128.5 -192t-237.5 -71q-166 -2 -277 100t-108 259q-3 158 108 260.5t277 100.5q139 0 237.5 -71t128.5 -192l-204 -36q-13 73 -52 108.5t-110 35.5q-60 0 -103.5 -33t-61.5 -94h225v-155h-225q17 -62 60.5 -95t104.5 -33q71 0 110 35.5
t52 108.5z" />
    <glyph glyph-name="uni0405" unicode="&#x405;" horiz-adv-x="674" 
d="M30 191l184 38q12 -47 52.5 -73.5t93.5 -26.5q49 0 73.5 16.5t24.5 44.5q0 22 -20 39q-17 15 -43 24t-87 25q-72 18 -132 40q-127 52 -127 174q0 99 75.5 158.5t202.5 59.5q111 0 190.5 -48.5t107.5 -133.5l-179 -30q-12 37 -44.5 59.5t-73.5 22.5q-40 0 -63.5 -17
t-23.5 -45q4 -33 32 -47.5t108 -33.5t133 -42q58 -23 94 -70t36 -118q0 -97 -78.5 -157t-204.5 -60t-214 53.5t-117 147.5z" />
    <glyph glyph-name="uni0406" unicode="&#x406;" horiz-adv-x="360" 
d="M80 700h200v-700h-200v700z" />
    <glyph glyph-name="uni0407" unicode="&#x407;" horiz-adv-x="360" 
d="M-28 852q0 41 27.5 68t66.5 27t66.5 -27t27.5 -68t-27 -67.5t-67 -26.5t-67 26.5t-27 67.5zM198 852q0 41 27.5 68t66.5 27t66.5 -27t27.5 -68t-27 -67.5t-67 -26.5t-67 26.5t-27 67.5zM80 700h200v-700h-200v700z" />
    <glyph glyph-name="uni0408" unicode="&#x408;" horiz-adv-x="658" 
d="M15 186l179 78q24 -70 44.5 -93t71.5 -26q40 0 61.5 24.5t21.5 70.5v460h200v-419q0 -139 -73.5 -215t-210.5 -76q-122 0 -187 52q-67 53 -107 144z" />
    <glyph glyph-name="uni0409" unicode="&#x409;" horiz-adv-x="1115" 
d="M1105 228q0 -102 -77.5 -165t-202.5 -63h-336v545h-185l-13 -308q-5 -113 -81.5 -175t-204.5 -62v168q44 0 64.5 21t22.5 68l20 443h577v-248h136q125 0 202.5 -62t77.5 -162zM895 228q0 39 -25 62.5t-66 23.5h-115v-164h115q41 0 66 21.5t25 56.5z" />
    <glyph glyph-name="uni040A" unicode="&#x40a;" horiz-adv-x="1193" 
d="M1183 219q0 -101 -76.5 -160t-203.5 -59h-336v273h-297v-273h-200v700h200v-272h297v272h200v-272h136q128 0 204 -55t76 -154zM988 219q0 38 -23.5 54.5t-72.5 16.5h-125v-140h125q96 0 96 69z" />
    <glyph glyph-name="uni040B" unicode="&#x40b;" horiz-adv-x="778" 
d="M729 292v-292h-200v236q0 33 -21 53.5t-55 20.5q-47 0 -78 -26v-284h-200v545h-175v155h572v-155h-197v-119q74 44 159 44q89 0 141 -49q54 -49 54 -129z" />
    <glyph glyph-name="uni040C" unicode="&#x40c;" horiz-adv-x="772" 
d="M498 0l-140 280h-88v-280h-200v700h200v-265h85l161 265h234l-230 -333l237 -367h-259zM298 757l61 143h247l-159 -143h-149z" />
    <glyph glyph-name="uni040D" unicode="&#x40d;" horiz-adv-x="868" 
d="M512 757h-149l-159 143h247zM532 700h266v-700h-172v491l-287 -491h-269v700h172v-506z" />
    <glyph glyph-name="uni040E" unicode="&#x40e;" horiz-adv-x="680" 
d="M481 700h189l-309 -700h-242l121 173l-230 527h220l115 -343zM192 900h110q5 -37 51 -37q22 0 36.5 10.5t16.5 26.5h110q-4 -66 -49 -106t-114 -40q-71 0 -114 39.5t-47 106.5z" />
    <glyph glyph-name="uni040F" unicode="&#x40f;" horiz-adv-x="813" 
d="M543 700h200v-700h-237l-14 -130h-170l-14 130h-238v700h200v-545h273v545z" />
    <glyph glyph-name="uni0410" unicode="&#x410;" horiz-adv-x="805" 
d="M577 0l-49 138h-271l-50 -138h-192l282 700h213l280 -700h-213zM306 277h172l-85 241z" />
    <glyph glyph-name="uni0411" unicode="&#x411;" horiz-adv-x="706" 
d="M686 228q0 -102 -77.5 -165t-202.5 -63h-336v700h558v-155h-358v-93h136q125 0 202.5 -62t77.5 -162zM476 228q0 39 -25 62.5t-66 23.5h-115v-164h115q41 0 66 21.5t25 56.5z" />
    <glyph glyph-name="uni0412" unicode="&#x412;" horiz-adv-x="704" 
d="M684 189q0 -84 -65 -136.5t-163 -52.5h-386v700h361q98 0 161 -49.5t63 -128.5q0 -61 -39 -104.5t-122 -57.5q98 -11 144 -56.5t46 -114.5zM265 566v-155h90q41 0 68 22.5t27 58.5q0 33 -24.5 53.5t-64.5 20.5h-96zM474 214q0 33 -26 53t-69 20h-114v-152h114
q46 0 70.5 20.5t24.5 58.5z" />
    <glyph glyph-name="uni0413" unicode="&#x413;" horiz-adv-x="643" 
d="M598 700v-155h-328v-545h-200v700h528z" />
    <glyph glyph-name="uni0414" unicode="&#x414;" horiz-adv-x="838" 
d="M788 150v-269h-182v119h-394v-119h-182v269h77l154 550h451v-550h76zM294 150h239v400h-141z" />
    <glyph glyph-name="uni0415" unicode="&#x415;" horiz-adv-x="657" 
d="M607 545h-342v-111h297v-143h-297v-136h342v-155h-537v700h537v-155z" />
    <glyph glyph-name="uni0416" unicode="&#x416;" horiz-adv-x="1164" 
d="M910 0l-140 280h-88v-280h-200v280h-88l-140 -280h-259l237 367l-230 333h234l161 -265h85v265h200v-265h85l161 265h234l-230 -333l237 -367h-259z" />
    <glyph glyph-name="uni0417" unicode="&#x417;" horiz-adv-x="630" 
d="M603 186q0 -92 -78 -145q-77 -51 -202 -51q-121 0 -206 63t-97 164l205 28q4 -44 32.5 -68.5t69.5 -24.5q37 0 60 18.5t23 47.5q0 34 -27 54t-80 20h-42v121h49q86 0 86 71q0 28 -22.5 46t-57.5 18q-40 0 -64.5 -26.5t-23.5 -70.5l-210 32q12 101 95.5 164t202.5 63
q121 0 198 -55.5t77 -144.5q0 -118 -116 -155q128 -39 128 -169z" />
    <glyph glyph-name="uni0418" unicode="&#x418;" horiz-adv-x="868" 
d="M532 700h266v-700h-172v491l-287 -491h-269v700h172v-506z" />
    <glyph glyph-name="uni0419" unicode="&#x419;" horiz-adv-x="868" 
d="M272 900h110q5 -37 51 -37q22 0 36.5 10.5t16.5 26.5h110q-4 -66 -49 -106t-114 -40q-71 0 -114 39.5t-47 106.5zM532 700h266v-700h-172v491l-287 -491h-269v700h172v-506z" />
    <glyph glyph-name="uni041A" unicode="&#x41a;" horiz-adv-x="772" 
d="M498 0l-140 280h-88v-280h-200v700h200v-265h85l161 265h234l-230 -333l237 -367h-259z" />
    <glyph glyph-name="uni041B" unicode="&#x41b;" horiz-adv-x="759" 
d="M689 700v-700h-200v545h-185l-13 -308q-5 -113 -81.5 -175t-204.5 -62v168q44 0 64.5 21t22.5 68l20 443h577z" />
    <glyph glyph-name="uni041C" unicode="&#x41c;" horiz-adv-x="996" 
d="M645 700h281v-700h-208v506l-214 -427h-34l-214 429v-508h-186v700h290l143 -293z" />
    <glyph glyph-name="uni041D" unicode="&#x41d;" horiz-adv-x="837" 
d="M567 700h200v-700h-200v273h-297v-273h-200v700h200v-272h297v272z" />
    <glyph glyph-name="uni041E" unicode="&#x41e;" horiz-adv-x="830" 
d="M800 349q3 -157 -108 -259t-277 -100q-166 -2 -277 100t-108 259q-3 158 108 260.5t277 100.5q166 2 277 -100.5t108 -260.5zM590 350q0 95 -48 150t-127 55t-127 -55t-48 -150t48 -150t127 -55t127 55t48 150z" />
    <glyph glyph-name="uni041F" unicode="&#x41f;" horiz-adv-x="813" 
d="M743 700v-700h-200v545h-273v-545h-200v700h673z" />
    <glyph glyph-name="uni0420" unicode="&#x420;" horiz-adv-x="696" 
d="M686 472q0 -100 -77.5 -162t-202.5 -62h-136v-248h-200v700h336q125 0 202.5 -63t77.5 -165zM476 472q0 35 -25 56.5t-66 21.5h-115v-164h115q41 0 66 23.5t25 62.5z" />
    <glyph glyph-name="uni0421" unicode="&#x421;" horiz-adv-x="806" 
d="M577 289l204 -36q-30 -121 -128.5 -192t-237.5 -71q-166 -2 -277 100t-108 259q-3 158 108 260.5t277 100.5q139 0 237.5 -71t128.5 -192l-204 -36q-13 73 -52 108.5t-110 35.5q-79 0 -127 -55t-48 -150t48 -150t127 -55q71 0 110 35.5t52 108.5z" />
    <glyph glyph-name="uni0422" unicode="&#x422;" horiz-adv-x="680" 
d="M660 700v-155h-220v-545h-200v545h-220v155h640z" />
    <glyph glyph-name="uni0423" unicode="&#x423;" horiz-adv-x="680" 
d="M481 700h189l-309 -700h-242l121 173l-230 527h220l115 -343z" />
    <glyph glyph-name="uni0424" unicode="&#x424;" horiz-adv-x="832" 
d="M505 76v-76h-178v77q-141 18 -219 89.5t-78 182.5q0 112 78 184t219 90v77h178v-76q141 -16 219 -88.5t78 -186.5t-78 -185.5t-219 -87.5zM606 349q0 114 -101 143v-284q101 27 101 141zM327 209v281q-101 -30 -101 -141q0 -110 101 -140z" />
    <glyph glyph-name="uni0425" unicode="&#x425;" horiz-adv-x="769" 
d="M754 0h-257l-125 211l-130 -211h-205l229 340l-251 360h257l134 -232l132 232h205l-242 -354z" />
    <glyph glyph-name="uni0426" unicode="&#x426;" horiz-adv-x="902" 
d="M743 155h109v-285h-170l-14 130h-598v700h200v-545h273v545h200v-545z" />
    <glyph glyph-name="uni0427" unicode="&#x427;" horiz-adv-x="743" 
d="M473 700h200v-700h-200v181q-66 -12 -134 -12q-138 0 -212.5 70t-74.5 199v262h200v-262q0 -55 34.5 -84.5t97.5 -29.5q48 0 89 9v367z" />
    <glyph glyph-name="uni0428" unicode="&#x428;" horiz-adv-x="1140" 
d="M870 700h200v-700h-1000v700h200v-545h200v545h200v-545h200v545z" />
    <glyph glyph-name="uni0429" unicode="&#x429;" horiz-adv-x="1241" 
d="M1070 155h121v-285h-170l-14 130h-937v700h200v-545h200v545h200v-545h200v545h200v-545z" />
    <glyph glyph-name="uni042A" unicode="&#x42a;" horiz-adv-x="788" 
d="M778 228q0 -102 -77.5 -165t-202.5 -63h-336v545h-162v155h362v-248h136q125 0 202.5 -62t77.5 -162zM568 228q0 39 -25 62.5t-66 23.5h-115v-164h115q41 0 66 21.5t25 56.5z" />
    <glyph glyph-name="uni042B" unicode="&#x42b;" horiz-adv-x="1056" 
d="M406 0h-336v700h200v-248h136q125 0 202.5 -62t77.5 -162q0 -102 -77.5 -165t-202.5 -63zM776 700h200v-700h-200v700zM385 314h-115v-164h115q41 0 66 21.5t25 56.5q0 39 -25 62.5t-66 23.5z" />
    <glyph glyph-name="uni042C" unicode="&#x42c;" horiz-adv-x="696" 
d="M406 0h-336v700h200v-248h136q125 0 202.5 -62t77.5 -162q0 -102 -77.5 -165t-202.5 -63zM385 314h-115v-164h115q41 0 66 21.5t25 56.5q0 39 -25 62.5t-66 23.5z" />
    <glyph glyph-name="uni042D" unicode="&#x42d;" horiz-adv-x="806" 
d="M776 349q3 -157 -108 -259t-277 -100q-139 0 -237.5 71t-128.5 192l204 36q13 -73 52 -108.5t110 -35.5q61 0 104.5 33t60.5 95h-225v155h225q-18 61 -61.5 94t-103.5 33q-71 0 -110 -35.5t-52 -108.5l-204 36q30 121 128.5 192t237.5 71q166 2 277 -100.5t108 -260.5z
" />
    <glyph glyph-name="uni042E" unicode="&#x42e;" horiz-adv-x="1128" 
d="M1098 349q3 -157 -108 -259t-277 -100q-146 0 -249.5 77.5t-128.5 205.5h-65v-273h-200v700h200v-272h66q25 128 128.5 205t248.5 77q166 2 277 -100.5t108 -260.5zM888 350q0 95 -48 150t-127 55t-127 -55t-48 -150t48 -150t127 -55t127 55t48 150z" />
    <glyph glyph-name="uni042F" unicode="&#x42f;" horiz-adv-x="724" 
d="M318 700h336v-700h-200v248h-58l-145 -248h-241l218 258q-88 20 -139 77t-51 137q0 102 77.5 165t202.5 63zM454 386v164h-115q-41 0 -66 -21.5t-25 -56.5q0 -39 25 -62.5t66 -23.5h115z" />
    <glyph glyph-name="uni0430" unicode="&#x430;" horiz-adv-x="547" 
d="M498 321v-321h-168v72q-32 -81 -141 -81q-79 0 -124 37.5t-45 102.5q0 58 34 92q31 31 73 47t116 30q51 10 69 17.5t18 19.5v1q0 22 -17 35.5t-45 13.5q-62 0 -81 -61l-157 49q31 63 95 98.5t148 35.5q101 0 163 -51t62 -137zM330 186v39q-34 -7 -42 -8
q-41 -8 -56.5 -12.5t-28.5 -17.5t-15 -37q0 -19 14 -30.5t36 -11.5q34 0 62 22q30 22 30 56z" />
    <glyph glyph-name="uni0431" unicode="&#x431;" horiz-adv-x="612" 
d="M587 251q0 -117 -77.5 -189t-203.5 -72t-203.5 85.5t-77.5 225.5q0 148 43 227q44 82 146 125q105 46 307 77l-2 -160q-133 -12 -198 -27t-98 -52t-41 -108q50 106 163 106q109 0 175.5 -65.5t66.5 -172.5zM420 250q0 62 -29 96t-80 34t-80 -34t-29 -96t29 -95.5
t80 -33.5t80 33.5t29 95.5z" />
    <glyph glyph-name="uni0432" unicode="&#x432;" horiz-adv-x="594" 
d="M569 134q0 -60 -51 -97q-49 -37 -126 -37h-340v500h319q76 0 126 -35q49 -34 49 -89q0 -42 -30 -74t-94 -43q76 -8 111.5 -42t35.5 -83zM227 396v-89h85q28 0 46 12t18 33q0 19 -15 31.5t-41 12.5h-93zM390 160q0 20 -17 31.5t-47 11.5h-99v-89h105q26 0 42 13.5t16 32.5
z" />
    <glyph glyph-name="uni0433" unicode="&#x433;" horiz-adv-x="423" 
d="M423 500v-120h-196v-380h-175v500h371z" />
    <glyph glyph-name="uni0434" unicode="&#x434;" horiz-adv-x="626" 
d="M5 -88v208h73l69 380h402v-380h62v-208h-151v88h-304v-88h-151zM231 120h142v260h-97z" />
    <glyph glyph-name="uni0435" unicode="&#x435;" horiz-adv-x="574" 
d="M548 212h-345q12 -101 96 -101q71 0 81 61l164 -37q-32 -70 -95 -107.5t-150 -37.5q-125 0 -199.5 70t-74.5 188q0 115 73.5 188.5t190.5 73.5q116 0 188 -69.5t72 -180.5q0 -37 -1 -48zM205 308h170q-6 85 -80 85t-90 -85z" />
    <glyph glyph-name="uni0436" unicode="&#x436;" horiz-adv-x="895" 
d="M662 0l-95 201h-32v-201h-175v201h-32l-95 -201h-220l172 265l-166 235h198l109 -179h34v179h175v-179h34l109 179h198l-166 -235l172 -265h-220z" />
    <glyph glyph-name="uni0437" unicode="&#x437;" horiz-adv-x="531" 
d="M504 138q0 -67 -65.5 -107.5t-163.5 -40.5q-106 0 -173.5 44t-83.5 122l161 20q12 -67 88 -67q33 0 52.5 13t19.5 36q0 42 -87 42h-34v108h38q72 0 72 41q0 21 -18.5 34t-47.5 13q-35 0 -56.5 -19t-24.5 -52l-162 24q14 75 80 118t171 43q97 0 161 -40.5t64 -105.5
q0 -80 -90 -108q99 -28 99 -118z" />
    <glyph glyph-name="uni0438" unicode="&#x438;" horiz-adv-x="652" 
d="M391 500h209v-500h-175v308l-161 -308h-212v500h175v-316z" />
    <glyph glyph-name="uni0439" unicode="&#x439;" horiz-adv-x="652" 
d="M391 500h209v-500h-175v308l-161 -308h-212v500h175v-316zM164 700h110q5 -37 51 -37q22 0 36.5 10.5t16.5 26.5h110q-4 -66 -49 -106t-114 -40q-71 0 -114 39.5t-47 106.5z" />
    <glyph glyph-name="uni043A" unicode="&#x43a;" horiz-adv-x="587" 
d="M354 0l-95 201h-32v-201h-175v500h175v-179h34l109 179h198l-166 -235l172 -265h-220z" />
    <glyph glyph-name="uni043B" unicode="&#x43b;" horiz-adv-x="597" 
d="M545 500v-500h-175v380h-106l-11 -242q-3 -81 -62 -110q-57 -28 -171 -28v120q33 0 53.5 13.5t21.5 39.5l15 327h435z" />
    <glyph glyph-name="uni043C" unicode="&#x43c;" horiz-adv-x="740" 
d="M467 500h221v-500h-175v294l-126 -248h-35l-125 247v-293h-175v500h224l95 -196z" />
    <glyph glyph-name="uni043D" unicode="&#x43d;" horiz-adv-x="602" 
d="M375 500h175v-500h-175v198h-148v-198h-175v500h175v-182h148v182z" />
    <glyph glyph-name="uni043E" unicode="&#x43e;" horiz-adv-x="622" 
d="M597 250q0 -117 -78.5 -188t-207.5 -71t-207.5 71t-78.5 188q0 118 78.5 189t207.5 71t207.5 -71t78.5 -189zM420 250q0 62 -29 96t-80 34t-80 -34t-29 -96t29 -95.5t80 -33.5t80 33.5t29 95.5z" />
    <glyph glyph-name="uni043F" unicode="&#x43f;" horiz-adv-x="613" 
d="M561 500v-500h-175v380h-159v-380h-175v500h509z" />
    <glyph glyph-name="uni0440" unicode="&#x440;" horiz-adv-x="640" 
d="M615 250q0 -117 -63.5 -188.5t-169.5 -71.5q-111 0 -155 92v-292h-175v710h175v-83q44 92 155 92q106 0 169.5 -71t63.5 -188zM439 250q0 58 -29.5 93.5t-78.5 35.5t-78.5 -35.5t-29.5 -93.5t29.5 -93.5t78.5 -35.5t78.5 35.5t29.5 93.5z" />
    <glyph glyph-name="uni0441" unicode="&#x441;" horiz-adv-x="606" 
d="M25 250q0 118 77 189t207 71q107 0 179 -50.5t95 -140.5l-171 -32q-17 92 -101 92q-51 0 -80 -33.5t-29 -95.5t29 -95.5t80 -33.5q84 0 101 92l171 -32q-23 -90 -95 -140.5t-179 -50.5q-130 0 -207 71t-77 189z" />
    <glyph glyph-name="uni0442" unicode="&#x442;" horiz-adv-x="466" 
d="M466 500v-120h-145v-380h-175v380h-146v120h466z" />
    <glyph glyph-name="uni0443" unicode="&#x443;" horiz-adv-x="569" 
d="M385 500h176l-292 -710h-201l138 246l-198 464h194l94 -264z" />
    <glyph glyph-name="uni0444" unicode="&#x444;" horiz-adv-x="725" 
d="M440 -5l2 -215h-159l2 215q-119 18 -190 86q-70 67 -70 169t70 169q71 68 190 86l-2 195h159l-2 -195q118 -18 189 -86t71 -169t-71 -169t-189 -86zM521 250q0 94 -83 123l-1 -123l1 -124q83 32 83 124zM287 127l1 123l-1 123q-83 -29 -83 -123t83 -123z" />
    <glyph glyph-name="uni0445" unicode="&#x445;" horiz-adv-x="558" 
d="M545 0h-203l-76 136l-83 -136h-170l168 254l-168 247h203l71 -128l78 128h170l-168 -254z" />
    <glyph glyph-name="uni0446" unicode="&#x446;" horiz-adv-x="641" 
d="M632 120v-217h-155l-9 97h-416v500h175v-380h159v380h175v-380h71z" />
    <glyph glyph-name="uni0447" unicode="&#x447;" horiz-adv-x="578" 
d="M351 500h175v-500h-175v122q-53 -11 -106 -11q-110 0 -154 44.5t-44 158.5v186h175v-198q0 -37 20.5 -54t68.5 -17q23 0 40 4v265z" />
    <glyph glyph-name="uni0448" unicode="&#x448;" horiz-adv-x="869" 
d="M642 500h175v-500h-765v500h175v-380h120v380h175v-380h120v380z" />
    <glyph glyph-name="uni0449" unicode="&#x449;" horiz-adv-x="888" 
d="M879 120v-217h-155l-9 97h-663v500h175v-380h120v380h175v-380h120v380h175v-380h62z" />
    <glyph glyph-name="uni044A" unicode="&#x44a;" horiz-adv-x="662" 
d="M645 177q0 -77 -63 -127t-163 -50h-297v380h-122v120h297v-140h122q99 0 162.5 -52.5t63.5 -130.5zM468 180q0 27 -20 44t-52 17h-99v-121h99q32 0 52 17t20 43z" />
    <glyph glyph-name="uni044B" unicode="&#x44b;" horiz-adv-x="871" 
d="M349 0h-297v500h175v-140h122q99 0 162.5 -52.5t63.5 -130.5q0 -77 -63 -127t-163 -50zM326 241h-99v-121h99q32 0 52 17t20 43q0 27 -20 44t-52 17zM644 0v500h175v-500h-175z" />
    <glyph glyph-name="uni044C" unicode="&#x44c;" horiz-adv-x="592" 
d="M349 0h-297v500h175v-140h122q99 0 162.5 -52.5t63.5 -130.5q0 -77 -63 -127t-163 -50zM326 241h-99v-121h99q32 0 52 17t20 43q0 27 -20 44t-52 17z" />
    <glyph glyph-name="uni044D" unicode="&#x44d;" horiz-adv-x="606" 
d="M581 250q0 -118 -77 -189t-207 -71q-107 0 -179 50.5t-95 140.5l171 32q17 -92 101 -92q77 0 100 70h-125v112h127q-23 76 -102 76q-84 0 -101 -92l-171 32q23 90 95 140.5t179 50.5q130 0 207 -71t77 -189z" />
    <glyph glyph-name="uni044E" unicode="&#x44e;" horiz-adv-x="870" 
d="M845 250q0 -117 -78.5 -188t-207.5 -71q-111 0 -186 53.5t-94 146.5h-52v-191h-175v500h175v-189h52q20 93 94.5 146t185.5 53q129 0 207.5 -71t78.5 -189zM668 250q0 62 -29 96t-80 34t-80 -34t-29 -96t29 -95.5t80 -33.5t80 33.5t29 95.5z" />
    <glyph glyph-name="uni044F" unicode="&#x44f;" horiz-adv-x="605" 
d="M267 500h286v-500h-175v151h-55l-102 -151h-206l158 165q-62 20 -97 63.5t-35 100.5q0 77 62.5 124t163.5 47zM378 269v112h-88q-32 0 -52 -16t-20 -38q0 -24 20 -41t52 -17h88z" />
    <glyph glyph-name="uni0450" unicode="&#x450;" horiz-adv-x="574" 
d="M548 212h-345q12 -101 96 -101q71 0 81 61l164 -37q-32 -70 -95 -107.5t-150 -37.5q-125 0 -199.5 70t-74.5 188q0 115 73.5 188.5t190.5 73.5q116 0 188 -69.5t72 -180.5q0 -37 -1 -48zM205 308h170q-6 85 -80 85t-90 -85zM375 557h-149l-159 143h247z" />
    <glyph glyph-name="uni0451" unicode="&#x451;" horiz-adv-x="574" 
d="M89 652q0 41 27.5 68t66.5 27t66.5 -27t27.5 -68t-27 -67.5t-67 -26.5t-67 26.5t-27 67.5zM315 652q0 41 27.5 68t66.5 27t66.5 -27t27.5 -68t-27 -67.5t-67 -26.5t-67 26.5t-27 67.5zM548 212h-345q12 -101 96 -101q71 0 81 61l164 -37q-32 -70 -95 -107.5t-150 -37.5
q-125 0 -199.5 70t-74.5 188q0 115 73.5 188.5t190.5 73.5q116 0 188 -69.5t72 -180.5q0 -37 -1 -48zM205 308h170q-6 85 -80 85t-90 -85z" />
    <glyph glyph-name="uni0452" unicode="&#x452;" 
d="M551 317v-361q0 -80 -59.5 -128t-163.5 -48q-41 0 -81 8v121q26 -14 56 -14q73 0 73 63v337q0 35 -19.5 55t-52.5 20q-34 0 -55.5 -23t-21.5 -64v-283h-175v543h-62v95h62v62h175v-62h105v-95h-105v-123q37 90 149 90q86 0 130.5 -50t44.5 -143z" />
    <glyph glyph-name="uni0453" unicode="&#x453;" horiz-adv-x="423" 
d="M423 500v-120h-196v-380h-175v500h371zM139 557l61 143h247l-159 -143h-149z" />
    <glyph glyph-name="uni0454" unicode="&#x454;" horiz-adv-x="606" 
d="M412 213l171 -32q-23 -90 -95 -140.5t-179 -50.5q-130 0 -207 71t-77 189t77 189t207 71q107 0 179 -50.5t95 -140.5l-171 -32q-17 92 -101 92q-79 0 -102 -76h127v-112h-125q23 -70 100 -70q84 0 101 92z" />
    <glyph glyph-name="uni0455" unicode="&#x455;" horiz-adv-x="491" 
d="M15 130l160 36q8 -30 31.5 -47.5t55.5 -17.5q52 0 52 34q0 21 -22.5 32.5t-79.5 25.5q-56 13 -96 29q-93 38 -93 128q0 71 60 115t152 44q160 0 223 -111l-150 -38q-9 20 -27.5 32.5t-40.5 12.5q-21 0 -33.5 -9.5t-12.5 -24.5q0 -17 18.5 -26t71.5 -23q58 -14 96 -30
q96 -37 96 -138q0 -72 -63.5 -117.5t-157.5 -45.5q-91 0 -154.5 36.5t-85.5 102.5z" />
    <glyph glyph-name="uni0456" unicode="&#x456;" horiz-adv-x="289" 
d="M42 651q0 42 30 70.5t73 28.5t73 -28.5t30 -70.5t-30 -70t-73 -28t-73 28t-30 70zM57 0v500h175v-500h-175z" />
    <glyph glyph-name="uni0457" unicode="&#x457;" horiz-adv-x="279" 
d="M-68 652q0 41 27.5 68t66.5 27t66.5 -27t27.5 -68t-27 -67.5t-67 -26.5t-67 26.5t-27 67.5zM158 652q0 41 27.5 68t66.5 27t66.5 -27t27.5 -68t-27 -67.5t-67 -26.5t-67 26.5t-27 67.5zM52 0v500h175v-500h-175z" />
    <glyph glyph-name="uni0458" unicode="&#x458;" horiz-adv-x="288" 
d="M41 651q0 42 30 70.5t73 28.5t73 -28.5t30 -70.5t-30 -70t-73 -28t-73 28t-30 70zM232 500v-544q0 -80 -59.5 -128t-163.5 -48q-41 0 -81 8v121q26 -14 56 -14q73 0 73 63v542h175z" />
    <glyph glyph-name="uni0459" unicode="&#x459;" horiz-adv-x="910" 
d="M893 177q0 -77 -63 -127t-163 -50h-297v380h-106l-11 -242q-3 -81 -62 -110q-57 -28 -171 -28v120q33 0 53.5 13.5t21.5 39.5l15 327h435v-140h122q99 0 162.5 -52.5t63.5 -130.5zM716 180q0 27 -20 44t-52 17h-99v-121h99q32 0 52 17t20 43z" />
    <glyph glyph-name="uni045A" unicode="&#x45a;" horiz-adv-x="915" 
d="M898 177q0 -77 -63 -127t-163 -50h-297v198h-148v-198h-175v500h175v-182h148v182h175v-140h122q99 0 162.5 -52.5t63.5 -130.5zM721 180q0 27 -20 44t-52 17h-99v-121h99q32 0 52 17t20 43z" />
    <glyph glyph-name="uni045B" unicode="&#x45b;" 
d="M551 317v-317h-175v295q0 35 -19.5 55t-52.5 20q-34 0 -55.5 -23t-21.5 -64v-283h-175v543h-62v95h62v62h175v-62h105v-95h-105v-123q37 90 149 90q86 0 130.5 -50t44.5 -143z" />
    <glyph glyph-name="uni045C" unicode="&#x45c;" horiz-adv-x="587" 
d="M354 0l-95 201h-32v-201h-175v500h175v-179h34l109 179h198l-166 -235l172 -265h-220zM239 556l61 143h247l-159 -143h-149z" />
    <glyph glyph-name="uni045D" unicode="&#x45d;" horiz-adv-x="652" 
d="M391 500h209v-500h-175v308l-161 -308h-212v500h175v-316zM404 557h-149l-159 143h247z" />
    <glyph glyph-name="uni045E" unicode="&#x45e;" horiz-adv-x="569" 
d="M385 500h176l-292 -710h-201l138 246l-198 464h194l94 -264zM128 700h110q5 -37 51 -37q22 0 36.5 10.5t16.5 26.5h110q-4 -66 -49 -106t-114 -40q-71 0 -114 39.5t-47 106.5z" />
    <glyph glyph-name="uni045F" unicode="&#x45f;" horiz-adv-x="613" 
d="M386 500h175v-500h-175l-9 -97h-155l-9 97h-161v500h175v-380h159v380z" />
    <glyph glyph-name="uni0462" unicode="&#x462;" horiz-adv-x="804" 
d="M794 228q0 -102 -77.5 -165t-202.5 -63h-336v512h-178v143h178v45h200v-45h224v-143h-224v-60h136q125 0 202.5 -62t77.5 -162zM584 228q0 39 -25 62.5t-66 23.5h-115v-164h115q41 0 66 21.5t25 56.5z" />
    <glyph glyph-name="uni0463" unicode="&#x463;" horiz-adv-x="672" 
d="M655 177q0 -77 -63 -127t-163 -50h-297v420h-132v110h132v170h175v-170h188v-110h-188v-60h122q99 0 162.5 -52.5t63.5 -130.5zM478 180q0 27 -20 44t-52 17h-99v-121h99q32 0 52 17t20 43z" />
    <glyph glyph-name="uni0472" unicode="&#x472;" horiz-adv-x="830" 
d="M800 349q3 -157 -108 -259t-277 -100q-166 -2 -277 100t-108 259q-3 158 108 260.5t277 100.5q166 2 277 -100.5t108 -260.5zM249 423h332q-16 62 -60.5 97t-105.5 35t-105.5 -35t-60.5 -97zM581 278h-332q16 -63 59.5 -98t106.5 -35t106.5 35t59.5 98z" />
    <glyph glyph-name="uni0473" unicode="&#x473;" horiz-adv-x="622" 
d="M597 250q0 -117 -78.5 -188t-207.5 -71t-207.5 71t-78.5 188q0 118 78.5 189t207.5 71t207.5 -71t78.5 -189zM209 303h204q-10 37 -37 57t-65 20t-65 -20t-37 -57zM412 193h-202q23 -72 101 -72t101 72z" />
    <glyph glyph-name="uni0474" unicode="&#x474;" horiz-adv-x="751" 
d="M724 710v-168q-24 0 -39.5 -16t-32.5 -60l-178 -466h-198l-266 700h219l161 -482l88 262q31 95 54 139q46 91 192 91z" />
    <glyph glyph-name="uni0475" unicode="&#x475;" horiz-adv-x="559" 
d="M326 284l11 42q18 68 35 104q38 80 169 80v-147q-23 0 -34.5 -11.5t-24.5 -48.5l-103 -303h-188l-183 500h193l93 -329z" />
    <glyph glyph-name="uni0490" unicode="&#x490;" horiz-adv-x="643" 
d="M428 830h170v-285h-328v-545h-200v700h344z" />
    <glyph glyph-name="uni0491" unicode="&#x491;" horiz-adv-x="438" 
d="M314 603h124v-223h-211v-380h-175v500h251z" />
    <glyph glyph-name="Wgrave" unicode="&#x1e80;" horiz-adv-x="1153" 
d="M952 700h186l-198 -700h-231l-139 458l-129 -458h-230l-196 700h207l118 -495l147 495h192l154 -513zM655 757h-149l-159 143h247z" />
    <glyph glyph-name="wgrave" unicode="&#x1e81;" horiz-adv-x="857" 
d="M682 500h172l-148 -500h-203l-78 260l-70 -260h-203l-149 500h194l75 -364l91 364h155l91 -362zM522 557h-149l-159 143h247z" />
    <glyph glyph-name="Wacute" unicode="&#x1e82;" horiz-adv-x="1153" 
d="M952 700h186l-198 -700h-231l-139 458l-129 -458h-230l-196 700h207l118 -495l147 495h192l154 -513zM504 757l61 143h247l-159 -143h-149z" />
    <glyph glyph-name="wacute" unicode="&#x1e83;" horiz-adv-x="857" 
d="M682 500h172l-148 -500h-203l-78 260l-70 -260h-203l-149 500h194l75 -364l91 364h155l91 -362zM371 557l61 143h247l-159 -143h-149z" />
    <glyph glyph-name="Wdieresis" unicode="&#x1e84;" horiz-adv-x="1153" 
d="M369 852q0 41 27.5 68t66.5 27t66.5 -27t27.5 -68t-27 -67.5t-67 -26.5t-67 26.5t-27 67.5zM595 852q0 41 27.5 68t66.5 27t66.5 -27t27.5 -68t-27 -67.5t-67 -26.5t-67 26.5t-27 67.5zM952 700h186l-198 -700h-231l-139 458l-129 -458h-230l-196 700h207l118 -495
l147 495h192l154 -513z" />
    <glyph glyph-name="wdieresis" unicode="&#x1e85;" horiz-adv-x="857" 
d="M236 652q0 41 27.5 68t66.5 27t66.5 -27t27.5 -68t-27 -67.5t-67 -26.5t-67 26.5t-27 67.5zM462 652q0 41 27.5 68t66.5 27t66.5 -27t27.5 -68t-27 -67.5t-67 -26.5t-67 26.5t-27 67.5zM682 500h172l-148 -500h-203l-78 260l-70 -260h-203l-149 500h194l75 -364l91 364
h155l91 -362z" />
    <glyph glyph-name="uni1E9E" unicode="&#x1e9e;" horiz-adv-x="767" 
d="M606 332q37 -15 56.5 -25.5t41 -28t31.5 -43t12 -60.5q0 -87 -75 -137q-74 -48 -193 -48q-57 0 -135 20l29 155q58 -34 96 -34q32 0 51.5 12.5t19.5 35.5q0 20 -14.5 31t-50.5 23q-55 20 -77 40t-25 71q0 95 135 199q-51 18 -100 18q-154 0 -154 -170v-391h-200v441
q0 126 88.5 197.5t234.5 71.5q75 0 158 -20q81 -19 143 -60v-116q-59 -36 -97 -75t-38 -61q0 -13 14 -22.5t49 -23.5z" />
    <glyph glyph-name="Ygrave" unicode="&#x1ef2;" horiz-adv-x="689" 
d="M501 700h193l-247 -443v-257h-200v254l-252 446h220l143 -272zM439 757h-149l-159 143h247z" />
    <glyph glyph-name="ygrave" unicode="&#x1ef3;" horiz-adv-x="569" 
d="M385 500h176l-292 -710h-201l138 246l-198 464h194l94 -264zM368 557h-149l-159 143h247z" />
    <glyph glyph-name="uni2009" unicode="&#x2009;" horiz-adv-x="170" 
 />
    <glyph glyph-name="endash" unicode="&#x2013;" horiz-adv-x="608" 
d="M40 348h528v-133h-528v133z" />
    <glyph glyph-name="emdash" unicode="&#x2014;" horiz-adv-x="996" 
d="M40 348h916v-133h-916v133z" />
    <glyph glyph-name="quoteleft" unicode="&#x2018;" horiz-adv-x="294" 
d="M235 750l10 -65q-41 -1 -80 -20q-37 -18 -37 -40q0 -17 21 -20q100 -17 100 -99q0 -45 -28.5 -71.5t-75.5 -26.5q-55 0 -84 40t-29 107q0 88 55 141t148 54z" />
    <glyph glyph-name="quoteright" unicode="&#x2019;" horiz-adv-x="294" 
d="M59 408l-10 65q41 1 80 20q37 18 37 40q0 17 -21 20q-100 17 -100 99q0 45 28.5 71.5t75.5 26.5q55 0 84 -40t29 -107q0 -88 -55 -141t-148 -54z" />
    <glyph glyph-name="quotesinglbase" unicode="&#x201a;" horiz-adv-x="294" 
d="M59 -154l-10 65q41 1 80 20q37 18 37 40q0 17 -21 20q-100 17 -100 99q0 45 28.5 71.5t75.5 26.5q55 0 84 -40t29 -107q0 -88 -55 -141t-148 -54z" />
    <glyph glyph-name="quotedblleft" unicode="&#x201c;" horiz-adv-x="550" 
d="M235 750l10 -65q-41 -1 -80 -20q-37 -18 -37 -40q0 -17 21 -20q100 -17 100 -99q0 -45 -28.5 -71.5t-75.5 -26.5q-55 0 -84 40t-29 107q0 88 55 141t148 54zM491 750l10 -65q-41 -1 -80 -20q-37 -18 -37 -40q0 -17 21 -20q100 -17 100 -99q0 -45 -28.5 -71.5t-75.5 -26.5
q-55 0 -84 40t-29 107q0 88 55 141t148 54z" />
    <glyph glyph-name="quotedblright" unicode="&#x201d;" horiz-adv-x="550" 
d="M315 408l-10 65q41 1 80 20q37 18 37 40q0 17 -21 20q-100 17 -100 99q0 45 28.5 71.5t75.5 26.5q55 0 84 -40t29 -107q0 -88 -55 -141t-148 -54zM59 408l-10 65q41 1 80 20q37 18 37 40q0 17 -21 20q-100 17 -100 99q0 45 28.5 71.5t75.5 26.5q55 0 84 -40t29 -107
q0 -88 -55 -141t-148 -54z" />
    <glyph glyph-name="quotedblbase" unicode="&#x201e;" horiz-adv-x="550" 
d="M315 -154l-10 65q41 1 80 20q37 18 37 40q0 17 -21 20q-100 17 -100 99q0 45 28.5 71.5t75.5 26.5q55 0 84 -40t29 -107q0 -88 -55 -141t-148 -54zM59 -154l-10 65q41 1 80 20q37 18 37 40q0 17 -21 20q-100 17 -100 99q0 45 28.5 71.5t75.5 26.5q55 0 84 -40t29 -107
q0 -88 -55 -141t-148 -54z" />
    <glyph glyph-name="dagger" unicode="&#x2020;" horiz-adv-x="386" 
d="M366 633v-110h-108v-268h-130v268h-108v110h108v110h130v-110h108z" />
    <glyph glyph-name="daggerdbl" unicode="&#x2021;" horiz-adv-x="386" 
d="M366 533h-108v-68h108v-100h-108v-110h-130v110h-108v100h108v68h-108v100h108v110h130v-110h108v-100z" />
    <glyph glyph-name="bullet" unicode="&#x2022;" horiz-adv-x="393" 
d="M374 310q0 -74 -51 -123.5t-127 -49.5q-75 0 -125.5 49.5t-50.5 123.5t50.5 124.5t125.5 50.5q76 0 127 -50.5t51 -124.5z" />
    <glyph glyph-name="ellipsis" unicode="&#x2026;" horiz-adv-x="852" 
d="M531 92q0 -42 -30 -70.5t-73 -28.5t-73 28.5t-30 70.5t30 70t73 28t73 -28t30 -70zM810 92q0 -42 -30 -70.5t-73 -28.5t-73 28.5t-30 70.5t30 70t73 28t73 -28t30 -70zM252 92q0 -42 -30 -70.5t-73 -28.5t-73 28.5t-30 70.5t30 70t73 28t73 -28t30 -70z" />
    <glyph glyph-name="perthousand" unicode="&#x2030;" horiz-adv-x="1384" 
d="M25 524q0 78 56.5 130.5t140.5 52.5q82 0 137 -52.5t55 -130.5t-55.5 -131.5t-138.5 -53.5t-139 53.5t-56 131.5zM641 700h120l-241 -349l-227 -351h-122l256 357zM295 524q0 35 -20.5 57.5t-54.5 22.5q-35 -1 -55 -23t-20 -57q0 -36 21 -58.5t56 -22.5q33 0 53 22.5
t20 58.5zM911 178q0 -78 -55 -130.5t-137 -52.5q-84 0 -140.5 52.5t-56.5 130.5t56 131.5t139 53.5t138.5 -53.5t55.5 -131.5zM1359 178q0 -78 -55 -130.5t-137 -52.5q-84 0 -140.5 52.5t-56.5 130.5t56 131.5t139 53.5t138.5 -53.5t55.5 -131.5zM642 178q0 -35 20 -57
t55 -23q34 0 54.5 22.5t20.5 57.5q0 36 -20 58.5t-53 22.5q-35 0 -56 -22.5t-21 -58.5zM1090 178q0 -35 20 -57t55 -23q34 0 54.5 22.5t20.5 57.5q0 36 -20 58.5t-53 22.5q-35 0 -56 -22.5t-21 -58.5z" />
    <glyph glyph-name="guilsinglleft" unicode="&#x2039;" horiz-adv-x="339" 
d="M30 282l103 173h176l-156 -196l156 -195h-176l-103 172v46z" />
    <glyph glyph-name="guilsinglright" unicode="&#x203a;" horiz-adv-x="339" 
d="M309 282v-46l-103 -172h-176l156 195l-156 196h176z" />
    <glyph glyph-name="fraction" unicode="&#x2044;" horiz-adv-x="120" 
d="M235 700h120l-241 -349l-227 -351h-122l256 357z" />
    <glyph glyph-name="uni2070" unicode="&#x2070;" horiz-adv-x="416" 
d="M20 574q0 93 49.5 143.5t137.5 50.5q90 0 139.5 -50.5t49.5 -143.5q0 -90 -50 -141t-139 -51t-138 52t-49 140zM268 574q0 100 -61 100q-59 0 -59 -100q0 -98 59 -98q61 0 61 98z" />
    <glyph glyph-name="uni2074" unicode="&#x2074;" horiz-adv-x="380" 
d="M355 538v-79h-38v-73h-115v73h-177v64l150 237h142v-222h38zM119 538h83l12 150z" />
    <glyph glyph-name="uni2075" unicode="&#x2075;" horiz-adv-x="355" 
d="M339 517q0 -60 -47 -97.5t-121 -37.5q-57 0 -101.5 24t-59.5 68l126 30q5 -38 42 -38q17 0 28 12t11 31q0 17 -10.5 27.5t-27.5 10.5q-27 0 -34 -20l-107 16l23 217h266l-11 -91h-173l-13 -88q35 54 95 54q51 0 82.5 -32.5t31.5 -85.5z" />
    <glyph glyph-name="uni2076" unicode="&#x2076;" horiz-adv-x="368" 
d="M345 521q0 -63 -44 -101t-116 -38q-73 0 -117.5 38t-44.5 101q0 64 50 131l79 108h155l-126 -124q25 5 38 5q56 0 91 -32.5t35 -87.5zM228 516q0 23 -12.5 35.5t-33.5 12.5t-33.5 -12.5t-12.5 -35.5q0 -24 12.5 -37.5t33.5 -13.5t33.5 13.5t12.5 37.5z" />
    <glyph glyph-name="uni2077" unicode="&#x2077;" horiz-adv-x="335" 
d="M27 760h298v-67l-139 -305h-138l164 280h-197z" />
    <glyph glyph-name="uni2078" unicode="&#x2078;" horiz-adv-x="377" 
d="M357 492q0 -51 -44.5 -80.5t-122.5 -29.5q-80 0 -125 30t-45 81q0 64 80 92q-64 24 -64 82q0 48 40 74.5t114 26.5t113.5 -26.5t39.5 -74.5q0 -58 -63 -82q77 -30 77 -93zM149 655q0 -17 11 -27t30 -10q40 0 40 36q0 37 -40 37q-19 0 -30 -10t-11 -26zM235 507
q0 18 -12.5 29t-32.5 11t-32.5 -11t-12.5 -29t12.5 -29t32.5 -11t32.5 11t12.5 29z" />
    <glyph glyph-name="uni2079" unicode="&#x2079;" horiz-adv-x="368" 
d="M345 625q0 -64 -50 -131l-79 -108h-155l126 124q-25 -5 -38 -5q-56 0 -91 32.5t-35 87.5q0 63 44 101t116 38q73 0 117.5 -38t44.5 -101zM186 582q21 0 33.5 12.5t12.5 35.5q0 24 -12.5 37.5t-33.5 13.5t-33.5 -13.5t-12.5 -37.5q0 -23 12.5 -35.5t33.5 -12.5z" />
    <glyph glyph-name="uni2080" unicode="&#x2080;" horiz-adv-x="416" 
d="M20 68q0 93 49.5 143.5t137.5 50.5q90 0 139.5 -50.5t49.5 -143.5q0 -90 -50 -141t-139 -51t-138 52t-49 140zM268 68q0 100 -61 100q-59 0 -59 -100q0 -98 59 -98q61 0 61 98z" />
    <glyph glyph-name="uni2081" unicode="&#x2081;" horiz-adv-x="298" 
d="M151 254h97v-374h-122v284l-76 -61l-40 92z" />
    <glyph glyph-name="uni2082" unicode="&#x2082;" horiz-adv-x="355" 
d="M166 -38l176 21v-103h-322v83l116 81q74 53 74 88q0 15 -10 24.5t-25 9.5q-20 0 -31.5 -12t-10.5 -33l-123 23q8 55 53 86.5t113 31.5q70 0 114.5 -35t44.5 -95q-1 -43 -26.5 -77.5t-110.5 -76.5z" />
    <glyph glyph-name="uni2083" unicode="&#x2083;" horiz-adv-x="367" 
d="M347 -14q0 -52 -42 -81t-110 -29q-71 0 -116.5 31t-56.5 83l122 21q4 -42 48 -42q39 0 39 31q0 33 -52 33h-22v72h25q42 0 42 33q0 15 -10.5 23t-26.5 8q-36 0 -41 -39l-123 21q11 51 55.5 81t111.5 30t109 -30t42 -81q0 -65 -77 -80q83 -18 83 -85z" />
    <glyph glyph-name="uni2084" unicode="&#x2084;" horiz-adv-x="380" 
d="M355 32v-79h-38v-73h-115v73h-177v64l150 237h142v-222h38zM119 32h83l12 150z" />
    <glyph glyph-name="uni2085" unicode="&#x2085;" horiz-adv-x="355" 
d="M339 11q0 -60 -47 -97.5t-121 -37.5q-57 0 -101.5 24t-59.5 68l126 30q5 -38 42 -38q17 0 28 12t11 31q0 17 -10.5 27.5t-27.5 10.5q-27 0 -34 -20l-107 16l23 217h266l-11 -91h-173l-13 -88q35 54 95 54q51 0 82.5 -32.5t31.5 -85.5z" />
    <glyph glyph-name="uni2086" unicode="&#x2086;" horiz-adv-x="368" 
d="M345 15q0 -63 -44 -101t-116 -38q-73 0 -117.5 38t-44.5 101q0 64 50 131l79 108h155l-126 -124q25 5 38 5q56 0 91 -32.5t35 -87.5zM228 10q0 23 -12.5 35.5t-33.5 12.5t-33.5 -12.5t-12.5 -35.5q0 -24 12.5 -37.5t33.5 -13.5t33.5 13.5t12.5 37.5z" />
    <glyph glyph-name="uni2087" unicode="&#x2087;" horiz-adv-x="335" 
d="M27 252h298v-67l-139 -305h-138l164 280h-197z" />
    <glyph glyph-name="uni2088" unicode="&#x2088;" horiz-adv-x="377" 
d="M357 -14q0 -51 -44.5 -80.5t-122.5 -29.5q-80 0 -125 30t-45 81q0 64 80 92q-64 24 -64 82q0 48 40 74.5t114 26.5t113.5 -26.5t39.5 -74.5q0 -58 -63 -82q77 -30 77 -93zM149 149q0 -17 11 -27t30 -10q40 0 40 36q0 37 -40 37q-19 0 -30 -10t-11 -26zM235 1
q0 18 -12.5 29t-32.5 11t-32.5 -11t-12.5 -29t12.5 -29t32.5 -11t32.5 11t12.5 29z" />
    <glyph glyph-name="uni2089" unicode="&#x2089;" horiz-adv-x="368" 
d="M345 119q0 -64 -50 -131l-79 -108h-155l126 124q-25 -5 -38 -5q-56 0 -91 32.5t-35 87.5q0 63 44 101t116 38q73 0 117.5 -38t44.5 -101zM186 76q21 0 33.5 12.5t12.5 35.5q0 24 -12.5 37.5t-33.5 13.5t-33.5 -13.5t-12.5 -37.5q0 -23 12.5 -35.5t33.5 -12.5z" />
    <glyph glyph-name="Euro" unicode="&#x20ac;" horiz-adv-x="696" 
d="M478 265l193 -34q-27 -114 -105 -177.5t-193 -63.5q-117 0 -195.5 65.5t-104.5 182.5h-68v75h58q-1 8 -1 37v18h-57v75h65q22 126 101.5 196.5t201.5 70.5q115 0 193 -63.5t105 -177.5l-193 -34q-8 65 -33 93.5t-72 28.5q-45 0 -70 -27t-33 -87h149l-8 -75h-147v-18
q0 -29 1 -37h140l-8 -75h-124q10 -50 34 -72.5t66 -22.5q47 0 72 28.5t33 93.5z" />
    <glyph glyph-name="uni2116" unicode="&#x2116;" horiz-adv-x="1427" 
d="M626 700h172v-700h-266l-290 506v-506h-172v700h269l287 -491v491zM879 492q0 102 64.5 163.5t174.5 61.5t175 -61.5t65 -163.5t-65 -163.5t-175 -61.5t-174.5 61.5t-64.5 163.5zM1206 492q0 54 -23 84t-65 30t-64.5 -30t-22.5 -84q0 -55 22.5 -84.5t64.5 -29.5
q43 0 65.5 29.5t22.5 84.5zM940 84v120h358v-120h-358z" />
    <glyph glyph-name="trademark" unicode="&#x2122;" horiz-adv-x="832" 
d="M30 615v85h321v-85h-105v-253h-112v253h-104zM667 700h135v-338h-109v223l-95 -173h-19l-92 173v-223h-98v338h138l68 -128z" />
    <glyph glyph-name="oneeighth" unicode="&#x215b;" horiz-adv-x="825" 
d="M151 700h97v-374h-122v284l-76 -61l-40 92zM563 700h120l-241 -349l-227 -351h-122l256 357zM805 106q0 -51 -44.5 -80.5t-122.5 -29.5q-80 0 -125 30t-45 81q0 64 80 92q-64 24 -64 82q0 48 40 74.5t114 26.5t113.5 -26.5t39.5 -74.5q0 -58 -63 -82q77 -30 77 -93z
M597 269q0 -17 11 -27t30 -10q40 0 40 36q0 37 -40 37q-19 0 -30 -10t-11 -26zM683 121q0 18 -12.5 29t-32.5 11t-32.5 -11t-12.5 -29t12.5 -29t32.5 -11t32.5 11t12.5 29z" />
    <glyph glyph-name="threeeighths" unicode="&#x215c;" horiz-adv-x="864" 
d="M347 432q0 -52 -42 -81t-110 -29q-71 0 -116.5 31t-56.5 83l122 21q4 -42 48 -42q39 0 39 31q0 33 -52 33h-22v72h25q42 0 42 33q0 15 -10.5 23t-26.5 8q-36 0 -41 -39l-123 21q11 51 55.5 81t111.5 30t109 -30t42 -81q0 -65 -77 -80q83 -18 83 -85zM602 700h120
l-241 -349l-227 -351h-122l256 357zM844 106q0 -51 -44.5 -80.5t-122.5 -29.5q-80 0 -125 30t-45 81q0 64 80 92q-64 24 -64 82q0 48 40 74.5t114 26.5t113.5 -26.5t39.5 -74.5q0 -58 -63 -82q77 -30 77 -93zM636 269q0 -17 11 -27t30 -10q40 0 40 36q0 37 -40 37
q-19 0 -30 -10t-11 -26zM722 121q0 18 -12.5 29t-32.5 11t-32.5 -11t-12.5 -29t12.5 -29t32.5 -11t32.5 11t12.5 29z" />
    <glyph glyph-name="fiveeighths" unicode="&#x215d;" horiz-adv-x="852" 
d="M339 457q0 -60 -47 -97.5t-121 -37.5q-57 0 -101.5 24t-59.5 68l126 30q5 -38 42 -38q17 0 28 12t11 31q0 17 -10.5 27.5t-27.5 10.5q-27 0 -34 -20l-107 16l23 217h266l-11 -91h-173l-13 -88q35 54 95 54q51 0 82.5 -32.5t31.5 -85.5zM590 700h120l-241 -349l-227 -351
h-122l256 357zM832 106q0 -51 -44.5 -80.5t-122.5 -29.5q-80 0 -125 30t-45 81q0 64 80 92q-64 24 -64 82q0 48 40 74.5t114 26.5t113.5 -26.5t39.5 -74.5q0 -58 -63 -82q77 -30 77 -93zM624 269q0 -17 11 -27t30 -10q40 0 40 36q0 37 -40 37q-19 0 -30 -10t-11 -26z
M710 121q0 18 -12.5 29t-32.5 11t-32.5 -11t-12.5 -29t12.5 -29t32.5 -11t32.5 11t12.5 29z" />
    <glyph glyph-name="seveneighths" unicode="&#x215e;" horiz-adv-x="782" 
d="M27 700h298v-67l-139 -305h-138l164 280h-197zM520 700h120l-241 -349l-227 -351h-122l256 357zM762 106q0 -51 -44.5 -80.5t-122.5 -29.5q-80 0 -125 30t-45 81q0 64 80 92q-64 24 -64 82q0 48 40 74.5t114 26.5t113.5 -26.5t39.5 -74.5q0 -58 -63 -82q77 -30 77 -93z
M554 269q0 -17 11 -27t30 -10q40 0 40 36q0 37 -40 37q-19 0 -30 -10t-11 -26zM640 121q0 18 -12.5 29t-32.5 11t-32.5 -11t-12.5 -29t12.5 -29t32.5 -11t32.5 11t12.5 29z" />
    <glyph glyph-name="arrowup" unicode="&#x2191;" horiz-adv-x="776" 
d="M726 363l-129 -124l-124 217l8 -456h-186l10 452l-125 -213l-130 123l326 338h24z" />
    <glyph glyph-name="arrowdown" unicode="&#x2193;" horiz-adv-x="776" 
d="M597 461l129 -124l-326 -337h-24l-326 338l130 123l125 -213l-10 452h186l-8 -456z" />
    <glyph glyph-name="uni2196" unicode="&#x2196;" horiz-adv-x="786" 
d="M781 119l-131 -131l-472 480l67 -264l-178 -4l-7 480l17 20h488l-5 -181l-260 63z" />
    <glyph glyph-name="uni2197" unicode="&#x2197;" horiz-adv-x="786" 
d="M709 700l17 -20l-7 -480l-178 4l67 264l-472 -480l-131 131l481 463l-260 -63l-5 181h488z" />
    <glyph glyph-name="uni2198" unicode="&#x2198;" horiz-adv-x="786" 
d="M719 500l7 -480l-17 -20h-488l5 181l260 -63l-481 463l131 131l472 -480l-67 264z" />
    <glyph glyph-name="uni2199" unicode="&#x2199;" horiz-adv-x="786" 
d="M300 118l260 63l5 -181h-488l-17 20l7 480l178 -4l-67 -264l472 480l131 -131z" />
    <glyph glyph-name="minus" unicode="&#x2212;" horiz-adv-x="559" 
d="M35 263v130h489v-130h-489z" />
    <glyph glyph-name="approxequal" unicode="&#x2248;" horiz-adv-x="532" 
d="M97 322l-62 24q18 141 130 141q40 0 112 -22q73 -21 101 -21q52 0 57 44l62 -24q-15 -141 -127 -141q-37 0 -115 23q-74 20 -101 20q-49 0 -57 -44zM97 126l-62 24q18 141 130 141q40 0 112 -22q73 -21 101 -21q52 0 57 44l62 -24q-15 -141 -127 -141q-37 0 -115 23
q-74 20 -101 20q-49 0 -57 -44z" />
    <glyph glyph-name="notequal" unicode="&#x2260;" horiz-adv-x="532" 
d="M482 353h-145l-35 -83h180v-121h-230l-43 -105h-119l43 105h-83v121h133l35 83h-168v121h217l43 103h119l-43 -103h96v-121z" />
    <glyph glyph-name="lessequal" unicode="&#x2264;" horiz-adv-x="496" 
d="M446 561v-131l-252 -69l252 -69v-132l-406 149v103zM40 0v110h406v-110h-406z" />
    <glyph glyph-name="greaterequal" unicode="&#x2265;" horiz-adv-x="496" 
d="M50 561l406 -149v-103l-406 -149v132l252 69l-252 69v131zM50 0v110h406v-110h-406z" />
    <glyph glyph-name="NULL" horiz-adv-x="0" 
 />
    <glyph glyph-name="CR" horiz-adv-x="333" 
 />
    <glyph glyph-name="G.ss06" horiz-adv-x="810" 
d="M426 375h359v-27q2 -158 -103.5 -259t-266.5 -99q-166 -2 -277 100t-108 259q-3 158 108 260.5t277 100.5q133 0 227 -67q94 -66 126 -177l-191 -41q-30 130 -162 130q-79 0 -127 -55t-48 -150t48 -150t127 -55q118 0 148 91h-137v139z" />
    <glyph glyph-name="Gbreve.ss06" horiz-adv-x="810" 
d="M426 375h359v-27q2 -158 -103.5 -259t-266.5 -99q-166 -2 -277 100t-108 259q-3 158 108 260.5t277 100.5q133 0 227 -67q94 -66 126 -177l-191 -41q-30 130 -162 130q-79 0 -127 -55t-48 -150t48 -150t127 -55q118 0 148 91h-137v139zM243 900h110q5 -37 51 -37
q22 0 36.5 10.5t16.5 26.5h110q-4 -66 -49 -106t-114 -40q-71 0 -114 39.5t-47 106.5z" />
    <glyph glyph-name="Gcommaaccent.ss06" horiz-adv-x="810" 
d="M426 375h359v-27q2 -158 -103.5 -259t-266.5 -99q-166 -2 -277 100t-108 259q-3 158 108 260.5t277 100.5q133 0 227 -67q94 -66 126 -177l-191 -41q-30 130 -162 130q-79 0 -127 -55t-48 -150t48 -150t127 -55q118 0 148 91h-137v139zM330 -337l-9 59q41 1 67.5 11
t26.5 27q0 16 -20 19q-89 18 -89 88q0 40 25 63.5t67 23.5q49 0 75 -35.5t26 -95.5q0 -156 -169 -160z" />
    <glyph glyph-name="K.ss08" horiz-adv-x="752" 
d="M506 0l-146 247l-90 -105v-142h-200v700h200v-300l251 300h229l-266 -309l273 -391h-251z" />
    <glyph glyph-name="Kcommaaccent.ss08" horiz-adv-x="752" 
d="M506 0l-146 247l-90 -105v-142h-200v700h200v-300l251 300h229l-266 -309l273 -391h-251zM286 -337l-9 59q41 1 67.5 11t26.5 27q0 16 -20 19q-89 18 -89 88q0 40 25 63.5t67 23.5q49 0 75 -35.5t26 -95.5q0 -156 -169 -160z" />
    <glyph glyph-name="M.ss09" horiz-adv-x="1065" 
d="M701 700h294v-700h-196v538l-202 -538h-150l-200 538v-538h-177v700h313l159 -419z" />
    <glyph glyph-name="G.ss10" horiz-adv-x="832" 
d="M437 364h335v-364h-120l-24 107q-69 -117 -231 -117q-158 -2 -263.5 100t-103.5 260q-2 157 109 259.5t278 100.5q132 0 225 -64.5t127 -178.5l-191 -43q-29 131 -161 131q-81 0 -129 -55t-48 -151q0 -95 48.5 -149.5t130.5 -54.5q104 0 142 80h-124v139z" />
    <glyph glyph-name="Gbreve.ss10" horiz-adv-x="832" 
d="M437 364h335v-364h-120l-24 107q-69 -117 -231 -117q-158 -2 -263.5 100t-103.5 260q-2 157 109 259.5t278 100.5q132 0 225 -64.5t127 -178.5l-191 -43q-29 131 -161 131q-81 0 -129 -55t-48 -151q0 -95 48.5 -149.5t130.5 -54.5q104 0 142 80h-124v139zM254 900h110
q5 -37 51 -37q22 0 36.5 10.5t16.5 26.5h110q-4 -66 -49 -106t-114 -40q-71 0 -114 39.5t-47 106.5z" />
    <glyph glyph-name="Gcommaaccent.ss10" horiz-adv-x="832" 
d="M437 364h335v-364h-120l-24 107q-69 -117 -231 -117q-158 -2 -263.5 100t-103.5 260q-2 157 109 259.5t278 100.5q132 0 225 -64.5t127 -178.5l-191 -43q-29 131 -161 131q-81 0 -129 -55t-48 -151q0 -95 48.5 -149.5t130.5 -54.5q104 0 142 80h-124v139zM341 -337l-9 59
q41 1 67.5 11t26.5 27q0 16 -20 19q-89 18 -89 88q0 40 25 63.5t67 23.5q49 0 75 -35.5t26 -95.5q0 -156 -169 -160z" />
    <glyph glyph-name="i.loclTRK" horiz-adv-x="279" 
d="M52 0v500h175v-500h-175zM37 651q0 42 30 70.5t73 28.5t73 -28.5t30 -70.5t-30 -70t-73 -28t-73 28t-30 70z" />
    <glyph glyph-name="j.alt" horiz-adv-x="289" 
d="M42 651q0 42 30 70.5t73 28.5t73 -28.5t30 -70.5t-30 -70t-73 -28t-73 28t-30 70zM52 -42v542h175v-544q0 -80 -62 -126.5t-180 -49.5v121q67 -1 67 57z" />
    <glyph glyph-name="germandbls.calt" horiz-adv-x="767" 
d="M606 332q37 -15 56.5 -25.5t41 -28t31.5 -43t12 -60.5q0 -87 -75 -137q-74 -48 -193 -48q-57 0 -135 20l29 155q58 -34 96 -34q32 0 51.5 12.5t19.5 35.5q0 20 -14.5 31t-50.5 23q-55 20 -77 40t-25 71q0 95 135 199q-51 18 -100 18q-154 0 -154 -170v-391h-200v441
q0 126 88.5 197.5t234.5 71.5q75 0 158 -20q81 -19 143 -60v-116q-59 -36 -97 -75t-38 -61q0 -13 14 -22.5t49 -23.5z" />
    <glyph glyph-name="a.ss01" horiz-adv-x="640" 
d="M413 500h175v-500h-175v83q-44 -92 -155 -92q-106 0 -169.5 71t-63.5 188t63.5 188.5t169.5 71.5q111 0 155 -92v82zM417 250q0 58 -29.5 93.5t-78.5 35.5t-78.5 -35.5t-29.5 -93.5t29.5 -93.5t78.5 -35.5t78.5 35.5t29.5 93.5z" />
    <glyph glyph-name="aacute.ss01" horiz-adv-x="640" 
d="M413 500h175v-500h-175v83q-44 -92 -155 -92q-106 0 -169.5 71t-63.5 188t63.5 188.5t169.5 71.5q111 0 155 -92v82zM417 250q0 58 -29.5 93.5t-78.5 35.5t-78.5 -35.5t-29.5 -93.5t29.5 -93.5t78.5 -35.5t78.5 35.5t29.5 93.5zM252 557l61 143h247l-159 -143h-149z" />
    <glyph glyph-name="abreve.ss01" horiz-adv-x="640" 
d="M413 500h175v-500h-175v83q-44 -92 -155 -92q-106 0 -169.5 71t-63.5 188t63.5 188.5t169.5 71.5q111 0 155 -92v82zM417 250q0 58 -29.5 93.5t-78.5 35.5t-78.5 -35.5t-29.5 -93.5t29.5 -93.5t78.5 -35.5t78.5 35.5t29.5 93.5zM163 700h110q5 -37 51 -37q22 0 36.5 10.5
t16.5 26.5h110q-4 -66 -49 -106t-114 -40q-71 0 -114 39.5t-47 106.5z" />
    <glyph glyph-name="acircumflex.ss01" horiz-adv-x="640" 
d="M413 500h175v-500h-175v83q-44 -92 -155 -92q-106 0 -169.5 71t-63.5 188t63.5 188.5t169.5 71.5q111 0 155 -92v82zM417 250q0 58 -29.5 93.5t-78.5 35.5t-78.5 -35.5t-29.5 -93.5t29.5 -93.5t78.5 -35.5t78.5 35.5t29.5 93.5zM134 557l127 143h125l131 -143h-130
l-60 45l-60 -45h-133z" />
    <glyph glyph-name="adieresis.ss01" horiz-adv-x="640" 
d="M117 652q0 41 27.5 68t66.5 27t66.5 -27t27.5 -68t-27 -67.5t-67 -26.5t-67 26.5t-27 67.5zM343 652q0 41 27.5 68t66.5 27t66.5 -27t27.5 -68t-27 -67.5t-67 -26.5t-67 26.5t-27 67.5zM413 500h175v-500h-175v83q-44 -92 -155 -92q-106 0 -169.5 71t-63.5 188
t63.5 188.5t169.5 71.5q111 0 155 -92v82zM417 250q0 58 -29.5 93.5t-78.5 35.5t-78.5 -35.5t-29.5 -93.5t29.5 -93.5t78.5 -35.5t78.5 35.5t29.5 93.5z" />
    <glyph glyph-name="agrave.ss01" horiz-adv-x="640" 
d="M413 500h175v-500h-175v83q-44 -92 -155 -92q-106 0 -169.5 71t-63.5 188t63.5 188.5t169.5 71.5q111 0 155 -92v82zM417 250q0 58 -29.5 93.5t-78.5 35.5t-78.5 -35.5t-29.5 -93.5t29.5 -93.5t78.5 -35.5t78.5 35.5t29.5 93.5zM403 557h-149l-159 143h247z" />
    <glyph glyph-name="amacron.ss01" horiz-adv-x="640" 
d="M413 500h175v-500h-175v83q-44 -92 -155 -92q-106 0 -169.5 71t-63.5 188t63.5 188.5t169.5 71.5q111 0 155 -92v82zM417 250q0 58 -29.5 93.5t-78.5 35.5t-78.5 -35.5t-29.5 -93.5t29.5 -93.5t78.5 -35.5t78.5 35.5t29.5 93.5zM174 701h303v-108h-303v108z" />
    <glyph glyph-name="aogonek.ss01" horiz-adv-x="640" 
d="M476 -55q0 -22 22 -22q17 0 31 10l24 -96q-39 -15 -87 -15q-57 0 -93 22t-36 64q0 56 76 96v79q-44 -92 -155 -92q-106 0 -169.5 71t-63.5 188t63.5 188.5t169.5 71.5q111 0 155 -92v82h175v-500h-76q-36 -31 -36 -55zM417 250q0 58 -29.5 93.5t-78.5 35.5t-78.5 -35.5
t-29.5 -93.5t29.5 -93.5t78.5 -35.5t78.5 35.5t29.5 93.5z" />
    <glyph glyph-name="aring.ss01" horiz-adv-x="640" 
d="M413 500h175v-500h-175v83q-44 -92 -155 -92q-106 0 -169.5 71t-63.5 188t63.5 188.5t169.5 71.5q111 0 155 -92v82zM417 250q0 58 -29.5 93.5t-78.5 35.5t-78.5 -35.5t-29.5 -93.5t29.5 -93.5t78.5 -35.5t78.5 35.5t29.5 93.5zM206 659q0 48 34 79.5t85 31.5t85 -31.5
t34 -79.5t-34 -79.5t-85 -31.5t-85 31.5t-34 79.5zM374 659q0 22 -13.5 35t-35.5 13t-35.5 -13t-13.5 -35t13.5 -35.5t35.5 -13.5t35.5 13.5t13.5 35.5z" />
    <glyph glyph-name="atilde.ss01" horiz-adv-x="640" 
d="M413 500h175v-500h-175v83q-44 -92 -155 -92q-106 0 -169.5 71t-63.5 188t63.5 188.5t169.5 71.5q111 0 155 -92v82zM417 250q0 58 -29.5 93.5t-78.5 35.5t-78.5 -35.5t-29.5 -93.5t29.5 -93.5t78.5 -35.5t78.5 35.5t29.5 93.5zM315 598q-35 19 -48 19q-28 0 -45 -42
l-75 20q5 68 35.5 106t76.5 38q32 0 73 -26q37 -20 52 -20t24 9t21 33l75 -20q-5 -66 -36.5 -104.5t-79.5 -38.5q-29 0 -73 26z" />
    <glyph glyph-name="l.ss02" horiz-adv-x="317" 
d="M44 700h175v-526q0 -54 43 -54q23 0 48 14l12 -134q-50 -10 -91 -10q-91 0 -139 46.5t-48 129.5v534z" />
    <glyph glyph-name="lacute.ss02" horiz-adv-x="317" 
d="M44 700h175v-526q0 -54 43 -54q23 0 48 14l12 -134q-50 -10 -91 -10q-91 0 -139 46.5t-48 129.5v534zM60 757l61 143h247l-159 -143h-149z" />
    <glyph glyph-name="lcaron.ss02" horiz-adv-x="317" 
d="M44 700h175v-526q0 -54 43 -54q23 0 48 14l12 -134q-50 -10 -91 -10q-91 0 -139 46.5t-48 129.5v534zM-59 900h133l60 -45l60 45h130l-131 -143h-125z" />
    <glyph glyph-name="lcommaaccent.ss02" horiz-adv-x="317" 
d="M44 700h175v-526q0 -54 43 -54q23 0 48 14l12 -134q-50 -10 -91 -10q-91 0 -139 46.5t-48 129.5v534zM89 -337l-9 59q41 1 67.5 11t26.5 27q0 16 -20 19q-89 18 -89 88q0 40 25 63.5t67 23.5q49 0 75 -35.5t26 -95.5q0 -156 -169 -160z" />
    <glyph glyph-name="lslash.ss02" horiz-adv-x="354" 
d="M328 134l12 -134q-50 -10 -91 -10q-91 0 -139 46.5t-48 129.5v96l-48 -22v121l48 22v317h175v-236l75 34v-121l-75 -34v-169q0 -54 43 -54q23 0 48 14z" />
    <glyph glyph-name="y.ss03" 
d="M373 500h175v-506q0 -98 -70 -156t-191 -58q-185 0 -248 127l166 53q18 -56 80 -56q43 0 65.5 22t22.5 62v102q-37 -90 -149 -90q-86 0 -130.5 50t-44.5 143v307h175v-285q0 -35 19.5 -55t52.5 -20q34 0 55.5 23t21.5 64v273z" />
    <glyph glyph-name="yacute.ss03" 
d="M373 500h175v-506q0 -98 -70 -156t-191 -58q-185 0 -248 127l166 53q18 -56 80 -56q43 0 65.5 22t22.5 62v102q-37 -90 -149 -90q-86 0 -130.5 50t-44.5 143v307h175v-285q0 -35 19.5 -55t52.5 -20q34 0 55.5 23t21.5 64v273zM227 557l61 143h247l-159 -143h-149z" />
    <glyph glyph-name="ycircumflex.ss03" 
d="M373 500h175v-506q0 -98 -70 -156t-191 -58q-185 0 -248 127l166 53q18 -56 80 -56q43 0 65.5 22t22.5 62v102q-37 -90 -149 -90q-86 0 -130.5 50t-44.5 143v307h175v-285q0 -35 19.5 -55t52.5 -20q34 0 55.5 23t21.5 64v273zM109 557l127 143h125l131 -143h-130l-60 45
l-60 -45h-133z" />
    <glyph glyph-name="ydieresis.ss03" 
d="M92 652q0 41 27.5 68t66.5 27t66.5 -27t27.5 -68t-27 -67.5t-67 -26.5t-67 26.5t-27 67.5zM318 652q0 41 27.5 68t66.5 27t66.5 -27t27.5 -68t-27 -67.5t-67 -26.5t-67 26.5t-27 67.5zM373 500h175v-506q0 -98 -70 -156t-191 -58q-185 0 -248 127l166 53q18 -56 80 -56
q43 0 65.5 22t22.5 62v102q-37 -90 -149 -90q-86 0 -130.5 50t-44.5 143v307h175v-285q0 -35 19.5 -55t52.5 -20q34 0 55.5 23t21.5 64v273z" />
    <glyph glyph-name="ygrave.ss03" 
d="M373 500h175v-506q0 -98 -70 -156t-191 -58q-185 0 -248 127l166 53q18 -56 80 -56q43 0 65.5 22t22.5 62v102q-37 -90 -149 -90q-86 0 -130.5 50t-44.5 143v307h175v-285q0 -35 19.5 -55t52.5 -20q34 0 55.5 23t21.5 64v273zM378 557h-149l-159 143h247z" />
    <glyph glyph-name="u.ss04" horiz-adv-x="589" 
d="M365 500h175v-288q0 -97 -62 -159.5t-184 -62.5q-121 0 -183 62.5t-62 159.5v288h175v-311q0 -30 19 -49.5t51 -19.5t51.5 19t19.5 50v311z" />
    <glyph glyph-name="uacute.ss04" horiz-adv-x="589" 
d="M365 500h175v-288q0 -97 -62 -159.5t-184 -62.5q-121 0 -183 62.5t-62 159.5v288h175v-311q0 -30 19 -49.5t51 -19.5t51.5 19t19.5 50v311zM221 557l61 143h247l-159 -143h-149z" />
    <glyph glyph-name="ucircumflex.ss04" horiz-adv-x="589" 
d="M365 500h175v-288q0 -97 -62 -159.5t-184 -62.5q-121 0 -183 62.5t-62 159.5v288h175v-311q0 -30 19 -49.5t51 -19.5t51.5 19t19.5 50v311zM103 557l127 143h125l131 -143h-130l-60 45l-60 -45h-133z" />
    <glyph glyph-name="udieresis.ss04" horiz-adv-x="589" 
d="M86 652q0 41 27.5 68t66.5 27t66.5 -27t27.5 -68t-27 -67.5t-67 -26.5t-67 26.5t-27 67.5zM312 652q0 41 27.5 68t66.5 27t66.5 -27t27.5 -68t-27 -67.5t-67 -26.5t-67 26.5t-27 67.5zM365 500h175v-288q0 -97 -62 -159.5t-184 -62.5q-121 0 -183 62.5t-62 159.5v288h175
v-311q0 -30 19 -49.5t51 -19.5t51.5 19t19.5 50v311z" />
    <glyph glyph-name="ugrave.ss04" horiz-adv-x="589" 
d="M365 500h175v-288q0 -97 -62 -159.5t-184 -62.5q-121 0 -183 62.5t-62 159.5v288h175v-311q0 -30 19 -49.5t51 -19.5t51.5 19t19.5 50v311zM372 557h-149l-159 143h247z" />
    <glyph glyph-name="uhungarumlaut.ss04" horiz-adv-x="589" 
d="M365 500h175v-288q0 -97 -62 -159.5t-184 -62.5q-121 0 -183 62.5t-62 159.5v288h175v-311q0 -30 19 -49.5t51 -19.5t51.5 19t19.5 50v311zM599 700l-159 -143h-99l38 107l-119 -107h-99l51 143h387z" />
    <glyph glyph-name="umacron.ss04" horiz-adv-x="589" 
d="M365 500h175v-288q0 -97 -62 -159.5t-184 -62.5q-121 0 -183 62.5t-62 159.5v288h175v-311q0 -30 19 -49.5t51 -19.5t51.5 19t19.5 50v311zM143 701h303v-108h-303v108z" />
    <glyph glyph-name="uogonek.ss04" horiz-adv-x="589" 
d="M365 500h175v-288q0 -129 -99 -187q-43 -32 -57.5 -48.5t-14.5 -31.5q0 -22 22 -22q17 0 31 10l24 -96q-39 -15 -87 -15q-57 0 -93 22t-36 64q0 47 53 82q-119 5 -177 67q-57 63 -57 155v288h175v-311q0 -30 19 -49.5t51 -19.5t51.5 19t19.5 50v311z" />
    <glyph glyph-name="uring.ss04" horiz-adv-x="589" 
d="M365 500h175v-288q0 -97 -62 -159.5t-184 -62.5q-121 0 -183 62.5t-62 159.5v288h175v-311q0 -30 19 -49.5t51 -19.5t51.5 19t19.5 50v311zM175 659q0 48 34 79.5t85 31.5t85 -31.5t34 -79.5t-34 -79.5t-85 -31.5t-85 31.5t-34 79.5zM343 659q0 22 -13.5 35t-35.5 13
t-35.5 -13t-13.5 -35t13.5 -35.5t35.5 -13.5t35.5 13.5t13.5 35.5z" />
    <glyph glyph-name="g.ss07" horiz-adv-x="606" 
d="M500 451q52 -43 52 -110q0 -79 -72 -124q-70 -45 -186 -45q-41 0 -77 6q-23 -23 -23 -34q0 -21 44 -21h152q91 0 142.5 -44t51.5 -109q0 -84 -84.5 -137t-219.5 -53q-117 0 -195.5 40t-78.5 102q0 39 33 65.5t95 36.5q-89 18 -89 84q0 32 21.5 54.5t70.5 39.5
q-97 45 -97 139q0 81 69 124q71 45 185 45q65 0 111 -13q24 26 38 61.5t29 98.5l138 -127q-43 -52 -110 -79zM361 341q0 79 -68 79q-69 0 -69 -79q0 -80 69 -80q32 0 50 20.5t18 59.5zM163 -70q0 -26 35 -41t93 -15q60 0 94 17t34 45q0 19 -20 30.5t-53 11.5h-94
q-42 0 -65.5 -13t-23.5 -35z" />
    <glyph glyph-name="gbreve.ss07" horiz-adv-x="606" 
d="M500 451q52 -43 52 -110q0 -79 -72 -124q-70 -45 -186 -45q-41 0 -77 6q-23 -23 -23 -34q0 -21 44 -21h152q91 0 142.5 -44t51.5 -109q0 -84 -84.5 -137t-219.5 -53q-117 0 -195.5 40t-78.5 102q0 39 33 65.5t95 36.5q-89 18 -89 84q0 32 21.5 54.5t70.5 39.5
q-97 45 -97 139q0 81 69 124q71 45 185 45q65 0 111 -13q24 26 38 61.5t29 98.5l138 -127q-43 -52 -110 -79zM361 341q0 79 -68 79q-69 0 -69 -79q0 -80 69 -80q32 0 50 20.5t18 59.5zM163 -70q0 -26 35 -41t93 -15q60 0 94 17t34 45q0 19 -20 30.5t-53 11.5h-94
q-42 0 -65.5 -13t-23.5 -35zM141 700h110q5 -37 51 -37q22 0 36.5 10.5t16.5 26.5h110q-4 -66 -49 -106t-114 -40q-71 0 -114 39.5t-47 106.5z" />
    <glyph glyph-name="gcommaaccent.ss07" horiz-adv-x="606" 
d="M500 451q52 -43 52 -110q0 -79 -72 -124q-70 -45 -186 -45q-41 0 -77 6q-23 -23 -23 -34q0 -21 44 -21h152q91 0 142.5 -44t51.5 -109q0 -84 -84.5 -137t-219.5 -53q-117 0 -195.5 40t-78.5 102q0 39 33 65.5t95 36.5q-89 18 -89 84q0 32 21.5 54.5t70.5 39.5
q-97 45 -97 139q0 81 69 124q71 45 185 45q65 0 111 -13q24 26 38 61.5t29 98.5l138 -127q-43 -52 -110 -79zM361 341q0 79 -68 79q-69 0 -69 -79q0 -80 69 -80q32 0 50 20.5t18 59.5zM163 -70q0 -26 35 -41t93 -15q60 0 94 17t34 45q0 19 -20 30.5t-53 11.5h-94
q-42 0 -65.5 -13t-23.5 -35zM382 842l9 -59q-41 -1 -67.5 -11t-26.5 -27q0 -16 20 -19q89 -18 89 -88q0 -40 -25 -63.5t-67 -23.5q-49 0 -75 35.5t-26 95.5q0 156 169 160z" />
    <glyph glyph-name="k.ss08" horiz-adv-x="582" 
d="M370 0l-100 168l-41 -43v-125h-175v700h175v-368l149 168h202l-196 -209l206 -291h-220z" />
    <glyph glyph-name="kcommaaccent.ss08" horiz-adv-x="582" 
d="M370 0l-100 168l-41 -43v-125h-175v700h175v-368l149 168h202l-196 -209l206 -291h-220zM216 -337l-9 59q41 1 67.5 11t26.5 27q0 16 -20 19q-89 18 -89 88q0 40 25 63.5t67 23.5q49 0 75 -35.5t26 -95.5q0 -156 -169 -160z" />
    <glyph glyph-name="y.ss11" horiz-adv-x="559" 
d="M375 500h176l-207 -578q-24 -68 -82.5 -105t-137.5 -37q-61 0 -106 16l10 127q43 -28 89 -28q30 0 49 17.5t37 57.5l16 38l-211 492h194l99 -279z" />
    <glyph glyph-name="yacute.ss11" horiz-adv-x="559" 
d="M375 500h176l-207 -578q-24 -68 -82.5 -105t-137.5 -37q-61 0 -106 16l10 127q43 -28 89 -28q30 0 49 17.5t37 57.5l16 38l-211 492h194l99 -279zM217 557l61 143h247l-159 -143h-149z" />
    <glyph glyph-name="ycircumflex.ss11" horiz-adv-x="559" 
d="M375 500h176l-207 -578q-24 -68 -82.5 -105t-137.5 -37q-61 0 -106 16l10 127q43 -28 89 -28q30 0 49 17.5t37 57.5l16 38l-211 492h194l99 -279zM99 557l127 143h125l131 -143h-130l-60 45l-60 -45h-133z" />
    <glyph glyph-name="ydieresis.ss11" horiz-adv-x="559" 
d="M82 652q0 41 27.5 68t66.5 27t66.5 -27t27.5 -68t-27 -67.5t-67 -26.5t-67 26.5t-27 67.5zM308 652q0 41 27.5 68t66.5 27t66.5 -27t27.5 -68t-27 -67.5t-67 -26.5t-67 26.5t-27 67.5zM375 500h176l-207 -578q-24 -68 -82.5 -105t-137.5 -37q-61 0 -106 16l10 127
q43 -28 89 -28q30 0 49 17.5t37 57.5l16 38l-211 492h194l99 -279z" />
    <glyph glyph-name="ygrave.ss11" horiz-adv-x="559" 
d="M375 500h176l-207 -578q-24 -68 -82.5 -105t-137.5 -37q-61 0 -106 16l10 127q43 -28 89 -28q30 0 49 17.5t37 57.5l16 38l-211 492h194l99 -279zM368 557h-149l-159 143h247z" />
    <glyph glyph-name="f_f" horiz-adv-x="742" 
d="M615 522v-22h127v-120h-127v-380h-175v380h-180v-380h-175v380h-71v120h71v24q0 86 63.5 136t172.5 50q40 0 65 -4v-117q-22 6 -43 6q-37 0 -60 -18t-23 -55v-22h180v24q0 86 63.5 136t172.5 50q48 0 88 -8v-121q-26 14 -66 14q-37 0 -60 -18t-23 -55z" />
    <glyph glyph-name="f_f_f" horiz-adv-x="1097" 
d="M970 522v-22h127v-120h-127v-380h-175v380h-180v-380h-175v380h-180v-380h-175v380h-71v120h71v24q0 86 63.5 136t172.5 50q40 0 65 -4v-117q-22 6 -43 6q-37 0 -60 -18t-23 -55v-22h180v24q0 86 63.5 136t172.5 50q40 0 65 -4v-117q-23 6 -43 6q-37 0 -60 -18t-23 -55
v-22h180v24q0 86 63.5 136t172.5 50q48 0 88 -8v-121q-26 14 -66 14q-37 0 -60 -18t-23 -55z" />
    <glyph glyph-name="f_f_i" horiz-adv-x="1032" 
d="M785 651q0 42 30 70.5t73 28.5t73 -28.5t30 -70.5t-30 -70t-73 -28t-73 28t-30 70zM975 500v-500h-175v380h-185v-380h-175v380h-180v-380h-175v380h-71v120h71v24q0 86 63.5 136t172.5 50q40 0 65 -4v-117q-22 6 -43 6q-37 0 -60 -18t-23 -55v-22h180v24q0 86 63.5 136
t172.5 50q40 0 65 -4v-117q-23 6 -43 6q-37 0 -60 -18t-23 -55v-22h360z" />
    <glyph glyph-name="f_f_j" horiz-adv-x="1031" 
d="M784 651q0 42 30 70.5t73 28.5t73 -28.5t30 -70.5t-30 -70t-73 -28t-73 28t-30 70zM975 500v-544q0 -80 -59.5 -128t-163.5 -48q-41 0 -81 8v121q26 -14 56 -14q73 0 73 63v422h-185v-380h-175v380h-180v-380h-175v380h-71v120h71v24q0 86 63.5 136t172.5 50q40 0 65 -4
v-117q-22 6 -43 6q-37 0 -60 -18t-23 -55v-22h180v24q0 86 63.5 136t172.5 50q40 0 65 -4v-117q-23 6 -43 6q-37 0 -60 -18t-23 -55v-22h360z" />
    <glyph glyph-name="f_f_l" horiz-adv-x="1024" 
d="M795 700h175v-700h-175v380h-180v-380h-175v380h-180v-380h-175v380h-71v120h71v24q0 86 63.5 136t172.5 50q40 0 65 -4v-117q-22 6 -43 6q-37 0 -60 -18t-23 -55v-22h180v24q0 86 63.5 136t172.5 50q40 0 65 -4v-117q-23 6 -43 6q-37 0 -60 -18t-23 -55v-22h180v200z
" />
    <glyph glyph-name="f_j" horiz-adv-x="676" 
d="M429 651q0 42 30 70.5t73 28.5t73 -28.5t30 -70.5t-30 -70t-73 -28t-73 28t-30 70zM620 500v-544q0 -80 -59.5 -128t-163.5 -48q-41 0 -81 8v121q26 -14 56 -14q73 0 73 63v422h-185v-380h-175v380h-71v120h71v24q0 86 63.5 136t172.5 50q40 0 65 -4v-117q-22 6 -43 6
q-37 0 -60 -18t-23 -55v-22h360z" />
    <glyph glyph-name="f_l" horiz-adv-x="669" 
d="M440 700h175v-700h-175v380h-180v-380h-175v380h-71v120h71v24q0 86 63.5 136t172.5 50q40 0 65 -4v-117q-22 6 -43 6q-37 0 -60 -18t-23 -55v-22h180v200z" />
    <glyph glyph-name="f_f_l.ss02" horiz-adv-x="1058" 
d="M1051 134l12 -134q-50 -10 -91 -10q-91 0 -139 46.5t-48 129.5v214h-170v-380h-175v380h-180v-380h-175v380h-71v120h71v24q0 86 63.5 136t172.5 50q40 0 65 -4v-117q-22 6 -43 6q-37 0 -60 -18t-23 -55v-22h180v24q0 86 63.5 136t172.5 50q40 0 65 -4v-117q-23 6 -43 6
q-37 0 -60 -18t-23 -55v-22h170v200h175v-526q0 -54 43 -54q23 0 48 14z" />
    <glyph glyph-name="f_l.ss02" horiz-adv-x="703" 
d="M696 134l12 -134q-50 -10 -91 -10q-91 0 -139 46.5t-48 129.5v214h-170v-380h-175v380h-71v120h71v24q0 86 63.5 136t172.5 50q40 0 65 -4v-117q-22 6 -43 6q-37 0 -60 -18t-23 -55v-22h170v200h175v-526q0 -54 43 -54q23 0 48 14z" />
    <glyph glyph-name="ordfeminine.ss01" horiz-adv-x="554" 
d="M355 709h150v-434h-150v70q-37 -78 -130 -78q-90 0 -144.5 62t-54.5 163t54.5 163t144.5 62q93 0 130 -78v70zM361 492q0 53 -24.5 83.5t-66.5 30.5q-43 0 -67.5 -30t-24.5 -84t24.5 -84t67.5 -30q42 0 66.5 30.5t24.5 83.5zM102 84v120h358v-120h-358z" />
    <glyph glyph-name="uni0430.ss01" horiz-adv-x="640" 
d="M413 500h175v-500h-175v83q-44 -92 -155 -92q-106 0 -169.5 71t-63.5 188t63.5 188.5t169.5 71.5q111 0 155 -92v82zM417 250q0 58 -29.5 93.5t-78.5 35.5t-78.5 -35.5t-29.5 -93.5t29.5 -93.5t78.5 -35.5t78.5 35.5t29.5 93.5z" />
    <glyph glyph-name="zero.osf" horiz-adv-x="682" 
d="M647 301q0 -139 -84.5 -224t-221.5 -85t-221.5 85t-84.5 224q0 138 84.5 223t221.5 85t221.5 -85t84.5 -223zM460 301q0 77 -31 118.5t-88 41.5q-58 0 -88.5 -41.5t-30.5 -118.5t30.5 -119t88.5 -42q57 0 88 42t31 119z" />
    <glyph glyph-name="one.osf" horiz-adv-x="615" 
d="M395 123h181v-123h-547v123h182v331l-148 -97l-57 139l250 104h139v-477z" />
    <glyph glyph-name="two.osf" horiz-adv-x="602" 
d="M226 123l340 23v-146h-540v121l162 86q107 56 146.5 95.5t39.5 79.5q0 41 -25 64.5t-65 23.5q-44 0 -74.5 -27.5t-31.5 -76.5l-170 35q15 94 91 151t188 57q118 0 190 -61t72 -161q0 -65 -53 -130t-213 -116z" />
    <glyph glyph-name="three.osf" horiz-adv-x="620" 
d="M593 86q0 -91 -76.5 -143.5t-200.5 -52.5q-117 0 -199 60.5t-99 158.5l188 29q7 -47 37.5 -73t76.5 -26q43 0 69 21t26 55q0 38 -29.5 60t-85.5 22h-44v114h49q96 0 96 78q0 32 -25 52t-65 20q-44 0 -71.5 -28t-29.5 -75l-192 33q17 98 97.5 158.5t195.5 60.5
q120 0 195 -54.5t75 -143.5q0 -118 -121 -156q133 -39 133 -170z" />
    <glyph glyph-name="four.osf" horiz-adv-x="635" 
d="M640 179v-140h-72v-139h-185v139h-363v116l307 445h241v-421h72zM398 484l-211 -305h196z" />
    <glyph glyph-name="five.osf" horiz-adv-x="620" 
d="M609 142q0 -112 -79.5 -182t-205.5 -70q-106 0 -183 50t-96 141l178 47q9 -49 38 -73.5t70 -24.5q45 0 67.5 27.5t22.5 72.5q0 44 -23 69.5t-64 25.5q-61 0 -88 -52l-175 27l38 400h476l-20 -147h-321l-21 -185q56 101 171 101q94 0 154.5 -63.5t60.5 -163.5z" />
    <glyph glyph-name="six.osf" horiz-adv-x="640" 
d="M627 247q0 -116 -80 -186.5t-210 -70.5t-210.5 69.5t-80.5 187.5q0 56 21.5 110.5t74.5 131.5l146 211h241l-233 -254q47 29 105 29q98 0 162 -63t64 -165zM441 242q0 46 -28.5 74.5t-75.5 28.5t-76 -28.5t-29 -74.5q0 -47 28.5 -76t75.5 -29t76 29t29 76z" />
    <glyph glyph-name="seven.osf" horiz-adv-x="620" 
d="M61 600h521v-129l-283 -571h-228l337 547h-367z" />
    <glyph glyph-name="eight.osf" horiz-adv-x="620" 
d="M618 195q0 -96 -78 -150.5t-216 -54.5q-141 0 -221.5 55t-80.5 152q0 118 151 170q-124 43 -124 153q0 89 72.5 139.5t202.5 50.5q127 0 198.5 -51t71.5 -140q0 -108 -122 -152q146 -55 146 -172zM228 503q0 -36 26 -59t69 -23q42 0 67.5 22.5t25.5 58.5q0 38 -25.5 60
t-68.5 22t-68.5 -22t-25.5 -59zM422 216q0 39 -27 63t-73 24q-45 0 -72.5 -24t-27.5 -62q0 -40 27.5 -63.5t73.5 -23.5q45 0 72 23.5t27 62.5z" />
    <glyph glyph-name="nine.osf" horiz-adv-x="640" 
d="M594 353q0 -56 -21.5 -110.5t-74.5 -131.5l-146 -211h-241l233 254q-47 -29 -105 -29q-98 0 -162 62.5t-64 165.5q0 116 80 186.5t210 70.5t210.5 -69.5t80.5 -187.5zM303 255q47 0 76 28.5t29 74.5q0 47 -28.5 76t-75.5 29t-76 -29t-29 -76q0 -46 28.5 -74.5t75.5 -28.5
z" />
    <glyph glyph-name="zero.osf.zero" horiz-adv-x="682" 
d="M647 301q0 -139 -84.5 -224t-221.5 -85t-221.5 85t-84.5 224q0 138 84.5 223t221.5 85t221.5 -85t84.5 -223zM222 301q0 -25 3 -48l207 162q-31 46 -91 46q-58 0 -88.5 -41.5t-30.5 -118.5zM460 301q0 7 -2 37l-203 -159q31 -39 86 -39q57 0 88 42t31 119z" />
    <glyph glyph-name="one.ss05" horiz-adv-x="620" 
d="M409 140h172v-140h-552v140h180v409l-141 -114l-61 146l254 119h148v-560z" />
    <glyph glyph-name="one.ss05.osf" horiz-adv-x="479" 
d="M260 600h139v-600h-184v454l-148 -97l-57 139z" />
    <glyph glyph-name="zero.tf" 
d="M576 350q0 -169 -72.5 -264.5t-203.5 -95.5t-203.5 95.5t-72.5 264.5q0 170 72.5 265t203.5 95t203.5 -95t72.5 -265zM384 350q0 116 -18 161.5t-66 45.5t-66 -45.5t-18 -161.5t18 -161.5t66 -45.5t66 45.5t18 161.5z" />
    <glyph glyph-name="one.tf" 
d="M409 140h172v-140h-552v140h180v409l-141 -114l-61 146l254 119h148v-560z" />
    <glyph glyph-name="two.tf" 
d="M297 159l-46 -25l311 17v-151h-534v126l183 135q75 56 110 98q35 43 43 69q8 28 7 52q-1 35 -23.5 56.5t-58.5 21.5q-38 0 -63.5 -29t-24.5 -80l-191 36q10 101 87.5 163t191.5 62q121 0 198 -62t77 -181q0 -161 -267 -308z" />
    <glyph glyph-name="three.tf" 
d="M577 186q0 -91 -75.5 -143.5t-195.5 -52.5q-115 0 -196 61t-96 158l187 29q7 -47 36 -73t73 -26q39 0 64.5 21t25.5 55q0 37 -26 59.5t-74 22.5h-53v115h58q42 0 62 22t20 56q0 32 -24.5 51.5t-61.5 19.5q-42 0 -68.5 -27.5t-27.5 -74.5l-191 33q15 98 94.5 158t192.5 60
q117 0 191 -54.5t74 -142.5q0 -59 -28 -97.5t-92 -58.5q131 -38 131 -171z" />
    <glyph glyph-name="four.tf" 
d="M585 279v-140h-72v-139h-177v139h-311v116l247 445h241v-421h72zM350 571l-166 -292h152z" />
    <glyph glyph-name="five.tf" 
d="M573 243q0 -114 -77.5 -184t-201.5 -70q-104 0 -180 50q-75 51 -93 142l187 47q2 -47 27.5 -72.5t65.5 -25.5q43 0 67.5 29t24.5 73q0 43 -25 68.5t-66 25.5q-55 0 -90 -53l-166 27l47 400h456l-20 -147h-302l-26 -178q53 95 162 95q91 0 150.5 -63.5t59.5 -163.5z" />
    <glyph glyph-name="six.tf" 
d="M576 247q0 -116 -76 -186.5t-199 -70.5t-199.5 69.5t-76.5 186.5q0 57 20.5 112t71.5 132l139 210h244l-206 -234q33 9 71 9q93 0 152 -62t59 -166zM382 242q0 47 -21 73t-60 26t-61 -26t-22 -73t21.5 -74t59.5 -27q39 0 61 27t22 74z" />
    <glyph glyph-name="seven.tf" 
d="M57 700h511v-129l-247 -571h-225l292 547h-351z" />
    <glyph glyph-name="eight.tf" 
d="M587 195q0 -96 -75 -150.5t-208 -54.5q-136 0 -213.5 55t-77.5 152q0 120 149 170q-124 43 -124 154q0 89 70.5 139t195.5 50q122 0 191.5 -50.5t69.5 -139.5q0 -110 -121 -152q143 -59 143 -173zM214 502q0 -36 24.5 -58t64.5 -22q39 0 63 22t24 57q0 37 -24 60t-64 23
t-64 -22.5t-24 -59.5zM395 215q0 39 -25.5 63.5t-67.5 24.5t-67.5 -24.5t-25.5 -62.5q0 -41 25.5 -63.5t68.5 -22.5t67.5 22t24.5 63z" />
    <glyph glyph-name="nine.tf" 
d="M575 455q0 -57 -20.5 -112t-71.5 -132l-139 -210h-244l206 234q-33 -9 -71 -9q-93 0 -152 62t-59 166q0 116 76 186.5t199 70.5q122 0 199 -70t77 -186zM299 360q39 0 61 26t22 73t-21.5 74t-59.5 27q-39 0 -61 -27t-22 -74t21 -73t60 -26z" />
    <glyph glyph-name="zero.tf.zero" 
d="M576 350q0 -169 -72.5 -264.5t-203.5 -95.5t-203.5 95.5t-72.5 264.5q0 170 72.5 265t203.5 95t203.5 -95t72.5 -265zM216 350v-7l161 126q-13 88 -77 88q-48 0 -66 -45.5t-18 -161.5zM384 350v7l-161 -126q13 -88 77 -88q48 0 66 45.5t18 161.5z" />
    <glyph glyph-name="zero.tosf" 
d="M586 301q0 -139 -79 -224t-207 -85t-207 85t-79 224q0 138 79 223t207 85t207 -85t79 -223zM389 301q0 71 -23 110t-66 39t-66 -39t-23 -110q0 -72 23 -111t66 -39t66 39t23 111z" />
    <glyph glyph-name="one.tosf" 
d="M395 123h181v-123h-547v123h182v331l-148 -97l-57 139l250 104h139v-477z" />
    <glyph glyph-name="two.tosf" 
d="M262 134l303 23v-157h-544v130l189 104q88 49 115 82q30 34 30 66t-20.5 51t-53.5 19q-38 0 -60.5 -23.5t-20.5 -62.5l-193 30q10 97 86.5 155t192.5 58q118 0 192 -59t74 -164q0 -166 -261 -243z" />
    <glyph glyph-name="three.tosf" 
d="M577 86q0 -91 -75.5 -143.5t-195.5 -52.5q-115 0 -196 61t-96 158l187 29q7 -47 36 -73t73 -26q39 0 64.5 21t25.5 55q0 37 -26 59.5t-74 22.5h-53v115h58q42 0 62 22t20 56q0 32 -24.5 51.5t-61.5 19.5q-42 0 -68.5 -27.5t-27.5 -74.5l-191 33q15 98 94.5 158t192.5 60
q117 0 191 -54.5t74 -142.5q0 -59 -28 -97.5t-92 -58.5q131 -38 131 -171z" />
    <glyph glyph-name="four.tosf" 
d="M585 179v-140h-72v-139h-177v139h-311v116l247 445h241v-421h72zM350 471l-166 -292h152z" />
    <glyph glyph-name="five.tosf" 
d="M573 143q0 -114 -77.5 -184t-201.5 -70q-105 0 -180 51q-75 50 -93 141l187 47q2 -47 27.5 -72.5t65.5 -25.5q43 0 67.5 29t24.5 73q0 43 -25 68.5t-66 25.5q-55 0 -90 -53l-166 27l47 400h456l-20 -147h-302l-26 -178q53 95 162 95q91 0 150.5 -63.5t59.5 -163.5z" />
    <glyph glyph-name="six.tosf" 
d="M576 247q0 -116 -76 -186.5t-199 -70.5t-199.5 69.5t-76.5 186.5q0 57 20.5 112t71.5 132l139 210h244l-206 -234q33 9 71 9q93 0 152 -62t59 -166zM382 242q0 47 -21 73t-60 26t-61 -26t-22 -73t21.5 -74t59.5 -27q39 0 61 27t22 74z" />
    <glyph glyph-name="seven.tosf" 
d="M57 600h511v-129l-247 -571h-225l292 547h-351z" />
    <glyph glyph-name="eight.tosf" 
d="M587 195q0 -96 -75 -150.5t-208 -54.5q-136 0 -213.5 55t-77.5 152q0 120 149 170q-124 43 -124 154q0 89 70.5 139t195.5 50q122 0 191.5 -50.5t69.5 -139.5q0 -110 -121 -152q143 -59 143 -173zM214 502q0 -36 24.5 -58t64.5 -22q39 0 63 22t24 57q0 37 -24 60t-64 23
t-64 -22.5t-24 -59.5zM395 215q0 39 -25.5 63.5t-67.5 24.5t-67.5 -24.5t-25.5 -62.5q0 -41 25.5 -63.5t68.5 -22.5t67.5 22t24.5 63z" />
    <glyph glyph-name="nine.tosf" 
d="M575 354q0 -57 -20.5 -112t-71.5 -132l-139 -210h-244l206 234q-33 -9 -71 -9q-93 0 -152 62t-59 166q0 116 76 186.5t199 70.5q122 0 199 -70t77 -186zM299 259q39 0 61 26t22 73t-21.5 74t-59.5 27q-39 0 -61 -27t-22 -74t21 -73t60 -26z" />
    <glyph glyph-name="zero.tosf.zero" 
d="M586 301q0 -139 -79 -224t-207 -85t-207 85t-79 224q0 138 79 223t207 85t207 -85t79 -223zM211 301v-14l156 122q-23 41 -67 41q-43 0 -66 -39t-23 -110zM389 301q0 22 -1 28l-160 -126q21 -52 72 -52q43 0 66 39t23 111z" />
    <glyph glyph-name="zero.zero" horiz-adv-x="682" 
d="M652 350q0 -167 -83.5 -263.5t-227.5 -96.5t-227.5 96.5t-83.5 263.5t83.5 263.5t227.5 96.5t227.5 -96.5t83.5 -263.5zM232 350v-24l203 159q-23 72 -94 72q-59 0 -84 -47.5t-25 -159.5zM450 350v30l-205 -160q23 -77 96 -77q59 0 84 47.5t25 159.5z" />
    <glyph glyph-name="zero.dnom" horiz-adv-x="416" 
d="M20 188q0 93 49.5 143.5t137.5 50.5q90 0 139.5 -50.5t49.5 -143.5q0 -90 -50 -141t-139 -51t-138 52t-49 140zM268 188q0 100 -61 100q-59 0 -59 -100q0 -98 59 -98q61 0 61 98z" />
    <glyph glyph-name="one.dnom" horiz-adv-x="298" 
d="M151 374h97v-374h-122v284l-76 -61l-40 92z" />
    <glyph glyph-name="two.dnom" horiz-adv-x="355" 
d="M166 82l176 21v-103h-322v83l116 81q74 53 74 88q0 15 -10 24.5t-25 9.5q-20 0 -31.5 -12t-10.5 -33l-123 23q8 55 53 86.5t113 31.5q70 0 114.5 -35t44.5 -95q-1 -43 -26.5 -77.5t-110.5 -76.5z" />
    <glyph glyph-name="three.dnom" horiz-adv-x="367" 
d="M347 106q0 -52 -42 -81t-110 -29q-71 0 -116.5 31t-56.5 83l122 21q4 -42 48 -42q39 0 39 31q0 33 -52 33h-22v72h25q42 0 42 33q0 15 -10.5 23t-26.5 8q-36 0 -41 -39l-123 21q11 51 55.5 81t111.5 30t109 -30t42 -81q0 -65 -77 -80q83 -18 83 -85z" />
    <glyph glyph-name="four.dnom" horiz-adv-x="380" 
d="M355 152v-79h-38v-73h-115v73h-177v64l150 237h142v-222h38zM119 152h83l12 150z" />
    <glyph glyph-name="five.dnom" horiz-adv-x="355" 
d="M339 131q0 -60 -47 -97.5t-121 -37.5q-57 0 -101.5 24t-59.5 68l126 30q5 -38 42 -38q17 0 28 12t11 31q0 17 -10.5 27.5t-27.5 10.5q-27 0 -34 -20l-107 16l23 217h266l-11 -91h-173l-13 -88q35 54 95 54q51 0 82.5 -32.5t31.5 -85.5z" />
    <glyph glyph-name="six.dnom" horiz-adv-x="368" 
d="M345 135q0 -63 -44 -101t-116 -38q-73 0 -117.5 38t-44.5 101q0 64 50 131l79 108h155l-126 -124q25 5 38 5q56 0 91 -32.5t35 -87.5zM228 130q0 23 -12.5 35.5t-33.5 12.5t-33.5 -12.5t-12.5 -35.5q0 -24 12.5 -37.5t33.5 -13.5t33.5 13.5t12.5 37.5z" />
    <glyph glyph-name="seven.dnom" horiz-adv-x="335" 
d="M27 372h298v-67l-139 -305h-138l164 280h-197z" />
    <glyph glyph-name="eight.dnom" horiz-adv-x="377" 
d="M357 106q0 -51 -44.5 -80.5t-122.5 -29.5q-80 0 -125 30t-45 81q0 64 80 92q-64 24 -64 82q0 48 40 74.5t114 26.5t113.5 -26.5t39.5 -74.5q0 -58 -63 -82q77 -30 77 -93zM149 269q0 -17 11 -27t30 -10q40 0 40 36q0 37 -40 37q-19 0 -30 -10t-11 -26zM235 121
q0 18 -12.5 29t-32.5 11t-32.5 -11t-12.5 -29t12.5 -29t32.5 -11t32.5 11t12.5 29z" />
    <glyph glyph-name="nine.dnom" horiz-adv-x="368" 
d="M345 239q0 -64 -50 -131l-79 -108h-155l126 124q-25 -5 -38 -5q-56 0 -91 32.5t-35 87.5q0 63 44 101t116 38q73 0 117.5 -38t44.5 -101zM186 196q21 0 33.5 12.5t12.5 35.5q0 24 -12.5 37.5t-33.5 13.5t-33.5 -13.5t-12.5 -37.5q0 -23 12.5 -35.5t33.5 -12.5z" />
    <glyph glyph-name="zero.numr" horiz-adv-x="416" 
d="M20 514q0 93 49.5 143.5t137.5 50.5q90 0 139.5 -50.5t49.5 -143.5q0 -90 -50 -141t-139 -51t-138 52t-49 140zM268 514q0 100 -61 100q-59 0 -59 -100q0 -98 59 -98q61 0 61 98z" />
    <glyph glyph-name="one.numr" horiz-adv-x="298" 
d="M151 700h97v-374h-122v284l-76 -61l-40 92z" />
    <glyph glyph-name="two.numr" horiz-adv-x="355" 
d="M166 408l176 21v-103h-322v83l116 81q74 53 74 88q0 15 -10 24.5t-25 9.5q-20 0 -31.5 -12t-10.5 -33l-123 23q8 55 53 86.5t113 31.5q70 0 114.5 -35t44.5 -95q-1 -43 -26.5 -77.5t-110.5 -76.5z" />
    <glyph glyph-name="three.numr" horiz-adv-x="367" 
d="M347 432q0 -52 -42 -81t-110 -29q-71 0 -116.5 31t-56.5 83l122 21q4 -42 48 -42q39 0 39 31q0 33 -52 33h-22v72h25q42 0 42 33q0 15 -10.5 23t-26.5 8q-36 0 -41 -39l-123 21q11 51 55.5 81t111.5 30t109 -30t42 -81q0 -65 -77 -80q83 -18 83 -85z" />
    <glyph glyph-name="four.numr" horiz-adv-x="380" 
d="M355 478v-79h-38v-73h-115v73h-177v64l150 237h142v-222h38zM119 478h83l12 150z" />
    <glyph glyph-name="five.numr" horiz-adv-x="355" 
d="M339 457q0 -60 -47 -97.5t-121 -37.5q-57 0 -101.5 24t-59.5 68l126 30q5 -38 42 -38q17 0 28 12t11 31q0 17 -10.5 27.5t-27.5 10.5q-27 0 -34 -20l-107 16l23 217h266l-11 -91h-173l-13 -88q35 54 95 54q51 0 82.5 -32.5t31.5 -85.5z" />
    <glyph glyph-name="six.numr" horiz-adv-x="368" 
d="M345 461q0 -63 -44 -101t-116 -38q-73 0 -117.5 38t-44.5 101q0 64 50 131l79 108h155l-126 -124q25 5 38 5q56 0 91 -32.5t35 -87.5zM228 456q0 23 -12.5 35.5t-33.5 12.5t-33.5 -12.5t-12.5 -35.5q0 -24 12.5 -37.5t33.5 -13.5t33.5 13.5t12.5 37.5z" />
    <glyph glyph-name="seven.numr" horiz-adv-x="335" 
d="M27 700h298v-67l-139 -305h-138l164 280h-197z" />
    <glyph glyph-name="eight.numr" horiz-adv-x="377" 
d="M357 432q0 -51 -44.5 -80.5t-122.5 -29.5q-80 0 -125 30t-45 81q0 64 80 92q-64 24 -64 82q0 48 40 74.5t114 26.5t113.5 -26.5t39.5 -74.5q0 -58 -63 -82q77 -30 77 -93zM149 595q0 -17 11 -27t30 -10q40 0 40 36q0 37 -40 37q-19 0 -30 -10t-11 -26zM235 447
q0 18 -12.5 29t-32.5 11t-32.5 -11t-12.5 -29t12.5 -29t32.5 -11t32.5 11t12.5 29z" />
    <glyph glyph-name="nine.numr" horiz-adv-x="368" 
d="M345 565q0 -64 -50 -131l-79 -108h-155l126 124q-25 -5 -38 -5q-56 0 -91 32.5t-35 87.5q0 63 44 101t116 38q73 0 117.5 -38t44.5 -101zM186 522q21 0 33.5 12.5t12.5 35.5q0 24 -12.5 37.5t-33.5 13.5t-33.5 -13.5t-12.5 -37.5q0 -23 12.5 -35.5t33.5 -12.5z" />
    <glyph glyph-name="uni2081.ss05" horiz-adv-x="348" 
d="M248 -29h90v-91h-314v91h102v193l-76 -61l-40 92l141 59h97v-283z" />
    <glyph glyph-name="one.dnom.ss05" horiz-adv-x="348" 
d="M248 91h90v-91h-314v91h102v193l-76 -61l-40 92l141 59h97v-283z" />
    <glyph glyph-name="one.numr.ss05" horiz-adv-x="348" 
d="M248 417h90v-91h-314v91h102v193l-76 -61l-40 92l141 59h97v-283z" />
    <glyph glyph-name="uni00B9.ss05" horiz-adv-x="348" 
d="M248 477h90v-91h-314v91h102v193l-76 -61l-40 92l141 59h97v-283z" />
    <glyph glyph-name="onehalf.ss05" horiz-adv-x="863" 
d="M248 417h90v-91h-314v91h102v193l-76 -61l-40 92l141 59h97v-283zM623 700h120l-241 -349l-227 -351h-122l256 357zM674 82l176 21v-103h-322v83l116 81q74 53 74 88q0 15 -10 24.5t-25 9.5q-20 0 -31.5 -12t-10.5 -33l-123 23q8 55 53 86.5t113 31.5q70 0 114.5 -35
t44.5 -95q-1 -43 -26.5 -77.5t-110.5 -76.5z" />
    <glyph glyph-name="oneeighth.ss05" horiz-adv-x="885" 
d="M248 417h90v-91h-314v91h102v193l-76 -61l-40 92l141 59h97v-283zM623 700h120l-241 -349l-227 -351h-122l256 357zM865 106q0 -51 -44.5 -80.5t-122.5 -29.5q-80 0 -125 30t-45 81q0 64 80 92q-64 24 -64 82q0 48 40 74.5t114 26.5t113.5 -26.5t39.5 -74.5
q0 -58 -63 -82q77 -30 77 -93zM657 269q0 -17 11 -27t30 -10q40 0 40 36q0 37 -40 37q-19 0 -30 -10t-11 -26zM743 121q0 18 -12.5 29t-32.5 11t-32.5 -11t-12.5 -29t12.5 -29t32.5 -11t32.5 11t12.5 29z" />
    <glyph glyph-name="backslash.case" horiz-adv-x="415" 
d="M415 0h-156l-121 340l-138 360h157l117 -331z" />
    <glyph glyph-name="periodcentered.case" horiz-adv-x="294" 
d="M252 352q0 -42 -30 -70.5t-73 -28.5t-73 28.5t-30 70.5t30 70t73 28t73 -28t30 -70z" />
    <glyph glyph-name="bullet.case" horiz-adv-x="393" 
d="M374 340q0 -74 -51 -123.5t-127 -49.5q-75 0 -125.5 49.5t-50.5 123.5t50.5 124.5t125.5 50.5q76 0 127 -50.5t51 -124.5z" />
    <glyph glyph-name="exclamdown.case" horiz-adv-x="348" 
d="M73 608q0 42 30 70.5t73 28.5t73 -28.5t30 -70.5t-30 -70t-73 -28t-73 28t-30 70zM60 0l44 443h139l45 -443h-228z" />
    <glyph glyph-name="questiondown.case" horiz-adv-x="559" 
d="M180 608q0 42 30 70.5t73 28.5t73 -28.5t30 -70.5t-30 -70t-73 -28t-73 28t-30 70zM378 443v-10q-2 -50 -25 -77t-75 -58q-44 -27 -60.5 -45.5t-16.5 -45.5q0 -29 20 -47t53 -18q35 0 64 24t36 63l175 -56q-26 -85 -102 -134t-177 -49q-109 0 -174.5 58.5t-65.5 151.5
q3 70 32 105t89 67q32 17 44.5 28.5t12.5 26.5v16h170z" />
    <glyph glyph-name="slash.case" horiz-adv-x="415" 
d="M0 0l141 369l117 331h157l-138 -360l-121 -340h-156z" />
    <glyph glyph-name="comma.tf" horiz-adv-x="300" 
d="M59 -154l-10 65q41 1 80 20q37 18 37 40q0 17 -21 20q-100 17 -100 99q0 45 28.5 71.5t75.5 26.5q55 0 84 -40t29 -107q0 -88 -55 -141t-148 -54z" />
    <glyph glyph-name="period.tf" horiz-adv-x="300" 
d="M253 92q0 -42 -30 -70.5t-73 -28.5t-73 28.5t-30 70.5t30 70t73 28t73 -28t30 -70z" />
    <glyph glyph-name="braceleft.case" horiz-adv-x="423" 
d="M300 581q0 -12 1 -15l12 -82q0 -3 0.5 -7t1 -6.5t0.5 -5v-3.5q0 -93 -118 -126q118 -34 118 -127q0 -1 -2 -23l-12 -78q-1 -3 -1 -16q0 -49 55 -49h38v-119h-68q-87 0 -143 42t-56 110q0 15 2 27l14 83q0 4 0.5 9t1 8t0.5 4q0 68 -76 68h-38v120h38q76 0 76 68
q0 1 -0.5 4t-1 8t-0.5 9l-14 87q-2 24 -2 26q0 68 56 110.5t143 42.5h68v-120h-38q-55 0 -55 -49z" />
    <glyph glyph-name="braceright.case" horiz-adv-x="423" 
d="M355 395h38v-120h-38q-76 0 -76 -68q0 -1 0.5 -4t1 -8t0.5 -9l14 -83q2 -12 2 -27q0 -68 -56 -110t-143 -42h-68v119h38q55 0 55 49q0 13 -1 16l-12 78q-2 22 -2 23q0 93 118 127q-118 33 -118 126l2 22l12 82q1 3 1 15q0 49 -55 49h-38v120h68q87 0 143 -42.5t56 -110.5
q0 -2 -2 -26l-14 -87q0 -4 -0.5 -9t-1 -8t-0.5 -4q0 -68 76 -68z" />
    <glyph glyph-name="bracketleft.case" horiz-adv-x="406" 
d="M366 630h-121v-567h121v-129h-301v826h301v-130z" />
    <glyph glyph-name="bracketright.case" horiz-adv-x="406" 
d="M40 630v130h301v-826h-301v129h121v567h-121z" />
    <glyph glyph-name="parenleft.case" horiz-adv-x="377" 
d="M40 347q0 109 44 220q46 111 129 193h154q-154 -184 -154 -413t154 -413h-154q-83 82 -129 193q-44 111 -44 220z" />
    <glyph glyph-name="parenright.case" horiz-adv-x="377" 
d="M164 -66h-154q154 184 154 413t-154 413h154q84 -83 128 -193q45 -110 45 -220t-45 -220q-44 -110 -128 -193z" />
    <glyph glyph-name="emdash.case" horiz-adv-x="996" 
d="M40 419h916v-133h-916v133z" />
    <glyph glyph-name="endash.case" horiz-adv-x="608" 
d="M40 419h528v-133h-528v133z" />
    <glyph glyph-name="hyphen.case" horiz-adv-x="409" 
d="M40 426h329v-147h-329v147z" />
    <glyph glyph-name="guillemotleft.case" horiz-adv-x="559" 
d="M30 372l103 173h176l-156 -196l156 -195h-176l-103 172v46zM250 372l103 173h176l-156 -196l156 -195h-176l-103 172v46z" />
    <glyph glyph-name="guillemotright.case" horiz-adv-x="559" 
d="M309 372v-46l-103 -172h-176l156 195l-156 196h176zM529 372v-46l-103 -172h-176l156 195l-156 196h176z" />
    <glyph glyph-name="guilsinglleft.case" horiz-adv-x="339" 
d="M30 372l103 173h176l-156 -196l156 -195h-176l-103 172v46z" />
    <glyph glyph-name="guilsinglright.case" horiz-adv-x="339" 
d="M309 372v-46l-103 -172h-176l156 195l-156 196h176z" />
    <glyph glyph-name="space.tf" 
 />
    <glyph glyph-name="cent.tf" 
d="M408 213l171 -32q-21 -81 -83.5 -131t-155.5 -59v-96h-76v97q-113 11 -178 80q-65 71 -65 178t65 177q64 70 178 81v97h76v-96q93 -9 155.5 -59t83.5 -131l-171 -32q-12 71 -68 88v-250q56 17 68 88zM264 128v244q-66 -25 -66 -122t66 -122z" />
    <glyph glyph-name="currency.tf" 
d="M465 201l78 -78l-68 -68l-81 81q-45 -21 -94 -21t-94 21l-81 -81l-68 68l77 77q-29 44 -29 100q0 54 28 97l-76 76l68 68l80 -80q43 22 97 22q49 0 94 -21l79 79l68 -68l-76 -76q27 -43 27 -97q0 -55 -29 -99zM375 300q0 35 -20.5 57.5t-54.5 22.5q-35 -1 -55 -23
t-20 -57q0 -36 21 -58.5t56 -22.5q33 0 53 22.5t20 58.5z" />
    <glyph glyph-name="dollar.tf" 
d="M335 -10v-95h-71v98q-89 10 -151.5 54.5t-90.5 116.5l177 46q16 -49 65 -69v137q-63 18 -117 40q-111 52 -111 175q0 93 61.5 150.5t166.5 65.5v97h71v-98q81 -9 138.5 -50.5t83.5 -110.5l-172 -39q-17 43 -50 60v-127q76 -22 125 -42q47 -20 83 -66q36 -47 36 -126
q0 -94 -67 -153t-177 -64zM264 466v108q-39 -14 -39 -55q0 -33 39 -53zM396 190q0 41 -61 65v-125q61 7 61 60z" />
    <glyph glyph-name="Euro.tf" 
d="M407 265l189 -34q-25 -114 -96.5 -177.5t-177.5 -63.5q-107 0 -179 65.5t-96 182.5h-60v75h51q-1 8 -1 37v19h-50v75h57q20 126 93 196t185 70q107 0 178 -63t96 -177l-189 -34q-7 65 -27 93.5t-58 28.5q-37 0 -57 -27t-27 -87h124l-7 -75h-121v-19q0 -29 1 -37h115
l-7 -75h-102q8 -50 27.5 -72.5t53.5 -22.5q38 0 58 28.5t27 93.5z" />
    <glyph glyph-name="sterling.tf" 
d="M202 124l374 27v-151h-551v111q75 87 92 135h-104v120h85q-20 38 -31 67q-10 27 -10 70q0 97 66 152q67 55 175 55q187 0 278 -172l-173 -60q-28 81 -93 81q-35 0 -54 -19.5t-19 -53.5q0 -32 32 -94q3 -5 5.5 -10t4 -7.5l3 -5t1.5 -3.5h179v-120h-162q-8 -26 -29 -51.5
t-69 -70.5z" />
    <glyph glyph-name="yen.tf" 
d="M619 701l-193 -367h100v-76h-125v-55h125v-75h-125v-128h-197v128h-130v75h130v55h-130v76h103l-196 367h216l117 -242l116 242h189z" />
    <glyph glyph-name="plus.tf" 
d="M231 268h-175v120h175v181h139v-181h175v-120h-175v-181h-139v181z" />
    <glyph glyph-name="minus.tf" 
d="M56 263v130h489v-130h-489z" />
    <glyph glyph-name="multiply.tf" 
d="M208 328l-141 141l92 92l141 -141l139 139l92 -92l-139 -139l141 -141l-92 -92l-141 141l-139 -139l-92 92z" />
    <glyph glyph-name="divide.tf" 
d="M203 532q0 41 27.5 67.5t69.5 26.5q40 0 68.5 -26.5t28.5 -67.5q0 -39 -28.5 -65.5t-68.5 -26.5q-41 0 -69 26.5t-28 65.5zM56 268v120h489v-120h-489zM397 125q0 -41 -28.5 -67.5t-68.5 -26.5q-42 0 -69.5 26.5t-27.5 67.5q0 39 28 65.5t69 26.5q40 0 68.5 -26.5
t28.5 -65.5z" />
    <glyph glyph-name="equal.tf" 
d="M84 474h432v-121h-432v121zM84 270h432v-121h-432v121z" />
    <glyph glyph-name="notequal.tf" 
d="M516 353h-145l-35 -83h180v-121h-230l-43 -105h-119l43 105h-83v121h133l35 83h-168v121h217l43 103h119l-43 -103h96v-121z" />
    <glyph glyph-name="greater.tf" 
d="M97 571l406 -179v-123l-406 -179v142l279 99l-279 99v141z" />
    <glyph glyph-name="less.tf" 
d="M503 571v-141l-279 -99l279 -99v-142l-406 179v123z" />
    <glyph glyph-name="greaterequal.tf" 
d="M97 561l406 -149v-103l-406 -149v132l252 69l-252 69v131zM97 0v110h406v-110h-406z" />
    <glyph glyph-name="lessequal.tf" 
d="M503 561v-131l-252 -69l252 -69v-132l-406 149v103zM97 0v110h406v-110h-406z" />
    <glyph glyph-name="plusminus.tf" 
d="M231 318h-175v120h175v131h139v-131h175v-120h-175v-131h-139v131zM56 0v120h489v-120h-489z" />
    <glyph glyph-name="approxequal.tf" 
d="M131 322l-62 24q18 141 130 141q40 0 112 -22q73 -21 101 -21q52 0 57 44l62 -24q-15 -141 -127 -141q-37 0 -115 23q-74 20 -101 20q-49 0 -57 -44zM131 126l-62 24q18 141 130 141q40 0 112 -22q73 -21 101 -21q52 0 57 44l62 -24q-15 -141 -127 -141q-37 0 -115 23
q-74 20 -101 20q-49 0 -57 -44z" />
    <glyph glyph-name="trademark.ss09" horiz-adv-x="863" 
d="M30 615v85h301v-85h-95v-253h-112v253h-94zM677 700h156v-338h-109v260l-90 -260h-79l-90 265v-265h-98v338h167l70 -185z" />
    <glyph glyph-name="caron.alt" horiz-adv-x="500" 
d="M189 700h171l-79 -162h-101z" />
    </font>
</defs>
</svg>
