<?xml version="1.0" standalone="no"?>
<!DOCTYPE svg PUBLIC "-//W3C//DTD SVG 1.1//EN" "http://www.w3.org/Graphics/SVG/1.1/DTD/svg11.dtd" >
<svg>
<metadata>
Created by FontForge 20090622 at Fri Aug 11 14:06:08 2017
 By deploy user
Copyright &#194;&#169; 2017 by Ren&#195;&#169; Bieder. All rights reserved.
</metadata>
<defs>
<font id="Quarion-BoldItalic" horiz-adv-x="600" >
  <font-face 
    font-family="Quarion"
    font-weight="700"
    font-style="italic"
    font-stretch="normal"
    units-per-em="1000"
    panose-1="2 1 0 3 6 0 0 0 0 0"
    ascent="773"
    descent="-227"
    x-height="500"
    cap-height="700"
    bbox="-452 -329 1413 950"
    underline-thickness="50"
    underline-position="-50"
    slope="-12"
    unicode-range="U+0020-U+FB01"
  />
<missing-glyph 
d="M50 0v700h500v-700h-500zM300 415l136 220h-272zM115 116l150 243l-150 242v-485zM485 116v485l-150 -242zM153 65h294l-147 237z" />
    <glyph glyph-name="arrowleft" unicode="&#x3c;&#x2014;" horiz-adv-x="801" 
d="M763 443v-186l-456 8l217 -124l-124 -129l-337 326v24l338 326l123 -130l-213 -125z" />
    <glyph glyph-name="arrowright" unicode="&#x2d;&#x3e;" horiz-adv-x="800" 
d="M442 688l338 -326v-24l-337 -326l-124 129l217 124l-456 -8v186l452 -10l-213 125z" />
    <glyph glyph-name="fi" unicode="fi" horiz-adv-x="673" 
d="M717 651q0 -42 -30 -70t-73 -28t-73 28t-30 70t30 70.5t73 28.5t73 -28.5t30 -70.5zM669 500l-106 -500h-175l81 380h-181l-81 -380h-175l80 380h-70l25 120h71l5 24q18 86 92 136q76 50 184 50q40 0 64 -4l-25 -117q-21 6 -42 6q-82 0 -98 -73l-5 -22h356z" />
    <glyph glyph-name=".notdef" 
d="M50 0v700h500v-700h-500zM300 415l136 220h-272zM115 116l150 243l-150 242v-485zM485 116v485l-150 -242zM153 65h294l-147 237z" />
    <glyph glyph-name=".null" horiz-adv-x="0" 
 />
    <glyph glyph-name="nonmarkingreturn" horiz-adv-x="333" 
 />
    <glyph glyph-name="space" unicode=" " horiz-adv-x="200" 
 />
    <glyph glyph-name="exclam" unicode="!" horiz-adv-x="348" 
d="M156 700h228l-139 -443h-139zM247 92q0 -42 -30 -70.5t-73 -28.5t-73 28.5t-30 70.5t30 70t73 28t73 -28t30 -70z" />
    <glyph glyph-name="quotedbl" unicode="&#x22;" horiz-adv-x="480" 
d="M136 700h190l-91 -288h-130zM346 700h190l-91 -288h-130z" />
    <glyph glyph-name="numbersign" unicode="#" horiz-adv-x="779" 
d="M771 400h-125l-54 -114h126l-28 -128h-158l-74 -158h-142l74 158h-136l-74 -158h-142l74 158h-92l28 128h124l54 114h-125l27 128h158l79 169h142l-79 -169h136l80 169h141l-79 -169h92zM451 286l53 114h-136l-54 -114h137z" />
    <glyph glyph-name="dollar" unicode="$" horiz-adv-x="669" 
d="M627 217q0 -101 -84.5 -164t-212.5 -63h-14l-20 -95h-76l22 103q-88 18 -147 67.5t-77 128.5l183 38q11 -68 71 -91l30 142q-59 20 -108 46q-104 57 -104 160q0 94 77 157.5t201 63.5q19 0 24 -1l20 96h76l-22 -106q75 -17 127 -61.5t72 -110.5l-177 -32q-10 43 -51 66
l-28 -131q64 -23 111 -47q107 -53 107 -166zM339 457l26 123h-2q-38 0 -60.5 -17t-22.5 -44q0 -36 59 -62zM443 189q0 37 -71 67l-27 -127q44 1 71 18t27 42z" />
    <glyph glyph-name="percent" unicode="%" horiz-adv-x="942" 
d="M84 505q0 83 62.5 142.5t148.5 59.5q79 0 129.5 -46.5t50.5 -116.5q0 -84 -62 -144.5t-147 -60.5q-81 0 -131.5 47t-50.5 119zM735 700h124l-313 -349l-304 -351h-126l330 357zM356 537q0 27 -19.5 47t-46.5 20q-40 0 -63 -26t-23 -67q0 -31 19 -50t51 -19q35 0 58.5 28
t23.5 67zM900 192q0 -83 -62.5 -142.5t-148.5 -59.5q-79 0 -129.5 46.5t-50.5 116.5q0 84 62 144.5t147 60.5q81 0 131.5 -47t50.5 -119zM628 160q0 -27 19.5 -47t46.5 -20q40 0 63 26t23 67q0 31 -19 50t-51 19q-35 0 -58.5 -28t-23.5 -67z" />
    <glyph glyph-name="ampersand" unicode="&#x26;" horiz-adv-x="754" 
d="M595 133l106 -133h-186l-31 40q-89 -50 -201 -50q-115 0 -188 51q-73 52 -73 152q0 76 45 124t136 83q-42 59 -42 116q0 84 65.5 139t167.5 55q90 0 150 -42q61 -42 61 -125q0 -71 -46.5 -117.5t-134.5 -77.5l81 -102q35 53 48 118l149 -35q-40 -120 -107 -196zM311 528
q0 -33 35 -81q69 22 96 41.5t27 52.5q0 29 -19 45t-52 16q-38 0 -62.5 -20t-24.5 -54zM398 150l-120 154q-90 -32 -90 -93q0 -40 29.5 -62.5t80.5 -22.5q50 0 100 24z" />
    <glyph glyph-name="quotesingle" unicode="'" horiz-adv-x="270" 
d="M136 700h190l-91 -288h-130z" />
    <glyph glyph-name="parenleft" unicode="(" horiz-adv-x="377" 
d="M38 181q0 65 13 121q22 104 88 213q66 107 164 185h166q-202 -196 -251 -428q-14 -70 -14 -129q0 -148 76 -269h-139q-103 129 -103 307z" />
    <glyph glyph-name="parenright" unicode=")" horiz-adv-x="378" 
d="M355 392q0 -65 -13 -121q-22 -105 -89 -213q-64 -106 -163 -185h-166q202 196 251 428q14 70 14 129q0 148 -76 269h139q103 -129 103 -307z" />
    <glyph glyph-name="asterisk" unicode="*" horiz-adv-x="492" 
d="M527 558l-132 -31l108 -82l-74 -83l-93 102l-15 -136l-110 23l41 130l-126 -55l-35 107l135 31l-112 82l77 84l93 -102l15 136l110 -23l-41 -131l126 55z" />
    <glyph glyph-name="plus" unicode="+" horiz-adv-x="559" 
d="M214 268h-175l25 120h175l39 181h139l-39 -181h175l-25 -120h-175l-39 -181h-139z" />
    <glyph glyph-name="comma" unicode="," horiz-adv-x="294" 
d="M-8 -153l-9 66q46 0 88 19q43 18 43 43q0 9 -27 20q-77 32 -77 94q0 43 29 72t72 29q51 0 79.5 -32.5t28.5 -89.5q0 -102 -65.5 -161.5t-161.5 -59.5z" />
    <glyph glyph-name="hyphen" unicode="-" horiz-adv-x="409" 
d="M62 355h329l-31 -147h-329z" />
    <glyph glyph-name="period" unicode="." horiz-adv-x="294" 
d="M216 92q0 -42 -30 -70.5t-73 -28.5t-73 28.5t-30 70.5t30 70t73 28t73 -28t30 -70z" />
    <glyph glyph-name="slash" unicode="/" horiz-adv-x="441" 
d="M-102 -126l255 423l225 403h160l-254 -422l-226 -404h-160z" />
    <glyph glyph-name="zero" unicode="0" horiz-adv-x="682" 
d="M48 273q-2 114 42 214.5t126 162.5t183 60q131 0 204 -76q74 -77 74 -207q2 -114 -42 -214.5t-126.5 -162.5t-183.5 -60q-128 0 -202.5 76t-74.5 207zM480 454q0 103 -88 103q-44 2 -79 -49.5t-52 -122t-16 -139.5q0 -103 89 -103q44 -2 79 49.5t51.5 122.5t15.5 139z
" />
    <glyph glyph-name="one" unicode="1" horiz-adv-x="492" 
d="M359 700h148l-148 -700h-200l113 536l-162 -101l-30 146z" />
    <glyph glyph-name="two" unicode="2" horiz-adv-x="625" 
d="M294 160l-70 -31l344 30l-32 -159h-558l26 125l217 143q115 76 168 123q52 46 52 93q0 33 -23.5 53.5t-62.5 20.5q-40 0 -69.5 -27t-40.5 -79l-187 38q35 106 114.5 163t185.5 57q123 0 199 -59.5t76 -154.5q0 -76 -40 -134q-38 -55 -108 -101t-191 -101z" />
    <glyph glyph-name="three" unicode="3" horiz-adv-x="620" 
d="M458 346q119 -35 119 -148q0 -95 -75.5 -151.5t-192.5 -56.5q-120 0 -202.5 59.5t-89.5 158.5l184 26q5 -45 34.5 -69.5t74.5 -24.5q42 0 68 21.5t26 57.5q0 35 -24.5 56.5t-70.5 21.5h-42l24 114h67q45 0 67.5 23.5t22.5 56.5q0 30 -23.5 49.5t-60.5 19.5
q-89 0 -118 -102l-175 48q31 98 109 150.5t190 52.5q109 0 185.5 -51.5t76.5 -145.5q0 -70 -45 -112.5t-129 -53.5z" />
    <glyph glyph-name="four" unicode="4" horiz-adv-x="650" 
d="M659 700l-90 -421h72l-30 -140h-71l-30 -139h-185l29 139h-363l25 116l403 445h240zM484 580l-284 -301h185z" />
    <glyph glyph-name="five" unicode="5" horiz-adv-x="624" 
d="M607 553h-327l-48 -161q68 77 165 77q86 0 140 -56.5t54 -148.5q2 -116 -86.5 -196t-216.5 -78q-104 0 -180 51t-89 137l183 50q4 -47 30 -72t66 -25q48 0 75 33.5t27 81.5q0 79 -79 79q-54 0 -92 -52l-166 45l109 382h485z" />
    <glyph glyph-name="six" unicode="6" horiz-adv-x="650" 
d="M616 267q0 -116 -86.5 -196.5t-221.5 -80.5q-118 0 -196.5 62.5t-78.5 171.5q0 73 36.5 139.5t114.5 145.5l188 191h267l-298 -239q33 9 69 9q91 0 148.5 -54.5t57.5 -148.5zM429 257q0 42 -25.5 65.5t-69.5 23.5q-53 0 -84.5 -33t-31.5 -83q0 -44 25.5 -68.5t69.5 -24.5
q52 0 84 35t32 85z" />
    <glyph glyph-name="seven" unicode="7" horiz-adv-x="620" 
d="M146 700h532l-26 -129l-364 -571h-242l427 547h-380z" />
    <glyph glyph-name="eight" unicode="8" horiz-adv-x="640" 
d="M603 194q0 -91 -77 -147.5t-207 -56.5q-127 0 -216 52.5t-89 152.5q0 72 50 119t138 68q-94 46 -94 136q0 83 69 137.5t194 54.5q117 0 196.5 -48t79.5 -141q0 -65 -41 -108.5t-116 -61.5q57 -29 85 -66t28 -91zM283 496q0 -36 24.5 -56.5t61.5 -20.5q43 0 69.5 26
t26.5 64q0 35 -24.5 55t-62.5 20q-42 0 -68.5 -25t-26.5 -63zM415 224q0 36 -26.5 58t-69.5 22q-47 0 -76 -26.5t-29 -67.5q0 -38 25.5 -59t68.5 -21q49 0 78 27t29 67z" />
    <glyph glyph-name="nine" unicode="9" horiz-adv-x="649" 
d="M659 476q0 -73 -36.5 -139.5t-114.5 -145.5l-188 -191h-267l298 239q-33 -9 -69 -9q-91 0 -148.5 54.5t-57.5 148.5q0 116 86.5 196.5t221.5 80.5q118 0 196.5 -62.5t78.5 -171.5zM358 354q53 0 84.5 33t31.5 83q0 44 -25.5 68.5t-69.5 24.5q-52 0 -84 -35t-32 -85
q0 -42 25.5 -65.5t69.5 -23.5z" />
    <glyph glyph-name="colon" unicode=":" horiz-adv-x="295" 
d="M77 407q0 42 30 70.5t73 28.5t73 -28.5t30 -70.5t-30 -70t-73 -28t-73 28t-30 70zM217 92q0 -42 -30 -70.5t-73 -28.5t-73 28.5t-30 70.5t30 70t73 28t73 -28t30 -70z" />
    <glyph glyph-name="semicolon" unicode=";" horiz-adv-x="290" 
d="M77 407q0 42 30 70.5t73 28.5t73 -28.5t30 -70.5t-30 -70t-73 -28t-73 28t-30 70zM-7 -153l-9 66q46 0 88 19q43 18 43 43q0 9 -27 20q-77 32 -77 94q0 43 29 72t72 29q51 0 79.5 -32.5t28.5 -89.5q0 -102 -65.5 -161.5t-161.5 -59.5z" />
    <glyph glyph-name="less" unicode="&#x3c;" horiz-adv-x="496" 
d="M513 571l-29 -147l-300 -99l257 -99l-28 -136l-368 179l24 123z" />
    <glyph glyph-name="equal" unicode="=" horiz-adv-x="532" 
d="M98 474h432l-26 -121h-432zM54 270h432l-25 -121h-432z" />
    <glyph glyph-name="greater" unicode="&#x3e;" horiz-adv-x="496" 
d="M117 571l368 -179l-24 -123l-444 -179l29 147l300 99l-257 99z" />
    <glyph glyph-name="question" unicode="?" horiz-adv-x="565" 
d="M186 257l5 27q6 36 34 61.5t91 59.5q54 30 75.5 50t21.5 46q0 24 -18.5 40t-48.5 16q-35 0 -65 -22t-44 -62l-166 63q42 84 116 129t166 45q103 0 168 -48q66 -47 66 -137q0 -55 -23 -93q-21 -34 -50 -54.5t-83 -47.5q-40 -20 -55 -31.5t-19 -25.5l-4 -16h-167zM343 92
q0 -42 -30 -70.5t-73 -28.5t-73 28.5t-30 70.5t30 70t73 28t73 -28t30 -70z" />
    <glyph glyph-name="at" unicode="@" horiz-adv-x="896" 
d="M717 469l-88 -216q-13 -30 -13 -52q0 -37 47 -37q65 0 104 63t39 147q0 121 -84 195t-210 74q-109 2 -199 -59t-138.5 -157t-46.5 -201q0 -142 86 -217t229 -75q141 0 258 89l27 -75q-130 -86 -284 -86q-182 0 -295 97t-113 269q-2 126 61 238t175 179.5t243 64.5
q161 0 264 -92.5t103 -248.5q0 -123 -64 -203t-179 -80q-112 0 -136 75q-47 -74 -124 -74q-62 0 -106 44.5t-44 117.5q-2 89 62.5 164t148.5 72q49 0 79.5 -26t34.5 -71l28 81h135zM521 319q0 64 -55 64q-43 0 -71.5 -43.5t-28.5 -86.5q0 -29 17.5 -48t42.5 -19
q38 0 66.5 43t28.5 90z" />
    <glyph glyph-name="A" unicode="A" horiz-adv-x="805" 
d="M531 0l-20 138h-271l-79 -138h-199l431 700h213l131 -700h-206zM319 277h172l-34 241z" />
    <glyph glyph-name="B" unicode="B" horiz-adv-x="709" 
d="M673 195q0 -89 -77.5 -142t-189.5 -53h-387l147 700h333q91 0 153 -47t62 -122t-45.5 -121.5t-124.5 -58.5q64 -21 96.5 -62.5t32.5 -93.5zM333 566l-32 -155h91q50 0 81 23t31 65q0 30 -23 48.5t-58 18.5h-90zM463 218q0 30 -22.5 49.5t-58.5 19.5h-107l-32 -152h108
q48 0 80 23.5t32 59.5z" />
    <glyph glyph-name="C" unicode="C" horiz-adv-x="812" 
d="M411 -10q-155 -2 -258 86.5t-101 230.5q-3 168 116.5 287t290.5 116q141 0 238.5 -71.5t109.5 -191.5l-198 -36q-3 67 -44 105.5t-107 38.5q-89 0 -143 -74t-54 -176q0 -75 40.5 -117.5t110.5 -42.5q62 0 110 38.5t70 103.5l195 -35q-35 -117 -138.5 -189.5t-237.5 -72.5
z" />
    <glyph glyph-name="D" unicode="D" horiz-adv-x="807" 
d="M19 0l147 700h299q148 0 242 -80t94 -213q3 -177 -131.5 -293t-341.5 -114h-309zM250 147h112q101 0 165 72.5t64 183.5q0 71 -38.5 110.5t-104.5 39.5h-109z" />
    <glyph glyph-name="E" unicode="E" horiz-adv-x="657" 
d="M670 545h-342l-24 -111h297l-30 -143h-297l-29 -136h342l-33 -155h-537l149 700h537z" />
    <glyph glyph-name="F" unicode="F" horiz-adv-x="647" 
d="M664 544h-332l-27 -130h302l-32 -150h-302l-56 -264h-200l149 700h532z" />
    <glyph glyph-name="G" unicode="G" horiz-adv-x="807" 
d="M439 225l28 139h311l-63 -295q-123 -79 -290 -79q-165 0 -269.5 83.5t-104.5 228.5q-2 114 55 209t152.5 147.5t204.5 51.5q132 0 226.5 -63.5t116.5 -175.5l-192 -43q-5 62 -45 94.5t-107 32.5q-89 0 -145.5 -69.5t-56.5 -181.5q0 -162 201 -162q34 0 81 11l15 72h-118z
" />
    <glyph glyph-name="H" unicode="H" horiz-adv-x="837" 
d="M663 700h200l-149 -700h-200l58 273h-297l-58 -273h-200l149 700h200l-58 -272h297z" />
    <glyph glyph-name="I" unicode="I" horiz-adv-x="360" 
d="M176 700h200l-149 -700h-200z" />
    <glyph glyph-name="J" unicode="J" horiz-adv-x="657" 
d="M3 193l178 72q9 -68 29.5 -94t67.5 -26q42 0 72.5 28t40.5 74l97 453h200l-91 -426q-29 -138 -114 -211t-219 -73q-112 0 -180 58.5t-81 144.5z" />
    <glyph glyph-name="K" unicode="K" horiz-adv-x="752" 
d="M846 700l-365 -344l223 -356h-234l-182 333l-71 -333h-200l149 700h200l-64 -300l298 300h246z" />
    <glyph glyph-name="L" unicode="L" horiz-adv-x="625" 
d="M250 156h340l-33 -156h-540l149 700h200z" />
    <glyph glyph-name="M" unicode="M" horiz-adv-x="996" 
d="M721 700h301l-149 -700h-208l108 507l-295 -428h-34l-132 429l-109 -508h-186l149 700h290l76 -278z" />
    <glyph glyph-name="N" unicode="N" horiz-adv-x="868" 
d="M722 700h172l-149 -700h-266l-182 506l-108 -506h-172l149 700h259l188 -507z" />
    <glyph glyph-name="O" unicode="O" horiz-adv-x="835" 
d="M52 307q-3 167 118.5 286.5t293.5 116.5q155 2 259.5 -87t102.5 -230q3 -167 -118 -286.5t-292 -116.5q-155 -2 -260.5 87t-103.5 230zM618 395q0 74 -42.5 117t-112.5 43q-89 0 -145.5 -75t-56.5 -175q0 -74 42 -117t114 -43q89 0 145 74.5t56 175.5z" />
    <glyph glyph-name="P" unicode="P" horiz-adv-x="701" 
d="M736 492q0 -120 -92 -182q-91 -61 -235 -61h-137l-53 -249h-200l147 700h337q103 0 168 -60t65 -148zM526 481q0 31 -21.5 50t-58.5 19h-111l-34 -163h111q53 0 83.5 25.5t30.5 68.5z" />
    <glyph glyph-name="Q" unicode="Q" horiz-adv-x="845" 
d="M571 33h250l-33 -143l-410 92q-159 35 -242.5 118t-83.5 207q-3 167 118.5 286.5t293.5 116.5q155 2 259.5 -87t102.5 -230q0 -119 -70 -214q-71 -97 -185 -146zM417 145q89 0 145 74.5t56 175.5q0 74 -42.5 117t-112.5 43q-89 0 -145.5 -75t-56.5 -175q0 -74 42 -117
t114 -43z" />
    <glyph glyph-name="R" unicode="R" horiz-adv-x="737" 
d="M510 258l174 -258h-236l-112 249h-64l-53 -249h-200l147 700h337q103 0 168 -60t65 -148q0 -96 -59.5 -155.5t-166.5 -78.5zM335 550l-34 -163h111q53 0 83.5 25.5t30.5 68.5q0 31 -21.5 50t-58.5 19h-111z" />
    <glyph glyph-name="S" unicode="S" horiz-adv-x="669" 
d="M18 194l183 38q17 -103 139 -103q47 0 75 16.5t28 43.5t-28 45t-101 44q-77 28 -114 47q-110 57 -110 164q0 94 77 157.5t201 63.5q107 0 189 -47q82 -46 108 -136l-177 -32q-11 40 -45 62.5t-80 22.5q-38 0 -60.5 -17t-22.5 -44t26.5 -44t98.5 -43q68 -24 112 -47
q110 -57 110 -168q0 -101 -84.5 -164t-212.5 -63q-115 0 -202 51q-86 51 -110 153z" />
    <glyph glyph-name="T" unicode="T" horiz-adv-x="680" 
d="M756 700l-33 -155h-220l-116 -545h-200l116 545h-220l33 155h640z" />
    <glyph glyph-name="U" unicode="U" horiz-adv-x="784" 
d="M818 700l-97 -464q-22 -110 -114.5 -178t-219.5 -68q-148 0 -234.5 67.5t-86.5 180.5q0 38 7 67l83 395h202l-88 -414q-3 -16 -3 -32q0 -49 32.5 -77.5t89.5 -28.5q50 0 86.5 30.5t47.5 80.5l92 441h203z" />
    <glyph glyph-name="V" unicode="V" horiz-adv-x="751" 
d="M640 700h197l-416 -700h-198l-117 700h212l58 -481z" />
    <glyph glyph-name="W" unicode="W" horiz-adv-x="1153" 
d="M1048 700h186l-347 -700h-222l-42 457l-226 -457h-239l-47 700h207l13 -495l252 495h192l45 -513z" />
    <glyph glyph-name="X" unicode="X" horiz-adv-x="759" 
d="M839 700l-323 -361l175 -339h-247l-81 211l-174 -211h-215l307 347l-170 353h247l85 -232l181 232h215z" />
    <glyph glyph-name="Y" unicode="Y" horiz-adv-x="689" 
d="M588 700h202l-342 -443l-54 -257h-200l54 254l-157 446h211l85 -272z" />
    <glyph glyph-name="Z" unicode="Z" horiz-adv-x="689" 
d="M741 700l-26 -120l-429 -426h349l-33 -154h-621l26 120l436 426h-331l33 154h596z" />
    <glyph glyph-name="bracketleft" unicode="[" horiz-adv-x="406" 
d="M434 570h-121l-121 -567h121l-27 -129h-301l176 826h301z" />
    <glyph glyph-name="backslash" unicode="\" horiz-adv-x="438" 
d="M380 -126h-156l-53 404l-76 422h157l52 -403z" />
    <glyph glyph-name="bracketright" unicode="]" horiz-adv-x="406" 
d="M-12 4h121l121 567h-121l27 129h301l-176 -826h-301z" />
    <glyph glyph-name="asciicircum" unicode="^" horiz-adv-x="495" 
d="M501 384h-132l-52 205l-139 -205h-131l234 316h120z" />
    <glyph glyph-name="underscore" unicode="_" horiz-adv-x="502" 
d="M-53 -47h482l-24 -112h-482z" />
    <glyph glyph-name="grave" unicode="`" horiz-adv-x="498" 
d="M469 557h-149l-129 143h247z" />
    <glyph glyph-name="a" unicode="a" horiz-adv-x="547" 
d="M515 340q0 -15 -5 -45l-62 -295h-170l14 64q-43 -73 -137 -73q-68 0 -109 34t-41 89q0 72 37 110q34 36 80 51.5t129 26.5q56 7 77 14.5t21 23.5q0 22 -15.5 35t-41.5 13q-59 0 -95 -58l-149 53q79 127 252 127q98 0 156.5 -46t58.5 -124zM316 179l9 43l-55 -9
q-97 -14 -97 -63q0 -18 14.5 -30t37.5 -12q31 0 58 20t33 51z" />
    <glyph glyph-name="b" unicode="b" horiz-adv-x="640" 
d="M617 303q2 -127 -73.5 -221.5t-188.5 -91.5q-133 0 -161 105l-20 -95h-175l150 700h175l-59 -272q64 82 153 82t144 -57.5t55 -149.5zM441 279q0 46 -26 73.5t-71 27.5q-54 0 -89 -47.5t-35 -108.5q0 -46 25.5 -74t69.5 -28q54 0 90 48t36 109z" />
    <glyph glyph-name="c" unicode="c" horiz-adv-x="604" 
d="M25 214q0 129 82.5 212.5t210.5 83.5q111 0 182 -52t83 -144l-174 -30q0 96 -88 96q-54 0 -86.5 -49t-32.5 -114q0 -46 24.5 -71.5t68.5 -25.5q75 0 105 90l166 -31q-40 -93 -114.5 -141t-169.5 -48q-116 0 -187 59q-70 58 -70 165z" />
    <glyph glyph-name="d" unicode="d" horiz-adv-x="640" 
d="M507 700h175l-149 -700h-175l15 71q-61 -81 -151 -81q-89 0 -144 57.5t-55 149.5q-2 127 73.5 221.5t188.5 91.5q131 0 160 -102zM420 276q0 46 -25.5 74t-69.5 28q-54 0 -90 -48t-36 -109q0 -46 26 -73.5t71 -27.5q54 0 89 47.5t35 108.5z" />
    <glyph glyph-name="e" unicode="e" horiz-adv-x="572" 
d="M535 212h-334v-20q0 -39 18 -60t51 -21q66 0 89 61l157 -37q-53 -78 -116 -111.5t-157 -33.5q-99 0 -160 56.5t-61 147.5q0 140 87.5 228t225.5 88q101 0 160 -54.5t59 -144.5q0 -18 -3 -37t-6 -30.5t-7 -21.5zM218 308h164l1 14q0 33 -16.5 52t-46.5 19q-74 0 -102 -85z
" />
    <glyph glyph-name="f" unicode="f" horiz-adv-x="387" 
d="M318 522l-5 -22h127l-25 -120h-127l-81 -380h-175l80 380h-70l25 120h71l5 24q18 86 92 136q76 50 184 50q46 0 86 -8l-26 -121q-23 14 -63 14q-82 0 -98 -73z" />
    <glyph glyph-name="g" unicode="g" horiz-adv-x="628" 
d="M451 500h175l-111 -539q-16 -82 -95 -131.5t-187 -49.5q-98 0 -172 41q-73 41 -93 114l171 42q4 -35 30 -54t68 -19q41 0 69 19t35 50l24 112q-61 -73 -145 -73q-88 0 -141.5 54t-53.5 144q-2 124 71.5 213t184.5 87q123 0 155 -86zM409 289q0 45 -23 70t-65 25
q-55 0 -87 -45q-32 -44 -32 -104q0 -46 23 -72t67 -26q53 0 85 45q32 47 32 107z" />
    <glyph glyph-name="h" unicode="h" horiz-adv-x="601" 
d="M571 357q0 -28 -6 -58l-64 -299h-176l61 288q3 12 3 23q0 59 -69 59q-29 0 -51.5 -19t-31.5 -55l-63 -296h-175l106 500l43 200h175l-57 -267q52 77 150 77q73 0 114 -41t41 -112z" />
    <glyph glyph-name="i" unicode="i" horiz-adv-x="289" 
d="M127 651q0 42 30 70.5t73 28.5t73 -28.5t30 -70.5t-30 -70t-73 -28t-73 28t-30 70zM4 0l106 500h175l-106 -500h-175z" />
    <glyph glyph-name="j" unicode="j" horiz-adv-x="289" 
d="M127 651q0 42 30 70.5t73 28.5t73 -28.5t30 -70.5t-30 -70t-73 -28t-73 28t-30 70zM-169 -207l26 117q26 -15 59 -15q30 0 51 16.5t27 46.5l115 542h176l-116 -544q-17 -81 -87.5 -128.5t-177.5 -47.5q-41 0 -73 13z" />
    <glyph glyph-name="k" unicode="k" horiz-adv-x="581" 
d="M645 500l-261 -234l155 -266h-203l-109 241l-51 -241h-175l149 700h175l-85 -400l202 200h203z" />
    <glyph glyph-name="l" unicode="l" horiz-adv-x="283" 
d="M1 0l149 700h175l-149 -700h-175z" />
    <glyph glyph-name="m" unicode="m" horiz-adv-x="929" 
d="M899 357q0 -28 -6 -58l-64 -299h-176l61 288q3 12 3 23q0 59 -69 59q-31 0 -53.5 -21t-31.5 -61l-62 -288h-176l61 288q3 12 3 23q0 59 -69 59q-30 0 -52.5 -20t-31.5 -59l-62 -291h-175l106 500h175l-14 -67q50 77 150 77q114 0 146 -93q66 93 182 93q73 0 114 -41
t41 -112z" />
    <glyph glyph-name="n" unicode="n" horiz-adv-x="601" 
d="M571 357q0 -28 -6 -58l-64 -299h-176l61 288q3 12 3 23q0 59 -69 59q-30 0 -52.5 -20t-31.5 -59l-62 -291h-175l106 500h175l-14 -67q50 77 150 77q73 0 114 -41t41 -112z" />
    <glyph glyph-name="o" unicode="o" horiz-adv-x="627" 
d="M26 219q0 125 85 208t215 83q122 0 199 -61.5t77 -166.5q2 -125 -85 -209.5t-215 -82.5q-121 0 -198.5 62.5t-77.5 166.5zM426 281q0 47 -26 73t-73 26q-56 0 -90.5 -48.5t-34.5 -112.5q0 -46 26.5 -72.5t72.5 -26.5q56 0 90.5 48t34.5 113z" />
    <glyph glyph-name="p" unicode="p" horiz-adv-x="640" 
d="M617 303q2 -127 -73.5 -221.5t-188.5 -91.5q-133 0 -161 105l-65 -305h-175l151 710h175l-15 -73q62 83 153 83q89 0 144 -57.5t55 -149.5zM441 279q0 46 -26 73.5t-71 27.5q-54 0 -89 -47.5t-35 -108.5q0 -46 25.5 -74t69.5 -28q54 0 90 48t36 109z" />
    <glyph glyph-name="q" unicode="q" horiz-adv-x="640" 
d="M466 500h175l-150 -700h-175l59 272q-64 -82 -153 -82t-144 57.5t-55 149.5q-2 127 73.5 221.5t188.5 91.5q133 0 161 -105zM420 276q0 46 -25.5 74t-69.5 28q-54 0 -90 -48t-36 -109q0 -46 26 -73.5t71 -27.5q54 0 89 47.5t35 108.5z" />
    <glyph glyph-name="r" unicode="r" horiz-adv-x="442" 
d="M478 500l-36 -169q-20 4 -51 4q-65 0 -103 -30q-36 -27 -54 -68t-34 -115l-26 -122h-175l106 500h175l-29 -139q53 146 166 146q40 0 61 -7z" />
    <glyph glyph-name="s" unicode="s" horiz-adv-x="497" 
d="M1 139l162 29q3 -30 25 -49t56 -19q50 0 50 33q0 19 -19 31.5t-70 31.5q-53 21 -80 35q-76 39 -76 116q0 73 59.5 118t156.5 45q75 0 135 -31.5t83 -87.5l-151 -31q-6 19 -23 32t-40 13q-20 0 -33 -9.5t-13 -23.5q0 -16 16.5 -26.5t62.5 -27.5q53 -20 80 -34
q78 -38 78 -122q0 -77 -62 -124.5t-163 -47.5q-85 0 -152 39t-82 110z" />
    <glyph glyph-name="t" unicode="t" horiz-adv-x="425" 
d="M284 380l-40 -188q0 -2 -0.5 -5t-1 -5t-0.5 -3.5v-2.5q0 -26 21 -41t56 -15q28 0 58 14l-28 -136q-43 -8 -83 -8q-94 0 -147 43.5t-53 123.5q0 26 6 56l35 167h-80l25 120h81l34 160h176l-34 -160h139l-25 -120h-139z" />
    <glyph glyph-name="u" unicode="u" horiz-adv-x="601" 
d="M427 500h175l-106 -500h-175l14 67q-50 -77 -150 -77q-73 0 -114 41t-41 112q0 28 6 58l64 299h176l-61 -288q-3 -12 -3 -23q0 -59 69 -59q30 0 52.5 20t31.5 59z" />
    <glyph glyph-name="v" unicode="v" horiz-adv-x="569" 
d="M433 500h181l-288 -500h-188l-77 500h187l23 -328z" />
    <glyph glyph-name="w" unicode="w" horiz-adv-x="857" 
d="M725 500h182l-254 -500h-203l-23 260l-125 -260h-203l-43 500h184l-3 -364l169 364h155l15 -362z" />
    <glyph glyph-name="x" unicode="x" horiz-adv-x="568" 
d="M598 500l-221 -253l125 -247h-193l-50 145l-119 -145h-180l222 254l-116 246h193l47 -135l112 135h180z" />
    <glyph glyph-name="y" unicode="y" horiz-adv-x="584" 
d="M442 500h187l-443 -710h-220l194 250l-99 460h194l38 -262z" />
    <glyph glyph-name="z" unicode="z" horiz-adv-x="511" 
d="M527 500l-21 -100l-273 -277h229l-26 -123h-460l21 100l301 277h-229l26 123h432z" />
    <glyph glyph-name="braceleft" unicode="{" horiz-adv-x="423" 
d="M415 700h74l-26 -120h-32q-33 0 -53.5 -20t-22.5 -51l-5 -82q-7 -112 -146 -144q94 -33 94 -106q0 -23 -9 -48l-30 -78q-7 -20 -7 -32q0 -26 43 -26h43l-25 -119h-62q-78 0 -126.5 36.5t-48.5 95.5q0 28 10 54l32 83q9 25 9 41q0 41 -59 41h-43l25 120h33q41 0 69.5 26.5
t31.5 69.5l4 87q4 79 67 125q65 47 160 47z" />
    <glyph glyph-name="bar" unicode="|" horiz-adv-x="273" 
d="M166 700h133l-176 -826h-133z" />
    <glyph glyph-name="braceright" unicode="}" horiz-adv-x="423" 
d="M371 349h43l-25 -120h-33q-41 0 -69.5 -26.5t-31.5 -69.5l-4 -87q-4 -79 -68 -125q-64 -47 -159 -47h-74l26 120h32q33 0 53.5 20t22.5 51l5 82q7 112 146 144q-94 33 -94 106q0 23 9 48l30 78q7 20 7 32q0 26 -43 26h-43l25 119h62q78 0 126.5 -36.5t48.5 -95.5
q0 -28 -10 -54l-32 -83q-9 -25 -9 -41q0 -41 59 -41z" />
    <glyph glyph-name="asciitilde" unicode="~" horiz-adv-x="481" 
d="M105 235l-66 38q44 134 147 134q42 0 92 -25q40 -18 61 -18q53 0 70 51l65 -38q-43 -134 -144 -134q-38 0 -93 25q-46 21 -62 18q-49 0 -70 -51z" />
    <glyph glyph-name="exclamdown" unicode="&#xa1;" horiz-adv-x="348" 
d="M100 404q0 42 30 70.5t73 28.5t73 -28.5t30 -70.5t-30 -70t-73 -28t-73 28t-30 70zM191 -204h-228l139 443h139z" />
    <glyph glyph-name="cent" unicode="&#xa2;" horiz-adv-x="604" 
d="M400 210l166 -31q-39 -92 -111.5 -139.5t-167.5 -49.5l-20 -95h-76l22 101q-89 16 -138.5 72.5t-49.5 145.5q0 129 82.5 212.5t210.5 83.5h4l20 95h76l-22 -103q79 -16 128 -64.5t59 -123.5l-174 -30q0 63 -41 86l-53 -248q60 11 85 88zM242 133l51 243
q-42 -12 -66.5 -57t-24.5 -102q0 -59 40 -84z" />
    <glyph glyph-name="sterling" unicode="&#xa3;" horiz-adv-x="627" 
d="M202 124l373 26l-31 -150h-570l23 110q85 67 120 136h-98l26 120h84l-14 31q-27 59 -27 95q0 98 70.5 158t184.5 60q103 0 175 -47t105 -136l-180 -52q-9 44 -32 63t-63 19q-37 0 -59.5 -23t-22.5 -60q0 -23 26 -80q1 -3 5.5 -12t7.5 -16h206l-26 -120h-179
q-27 -60 -104 -122z" />
    <glyph glyph-name="currency" unicode="&#xa4;" horiz-adv-x="574" 
d="M441 189l60 -76l-82 -68l-66 83q-35 -13 -72 -13q-55 0 -99 23l-113 -93l-54 68l105 87q-21 34 -21 81q0 66 40 119l-50 63l82 68l52 -66q41 18 87 18q66 0 113 -33l98 81l54 -68l-97 -80q12 -29 12 -63q0 -76 -49 -131zM289 218q35 0 58.5 28t23.5 67q0 28 -15.5 46
t-43.5 21q-41 1 -67 -26t-26 -67q0 -31 19 -50t51 -19z" />
    <glyph glyph-name="yen" unicode="&#xa5;" horiz-adv-x="669" 
d="M770 700l-289 -367h111l-16 -75h-137l-12 -55h137l-16 -75h-138l-28 -128h-200l28 128h-145l16 75h145l12 55h-145l16 75h117l-135 367h208l81 -243l185 243h205z" />
    <glyph glyph-name="brokenbar" unicode="&#xa6;" horiz-adv-x="273" 
d="M91 350l75 350h133l-75 -350h-133zM199 230l-76 -356h-133l76 356h133z" />
    <glyph glyph-name="section" unicode="&#xa7;" horiz-adv-x="551" 
d="M367 500q57 -24 88 -42q86 -46 86 -124q0 -54 -39 -90.5t-108 -48.5q65 -51 65 -116q0 -78 -60.5 -126.5t-150.5 -48.5t-157 39t-82 109l153 18q2 -29 25 -47.5t58 -18.5q24 0 41 11.5t17 29.5t-21 32t-74 37q-64 27 -88 41q-86 49 -86 125q0 54 39 90.5t108 48.5
q-65 51 -65 116q0 78 60.5 126.5t150.5 48.5q89 0 154 -37q67 -38 83 -105l-152 -21q-3 28 -25 45.5t-57 17.5q-58 0 -58 -41q0 -18 21 -32t74 -37zM292 254l25 -12q57 7 57 46q0 18 -19.5 32t-71.5 40l-25 12q-57 -7 -57 -46q0 -18 19.5 -32t71.5 -40z" />
    <glyph glyph-name="dieresis" unicode="&#xa8;" horiz-adv-x="500" 
d="M129 652q0 41 27.5 68t66.5 27t66.5 -27t27.5 -68t-27 -67.5t-67 -26.5t-67 26.5t-27 67.5zM355 652q0 41 27.5 68t66.5 27t66.5 -27t27.5 -68t-27 -67.5t-67 -26.5t-67 26.5t-27 67.5z" />
    <glyph glyph-name="copyright" unicode="&#xa9;" horiz-adv-x="804" 
d="M456 710q142 2 237 -88t93 -225q2 -105 -52 -199t-146.5 -150t-197.5 -54q-143 0 -236 88t-93 225q-3 163 115.5 284.5t279.5 118.5zM725 393q0 116 -76.5 190t-194.5 74q-135 3 -235 -103.5t-98 -241.5q0 -116 76.5 -190.5t194.5 -74.5q135 -3 235.5 103t97.5 243z
M438 448q-42 0 -66 -37t-24 -84q0 -71 69 -71q56 0 86 68l120 -29q-62 -137 -203 -137q-87 0 -145 44q-57 45 -57 124q0 93 62 156t156 63q82 0 137 -38.5t64 -106.5l-130 -24q0 34 -18 53t-51 19z" />
    <glyph glyph-name="ordfeminine" unicode="&#xaa;" horiz-adv-x="492" 
d="M506 568q0 -20 -4 -35l-55 -258h-148l12 58q-38 -59 -120 -59q-62 0 -98.5 30t-36.5 87q0 55 33 84q30 28 71 38.5t115 17.5q45 4 62.5 8.5t20.5 13.5l2 14q0 20 -14 31.5t-37 11.5q-51 0 -75 -52l-128 53q31 50 84.5 78t121.5 28q83 0 139 -41q55 -40 55 -108zM332 431
l6 26l-23 -3q-60 -7 -83.5 -17t-23.5 -35q0 -13 12.5 -22t31.5 -9q27 0 50.5 16.5t29.5 43.5zM28 84l26 120h358l-26 -120h-358z" />
    <glyph glyph-name="guillemotleft" unicode="&#xab;" horiz-adv-x="559" 
d="M255 282l140 173h180l-200 -196l112 -195h-171l-69 175zM35 282l140 173h180l-200 -196l112 -195h-171l-69 175z" />
    <glyph glyph-name="registered" unicode="&#xae;" horiz-adv-x="530" 
d="M544 480q0 -96 -66.5 -162.5t-162.5 -66.5t-163.5 66t-67.5 162q0 95 68 163t163 68q96 0 162.5 -67.5t66.5 -162.5zM498 480q0 83 -51.5 135t-131.5 52q-81 0 -132 -52.5t-51 -135.5q0 -80 52.5 -132.5t130.5 -52.5t130.5 52.5t52.5 133.5zM370 460l59 -80h-73l-40 75
h-27v-75h-60v211h105q38 0 61.5 -18.5t23.5 -49.5q0 -46 -49 -63zM289 546v-50h41q29 0 29 27q0 23 -29 23h-41z" />
    <glyph glyph-name="overscore" unicode="&#xaf;" horiz-adv-x="500" 
d="M195 701h303l-23 -108h-303z" />
    <glyph glyph-name="degree" unicode="&#xb0;" horiz-adv-x="455" 
d="M116 542q0 76 56 130t135 54q74 0 119 -42t45 -106q0 -76 -56.5 -131t-134.5 -55q-72 0 -118 43t-46 107zM363 572q0 27 -16.5 44t-43.5 17q-34 0 -56 -24.5t-22 -60.5q0 -28 16.5 -44.5t46.5 -16.5q32 0 53.5 24t21.5 61z" />
    <glyph glyph-name="plusminus" unicode="&#xb1;" horiz-adv-x="559" 
d="M224 318h-175l26 120h175l28 131h139l-28 -131h175l-26 -120h-175l-27 -131h-139zM-18 0l25 120h489l-25 -120h-489z" />
    <glyph glyph-name="uni00B2" unicode="&#xb2;" horiz-adv-x="369" 
d="M252 482l-46 -17l200 21l-22 -100h-324l18 83l135 85q79 50 79 86q0 15 -9.5 23.5t-24.5 8.5q-37 0 -45 -42l-116 30q36 108 165 108q70 0 112.5 -32.5t42.5 -91.5q0 -56 -40 -93.5t-125 -68.5z" />
    <glyph glyph-name="uni00B3" unicode="&#xb3;" horiz-adv-x="370" 
d="M332 571q67 -16 67 -78q0 -51 -41.5 -82t-110.5 -31q-71 0 -116.5 33t-51.5 85l124 18q-1 -22 11.5 -31.5t32.5 -9.5q40 0 40 33q0 31 -45 31h-22l14 72h26q42 0 48 28q3 17 -7.5 26t-28.5 9q-37 0 -45 -37l-116 33q39 98 165 98q66 0 109 -28.5t43 -80.5
q0 -39 -25 -62.5t-71 -25.5z" />
    <glyph glyph-name="acute" unicode="&#xb4;" horiz-adv-x="500" 
d="M159 557l92 143h250l-189 -143h-153z" />
    <glyph glyph-name="paragraph" unicode="&#xb6;" horiz-adv-x="660" 
d="M286 299h-27q-83 0 -131 43.5t-48 118.5q0 27 5 50q19 87 85.5 138.5t162.5 51.5h353l-149 -701h-116l127 596h-82l-127 -596h-116z" />
    <glyph glyph-name="middot" unicode="&#xb7;" horiz-adv-x="294" 
d="M265 322q0 -42 -30 -70.5t-73 -28.5t-73 28.5t-30 70.5t30 70t73 28t73 -28t30 -70z" />
    <glyph glyph-name="cedilla" unicode="&#xb8;" horiz-adv-x="516" 
d="M356 -123q0 -51 -35.5 -83t-92.5 -32q-53 0 -90.5 21.5t-41.5 39.5l72 50q22 -35 51 -35q42 0 42 37q0 13 -11 22.5t-28 9.5q-10 0 -26 -4l-24 22l50 97l92 -22l-51 -44q41 -1 67 -22t26 -57z" />
    <glyph glyph-name="uni00B9" unicode="&#xb9;" horiz-adv-x="298" 
d="M259 760h97l-79 -374h-122l59 279l-88 -56l-20 92z" />
    <glyph glyph-name="ordmasculine" unicode="&#xba;" horiz-adv-x="545" 
d="M82 461q-2 108 72 183.5t182 73.5q101 0 165 -52.5t64 -142.5q0 -110 -72 -183.5t-182 -73.5q-101 0 -165 52.5t-64 142.5zM415 523q0 39 -20 61t-59 22q-48 0 -76 -44t-28 -102q0 -82 79 -82q47 0 75.5 44t28.5 101zM66 84l26 120h358l-26 -120h-358z" />
    <glyph glyph-name="guillemotright" unicode="&#xbb;" horiz-adv-x="559" 
d="M308 237l-140 -173h-180l200 196l-112 195h171l69 -175zM528 237l-140 -173h-180l200 196l-112 195h171l69 -175z" />
    <glyph glyph-name="onequarter" unicode="&#xbc;" horiz-adv-x="828" 
d="M246 700h97l-79 -374h-122l59 279l-88 -56l-20 92zM677 700h124l-313 -349l-304 -351h-126l330 357zM791 374l-47 -222h38l-17 -79h-38l-15 -73h-115l15 73h-176l11 64l200 237h144zM549 152h80l43 145z" />
    <glyph glyph-name="onehalf" unicode="&#xbd;" horiz-adv-x="867" 
d="M246 700h97l-79 -374h-122l59 279l-88 -56l-20 92zM677 700h124l-313 -349l-304 -351h-126l330 357zM668 96l-46 -17l200 21l-22 -100h-324l18 83l135 85q79 50 79 86q0 15 -9.5 23.5t-24.5 8.5q-37 0 -45 -42l-116 30q36 108 165 108q70 0 112.5 -32.5t42.5 -91.5
q0 -56 -40 -93.5t-125 -68.5z" />
    <glyph glyph-name="threequarters" unicode="&#xbe;" horiz-adv-x="870" 
d="M319 511q67 -16 67 -78q0 -51 -41.5 -82t-110.5 -31q-71 0 -116.5 33t-51.5 85l124 18q-1 -22 11.5 -31.5t32.5 -9.5q40 0 40 33q0 31 -45 31h-22l14 72h26q42 0 48 28q3 17 -7.5 26t-28.5 9q-37 0 -45 -37l-116 33q39 98 165 98q66 0 109 -28.5t43 -80.5
q0 -39 -25 -62.5t-71 -25.5zM719 700h124l-313 -349l-304 -351h-126l330 357zM833 374l-47 -222h38l-17 -79h-38l-15 -73h-115l15 73h-176l11 64l200 237h144zM591 152h80l43 145z" />
    <glyph glyph-name="questiondown" unicode="&#xbf;" horiz-adv-x="565" 
d="M224 417q0 42 30 70.5t73 28.5t73 -28.5t30 -70.5t-30 -70t-73 -28t-73 28t-30 70zM381 252l-5 -27q-6 -36 -34 -61.5t-91 -59.5q-54 -30 -75.5 -50t-21.5 -46q0 -24 18.5 -40t48.5 -16q35 0 65 22t44 62l166 -63q-42 -84 -116 -129t-166 -45q-103 0 -169 48
q-65 47 -65 137q0 54 23 92q21 35 49.5 55.5t83.5 47.5q40 20 55 31.5t19 25.5l4 16h167z" />
    <glyph glyph-name="Agrave" unicode="&#xc0;" horiz-adv-x="805" 
d="M531 0l-20 138h-271l-79 -138h-199l431 700h213l131 -700h-206zM319 277h172l-34 241zM593 757h-149l-129 143h247z" />
    <glyph glyph-name="Aacute" unicode="&#xc1;" horiz-adv-x="805" 
d="M531 0l-20 138h-271l-79 -138h-199l431 700h213l131 -700h-206zM319 277h172l-34 241zM443 757l92 143h250l-189 -143h-153z" />
    <glyph glyph-name="Acircumflex" unicode="&#xc2;" horiz-adv-x="805" 
d="M531 0l-20 138h-271l-79 -138h-199l431 700h213l131 -700h-206zM319 277h172l-34 241zM703 757h-129l-49 45l-71 -45h-134l162 143h125z" />
    <glyph glyph-name="Atilde" unicode="&#xc3;" horiz-adv-x="805" 
d="M531 0l-20 138h-271l-79 -138h-199l431 700h213l131 -700h-206zM319 277h172l-34 241zM506 780q-21 17 -36 17q-33 0 -64 -49l-71 34q20 67 54 102t77 35q35 0 75 -28q24 -18 40 -18q18 0 32 11.5t32 37.5l71 -34q-18 -64 -54.5 -100t-80.5 -36q-34 0 -75 28z" />
    <glyph glyph-name="Adieresis" unicode="&#xc4;" horiz-adv-x="805" 
d="M531 0l-20 138h-271l-79 -138h-199l431 700h213l131 -700h-206zM319 277h172l-34 241zM327 852q0 41 27.5 68t66.5 27t66.5 -27t27.5 -68t-27 -67.5t-67 -26.5t-67 26.5t-27 67.5zM553 852q0 41 27.5 68t66.5 27t66.5 -27t27.5 -68t-27 -67.5t-67 -26.5t-67 26.5
t-27 67.5z" />
    <glyph glyph-name="Aring" unicode="&#xc5;" horiz-adv-x="805" 
d="M531 0l-20 138h-271l-79 -138h-199l431 700h213l131 -700h-206zM319 277h172l-34 241zM410 827q0 50 37.5 86.5t90.5 36.5q48 0 80 -27.5t32 -71.5q0 -50 -37.5 -86.5t-90.5 -36.5q-49 0 -80.5 27.5t-31.5 71.5zM579 846q0 19 -12 30t-33 11q-23 0 -38 -16t-15 -39
q0 -19 12 -30.5t33 -11.5q22 0 37.5 16t15.5 40z" />
    <glyph glyph-name="AE" unicode="&#xc6;" horiz-adv-x="1143" 
d="M1156 545h-342l-24 -111h297l-30 -143h-297l-29 -136h342l-33 -155h-537l29 138h-243l-110 -138h-217l571 700h656zM400 277h162l59 275z" />
    <glyph glyph-name="Ccedilla" unicode="&#xc7;" horiz-adv-x="812" 
d="M592 287l195 -35q-35 -117 -138.5 -189.5t-237.5 -72.5h-17l-40 -34q41 -1 67 -22t26 -57q0 -51 -35.5 -83t-92.5 -32q-53 0 -90.5 21.5t-41.5 39.5l72 50q22 -35 51 -35q42 0 42 37q0 13 -11 22.5t-28 9.5q-10 0 -26 -4l-24 22l40 77q-113 27 -183 107q-68 82 -68 198
q-3 168 116.5 287t290.5 116q141 0 238.5 -71.5t109.5 -191.5l-198 -36q-3 67 -44 105.5t-107 38.5q-89 0 -143 -74t-54 -176q0 -75 40.5 -117.5t110.5 -42.5q62 0 110 38.5t70 103.5z" />
    <glyph glyph-name="Egrave" unicode="&#xc8;" horiz-adv-x="657" 
d="M670 545h-342l-24 -111h297l-30 -143h-297l-29 -136h342l-33 -155h-537l149 700h537zM541 757h-149l-129 143h247z" />
    <glyph glyph-name="Eacute" unicode="&#xc9;" horiz-adv-x="657" 
d="M670 545h-342l-24 -111h297l-30 -143h-297l-29 -136h342l-33 -155h-537l149 700h537zM371 757l92 143h250l-189 -143h-153z" />
    <glyph glyph-name="Ecircumflex" unicode="&#xca;" horiz-adv-x="657" 
d="M670 545h-342l-24 -111h297l-30 -143h-297l-29 -136h342l-33 -155h-537l149 700h537zM631 757h-129l-49 45l-71 -45h-134l162 143h125z" />
    <glyph glyph-name="Edieresis" unicode="&#xcb;" horiz-adv-x="657" 
d="M255 852q0 41 27.5 68t66.5 27t66.5 -27t27.5 -68t-27 -67.5t-67 -26.5t-67 26.5t-27 67.5zM481 852q0 41 27.5 68t66.5 27t66.5 -27t27.5 -68t-27 -67.5t-67 -26.5t-67 26.5t-27 67.5zM670 545h-342l-24 -111h297l-30 -143h-297l-29 -136h342l-33 -155h-537l149 700h537
z" />
    <glyph glyph-name="Igrave" unicode="&#xcc;" horiz-adv-x="360" 
d="M176 700h200l-149 -700h-200zM370 757h-149l-129 143h247z" />
    <glyph glyph-name="Iacute" unicode="&#xcd;" horiz-adv-x="360" 
d="M176 700h200l-149 -700h-200zM220 757l92 143h250l-189 -143h-153z" />
    <glyph glyph-name="Icircumflex" unicode="&#xce;" horiz-adv-x="360" 
d="M176 700h200l-149 -700h-200zM480 757h-129l-49 45l-71 -45h-134l162 143h125z" />
    <glyph glyph-name="Idieresis" unicode="&#xcf;" horiz-adv-x="360" 
d="M104 852q0 41 27.5 68t66.5 27t66.5 -27t27.5 -68t-27 -67.5t-67 -26.5t-67 26.5t-27 67.5zM330 852q0 41 27.5 68t66.5 27t66.5 -27t27.5 -68t-27 -67.5t-67 -26.5t-67 26.5t-27 67.5zM176 700h200l-149 -700h-200z" />
    <glyph glyph-name="Eth" unicode="&#xd0;" horiz-adv-x="824" 
d="M818 407q3 -177 -131.5 -293t-341.5 -114h-309l59 281h-65l29 135h64l60 284h299q148 0 242 -80t94 -213zM608 403q0 71 -38.5 110.5t-104.5 39.5h-109l-30 -137h136l-29 -135h-137l-29 -134h112q101 0 165 72.5t64 183.5z" />
    <glyph glyph-name="Ntilde" unicode="&#xd1;" horiz-adv-x="868" 
d="M722 700h172l-149 -700h-266l-182 506l-108 -506h-172l149 700h259l188 -507zM517 780q-21 17 -36 17q-33 0 -64 -49l-71 34q20 67 54 102t77 35q35 0 75 -28q24 -18 40 -18q18 0 32 11.5t32 37.5l71 -34q-18 -64 -54.5 -100t-80.5 -36q-34 0 -75 28z" />
    <glyph glyph-name="Ograve" unicode="&#xd2;" horiz-adv-x="835" 
d="M52 307q-3 167 118.5 286.5t293.5 116.5q155 2 259.5 -87t102.5 -230q3 -167 -118 -286.5t-292 -116.5q-155 -2 -260.5 87t-103.5 230zM618 395q0 74 -42.5 117t-112.5 43q-89 0 -145.5 -75t-56.5 -175q0 -74 42 -117t114 -43q89 0 145 74.5t56 175.5zM588 757h-149
l-129 143h247z" />
    <glyph glyph-name="Oacute" unicode="&#xd3;" horiz-adv-x="835" 
d="M52 307q-3 167 118.5 286.5t293.5 116.5q155 2 259.5 -87t102.5 -230q3 -167 -118 -286.5t-292 -116.5q-155 -2 -260.5 87t-103.5 230zM618 395q0 74 -42.5 117t-112.5 43q-89 0 -145.5 -75t-56.5 -175q0 -74 42 -117t114 -43q89 0 145 74.5t56 175.5zM438 757l92 143
h250l-189 -143h-153z" />
    <glyph glyph-name="Ocircumflex" unicode="&#xd4;" horiz-adv-x="835" 
d="M52 307q-3 167 118.5 286.5t293.5 116.5q155 2 259.5 -87t102.5 -230q3 -167 -118 -286.5t-292 -116.5q-155 -2 -260.5 87t-103.5 230zM618 395q0 74 -42.5 117t-112.5 43q-89 0 -145.5 -75t-56.5 -175q0 -74 42 -117t114 -43q89 0 145 74.5t56 175.5zM698 757h-129
l-49 45l-71 -45h-134l162 143h125z" />
    <glyph glyph-name="Otilde" unicode="&#xd5;" horiz-adv-x="835" 
d="M52 307q-3 167 118.5 286.5t293.5 116.5q155 2 259.5 -87t102.5 -230q3 -167 -118 -286.5t-292 -116.5q-155 -2 -260.5 87t-103.5 230zM618 395q0 74 -42.5 117t-112.5 43q-89 0 -145.5 -75t-56.5 -175q0 -74 42 -117t114 -43q89 0 145 74.5t56 175.5zM501 780
q-21 17 -36 17q-33 0 -64 -49l-71 34q20 67 54 102t77 35q35 0 75 -28q24 -18 40 -18q18 0 32 11.5t32 37.5l71 -34q-18 -64 -54.5 -100t-80.5 -36q-34 0 -75 28z" />
    <glyph glyph-name="Odieresis" unicode="&#xd6;" horiz-adv-x="835" 
d="M320 852q0 41 27.5 68t66.5 27t66.5 -27t27.5 -68t-27 -67.5t-67 -26.5t-67 26.5t-27 67.5zM546 852q0 41 27.5 68t66.5 27t66.5 -27t27.5 -68t-27 -67.5t-67 -26.5t-67 26.5t-27 67.5zM52 307q-3 167 118.5 286.5t293.5 116.5q155 2 259.5 -87t102.5 -230
q3 -167 -118 -286.5t-292 -116.5q-155 -2 -260.5 87t-103.5 230zM618 395q0 74 -42.5 117t-112.5 43q-89 0 -145.5 -75t-56.5 -175q0 -74 42 -117t114 -43q89 0 145 74.5t56 175.5z" />
    <glyph glyph-name="multiply" unicode="&#xd7;" horiz-adv-x="536" 
d="M193 328l-112 141l108 92l111 -141l169 139l80 -96l-168 -139l107 -137l-108 -92l-107 137l-169 -139l-80 96z" />
    <glyph glyph-name="Oslash" unicode="&#xd8;" horiz-adv-x="835" 
d="M840 643l-73 -65q59 -80 59 -185q3 -167 -118 -286.5t-292 -116.5q-136 0 -233 66l-75 -67l-63 69l69 62q-62 80 -62 187q-3 167 118.5 286.5t293.5 116.5q138 0 235 -68l78 70zM267 256l298 266q-41 33 -102 33q-89 0 -145.5 -75t-56.5 -175q0 -27 6 -49zM613 440
l-296 -264q40 -31 100 -31q89 0 145 74.5t56 175.5q0 20 -5 45z" />
    <glyph glyph-name="Ugrave" unicode="&#xd9;" horiz-adv-x="784" 
d="M818 700l-97 -464q-22 -110 -114.5 -178t-219.5 -68q-148 0 -234.5 67.5t-86.5 180.5q0 38 7 67l83 395h202l-88 -414q-3 -16 -3 -32q0 -49 32.5 -77.5t89.5 -28.5q50 0 86.5 30.5t47.5 80.5l92 441h203zM583 757h-149l-129 143h247z" />
    <glyph glyph-name="Uacute" unicode="&#xda;" horiz-adv-x="784" 
d="M818 700l-97 -464q-22 -110 -114.5 -178t-219.5 -68q-148 0 -234.5 67.5t-86.5 180.5q0 38 7 67l83 395h202l-88 -414q-3 -16 -3 -32q0 -49 32.5 -77.5t89.5 -28.5q50 0 86.5 30.5t47.5 80.5l92 441h203zM423 757l92 143h250l-189 -143h-153z" />
    <glyph glyph-name="Ucircumflex" unicode="&#xdb;" horiz-adv-x="784" 
d="M818 700l-97 -464q-22 -110 -114.5 -178t-219.5 -68q-148 0 -234.5 67.5t-86.5 180.5q0 38 7 67l83 395h202l-88 -414q-3 -16 -3 -32q0 -49 32.5 -77.5t89.5 -28.5q50 0 86.5 30.5t47.5 80.5l92 441h203zM683 757h-129l-49 45l-71 -45h-134l162 143h125z" />
    <glyph glyph-name="Udieresis" unicode="&#xdc;" horiz-adv-x="784" 
d="M305 852q0 41 27.5 68t66.5 27t66.5 -27t27.5 -68t-27 -67.5t-67 -26.5t-67 26.5t-27 67.5zM531 852q0 41 27.5 68t66.5 27t66.5 -27t27.5 -68t-27 -67.5t-67 -26.5t-67 26.5t-27 67.5zM818 700l-97 -464q-22 -110 -114.5 -178t-219.5 -68q-148 0 -234.5 67.5
t-86.5 180.5q0 38 7 67l83 395h202l-88 -414q-3 -16 -3 -32q0 -49 32.5 -77.5t89.5 -28.5q50 0 86.5 30.5t47.5 80.5l92 441h203z" />
    <glyph glyph-name="Yacute" unicode="&#xdd;" horiz-adv-x="689" 
d="M588 700h202l-342 -443l-54 -257h-200l54 254l-157 446h211l85 -272zM381 757l92 143h250l-189 -143h-153z" />
    <glyph glyph-name="Thorn" unicode="&#xde;" horiz-adv-x="696" 
d="M707 378q0 -120 -92 -182q-91 -61 -235 -61h-132l-29 -135h-200l147 700h201l-24 -114h121q111 0 177 -59t66 -149zM497 367q0 31 -21.5 50t-58.5 19h-106l-34 -163h106q53 0 83.5 25.5t30.5 68.5z" />
    <glyph glyph-name="germandbls" unicode="&#xdf;" horiz-adv-x="669" 
d="M1 0l107 501q21 100 92 154.5t185 54.5q107 0 179.5 -46t72.5 -131q-1 -40 -17 -69.5t-34.5 -44t-55.5 -38.5q-29 -19 -38 -27t-9 -19t9.5 -18t33.5 -18q51 -25 74.5 -51.5t26.5 -82.5q0 -78 -61.5 -126.5t-164.5 -48.5q-73 0 -171 36l59 142q32 -25 52 -35t45 -10
q30 0 49.5 15.5t19.5 38.5q0 17 -12.5 30t-43.5 32q-39 23 -55.5 42t-16.5 49q0 29 16 49t54 47q36 26 51 45t15 45q0 31 -22 47.5t-57 16.5q-86 0 -106 -98l-101 -482h-176z" />
    <glyph glyph-name="agrave" unicode="&#xe0;" horiz-adv-x="547" 
d="M515 340q0 -15 -5 -45l-62 -295h-170l14 64q-43 -73 -137 -73q-68 0 -109 34t-41 89q0 72 37 110q34 36 80 51.5t129 26.5q56 7 77 14.5t21 23.5q0 22 -15.5 35t-41.5 13q-59 0 -95 -58l-149 53q79 127 252 127q98 0 156.5 -46t58.5 -124zM316 179l9 43l-55 -9
q-97 -14 -97 -63q0 -18 14.5 -30t37.5 -12q31 0 58 20t33 51zM437 557h-149l-129 143h247z" />
    <glyph glyph-name="aacute" unicode="&#xe1;" horiz-adv-x="547" 
d="M515 340q0 -15 -5 -45l-62 -295h-170l14 64q-43 -73 -137 -73q-68 0 -109 34t-41 89q0 72 37 110q34 36 80 51.5t129 26.5q56 7 77 14.5t21 23.5q0 22 -15.5 35t-41.5 13q-59 0 -95 -58l-149 53q79 127 252 127q98 0 156.5 -46t58.5 -124zM316 179l9 43l-55 -9
q-97 -14 -97 -63q0 -18 14.5 -30t37.5 -12q31 0 58 20t33 51zM261 557l92 143h250l-189 -143h-153z" />
    <glyph glyph-name="acircumflex" unicode="&#xe2;" horiz-adv-x="547" 
d="M515 340q0 -15 -5 -45l-62 -295h-170l14 64q-43 -73 -137 -73q-68 0 -109 34t-41 89q0 72 37 110q34 36 80 51.5t129 26.5q56 7 77 14.5t21 23.5q0 22 -15.5 35t-41.5 13q-59 0 -95 -58l-149 53q79 127 252 127q98 0 156.5 -46t58.5 -124zM316 179l9 43l-55 -9
q-97 -14 -97 -63q0 -18 14.5 -30t37.5 -12q31 0 58 20t33 51zM525 557h-129l-49 45l-71 -45h-134l162 143h125z" />
    <glyph glyph-name="atilde" unicode="&#xe3;" horiz-adv-x="547" 
d="M515 340q0 -15 -5 -45l-62 -295h-170l14 64q-43 -73 -137 -73q-68 0 -109 34t-41 89q0 72 37 110q34 36 80 51.5t129 26.5q56 7 77 14.5t21 23.5q0 22 -15.5 35t-41.5 13q-59 0 -95 -58l-149 53q79 127 252 127q98 0 156.5 -46t58.5 -124zM316 179l9 43l-55 -9
q-97 -14 -97 -63q0 -18 14.5 -30t37.5 -12q31 0 58 20t33 51zM338 600q-21 17 -36 17q-33 0 -64 -49l-71 34q20 67 54 102t77 35q35 0 75 -28q24 -18 40 -18q18 0 32 11.5t32 37.5l71 -34q-18 -64 -54.5 -100t-80.5 -36q-34 0 -75 28z" />
    <glyph glyph-name="adieresis" unicode="&#xe4;" horiz-adv-x="547" 
d="M150 652q0 41 27.5 68t66.5 27t66.5 -27t27.5 -68t-27 -67.5t-67 -26.5t-67 26.5t-27 67.5zM564 652q0 -41 -27 -67.5t-67 -26.5t-67 26.5t-27 67.5t27.5 68t66.5 27t66.5 -27t27.5 -68zM515 340q0 -15 -5 -45l-62 -295h-170l14 64q-43 -73 -137 -73q-68 0 -109 34
t-41 89q0 72 37 110q34 36 80 51.5t129 26.5q56 7 77 14.5t21 23.5q0 22 -15.5 35t-41.5 13q-59 0 -95 -58l-149 53q79 127 252 127q98 0 156.5 -46t58.5 -124zM316 179l9 43l-55 -9q-97 -14 -97 -63q0 -18 14.5 -30t37.5 -12q31 0 58 20t33 51z" />
    <glyph glyph-name="aring" unicode="&#xe5;" horiz-adv-x="547" 
d="M515 340q0 -15 -5 -45l-62 -295h-170l14 64q-43 -73 -137 -73q-68 0 -109 34t-41 89q0 72 37 110q34 36 80 51.5t129 26.5q56 7 77 14.5t21 23.5q0 22 -15.5 35t-41.5 13q-59 0 -95 -58l-149 53q79 127 252 127q98 0 156.5 -46t58.5 -124zM316 179l9 43l-55 -9
q-97 -14 -97 -63q0 -18 14.5 -30t37.5 -12q31 0 58 20t33 51zM240 647q0 50 37.5 86.5t90.5 36.5q48 0 80 -27.5t32 -71.5q0 -50 -37.5 -86.5t-90.5 -36.5q-49 0 -80.5 27.5t-31.5 71.5zM409 666q0 19 -12 30t-33 11q-23 0 -38 -16t-15 -39q0 -19 12 -30.5t33 -11.5
q22 0 37.5 16t15.5 40z" />
    <glyph glyph-name="ae" unicode="&#xe6;" horiz-adv-x="878" 
d="M841 212h-334v-20q0 -39 18 -60t51 -21q66 0 89 61l157 -37q-53 -78 -116 -111.5t-157 -33.5q-112 0 -175 71q-39 -33 -90.5 -51.5t-98.5 -18.5q-76 0 -128 34t-52 89q0 69 38 109q35 36 82 52t131 30q56 9 74.5 15.5t18.5 19.5q0 22 -16 35t-41 13q-59 0 -95 -58
l-149 53q79 127 252 127q106 0 149 -58q82 58 192 58q101 0 160 -54.5t59 -144.5q0 -18 -3 -37t-6 -30.5t-7 -21.5zM524 308h164l1 14q0 33 -16.5 52t-46.5 19q-74 0 -102 -85zM316 179l9 43l-55 -9q-97 -14 -97 -63q0 -18 15 -30t38 -12q31 0 57.5 20t32.5 51z" />
    <glyph glyph-name="ccedilla" unicode="&#xe7;" horiz-adv-x="604" 
d="M400 210l166 -31q-40 -93 -114.5 -141t-169.5 -48h-1l-35 -30q41 -1 67 -22t26 -57q0 -51 -35.5 -83t-92.5 -32q-53 0 -90.5 21.5t-41.5 39.5l72 50q22 -35 51 -35q42 0 42 37q0 13 -11 22.5t-28 9.5q-10 0 -26 -4l-24 22l37 72q-79 21 -123 76t-44 137q0 129 82.5 212.5
t210.5 83.5q111 0 182 -52t83 -144l-174 -30q0 96 -88 96q-54 0 -86.5 -49t-32.5 -114q0 -46 24.5 -71.5t68.5 -25.5q75 0 105 90z" />
    <glyph glyph-name="egrave" unicode="&#xe8;" horiz-adv-x="572" 
d="M535 212h-334v-20q0 -39 18 -60t51 -21q66 0 89 61l157 -37q-53 -78 -116 -111.5t-157 -33.5q-99 0 -160 56.5t-61 147.5q0 140 87.5 228t225.5 88q101 0 160 -54.5t59 -144.5q0 -18 -3 -37t-6 -30.5t-7 -21.5zM218 308h164l1 14q0 33 -16.5 52t-46.5 19q-74 0 -102 -85z
M443 557h-149l-129 143h247z" />
    <glyph glyph-name="eacute" unicode="&#xe9;" horiz-adv-x="572" 
d="M535 212h-334v-20q0 -39 18 -60t51 -21q66 0 89 61l157 -37q-53 -78 -116 -111.5t-157 -33.5q-99 0 -160 56.5t-61 147.5q0 140 87.5 228t225.5 88q101 0 160 -54.5t59 -144.5q0 -18 -3 -37t-6 -30.5t-7 -21.5zM218 308h164l1 14q0 33 -16.5 52t-46.5 19q-74 0 -102 -85z
M257 557l92 143h250l-189 -143h-153z" />
    <glyph glyph-name="ecircumflex" unicode="&#xea;" horiz-adv-x="572" 
d="M535 212h-334v-20q0 -39 18 -60t51 -21q66 0 89 61l157 -37q-53 -78 -116 -111.5t-157 -33.5q-99 0 -160 56.5t-61 147.5q0 140 87.5 228t225.5 88q101 0 160 -54.5t59 -144.5q0 -18 -3 -37t-6 -30.5t-7 -21.5zM218 308h164l1 14q0 33 -16.5 52t-46.5 19q-74 0 -102 -85z
M521 557h-129l-49 45l-71 -45h-134l162 143h125z" />
    <glyph glyph-name="edieresis" unicode="&#xeb;" horiz-adv-x="572" 
d="M146 652q0 41 27.5 68t66.5 27t66.5 -27t27.5 -68t-27 -67.5t-67 -26.5t-67 26.5t-27 67.5zM372 652q0 41 27.5 68t66.5 27t66.5 -27t27.5 -68t-27 -67.5t-67 -26.5t-67 26.5t-27 67.5zM554 311q0 -18 -3 -37t-6 -30.5t-7 -21.5l-3 -10h-334v-20q0 -39 18 -60t51 -21
q66 0 89 61l157 -37q-53 -78 -116 -111.5t-157 -33.5q-99 0 -160 56.5t-61 147.5q0 140 87.5 228t225.5 88q101 0 160 -54.5t59 -144.5zM218 308h164l1 14q0 33 -16.5 52t-46.5 19q-74 0 -102 -85z" />
    <glyph glyph-name="igrave" unicode="&#xec;" horiz-adv-x="279" 
d="M-1 0l106 500h175l-106 -500h-175zM287 557h-149l-129 143h247z" />
    <glyph glyph-name="iacute" unicode="&#xed;" horiz-adv-x="279" 
d="M-1 0l106 500h175l-106 -500h-175zM137 557l92 143h250l-189 -143h-153z" />
    <glyph glyph-name="icircumflex" unicode="&#xee;" horiz-adv-x="279" 
d="M-1 0l106 500h175l-106 -500h-175zM394 557h-129l-49 45l-71 -45h-134l162 143h125z" />
    <glyph glyph-name="idieresis" unicode="&#xef;" horiz-adv-x="279" 
d="M19 652q0 41 27.5 68t66.5 27t66.5 -27t27.5 -68t-27 -67.5t-67 -26.5t-67 26.5t-27 67.5zM245 652q0 41 27.5 68t66.5 27t66.5 -27t27.5 -68t-27 -67.5t-67 -26.5t-67 26.5t-27 67.5zM-1 0l106 500h175l-106 -500h-175z" />
    <glyph glyph-name="eth" unicode="&#xf0;" horiz-adv-x="627" 
d="M606 313q0 -140 -85.5 -231t-226.5 -91q-117 0 -192.5 62t-75.5 172q-2 112 76.5 197t191.5 83q116 0 197 -90q-49 82 -165 148l-154 -45l-13 62l83 24l-111 42l183 82q69 -40 108 -71l106 31l13 -63l-63 -18q128 -128 128 -294zM425 271q0 48 -25.5 74t-70.5 26
q-62 0 -95 -45t-33 -104q0 -50 24.5 -75.5t70.5 -25.5q62 0 95.5 46.5t33.5 103.5z" />
    <glyph glyph-name="ntilde" unicode="&#xf1;" horiz-adv-x="601" 
d="M571 357q0 -28 -6 -58l-64 -299h-176l61 288q3 12 3 23q0 59 -69 59q-30 0 -52.5 -20t-31.5 -59l-62 -291h-175l106 500h175l-14 -67q50 77 150 77q73 0 114 -41t41 -112zM376 600q-21 17 -36 17q-33 0 -64 -49l-71 34q20 67 54 102t77 35q35 0 75 -28q24 -18 40 -18
q18 0 32 11.5t32 37.5l71 -34q-18 -64 -54.5 -100t-80.5 -36q-34 0 -75 28z" />
    <glyph glyph-name="ograve" unicode="&#xf2;" horiz-adv-x="627" 
d="M26 219q0 125 85 208t215 83q122 0 199 -61.5t77 -166.5q2 -125 -85 -209.5t-215 -82.5q-121 0 -198.5 62.5t-77.5 166.5zM426 281q0 47 -26 73t-73 26q-56 0 -90.5 -48.5t-34.5 -112.5q0 -46 26.5 -72.5t72.5 -26.5q56 0 90.5 48t34.5 113zM480 557h-149l-129 143h247z
" />
    <glyph glyph-name="oacute" unicode="&#xf3;" horiz-adv-x="627" 
d="M26 219q0 125 85 208t215 83q122 0 199 -61.5t77 -166.5q2 -125 -85 -209.5t-215 -82.5q-121 0 -198.5 62.5t-77.5 166.5zM426 281q0 47 -26 73t-73 26q-56 0 -90.5 -48.5t-34.5 -112.5q0 -46 26.5 -72.5t72.5 -26.5q56 0 90.5 48t34.5 113zM304 557l92 143h250
l-189 -143h-153z" />
    <glyph glyph-name="ocircumflex" unicode="&#xf4;" horiz-adv-x="627" 
d="M26 219q0 125 85 208t215 83q122 0 199 -61.5t77 -166.5q2 -125 -85 -209.5t-215 -82.5q-121 0 -198.5 62.5t-77.5 166.5zM426 281q0 47 -26 73t-73 26q-56 0 -90.5 -48.5t-34.5 -112.5q0 -46 26.5 -72.5t72.5 -26.5q56 0 90.5 48t34.5 113zM568 557h-129l-49 45l-71 -45
h-134l162 143h125z" />
    <glyph glyph-name="otilde" unicode="&#xf5;" horiz-adv-x="627" 
d="M26 219q0 125 85 208t215 83q122 0 199 -61.5t77 -166.5q2 -125 -85 -209.5t-215 -82.5q-121 0 -198.5 62.5t-77.5 166.5zM426 281q0 47 -26 73t-73 26q-56 0 -90.5 -48.5t-34.5 -112.5q0 -46 26.5 -72.5t72.5 -26.5q56 0 90.5 48t34.5 113zM381 600q-21 17 -36 17
q-33 0 -64 -49l-71 34q20 67 54 102t77 35q35 0 75 -28q24 -18 40 -18q18 0 32 11.5t32 37.5l71 -34q-18 -64 -54.5 -100t-80.5 -36q-34 0 -75 28z" />
    <glyph glyph-name="odieresis" unicode="&#xf6;" horiz-adv-x="627" 
d="M193 652q0 41 27.5 68t66.5 27t66.5 -27t27.5 -68t-27 -67.5t-67 -26.5t-67 26.5t-27 67.5zM419 652q0 41 27.5 68t66.5 27t66.5 -27t27.5 -68t-27 -67.5t-67 -26.5t-67 26.5t-27 67.5zM26 219q0 125 85 208t215 83q122 0 199 -61.5t77 -166.5q2 -125 -85 -209.5
t-215 -82.5q-121 0 -198.5 62.5t-77.5 166.5zM426 281q0 47 -26 73t-73 26q-56 0 -90.5 -48.5t-34.5 -112.5q0 -46 26.5 -72.5t72.5 -26.5q56 0 90.5 48t34.5 113z" />
    <glyph glyph-name="divide" unicode="&#xf7;" horiz-adv-x="560" 
d="M246 532q0 41 27.5 67.5t69.5 26.5q40 0 68.5 -26.5t28.5 -67.5q0 -39 -28.5 -65.5t-68.5 -26.5q-41 0 -69 26.5t-28 65.5zM39 268l26 120h489l-26 -120h-489zM353 125q0 -41 -28.5 -67.5t-68.5 -26.5q-42 0 -69.5 26.5t-27.5 67.5q0 39 28 65.5t69 26.5q40 0 68.5 -26.5
t28.5 -65.5z" />
    <glyph glyph-name="oslash" unicode="&#xf8;" horiz-adv-x="627" 
d="M639 473l-78 -62q41 -56 41 -129q2 -125 -85 -209.5t-215 -82.5q-118 0 -193 58l-76 -61l-45 54l72 58q-34 50 -34 120q0 125 85 208t215 83q108 0 184 -50l84 67zM195 217v-10l201 161q-26 20 -68 20q-59 0 -96 -51t-37 -120zM431 306l-208 -167q29 -27 77 -27
q59 0 96 51t37 120q0 5 -2 23z" />
    <glyph glyph-name="ugrave" unicode="&#xf9;" horiz-adv-x="601" 
d="M427 500h175l-106 -500h-175l14 67q-50 -77 -150 -77q-73 0 -114 41t-41 112q0 28 6 58l64 299h176l-61 -288q-3 -12 -3 -23q0 -59 69 -59q30 0 52.5 20t31.5 59zM463 557h-149l-129 143h247z" />
    <glyph glyph-name="uacute" unicode="&#xfa;" horiz-adv-x="601" 
d="M427 500h175l-106 -500h-175l14 67q-50 -77 -150 -77q-73 0 -114 41t-41 112q0 28 6 58l64 299h176l-61 -288q-3 -12 -3 -23q0 -59 69 -59q30 0 52.5 20t31.5 59zM277 557l92 143h250l-189 -143h-153z" />
    <glyph glyph-name="ucircumflex" unicode="&#xfb;" horiz-adv-x="601" 
d="M427 500h175l-106 -500h-175l14 67q-50 -77 -150 -77q-73 0 -114 41t-41 112q0 28 6 58l64 299h176l-61 -288q-3 -12 -3 -23q0 -59 69 -59q30 0 52.5 20t31.5 59zM541 557h-129l-49 45l-71 -45h-134l162 143h125z" />
    <glyph glyph-name="udieresis" unicode="&#xfc;" horiz-adv-x="601" 
d="M166 652q0 41 27.5 68t66.5 27t66.5 -27t27.5 -68t-27 -67.5t-67 -26.5t-67 26.5t-27 67.5zM392 652q0 41 27.5 68t66.5 27t66.5 -27t27.5 -68t-27 -67.5t-67 -26.5t-67 26.5t-27 67.5zM427 500h175l-106 -500h-175l14 67q-50 -77 -150 -77q-73 0 -114 41t-41 112
q0 28 6 58l64 299h176l-61 -288q-3 -12 -3 -23q0 -59 69 -59q30 0 52.5 20t31.5 59z" />
    <glyph glyph-name="yacute" unicode="&#xfd;" horiz-adv-x="584" 
d="M442 500h187l-443 -710h-220l194 250l-99 460h194l38 -262zM283 557l92 143h250l-189 -143h-153z" />
    <glyph glyph-name="thorn" unicode="&#xfe;" horiz-adv-x="640" 
d="M617 303q2 -127 -73.5 -221.5t-188.5 -91.5q-133 0 -161 105l-65 -305h-175l151 710l43 200h175l-43 -200l-15 -73q62 83 153 83q89 0 144 -57.5t55 -149.5zM441 279q0 46 -26 73.5t-71 27.5q-54 0 -89 -47.5t-35 -108.5q0 -46 25.5 -74t69.5 -28q54 0 90 48t36 109z" />
    <glyph glyph-name="ydieresis" unicode="&#xff;" horiz-adv-x="584" 
d="M167 652q0 41 27.5 68t66.5 27t66.5 -27t27.5 -68t-27 -67.5t-67 -26.5t-67 26.5t-27 67.5zM393 652q0 41 27.5 68t66.5 27t66.5 -27t27.5 -68t-27 -67.5t-67 -26.5t-67 26.5t-27 67.5zM442 500h187l-443 -710h-220l194 250l-99 460h194l38 -262z" />
    <glyph glyph-name="Amacron" unicode="&#x100;" horiz-adv-x="805" 
d="M531 0l-20 138h-271l-79 -138h-199l431 700h213l131 -700h-206zM319 277h172l-34 241zM391 881h303l-23 -108h-303z" />
    <glyph glyph-name="amacron" unicode="&#x101;" horiz-adv-x="547" 
d="M515 340q0 -15 -5 -45l-62 -295h-170l14 64q-43 -73 -137 -73q-68 0 -109 34t-41 89q0 72 37 110q34 36 80 51.5t129 26.5q56 7 77 14.5t21 23.5q0 22 -15.5 35t-41.5 13q-59 0 -95 -58l-149 53q79 127 252 127q98 0 156.5 -46t58.5 -124zM316 179l9 43l-55 -9
q-97 -14 -97 -63q0 -18 14.5 -30t37.5 -12q31 0 58 20t33 51zM216 701h303l-23 -108h-303z" />
    <glyph glyph-name="Abreve" unicode="&#x102;" horiz-adv-x="805" 
d="M531 0l-20 138h-271l-79 -138h-199l431 700h213l131 -700h-206zM319 277h172l-34 241zM384 875q0 1 2 25h110q-2 -15 12 -26t37 -11q42 0 55 37h110q-19 -69 -66.5 -107.5t-115.5 -38.5q-66 0 -105 32.5t-39 88.5z" />
    <glyph glyph-name="abreve" unicode="&#x103;" horiz-adv-x="547" 
d="M515 340q0 -15 -5 -45l-62 -295h-170l14 64q-43 -73 -137 -73q-68 0 -109 34t-41 89q0 72 37 110q34 36 80 51.5t129 26.5q56 7 77 14.5t21 23.5q0 22 -15.5 35t-41.5 13q-59 0 -95 -58l-149 53q79 127 252 127q98 0 156.5 -46t58.5 -124zM316 179l9 43l-55 -9
q-97 -14 -97 -63q0 -18 14.5 -30t37.5 -12q31 0 58 20t33 51zM203 675q0 1 2 25h110q-2 -15 12 -26t37 -11q42 0 55 37h110q-19 -69 -66.5 -107.5t-115.5 -38.5q-66 0 -105 32.5t-39 88.5z" />
    <glyph glyph-name="Aogonek" unicode="&#x104;" horiz-adv-x="805" 
d="M594 -93h6q13 0 26 7l4 -98q-27 -7 -62 -7q-55 0 -96 22q-42 21 -42 62l2 16q6 29 28.5 49.5t70.5 41.5l-20 138h-271l-79 -138h-199l431 700h213l131 -700h-103q-53 -45 -57 -68q-1 -1 -1 -7q0 -17 18 -18zM319 277h172l-34 241z" />
    <glyph glyph-name="aogonek" unicode="&#x105;" horiz-adv-x="547" 
d="M515 340q0 -15 -5 -45l-62 -295h-46q-53 -45 -57 -68q-1 -1 -1 -7q0 -17 18 -18h6q13 0 26 7l4 -98q-27 -7 -62 -7q-55 0 -96 22q-42 21 -42 62l2 16q6 29 28.5 49.5t70.5 41.5h-21l14 64q-43 -73 -137 -73q-68 0 -109 34t-41 89q0 72 37 110q34 36 80 51.5t129 26.5
q56 7 77 14.5t21 23.5q0 22 -15.5 35t-41.5 13q-59 0 -95 -58l-149 53q79 127 252 127q98 0 156.5 -46t58.5 -124zM316 179l9 43l-55 -9q-97 -14 -97 -63q0 -18 14.5 -30t37.5 -12q31 0 58 20t33 51z" />
    <glyph glyph-name="Cacute" unicode="&#x106;" horiz-adv-x="812" 
d="M411 -10q-155 -2 -258 86.5t-101 230.5q-3 168 116.5 287t290.5 116q141 0 238.5 -71.5t109.5 -191.5l-198 -36q-3 67 -44 105.5t-107 38.5q-89 0 -143 -74t-54 -176q0 -75 40.5 -117.5t110.5 -42.5q62 0 110 38.5t70 103.5l195 -35q-35 -117 -138.5 -189.5t-237.5 -72.5
zM405 757l92 143h250l-189 -143h-153z" />
    <glyph glyph-name="cacute" unicode="&#x107;" horiz-adv-x="604" 
d="M25 214q0 129 82.5 212.5t210.5 83.5q111 0 182 -52t83 -144l-174 -30q0 96 -88 96q-54 0 -86.5 -49t-32.5 -114q0 -46 24.5 -71.5t68.5 -25.5q75 0 105 90l166 -31q-40 -93 -114.5 -141t-169.5 -48q-116 0 -187 59q-70 58 -70 165zM272 557l92 143h250l-189 -143h-153z
" />
    <glyph glyph-name="Ccaron" unicode="&#x10c;" horiz-adv-x="812" 
d="M411 -10q-155 -2 -258 86.5t-101 230.5q-3 168 116.5 287t290.5 116q141 0 238.5 -71.5t109.5 -191.5l-198 -36q-3 67 -44 105.5t-107 38.5q-89 0 -143 -74t-54 -176q0 -75 40.5 -117.5t110.5 -42.5q62 0 110 38.5t70 103.5l195 -35q-35 -117 -138.5 -189.5t-237.5 -72.5
zM323 900h129l49 -45l71 45h134l-162 -143h-125z" />
    <glyph glyph-name="ccaron" unicode="&#x10d;" horiz-adv-x="604" 
d="M25 214q0 129 82.5 212.5t210.5 83.5q111 0 182 -52t83 -144l-174 -30q0 96 -88 96q-54 0 -86.5 -49t-32.5 -114q0 -46 24.5 -71.5t68.5 -25.5q75 0 105 90l166 -31q-40 -93 -114.5 -141t-169.5 -48q-116 0 -187 59q-70 58 -70 165zM188 700h129l49 -45l71 45h134
l-162 -143h-125z" />
    <glyph glyph-name="Dcaron" unicode="&#x10e;" horiz-adv-x="807" 
d="M19 0l147 700h299q148 0 242 -80t94 -213q3 -177 -131.5 -293t-341.5 -114h-309zM250 147h112q101 0 165 72.5t64 183.5q0 71 -38.5 110.5t-104.5 39.5h-109zM325 900h129l49 -45l71 45h134l-162 -143h-125z" />
    <glyph glyph-name="dcaron" unicode="&#x10f;" horiz-adv-x="640" 
d="M507 700h175l-149 -700h-175l15 71q-61 -81 -151 -81q-89 0 -144 57.5t-55 149.5q-2 127 73.5 221.5t188.5 91.5q131 0 160 -102zM420 276q0 46 -25.5 74t-69.5 28q-54 0 -90 -48t-36 -109q0 -46 26 -73.5t71 -27.5q54 0 89 47.5t35 108.5zM739 700h174l-114 -162h-103z
" />
    <glyph glyph-name="Dcroat" unicode="&#x110;" horiz-adv-x="824" 
d="M818 407q3 -177 -131.5 -293t-341.5 -114h-309l59 281h-65l29 135h64l60 284h299q148 0 242 -80t94 -213zM608 403q0 71 -38.5 110.5t-104.5 39.5h-109l-30 -137h136l-29 -135h-137l-29 -134h112q101 0 165 72.5t64 183.5z" />
    <glyph glyph-name="dslash" unicode="&#x111;" horiz-adv-x="640" 
d="M722 638l-20 -95h-53l-116 -543h-175l15 71q-61 -81 -151 -81q-89 0 -144 57.5t-55 149.5q-2 127 73.5 221.5t188.5 91.5q131 0 160 -102l29 135h-114l20 95h114l13 62h175l-13 -62h53zM420 276q0 46 -25.5 74t-69.5 28q-54 0 -90 -48t-36 -109q0 -46 26 -73.5t71 -27.5
q54 0 89 47.5t35 108.5z" />
    <glyph glyph-name="Emacron" unicode="&#x112;" horiz-adv-x="657" 
d="M670 545h-342l-24 -111h297l-30 -143h-297l-29 -136h342l-33 -155h-537l149 700h537zM319 881h303l-23 -108h-303z" />
    <glyph glyph-name="emacron" unicode="&#x113;" horiz-adv-x="572" 
d="M535 212h-334v-20q0 -39 18 -60t51 -21q66 0 89 61l157 -37q-53 -78 -116 -111.5t-157 -33.5q-99 0 -160 56.5t-61 147.5q0 140 87.5 228t225.5 88q101 0 160 -54.5t59 -144.5q0 -18 -3 -37t-6 -30.5t-7 -21.5zM218 308h164l1 14q0 33 -16.5 52t-46.5 19q-74 0 -102 -85z
M212 701h303l-23 -108h-303z" />
    <glyph glyph-name="Edotaccent" unicode="&#x116;" horiz-adv-x="657" 
d="M670 545h-342l-24 -111h297l-30 -143h-297l-29 -136h342l-33 -155h-537l149 700h537zM359 851q0 42 30 70.5t73 28.5t73 -28.5t30 -70.5t-30 -70t-73 -28t-73 28t-30 70z" />
    <glyph glyph-name="edotaccent" unicode="&#x117;" horiz-adv-x="572" 
d="M535 212h-334v-20q0 -39 18 -60t51 -21q66 0 89 61l157 -37q-53 -78 -116 -111.5t-157 -33.5q-99 0 -160 56.5t-61 147.5q0 140 87.5 228t225.5 88q101 0 160 -54.5t59 -144.5q0 -18 -3 -37t-6 -30.5t-7 -21.5zM218 308h164l1 14q0 33 -16.5 52t-46.5 19q-74 0 -102 -85z
M257 651q0 42 30 70.5t73 28.5t73 -28.5t30 -70.5t-30 -70t-73 -28t-73 28t-30 70z" />
    <glyph glyph-name="Eogonek" unicode="&#x118;" horiz-adv-x="657" 
d="M670 545h-342l-24 -111h297l-30 -143h-297l-29 -136h342l-33 -155h-45q-53 -45 -57 -68q-1 -1 -1 -7q0 -17 18 -18h6q13 0 26 7l4 -98q-27 -7 -62 -7q-55 0 -96 22q-42 21 -42 62l2 16q6 29 28.5 49.5t70.5 41.5h-389l149 700h537z" />
    <glyph glyph-name="eogonek" unicode="&#x119;" horiz-adv-x="572" 
d="M535 212h-334v-20q0 -39 18 -60t51 -21q66 0 89 61l157 -37q-34 -50 -75 -85q-59 -53 -59 -85q0 -22 22 -22q17 0 33 10l4 -96q-42 -15 -90 -15q-115 0 -115 63q0 43 70 89q-24 -4 -63 -4q-99 0 -160 56.5t-61 147.5q0 140 87.5 228t225.5 88q101 0 160 -54.5t59 -144.5
q0 -18 -3 -37t-6 -30.5t-7 -21.5zM218 308h164l1 14q0 33 -16.5 52t-46.5 19q-74 0 -102 -85z" />
    <glyph glyph-name="Ecaron" unicode="&#x11a;" horiz-adv-x="657" 
d="M670 545h-342l-24 -111h297l-30 -143h-297l-29 -136h342l-33 -155h-537l149 700h537zM282 900h129l49 -45l71 45h134l-162 -143h-125z" />
    <glyph glyph-name="ecaron" unicode="&#x11b;" horiz-adv-x="572" 
d="M535 212h-334v-20q0 -39 18 -60t51 -21q66 0 89 61l157 -37q-53 -78 -116 -111.5t-157 -33.5q-99 0 -160 56.5t-61 147.5q0 140 87.5 228t225.5 88q101 0 160 -54.5t59 -144.5q0 -18 -3 -37t-6 -30.5t-7 -21.5zM218 308h164l1 14q0 33 -16.5 52t-46.5 19q-74 0 -102 -85z
M173 700h129l49 -45l71 45h134l-162 -143h-125z" />
    <glyph glyph-name="Gbreve" unicode="&#x11e;" horiz-adv-x="807" 
d="M439 225l28 139h311l-63 -295q-123 -79 -290 -79q-165 0 -269.5 83.5t-104.5 228.5q-2 114 55 209t152.5 147.5t204.5 51.5q132 0 226.5 -63.5t116.5 -175.5l-192 -43q-5 62 -45 94.5t-107 32.5q-89 0 -145.5 -69.5t-56.5 -181.5q0 -162 201 -162q34 0 81 11l15 72h-118z
M395 875q0 1 2 25h110q-2 -15 12 -26t37 -11q42 0 55 37h110q-19 -69 -66.5 -107.5t-115.5 -38.5q-66 0 -105 32.5t-39 88.5z" />
    <glyph glyph-name="gbreve" unicode="&#x11f;" horiz-adv-x="628" 
d="M451 500h175l-111 -539q-16 -82 -95 -131.5t-187 -49.5q-98 0 -172 41q-73 41 -93 114l171 42q4 -35 30 -54t68 -19q41 0 69 19t35 50l24 112q-61 -73 -145 -73q-88 0 -141.5 54t-53.5 144q-2 124 71.5 213t184.5 87q123 0 155 -86zM409 289q0 45 -23 70t-65 25
q-55 0 -87 -45q-32 -44 -32 -104q0 -46 23 -72t67 -26q53 0 85 45q32 47 32 107zM250 675q0 1 2 25h110q-2 -15 12 -26t37 -11q42 0 55 37h110q-19 -69 -66.5 -107.5t-115.5 -38.5q-66 0 -105 32.5t-39 88.5z" />
    <glyph glyph-name="Gcommaaccent" unicode="&#x122;" horiz-adv-x="807" 
d="M439 225l28 139h311l-63 -295q-123 -79 -290 -79q-165 0 -269.5 83.5t-104.5 228.5q-2 114 55 209t152.5 147.5t204.5 51.5q132 0 226.5 -63.5t116.5 -175.5l-192 -43q-5 62 -45 94.5t-107 32.5q-89 0 -145.5 -69.5t-56.5 -181.5q0 -162 201 -162q34 0 81 11l15 72h-118z
M212 -326l-1 59q5 -1 27 -1q77 0 77 33q0 7 -14 18q-35 21 -48.5 39t-13.5 47q0 37 25.5 61.5t64.5 24.5q44 0 70 -27t26 -73q0 -86 -46 -135t-128 -49q-18 0 -39 3z" />
    <glyph glyph-name="gcommaaccent" unicode="&#x123;" horiz-adv-x="628" 
d="M451 500h175l-111 -539q-16 -82 -95 -131.5t-187 -49.5q-98 0 -172 41q-73 41 -93 114l171 42q4 -35 30 -54t68 -19q41 0 69 19t35 50l24 112q-61 -73 -145 -73q-88 0 -141.5 54t-53.5 144q-2 124 71.5 213t184.5 87q123 0 155 -86zM409 289q0 45 -23 70t-65 25
q-55 0 -87 -45q-32 -44 -32 -104q0 -46 23 -72t67 -26q53 0 85 45q32 47 32 107zM523 831l1 -59q-5 1 -27 1q-77 0 -77 -33q0 -7 14 -18q35 -21 48.5 -39t13.5 -47q0 -37 -25.5 -61.5t-64.5 -24.5q-44 0 -70 27t-26 73q0 86 46 135t128 49q18 0 39 -3z" />
    <glyph glyph-name="hbar" unicode="&#x127;" horiz-adv-x="601" 
d="M571 357q0 -28 -6 -58l-64 -299h-176l61 288q3 12 3 23q0 59 -69 59q-29 0 -51.5 -19t-31.5 -55l-63 -296h-175l106 500l10 43h-75l20 95h75l13 62h175l-13 -62h92l-20 -95h-92l-24 -110q52 77 150 77q73 0 114 -41t41 -112z" />
    <glyph glyph-name="Imacron" unicode="&#x12a;" horiz-adv-x="360" 
d="M176 700h200l-149 -700h-200zM168 881h303l-23 -108h-303z" />
    <glyph glyph-name="imacron" unicode="&#x12b;" horiz-adv-x="279" 
d="M-1 0l106 500h175l-106 -500h-175zM85 701h303l-23 -108h-303z" />
    <glyph glyph-name="Iogonek" unicode="&#x12e;" horiz-adv-x="360" 
d="M116 -68q-1 -1 -1 -7q0 -17 18 -18h6q13 0 26 7l4 -98q-27 -7 -62 -7q-55 0 -96 22q-42 21 -42 62l2 16q6 29 28.5 49.5t70.5 41.5h-43l149 700h200l-149 -700h-54q-53 -45 -57 -68z" />
    <glyph glyph-name="iogonek" unicode="&#x12f;" horiz-adv-x="279" 
d="M336 651q0 -42 -30 -70t-73 -28t-73 28t-30 70t30 70.5t73 28.5t73 -28.5t30 -70.5zM-1 0l106 500h175l-106 -500h-32q-42 -37 -46 -58q-1 -1 -1 -7q0 -17 18 -18h6q13 0 26 7l4 -98q-27 -7 -62 -7q-55 0 -96 22q-42 21 -42 62l2 16q10 47 78 81h-30z" />
    <glyph glyph-name="Idot" unicode="&#x130;" horiz-adv-x="360" 
d="M176 700h200l-149 -700h-200zM208 851q0 42 30 70.5t73 28.5t73 -28.5t30 -70.5t-30 -70t-73 -28t-73 28t-30 70z" />
    <glyph glyph-name="dotlessi" unicode="&#x131;" horiz-adv-x="279" 
d="M-1 0l106 500h175l-106 -500h-175z" />
    <glyph glyph-name="IJ" unicode="&#x132;" horiz-adv-x="1017" 
d="M176 700h200l-149 -700h-200zM363 193l178 72q9 -68 29.5 -94t67.5 -26q42 0 72.5 28t40.5 74l97 453h200l-91 -426q-29 -138 -114 -211t-219 -73q-112 0 -180 58.5t-81 144.5z" />
    <glyph glyph-name="ij" unicode="&#x133;" horiz-adv-x="578" 
d="M127 651q0 42 30 70.5t73 28.5t73 -28.5t30 -70.5t-30 -70t-73 -28t-73 28t-30 70zM4 0l106 500h175l-106 -500h-175zM416 651q0 42 30 70.5t73 28.5t73 -28.5t30 -70.5t-30 -70t-73 -28t-73 28t-30 70zM120 -207l26 117q26 -15 59 -15q30 0 51 16.5t27 46.5l115 542h176
l-116 -544q-17 -81 -87.5 -128.5t-177.5 -47.5q-41 0 -73 13z" />
    <glyph glyph-name="Kcommaaccent" unicode="&#x136;" horiz-adv-x="752" 
d="M846 700l-365 -344l223 -356h-234l-182 333l-71 -333h-200l149 700h200l-64 -300l298 300h246zM199 -326l-1 59q5 -1 27 -1q77 0 77 33q0 7 -14 18q-35 21 -48.5 39t-13.5 47q0 37 25.5 61.5t64.5 24.5q44 0 70 -27t26 -73q0 -86 -46 -135t-128 -49q-18 0 -39 3z" />
    <glyph glyph-name="kcommaaccent" unicode="&#x137;" horiz-adv-x="581" 
d="M645 500l-261 -234l155 -266h-203l-109 241l-51 -241h-175l149 700h175l-85 -400l202 200h203zM122 -326l-1 59q5 -1 27 -1q77 0 77 33q0 7 -14 18q-35 21 -48.5 39t-13.5 47q0 37 25.5 61.5t64.5 24.5q44 0 70 -27t26 -73q0 -86 -46 -135t-128 -49q-18 0 -39 3z" />
    <glyph glyph-name="Lacute" unicode="&#x139;" horiz-adv-x="625" 
d="M250 156h340l-33 -156h-540l149 700h200zM206 757l92 143h250l-189 -143h-153z" />
    <glyph glyph-name="lacute" unicode="&#x13a;" horiz-adv-x="283" 
d="M1 0l149 700h175l-149 -700h-175zM182 757l92 143h250l-189 -143h-153z" />
    <glyph glyph-name="Lcommaaccent" unicode="&#x13b;" horiz-adv-x="625" 
d="M250 156h340l-33 -156h-540l149 700h200zM153 -326l-1 59q5 -1 27 -1q77 0 77 33q0 7 -14 18q-35 21 -48.5 39t-13.5 47q0 37 25.5 61.5t64.5 24.5q44 0 70 -27t26 -73q0 -86 -46 -135t-128 -49q-18 0 -39 3z" />
    <glyph glyph-name="lcommaaccent" unicode="&#x13c;" horiz-adv-x="283" 
d="M1 0l149 700h175l-149 -700h-175zM-60 -326l-1 59q5 -1 27 -1q77 0 77 33q0 7 -14 18q-35 21 -48.5 39t-13.5 47q0 37 25.5 61.5t64.5 24.5q44 0 70 -27t26 -73q0 -86 -46 -135t-128 -49q-18 0 -39 3z" />
    <glyph glyph-name="Lcaron" unicode="&#x13d;" horiz-adv-x="625" 
d="M250 156h340l-33 -156h-540l149 700h200zM124 900h129l49 -45l71 45h134l-162 -143h-125z" />
    <glyph glyph-name="lcaron" unicode="&#x13e;" horiz-adv-x="283" 
d="M1 0l149 700h175l-149 -700h-175zM91 900h129l49 -45l71 45h134l-162 -143h-125z" />
    <glyph glyph-name="Lslash" unicode="&#x141;" horiz-adv-x="645" 
d="M270 156h340l-33 -156h-540l49 232l-61 -22l29 138l62 23l70 329h200l-53 -249l182 67l-29 -140l-183 -67z" />
    <glyph glyph-name="lslash" unicode="&#x142;" horiz-adv-x="297" 
d="M338 511l-28 -134l-54 -25l-75 -352h-175l56 263l-50 -23l28 134l51 23l64 303h175l-45 -214z" />
    <glyph glyph-name="Nacute" unicode="&#x143;" horiz-adv-x="868" 
d="M722 700h172l-149 -700h-266l-182 506l-108 -506h-172l149 700h259l188 -507zM454 757l92 143h250l-189 -143h-153z" />
    <glyph glyph-name="nacute" unicode="&#x144;" horiz-adv-x="601" 
d="M571 357q0 -28 -6 -58l-64 -299h-176l61 288q3 12 3 23q0 59 -69 59q-30 0 -52.5 -20t-31.5 -59l-62 -291h-175l106 500h175l-14 -67q50 77 150 77q73 0 114 -41t41 -112zM299 557l92 143h250l-189 -143h-153z" />
    <glyph glyph-name="Ncommaaccent" unicode="&#x145;" horiz-adv-x="868" 
d="M722 700h172l-149 -700h-266l-182 506l-108 -506h-172l149 700h259l188 -507zM232 -326l-1 59q5 -1 27 -1q77 0 77 33q0 7 -14 18q-35 21 -48.5 39t-13.5 47q0 37 25.5 61.5t64.5 24.5q44 0 70 -27t26 -73q0 -86 -46 -135t-128 -49q-18 0 -39 3z" />
    <glyph glyph-name="ncommaaccent" unicode="&#x146;" horiz-adv-x="601" 
d="M571 357q0 -28 -6 -58l-64 -299h-176l61 288q3 12 3 23q0 59 -69 59q-30 0 -52.5 -20t-31.5 -59l-62 -291h-175l106 500h175l-14 -67q50 77 150 77q73 0 114 -41t41 -112zM102 -326l-1 59q5 -1 27 -1q77 0 77 33q0 7 -14 18q-35 21 -48.5 39t-13.5 47q0 37 25.5 61.5
t64.5 24.5q44 0 70 -27t26 -73q0 -86 -46 -135t-128 -49q-18 0 -39 3z" />
    <glyph glyph-name="Ncaron" unicode="&#x147;" horiz-adv-x="868" 
d="M722 700h172l-149 -700h-266l-182 506l-108 -506h-172l149 700h259l188 -507zM363 900h129l49 -45l71 45h134l-162 -143h-125z" />
    <glyph glyph-name="ncaron" unicode="&#x148;" horiz-adv-x="601" 
d="M571 357q0 -28 -6 -58l-64 -299h-176l61 288q3 12 3 23q0 59 -69 59q-30 0 -52.5 -20t-31.5 -59l-62 -291h-175l106 500h175l-14 -67q50 77 150 77q73 0 114 -41t41 -112zM215 700h129l49 -45l71 45h134l-162 -143h-125z" />
    <glyph glyph-name="Omacron" unicode="&#x14c;" horiz-adv-x="835" 
d="M52 307q-3 167 118.5 286.5t293.5 116.5q155 2 259.5 -87t102.5 -230q3 -167 -118 -286.5t-292 -116.5q-155 -2 -260.5 87t-103.5 230zM618 395q0 74 -42.5 117t-112.5 43q-89 0 -145.5 -75t-56.5 -175q0 -74 42 -117t114 -43q89 0 145 74.5t56 175.5zM386 881h303
l-23 -108h-303z" />
    <glyph glyph-name="omacron" unicode="&#x14d;" horiz-adv-x="627" 
d="M26 219q0 125 85 208t215 83q122 0 199 -61.5t77 -166.5q2 -125 -85 -209.5t-215 -82.5q-121 0 -198.5 62.5t-77.5 166.5zM426 281q0 47 -26 73t-73 26q-56 0 -90.5 -48.5t-34.5 -112.5q0 -46 26.5 -72.5t72.5 -26.5q56 0 90.5 48t34.5 113zM259 701h303l-23 -108h-303z
" />
    <glyph glyph-name="Ohungarumlaut" unicode="&#x150;" horiz-adv-x="835" 
d="M52 307q-3 167 118.5 286.5t293.5 116.5q155 2 259.5 -87t102.5 -230q3 -167 -118 -286.5t-292 -116.5q-155 -2 -260.5 87t-103.5 230zM618 395q0 74 -42.5 117t-112.5 43q-89 0 -145.5 -75t-56.5 -175q0 -74 42 -117t114 -43q89 0 145 74.5t56 175.5zM835 900l-189 -143
h-102l59 103l-137 -103h-102l81 143h390z" />
    <glyph glyph-name="ohungarumlaut" unicode="&#x151;" horiz-adv-x="627" 
d="M26 219q0 125 85 208t215 83q122 0 199 -61.5t77 -166.5q2 -125 -85 -209.5t-215 -82.5q-121 0 -198.5 62.5t-77.5 166.5zM426 281q0 47 -26 73t-73 26q-56 0 -90.5 -48.5t-34.5 -112.5q0 -46 26.5 -72.5t72.5 -26.5q56 0 90.5 48t34.5 113zM716 700l-189 -143h-102
l59 103l-137 -103h-102l81 143h390z" />
    <glyph glyph-name="OE" unicode="&#x152;" horiz-adv-x="1087" 
d="M1100 545h-342l-24 -111h297l-30 -143h-297l-29 -136h342l-33 -155h-599q-148 0 -242 80t-94 213q-3 177 131.5 293t341.5 114h611zM402 147h73l89 406h-76q-101 0 -165 -72.5t-64 -183.5q0 -71 38.5 -110.5t104.5 -39.5z" />
    <glyph glyph-name="oe" unicode="&#x153;" horiz-adv-x="972" 
d="M935 212h-334v-20q0 -39 18 -60t51 -21q66 0 89 61l157 -37q-53 -78 -116 -111.5t-157 -33.5q-98 0 -159 55q-76 -55 -182 -55q-121 0 -198.5 62.5t-77.5 166.5q0 125 85 208t215 83q127 0 206 -67q81 67 203 67q101 0 160 -54.5t59 -144.5q0 -18 -3 -37t-6 -30.5
t-7 -21.5zM618 308h164l1 14q0 33 -16.5 52t-46.5 19q-74 0 -102 -85zM426 281q0 47 -26 73t-73 26q-56 0 -90.5 -48.5t-34.5 -112.5q0 -46 26.5 -72.5t72.5 -26.5q56 0 90.5 48t34.5 113z" />
    <glyph glyph-name="Racute" unicode="&#x154;" horiz-adv-x="737" 
d="M510 258l174 -258h-236l-112 249h-64l-53 -249h-200l147 700h337q103 0 168 -60t65 -148q0 -96 -59.5 -155.5t-166.5 -78.5zM335 550l-34 -163h111q53 0 83.5 25.5t30.5 68.5q0 31 -21.5 50t-58.5 19h-111zM355 757l92 143h250l-189 -143h-153z" />
    <glyph glyph-name="racute" unicode="&#x155;" horiz-adv-x="442" 
d="M478 500l-36 -169q-20 4 -51 4q-65 0 -103 -30q-36 -27 -54 -68t-34 -115l-26 -122h-175l106 500h175l-29 -139q53 146 166 146q40 0 61 -7zM208 557l92 143h250l-189 -143h-153z" />
    <glyph glyph-name="Rcommaaccent" unicode="&#x156;" horiz-adv-x="737" 
d="M510 258l174 -258h-236l-112 249h-64l-53 -249h-200l147 700h337q103 0 168 -60t65 -148q0 -96 -59.5 -155.5t-166.5 -78.5zM335 550l-34 -163h111q53 0 83.5 25.5t30.5 68.5q0 31 -21.5 50t-58.5 19h-111zM230 -326l-1 59q5 -1 27 -1q77 0 77 33q0 7 -14 18
q-35 21 -48.5 39t-13.5 47q0 37 25.5 61.5t64.5 24.5q44 0 70 -27t26 -73q0 -86 -46 -135t-128 -49q-18 0 -39 3z" />
    <glyph glyph-name="rcommaaccent" unicode="&#x157;" horiz-adv-x="442" 
d="M478 500l-36 -169q-20 4 -51 4q-65 0 -103 -30q-36 -27 -54 -68t-34 -115l-26 -122h-175l106 500h175l-29 -139q53 146 166 146q40 0 61 -7zM-47 -326l-1 59q5 -1 27 -1q77 0 77 33q0 7 -14 18q-35 21 -48.5 39t-13.5 47q0 37 25.5 61.5t64.5 24.5q44 0 70 -27t26 -73
q0 -86 -46 -135t-128 -49q-18 0 -39 3z" />
    <glyph glyph-name="Rcaron" unicode="&#x158;" horiz-adv-x="737" 
d="M510 258l174 -258h-236l-112 249h-64l-53 -249h-200l147 700h337q103 0 168 -60t65 -148q0 -96 -59.5 -155.5t-166.5 -78.5zM335 550l-34 -163h111q53 0 83.5 25.5t30.5 68.5q0 31 -21.5 50t-58.5 19h-111zM264 900h129l49 -45l71 45h134l-162 -143h-125z" />
    <glyph glyph-name="rcaron" unicode="&#x159;" horiz-adv-x="442" 
d="M478 500l-36 -169q-20 4 -51 4q-65 0 -103 -30q-36 -27 -54 -68t-34 -115l-26 -122h-175l106 500h175l-29 -139q53 146 166 146q40 0 61 -7zM124 700h129l49 -45l71 45h134l-162 -143h-125z" />
    <glyph glyph-name="Sacute" unicode="&#x15a;" horiz-adv-x="669" 
d="M18 194l183 38q17 -103 139 -103q47 0 75 16.5t28 43.5t-28 45t-101 44q-77 28 -114 47q-110 57 -110 164q0 94 77 157.5t201 63.5q107 0 189 -47q82 -46 108 -136l-177 -32q-11 40 -45 62.5t-80 22.5q-38 0 -60.5 -17t-22.5 -44t26.5 -44t98.5 -43q68 -24 112 -47
q110 -57 110 -168q0 -101 -84.5 -164t-212.5 -63q-115 0 -202 51q-86 51 -110 153zM335 757l92 143h250l-189 -143h-153z" />
    <glyph glyph-name="sacute" unicode="&#x15b;" horiz-adv-x="497" 
d="M1 139l162 29q3 -30 25 -49t56 -19q50 0 50 33q0 19 -19 31.5t-70 31.5q-53 21 -80 35q-76 39 -76 116q0 73 59.5 118t156.5 45q75 0 135 -31.5t83 -87.5l-151 -31q-6 19 -23 32t-40 13q-20 0 -33 -9.5t-13 -23.5q0 -16 16.5 -26.5t62.5 -27.5q53 -20 80 -34
q78 -38 78 -122q0 -77 -62 -124.5t-163 -47.5q-85 0 -152 39t-82 110zM209 557l92 143h250l-189 -143h-153z" />
    <glyph glyph-name="Scedilla" unicode="&#x15e;" horiz-adv-x="669" 
d="M405 432q68 -24 112 -47q110 -57 110 -168q0 -101 -84.5 -164t-212.5 -63h-12l-37 -32q41 -1 67 -22t26 -57q0 -51 -35.5 -83t-92.5 -32q-53 0 -90.5 21.5t-41.5 39.5l72 50q22 -35 51 -35q42 0 42 37q0 13 -11 22.5t-28 9.5q-10 0 -26 -4l-24 22l38 74q-82 19 -137 68
t-73 125l183 38q17 -103 139 -103q47 0 75 16.5t28 43.5t-28 45t-101 44q-77 28 -114 47q-110 57 -110 164q0 94 77 157.5t201 63.5q107 0 189 -47q82 -46 108 -136l-177 -32q-11 40 -45 62.5t-80 22.5q-38 0 -60.5 -17t-22.5 -44t26.5 -44t98.5 -43z" />
    <glyph glyph-name="scedilla" unicode="&#x15f;" horiz-adv-x="497" 
d="M302 318q53 -20 80 -34q78 -38 78 -122q0 -76 -59 -123q-60 -48 -157 -49l-40 -34q41 -1 67 -22t26 -57q0 -51 -35.5 -83t-92.5 -32q-53 0 -90.5 21.5t-41.5 39.5l72 50q22 -35 51 -35q42 0 42 37q0 13 -11 22.5t-28 9.5q-10 0 -26 -4l-24 22l39 75q-60 16 -100 52
t-51 87l162 29q3 -30 25 -49t56 -19q50 0 50 33q0 19 -19 31.5t-70 31.5q-53 21 -80 35q-76 39 -76 116q0 73 59.5 118t156.5 45q75 0 135 -31.5t83 -87.5l-151 -31q-6 19 -23 32t-40 13q-20 0 -33 -9.5t-13 -23.5q0 -16 16.5 -26.5t62.5 -27.5z" />
    <glyph glyph-name="Scaron" unicode="&#x160;" horiz-adv-x="669" 
d="M18 194l183 38q17 -103 139 -103q47 0 75 16.5t28 43.5t-28 45t-101 44q-77 28 -114 47q-110 57 -110 164q0 94 77 157.5t201 63.5q107 0 189 -47q82 -46 108 -136l-177 -32q-11 40 -45 62.5t-80 22.5q-38 0 -60.5 -17t-22.5 -44t26.5 -44t98.5 -43q68 -24 112 -47
q110 -57 110 -168q0 -101 -84.5 -164t-212.5 -63q-115 0 -202 51q-86 51 -110 153zM246 900h129l49 -45l71 45h134l-162 -143h-125z" />
    <glyph glyph-name="scaron" unicode="&#x161;" horiz-adv-x="497" 
d="M1 139l162 29q3 -30 25 -49t56 -19q50 0 50 33q0 19 -19 31.5t-70 31.5q-53 21 -80 35q-76 39 -76 116q0 73 59.5 118t156.5 45q75 0 135 -31.5t83 -87.5l-151 -31q-6 19 -23 32t-40 13q-20 0 -33 -9.5t-13 -23.5q0 -16 16.5 -26.5t62.5 -27.5q53 -20 80 -34
q78 -38 78 -122q0 -77 -62 -124.5t-163 -47.5q-85 0 -152 39t-82 110zM125 700h129l49 -45l71 45h134l-162 -143h-125z" />
    <glyph glyph-name="uni0162" unicode="&#x162;" horiz-adv-x="680" 
d="M756 700l-33 -155h-220l-116 -545h-46l-48 -41q41 -1 67 -22t26 -57q0 -51 -35.5 -83t-92.5 -32q-53 0 -90.5 21.5t-41.5 39.5l72 50q22 -35 51 -35q42 0 42 37q0 13 -11 22.5t-28 9.5q-10 0 -26 -4l-24 22l37 72h-52l116 545h-220l33 155h640z" />
    <glyph glyph-name="uni0163" unicode="&#x163;" horiz-adv-x="425" 
d="M284 380l-40 -188q0 -2 -0.5 -5t-1 -5t-0.5 -3.5v-2.5q0 -26 21 -41t56 -15q28 0 58 14l-28 -136q-43 -8 -83 -8q-23 0 -30 1l-41 -35q41 -1 67 -22t26 -57q0 -51 -35.5 -83t-92.5 -32q-53 0 -90.5 21.5t-41.5 39.5l72 50q22 -35 51 -35q42 0 42 37q0 13 -11 22.5
t-28 9.5q-10 0 -26 -4l-24 22l46 89q-84 41 -84 143q0 26 6 56l35 167h-80l25 120h81l34 160h176l-34 -160h139l-25 -120h-139z" />
    <glyph glyph-name="Tcaron" unicode="&#x164;" horiz-adv-x="680" 
d="M756 700l-33 -155h-220l-116 -545h-200l116 545h-220l33 155h640zM291 900h129l49 -45l71 45h134l-162 -143h-125z" />
    <glyph glyph-name="tcaron" unicode="&#x165;" horiz-adv-x="425" 
d="M284 380l-40 -188q0 -2 -0.5 -5t-1 -5t-0.5 -3.5v-2.5q0 -26 21 -41t56 -15q28 0 58 14l-28 -136q-43 -8 -83 -8q-94 0 -147 43.5t-53 123.5q0 26 6 56l35 167h-80l25 120h81l34 160h176l-34 -160h139l-25 -120h-139zM401 700h174l-114 -162h-103z" />
    <glyph glyph-name="Tbar" unicode="&#x166;" horiz-adv-x="680" 
d="M723 545h-220l-26 -123h115l-24 -123h-117l-64 -299h-200l64 299h-93l24 123h95l26 123h-220l33 155h640z" />
    <glyph glyph-name="tbar" unicode="&#x167;" horiz-adv-x="425" 
d="M423 380h-139l-13 -62h123l-21 -95h-122l-7 -31q0 -2 -0.5 -5t-1 -5t-0.5 -3.5v-2.5q0 -26 21 -41t56 -15q28 0 58 14l-28 -136q-43 -8 -83 -8q-94 0 -147 43.5t-53 123.5q0 26 6 56l2 10h-64l22 95h62l13 62h-80l25 120h81l34 160h176l-34 -160h139z" />
    <glyph glyph-name="Umacron" unicode="&#x16a;" horiz-adv-x="784" 
d="M818 700l-97 -464q-22 -110 -114.5 -178t-219.5 -68q-148 0 -234.5 67.5t-86.5 180.5q0 38 7 67l83 395h202l-88 -414q-3 -16 -3 -32q0 -49 32.5 -77.5t89.5 -28.5q50 0 86.5 30.5t47.5 80.5l92 441h203zM371 881h303l-23 -108h-303z" />
    <glyph glyph-name="umacron" unicode="&#x16b;" horiz-adv-x="601" 
d="M427 500h175l-106 -500h-175l14 67q-50 -77 -150 -77q-73 0 -114 41t-41 112q0 28 6 58l64 299h176l-61 -288q-3 -12 -3 -23q0 -59 69 -59q30 0 52.5 20t31.5 59zM232 701h303l-23 -108h-303z" />
    <glyph glyph-name="Uring" unicode="&#x16e;" horiz-adv-x="784" 
d="M818 700l-97 -464q-22 -110 -114.5 -178t-219.5 -68q-148 0 -234.5 67.5t-86.5 180.5q0 38 7 67l83 395h202l-88 -414q-3 -16 -3 -32q0 -49 32.5 -77.5t89.5 -28.5q50 0 86.5 30.5t47.5 80.5l92 441h203zM390 827q0 50 37.5 86.5t90.5 36.5q48 0 80 -27.5t32 -71.5
q0 -50 -37.5 -86.5t-90.5 -36.5q-49 0 -80.5 27.5t-31.5 71.5zM559 846q0 19 -12 30t-33 11q-23 0 -38 -16t-15 -39q0 -19 12 -30.5t33 -11.5q22 0 37.5 16t15.5 40z" />
    <glyph glyph-name="uring" unicode="&#x16f;" horiz-adv-x="601" 
d="M427 500h175l-106 -500h-175l14 67q-50 -77 -150 -77q-73 0 -114 41t-41 112q0 28 6 58l64 299h176l-61 -288q-3 -12 -3 -23q0 -59 69 -59q30 0 52.5 20t31.5 59zM256 647q0 50 37.5 86.5t90.5 36.5q48 0 80 -27.5t32 -71.5q0 -50 -37.5 -86.5t-90.5 -36.5
q-49 0 -80.5 27.5t-31.5 71.5zM425 666q0 19 -12 30t-33 11q-23 0 -38 -16t-15 -39q0 -19 12 -30.5t33 -11.5q22 0 37.5 16t15.5 40z" />
    <glyph glyph-name="Uhungarumlaut" unicode="&#x170;" horiz-adv-x="784" 
d="M818 700l-97 -464q-22 -110 -114.5 -178t-219.5 -68q-148 0 -234.5 67.5t-86.5 180.5q0 38 7 67l83 395h202l-88 -414q-3 -16 -3 -32q0 -49 32.5 -77.5t89.5 -28.5q50 0 86.5 30.5t47.5 80.5l92 441h203zM820 900l-189 -143h-102l59 103l-137 -103h-102l81 143h390z" />
    <glyph glyph-name="uhungarumlaut" unicode="&#x171;" horiz-adv-x="603" 
d="M427 500h175l-106 -500h-175l14 67q-50 -77 -150 -77q-73 0 -114 41t-41 112q0 28 6 58l64 299h176l-61 -288q-3 -12 -3 -23q0 -59 69 -59q30 0 52.5 20t31.5 59zM679 700l-189 -143h-102l59 103l-137 -103h-102l81 143h390z" />
    <glyph glyph-name="Uogonek" unicode="&#x172;" horiz-adv-x="784" 
d="M615 700h203l-97 -464q-19 -90 -85.5 -153.5t-162.5 -83.5q-41 -37 -45 -57q-1 -1 -1 -7q0 -17 18 -18h6q13 0 26 7l4 -98q-27 -7 -62 -7q-55 0 -96 22q-42 21 -42 62q0 52 64 88q-131 10 -205 76t-74 172q0 37 7 66l83 395h202l-88 -414q-3 -16 -3 -32q0 -49 32.5 -77.5
t89.5 -28.5q50 0 86.5 30.5t47.5 80.5z" />
    <glyph glyph-name="uogonek" unicode="&#x173;" horiz-adv-x="601" 
d="M416 -58q-1 -1 -1 -7q0 -17 18 -18h6q13 0 26 7l4 -98q-27 -7 -62 -7q-55 0 -96 22q-42 21 -42 62l2 16q10 47 78 81h-28l14 67q-50 -77 -150 -77q-73 0 -114 41t-41 112q0 28 6 58l64 299h176l-61 -288q-3 -12 -3 -23q0 -59 69 -59q30 0 52.5 20t31.5 59l62 291h175
l-106 -500h-34q-42 -37 -46 -58z" />
    <glyph glyph-name="Wcircumflex" unicode="&#x174;" horiz-adv-x="1153" 
d="M1048 700h186l-347 -700h-222l-42 457l-226 -457h-239l-47 700h207l13 -495l252 495h192l45 -513zM877 757h-129l-49 45l-71 -45h-134l162 143h125z" />
    <glyph glyph-name="wcircumflex" unicode="&#x175;" horiz-adv-x="857" 
d="M725 500h182l-254 -500h-203l-23 260l-125 -260h-203l-43 500h184l-3 -364l169 364h155l15 -362zM678 557h-129l-49 45l-71 -45h-134l162 143h125z" />
    <glyph glyph-name="Ycircumflex" unicode="&#x176;" horiz-adv-x="689" 
d="M588 700h202l-342 -443l-54 -257h-200l54 254l-157 446h211l85 -272zM641 757h-129l-49 45l-71 -45h-134l162 143h125z" />
    <glyph glyph-name="ycircumflex" unicode="&#x177;" horiz-adv-x="584" 
d="M442 500h187l-443 -710h-220l194 250l-99 460h194l38 -262zM543 557h-129l-49 45l-71 -45h-134l162 143h125z" />
    <glyph glyph-name="Ydieresis" unicode="&#x178;" horiz-adv-x="689" 
d="M265 852q0 41 27.5 68t66.5 27t66.5 -27t27.5 -68t-27 -67.5t-67 -26.5t-67 26.5t-27 67.5zM491 852q0 41 27.5 68t66.5 27t66.5 -27t27.5 -68t-27 -67.5t-67 -26.5t-67 26.5t-27 67.5zM588 700h202l-342 -443l-54 -257h-200l54 254l-157 446h211l85 -272z" />
    <glyph glyph-name="Zacute" unicode="&#x179;" horiz-adv-x="689" 
d="M741 700l-26 -120l-429 -426h349l-33 -154h-621l26 120l436 426h-331l33 154h596zM365 757l92 143h250l-189 -143h-153z" />
    <glyph glyph-name="zacute" unicode="&#x17a;" horiz-adv-x="511" 
d="M527 500l-21 -100l-273 -277h229l-26 -123h-460l21 100l301 277h-229l26 123h432zM246 557l92 143h250l-189 -143h-153z" />
    <glyph glyph-name="Zdotaccent" unicode="&#x17b;" horiz-adv-x="689" 
d="M741 700l-26 -120l-429 -426h349l-33 -154h-621l26 120l436 426h-331l33 154h596zM353 851q0 42 30 70.5t73 28.5t73 -28.5t30 -70.5t-30 -70t-73 -28t-73 28t-30 70z" />
    <glyph glyph-name="zdotaccent" unicode="&#x17c;" horiz-adv-x="511" 
d="M527 500l-21 -100l-273 -277h229l-26 -123h-460l21 100l301 277h-229l26 123h432zM246 651q0 42 30 70.5t73 28.5t73 -28.5t30 -70.5t-30 -70t-73 -28t-73 28t-30 70z" />
    <glyph glyph-name="Zcaron" unicode="&#x17d;" horiz-adv-x="689" 
d="M741 700l-26 -120l-429 -426h349l-33 -154h-621l26 120l436 426h-331l33 154h596zM276 900h129l49 -45l71 45h134l-162 -143h-125z" />
    <glyph glyph-name="zcaron" unicode="&#x17e;" horiz-adv-x="511" 
d="M527 500l-21 -100l-273 -277h229l-26 -123h-460l21 100l301 277h-229l26 123h432zM162 700h129l49 -45l71 45h134l-162 -143h-125z" />
    <glyph glyph-name="Scommaaccent" unicode="&#x218;" horiz-adv-x="669" 
d="M18 194l183 38q17 -103 139 -103q47 0 75 16.5t28 43.5t-28 45t-101 44q-77 28 -114 47q-110 57 -110 164q0 94 77 157.5t201 63.5q107 0 189 -47q82 -46 108 -136l-177 -32q-11 40 -45 62.5t-80 22.5q-38 0 -60.5 -17t-22.5 -44t26.5 -44t98.5 -43q68 -24 112 -47
q110 -57 110 -168q0 -101 -84.5 -164t-212.5 -63q-115 0 -202 51q-86 51 -110 153zM166 -324l-1 59q5 -1 27 -1q77 0 77 33q0 7 -14 18q-35 21 -48.5 39t-13.5 47q0 37 25.5 61.5t64.5 24.5q44 0 70 -27t26 -73q0 -86 -46 -135t-128 -49q-18 0 -39 3z" />
    <glyph glyph-name="scommaaccent" unicode="&#x219;" horiz-adv-x="497" 
d="M1 139l162 29q3 -30 25 -49t56 -19q50 0 50 33q0 19 -19 31.5t-70 31.5q-53 21 -80 35q-76 39 -76 116q0 73 59.5 118t156.5 45q75 0 135 -31.5t83 -87.5l-151 -31q-6 19 -23 32t-40 13q-20 0 -33 -9.5t-13 -23.5q0 -16 16.5 -26.5t62.5 -27.5q53 -20 80 -34
q78 -38 78 -122q0 -77 -62 -124.5t-163 -47.5q-85 0 -152 39t-82 110zM58 -326l-1 59q5 -1 27 -1q77 0 77 33q0 7 -14 18q-35 21 -48.5 39t-13.5 47q0 37 25.5 61.5t64.5 24.5q44 0 70 -27t26 -73q0 -86 -46 -135t-128 -49q-18 0 -39 3z" />
    <glyph glyph-name="uni021A" unicode="&#x21a;" horiz-adv-x="680" 
d="M756 700l-33 -155h-220l-116 -545h-200l116 545h-220l33 155h640zM138 -326l-1 59q5 -1 27 -1q77 0 77 33q0 7 -14 18q-35 21 -48.5 39t-13.5 47q0 37 25.5 61.5t64.5 24.5q44 0 70 -27t26 -73q0 -86 -46 -135t-128 -49q-18 0 -39 3z" />
    <glyph glyph-name="uni021B" unicode="&#x21b;" horiz-adv-x="425" 
d="M284 380l-40 -188q0 -2 -0.5 -5t-1 -5t-0.5 -3.5v-2.5q0 -26 21 -41t56 -15q28 0 58 14l-28 -136q-43 -8 -83 -8q-94 0 -147 43.5t-53 123.5q0 26 6 56l35 167h-80l25 120h81l34 160h176l-34 -160h139l-25 -120h-139zM80 -326l-1 59q5 -1 27 -1q77 0 77 33q0 7 -14 18
q-35 21 -48.5 39t-13.5 47q0 37 25.5 61.5t64.5 24.5q44 0 70 -27t26 -73q0 -86 -46 -135t-128 -49q-18 0 -39 3z" />
    <glyph glyph-name="uni0237" unicode="&#x237;" horiz-adv-x="289" 
d="M-169 -207l26 117q26 -15 59 -15q30 0 51 16.5t27 46.5l115 542h176l-116 -544q-17 -81 -87.5 -128.5t-177.5 -47.5q-41 0 -73 13z" />
    <glyph glyph-name="circumflex" unicode="&#x2c6;" horiz-adv-x="500" 
d="M507 557h-129l-49 45l-71 -45h-134l162 143h125z" />
    <glyph glyph-name="caron" unicode="&#x2c7;" horiz-adv-x="500" 
d="M156 700h129l49 -45l71 45h134l-162 -143h-125z" />
    <glyph glyph-name="breve" unicode="&#x2d8;" horiz-adv-x="500" 
d="M182 675q0 1 2 25h110q-2 -15 12 -26t37 -11q42 0 55 37h110q-19 -69 -66.5 -107.5t-115.5 -38.5q-66 0 -105 32.5t-39 88.5z" />
    <glyph glyph-name="dotaccent" unicode="&#x2d9;" horiz-adv-x="500" 
d="M233 651q0 42 30 70.5t73 28.5t73 -28.5t30 -70.5t-30 -70t-73 -28t-73 28t-30 70z" />
    <glyph glyph-name="ring" unicode="&#x2da;" horiz-adv-x="500" 
d="M217 647q0 50 37.5 86.5t90.5 36.5q48 0 80 -27.5t32 -71.5q0 -50 -37.5 -86.5t-90.5 -36.5q-49 0 -80.5 27.5t-31.5 71.5zM386 666q0 19 -12 30t-33 11q-23 0 -38 -16t-15 -39q0 -19 12 -30.5t33 -11.5q22 0 37.5 16t15.5 40z" />
    <glyph glyph-name="ogonek" unicode="&#x2db;" horiz-adv-x="500" 
d="M114 -107l2 16q7 35 39.5 59t108.5 52h77q-39 -34 -62 -57q-15 -16 -18 -31q-1 -1 -1 -7q0 -17 18 -18h6q13 0 26 7l4 -98q-27 -7 -62 -7q-53 0 -96 22q-42 21 -42 62z" />
    <glyph glyph-name="tilde" unicode="&#x2dc;" horiz-adv-x="500" 
d="M317 600q-21 17 -36 17q-33 0 -64 -49l-71 34q20 67 54 102t77 35q35 0 75 -28q24 -18 40 -18q18 0 32 11.5t32 37.5l71 -34q-18 -64 -54.5 -100t-80.5 -36q-34 0 -75 28z" />
    <glyph glyph-name="hungarumlaut" unicode="&#x2dd;" horiz-adv-x="500" 
d="M566 700l-189 -143h-102l59 103l-137 -103h-102l81 143h390z" />
    <glyph glyph-name="gravecomb" unicode="&#x300;" horiz-adv-x="0" 
d="M-58 757h-149l-129 143h247z" />
    <glyph glyph-name="acutecomb" unicode="&#x301;" horiz-adv-x="0" 
d="M-299 757l92 143h250l-189 -143h-153z" />
    <glyph glyph-name="uni0302" unicode="&#x302;" horiz-adv-x="0" 
d="M50 757h-129l-49 45l-71 -45h-134l162 143h125z" />
    <glyph glyph-name="tildecomb" unicode="&#x303;" horiz-adv-x="0" 
d="M-155 780q-21 17 -36 17q-33 0 -64 -49l-71 34q20 67 54 102t77 35q35 0 75 -28q24 -18 40 -18q18 0 32 11.5t32 37.5l71 -34q-18 -64 -54.5 -100t-80.5 -36q-34 0 -75 28z" />
    <glyph glyph-name="uni0304" unicode="&#x304;" horiz-adv-x="0" 
d="M-267 881h303l-23 -108h-303z" />
    <glyph glyph-name="uni0306" unicode="&#x306;" horiz-adv-x="0" 
d="M-276 875q0 1 2 25h110q-2 -15 12 -26t37 -11q42 0 55 37h110q-19 -69 -66.5 -107.5t-115.5 -38.5q-66 0 -105 32.5t-39 88.5z" />
    <glyph glyph-name="uni0307" unicode="&#x307;" horiz-adv-x="0" 
d="M-225 851q0 42 30 70.5t73 28.5t73 -28.5t30 -70.5t-30 -70t-73 -28t-73 28t-30 70z" />
    <glyph glyph-name="uni0308" unicode="&#x308;" horiz-adv-x="0" 
d="M-329 852q0 41 27.5 68t66.5 27t66.5 -27t27.5 -68t-27 -67.5t-67 -26.5t-67 26.5t-27 67.5zM-103 852q0 41 27.5 68t66.5 27t66.5 -27t27.5 -68t-27 -67.5t-67 -26.5t-67 26.5t-27 67.5z" />
    <glyph glyph-name="uni030A" unicode="&#x30a;" horiz-adv-x="0" 
d="M-245 827q0 50 37.5 86.5t90.5 36.5q48 0 80 -27.5t32 -71.5q0 -50 -37.5 -86.5t-90.5 -36.5q-49 0 -80.5 27.5t-31.5 71.5zM-76 846q0 19 -12 30t-33 11q-23 0 -38 -16t-15 -39q0 -19 12 -30.5t33 -11.5q22 0 37.5 16t15.5 40z" />
    <glyph glyph-name="uni030B" unicode="&#x30b;" horiz-adv-x="0" 
d="M109 900l-189 -143h-102l59 103l-137 -103h-102l81 143h390z" />
    <glyph glyph-name="uni030C" unicode="&#x30c;" horiz-adv-x="0" 
d="M-303 900h129l49 -45l71 45h134l-162 -143h-125z" />
    <glyph glyph-name="uni0312" unicode="&#x312;" horiz-adv-x="0" 
d="M-48 831l1 -59q-5 1 -27 1q-77 0 -77 -33q0 -7 14 -18q35 -21 48.5 -39t13.5 -47q0 -37 -25.5 -61.5t-64.5 -24.5q-44 0 -70 27t-26 73q0 86 46 135t128 49q18 0 39 -3z" />
    <glyph glyph-name="uni0326" unicode="&#x326;" horiz-adv-x="0" 
d="M-451 -326l-1 59q5 -1 27 -1q77 0 77 33q0 7 -14 18q-35 21 -48.5 39t-13.5 47q0 37 25.5 61.5t64.5 24.5q44 0 70 -27t26 -73q0 -86 -46 -135t-128 -49q-18 0 -39 3z" />
    <glyph glyph-name="uni0327" unicode="&#x327;" horiz-adv-x="0" 
d="M-134 -123q0 -51 -35.5 -83t-92.5 -32q-53 0 -90.5 21.5t-41.5 39.5l72 50q22 -35 51 -35q42 0 42 37q0 13 -11 22.5t-28 9.5q-10 0 -26 -4l-24 22l50 97l92 -22l-51 -44q41 -1 67 -22t26 -57z" />
    <glyph glyph-name="uni0328" unicode="&#x328;" horiz-adv-x="0" 
d="M-386 -107l2 16q7 35 39.5 59t108.5 52h77q-44 -38 -61 -57q-16 -16 -19 -31q-1 -1 -1 -7q0 -17 18 -18h6q13 0 26 7l4 -98q-27 -7 -62 -7q-54 0 -95 22q-43 21 -43 62z" />
    <glyph glyph-name="uni0335" unicode="&#x335;" horiz-adv-x="0" 
d="M-410 303l20 95h342l-20 -95h-342z" />
    <glyph glyph-name="uni0400" unicode="&#x400;" horiz-adv-x="657" 
d="M670 545h-342l-24 -111h297l-30 -143h-297l-29 -136h342l-33 -155h-537l149 700h537zM541 757h-149l-129 143h247z" />
    <glyph glyph-name="uni0401" unicode="&#x401;" horiz-adv-x="657" 
d="M255 852q0 41 27.5 68t66.5 27t66.5 -27t27.5 -68t-27 -67.5t-67 -26.5t-67 26.5t-27 67.5zM481 852q0 41 27.5 68t66.5 27t66.5 -27t27.5 -68t-27 -67.5t-67 -26.5t-67 26.5t-27 67.5zM670 545h-342l-24 -111h297l-30 -143h-297l-29 -136h342l-33 -155h-537l149 700h537
z" />
    <glyph glyph-name="uni0402" unicode="&#x402;" horiz-adv-x="775" 
d="M743 336q0 -16 -5 -44l-19 -90q-20 -92 -92.5 -152t-171.5 -60q-30 0 -69 3l28 134q15 -6 27 -6q37 0 52 15.5t24 56.5l13 63q2 10 2 20q0 44 -44 44q-49 0 -105 -35l-61 -285h-200l116 545h-175l33 155h572l-33 -155h-197l-30 -139q90 74 195 74q62 0 101 -40t39 -104z
" />
    <glyph glyph-name="uni0403" unicode="&#x403;" horiz-adv-x="643" 
d="M694 700l-33 -155h-328l-116 -545h-200l149 700h528zM375 757l92 143h250l-189 -143h-153z" />
    <glyph glyph-name="uni0404" unicode="&#x404;" horiz-adv-x="812" 
d="M592 287l195 -35q-35 -117 -138.5 -189.5t-237.5 -72.5q-155 -2 -258 86.5t-101 230.5q-3 168 116.5 287t290.5 116q141 0 238.5 -71.5t109.5 -191.5l-198 -36q-3 67 -44 105.5t-107 38.5q-59 0 -103.5 -34t-69.5 -93h206l-32 -155h-196q8 -61 47.5 -94.5t101.5 -33.5
t110 38.5t70 103.5z" />
    <glyph glyph-name="uni0405" unicode="&#x405;" horiz-adv-x="669" 
d="M18 194l183 38q17 -103 139 -103q47 0 75 16.5t28 43.5t-28 45t-101 44q-77 28 -114 47q-110 57 -110 164q0 94 77 157.5t201 63.5q107 0 189 -47q82 -46 108 -136l-177 -32q-11 40 -45 62.5t-80 22.5q-38 0 -60.5 -17t-22.5 -44t26.5 -44t98.5 -43q68 -24 112 -47
q110 -57 110 -168q0 -101 -84.5 -164t-212.5 -63q-115 0 -202 51q-86 51 -110 153z" />
    <glyph glyph-name="uni0406" unicode="&#x406;" horiz-adv-x="360" 
d="M176 700h200l-149 -700h-200z" />
    <glyph glyph-name="uni0407" unicode="&#x407;" horiz-adv-x="360" 
d="M104 852q0 41 27.5 68t66.5 27t66.5 -27t27.5 -68t-27 -67.5t-67 -26.5t-67 26.5t-27 67.5zM330 852q0 41 27.5 68t66.5 27t66.5 -27t27.5 -68t-27 -67.5t-67 -26.5t-67 26.5t-27 67.5zM176 700h200l-149 -700h-200z" />
    <glyph glyph-name="uni0408" unicode="&#x408;" horiz-adv-x="657" 
d="M3 193l178 72q9 -68 29.5 -94t67.5 -26q42 0 72.5 28t40.5 74l97 453h200l-91 -426q-29 -138 -114 -211t-219 -73q-112 0 -180 58.5t-81 144.5z" />
    <glyph glyph-name="uni0409" unicode="&#x409;" horiz-adv-x="1113" 
d="M1096 243q0 -120 -92 -182q-91 -61 -235 -61h-333l75 350l40 195h-184l-79 -308q-28 -114 -120 -176q-89 -61 -216 -61l36 168q44 0 69 21t37 68l114 443h577l-53 -249h131q103 0 168 -60t65 -148zM901 232q0 31 -21.5 50t-58.5 19h-120l-35 -163h121q53 0 83.5 25.5
t30.5 68.5z" />
    <glyph glyph-name="uni040A" unicode="&#x40a;" horiz-adv-x="1194" 
d="M1174 229q0 -119 -90 -174q-89 -55 -237 -55h-333l58 273h-297l-58 -273h-200l149 700h200l-58 -272h297l57 272h201l-58 -272h136q106 0 169.5 -55.5t63.5 -143.5zM979 218q0 60 -80 60h-125l-30 -140h121q114 0 114 80z" />
    <glyph glyph-name="uni040B" unicode="&#x40b;" horiz-adv-x="775" 
d="M739 324q0 -33 -7 -62l-56 -262h-200l50 236q2 16 2 18q0 26 -16.5 41t-45.5 15q-48 0 -84 -27l-60 -283h-200l116 545h-175l33 155h572l-33 -155h-197l-25 -119q82 44 168 44q76 0 117 -37.5t41 -108.5z" />
    <glyph glyph-name="uni040C" unicode="&#x40c;" horiz-adv-x="772" 
d="M846 700l-301 -339l159 -361h-235l-95 280h-97l-60 -280h-200l149 700h200l-56 -265h74l223 265h239zM411 757l92 143h250l-189 -143h-153z" />
    <glyph glyph-name="uni040D" unicode="&#x40d;" horiz-adv-x="868" 
d="M628 700h266l-149 -700h-172l104 491l-391 -491h-269l149 700h172l-107 -505zM588 757h-149l-129 143h247z" />
    <glyph glyph-name="uni040E" unicode="&#x40e;" horiz-adv-x="680" 
d="M567 700h199l-458 -700h-252l166 183l-116 517h220l40 -329zM315 875q0 1 2 25h110q-2 -15 12 -26t37 -11q42 0 55 37h110q-19 -69 -66.5 -107.5t-115.5 -38.5q-66 0 -105 32.5t-39 88.5z" />
    <glyph glyph-name="uni040F" unicode="&#x40f;" horiz-adv-x="770" 
d="M596 700h200l-149 -700h-214l-41 -130h-171l14 130h-218l149 700h200l-116 -545h230z" />
    <glyph glyph-name="uni0410" unicode="&#x410;" horiz-adv-x="805" 
d="M531 0l-20 138h-271l-79 -138h-199l431 700h213l131 -700h-206zM319 277h172l-34 241z" />
    <glyph glyph-name="uni0411" unicode="&#x411;" horiz-adv-x="705" 
d="M704 545h-370l-20 -94h131q103 0 168 -60t65 -148q0 -120 -92 -182q-91 -61 -235 -61h-332l147 700h571zM403 301h-120l-35 -163h121q53 0 83.5 25.5t30.5 68.5q0 31 -21.5 50t-58.5 19z" />
    <glyph glyph-name="uni0412" unicode="&#x412;" horiz-adv-x="709" 
d="M673 195q0 -89 -77.5 -142t-189.5 -53h-387l147 700h333q91 0 153 -47t62 -122t-45.5 -121.5t-124.5 -58.5q64 -21 96.5 -62.5t32.5 -93.5zM333 566l-32 -155h91q50 0 81 23t31 65q0 30 -23 48.5t-58 18.5h-90zM463 218q0 30 -22.5 49.5t-58.5 19.5h-107l-32 -152h108
q48 0 80 23.5t32 59.5z" />
    <glyph glyph-name="uni0413" unicode="&#x413;" horiz-adv-x="643" 
d="M694 700l-33 -155h-328l-116 -545h-200l149 700h528z" />
    <glyph glyph-name="uni0414" unicode="&#x414;" horiz-adv-x="838" 
d="M691 150h76l-57 -269h-182l25 119h-394l-25 -119h-182l57 269h77l271 550h451zM280 150h232l85 400h-134z" />
    <glyph glyph-name="uni0415" unicode="&#x415;" horiz-adv-x="657" 
d="M670 545h-342l-24 -111h297l-30 -143h-297l-29 -136h342l-33 -155h-537l149 700h537z" />
    <glyph glyph-name="uni0416" unicode="&#x416;" horiz-adv-x="1204" 
d="M1278 700l-301 -339l159 -361h-235l-95 280h-97l-60 -280h-200l60 280h-81l-220 -280h-239l301 354l-159 346h245l94 -265h92l56 265h200l-56 -265h74l223 265h239z" />
    <glyph glyph-name="uni0417" unicode="&#x417;" horiz-adv-x="623" 
d="M481 340q99 -40 99 -143q0 -95 -75.5 -151t-193.5 -56q-121 0 -204.5 60t-89.5 161l190 26q5 -44 33.5 -68t71.5 -24q40 0 64.5 20.5t24.5 54.5t-23.5 54.5t-68.5 20.5h-42l25 117h68q43 0 63.5 23t20.5 54q0 29 -22 47.5t-58 18.5q-77 0 -108 -87l-182 48
q31 88 109.5 140.5t187.5 52.5q70 0 128.5 -21t97 -67t38.5 -110q0 -66 -40 -110.5t-114 -60.5z" />
    <glyph glyph-name="uni0418" unicode="&#x418;" horiz-adv-x="868" 
d="M628 700h266l-149 -700h-172l104 491l-391 -491h-269l149 700h172l-107 -505z" />
    <glyph glyph-name="uni0419" unicode="&#x419;" horiz-adv-x="868" 
d="M628 700h266l-149 -700h-172l104 491l-391 -491h-269l149 700h172l-107 -505zM379 875q0 1 2 25h110q-2 -15 12 -26t37 -11q42 0 55 37h110q-19 -69 -66.5 -107.5t-115.5 -38.5q-66 0 -105 32.5t-39 88.5z" />
    <glyph glyph-name="uni041A" unicode="&#x41a;" horiz-adv-x="772" 
d="M846 700l-301 -339l159 -361h-235l-95 280h-97l-60 -280h-200l149 700h200l-56 -265h74l223 265h239z" />
    <glyph glyph-name="uni041B" unicode="&#x41b;" horiz-adv-x="759" 
d="M785 700l-149 -700h-200l116 545h-185l-79 -308q-28 -114 -120 -176q-89 -61 -216 -61l36 168q44 0 69 21t37 68l114 443h577z" />
    <glyph glyph-name="uni041C" unicode="&#x41c;" horiz-adv-x="996" 
d="M721 700h301l-149 -700h-208l108 507l-295 -428h-34l-132 429l-109 -508h-186l149 700h290l76 -278z" />
    <glyph glyph-name="uni041D" unicode="&#x41d;" horiz-adv-x="837" 
d="M663 700h200l-149 -700h-200l58 273h-297l-58 -273h-200l149 700h200l-58 -272h297z" />
    <glyph glyph-name="uni041E" unicode="&#x41e;" horiz-adv-x="835" 
d="M52 307q-3 167 118.5 286.5t293.5 116.5q155 2 259.5 -87t102.5 -230q3 -167 -118 -286.5t-292 -116.5q-155 -2 -260.5 87t-103.5 230zM618 395q0 74 -42.5 117t-112.5 43q-89 0 -145.5 -75t-56.5 -175q0 -74 42 -117t114 -43q89 0 145 74.5t56 175.5z" />
    <glyph glyph-name="uni041F" unicode="&#x41f;" horiz-adv-x="770" 
d="M796 700l-149 -700h-200l116 545h-230l-116 -545h-200l149 700h630z" />
    <glyph glyph-name="uni0420" unicode="&#x420;" horiz-adv-x="701" 
d="M736 492q0 -120 -92 -182q-91 -61 -235 -61h-137l-53 -249h-200l147 700h337q103 0 168 -60t65 -148zM526 481q0 31 -21.5 50t-58.5 19h-111l-34 -163h111q53 0 83.5 25.5t30.5 68.5z" />
    <glyph glyph-name="uni0421" unicode="&#x421;" horiz-adv-x="812" 
d="M411 -10q-155 -2 -258 86.5t-101 230.5q-3 168 116.5 287t290.5 116q141 0 238.5 -71.5t109.5 -191.5l-198 -36q-3 67 -44 105.5t-107 38.5q-89 0 -143 -74t-54 -176q0 -75 40.5 -117.5t110.5 -42.5q62 0 110 38.5t70 103.5l195 -35q-35 -117 -138.5 -189.5t-237.5 -72.5
z" />
    <glyph glyph-name="uni0422" unicode="&#x422;" horiz-adv-x="680" 
d="M756 700l-33 -155h-220l-116 -545h-200l116 545h-220l33 155h640z" />
    <glyph glyph-name="uni0423" unicode="&#x423;" horiz-adv-x="680" 
d="M567 700h199l-458 -700h-252l166 183l-116 517h220l40 -329z" />
    <glyph glyph-name="uni0424" unicode="&#x424;" horiz-adv-x="836" 
d="M469 69l-15 -69h-178l17 81q-114 25 -177 88t-63 162q-2 126 101.5 207.5t254.5 90.5l15 71h178l-17 -81q114 -24 177 -87t63 -163q2 -126 -101.5 -208.5t-254.5 -91.5zM321 212l29 137l31 145q-63 -17 -98.5 -60.5t-35.5 -105.5q0 -87 74 -116zM631 373q0 87 -74 114
l-29 -138l-30 -142q61 18 97 62t36 104z" />
    <glyph glyph-name="uni0425" unicode="&#x425;" horiz-adv-x="759" 
d="M839 700l-323 -361l175 -339h-247l-81 211l-174 -211h-215l307 347l-170 353h247l85 -232l181 232h215z" />
    <glyph glyph-name="uni0426" unicode="&#x426;" horiz-adv-x="902" 
d="M832 155l-33 -155l-28 -130h-170l14 130h-598l149 700h200l-116 -545h230l116 545h200l-116 -545h152z" />
    <glyph glyph-name="uni0427" unicode="&#x427;" horiz-adv-x="743" 
d="M569 700h200l-149 -700h-200l39 181q-69 -12 -137 -12q-116 0 -177.5 50t-61.5 144q0 35 9 75l56 262h200l-56 -262q-3 -15 -3 -29q0 -85 111 -85q49 0 91 9z" />
    <glyph glyph-name="uni0428" unicode="&#x428;" horiz-adv-x="1140" 
d="M966 700h200l-149 -700h-1000l149 700h200l-116 -545h200l116 545h200l-116 -545h200z" />
    <glyph glyph-name="uni0429" unicode="&#x429;" horiz-adv-x="1241" 
d="M1171 155l-33 -155l-28 -130h-170l14 130h-937l149 700h200l-116 -545h200l116 545h200l-116 -545h200l116 545h200l-116 -545h121z" />
    <glyph glyph-name="uni042A" unicode="&#x42a;" horiz-adv-x="803" 
d="M786 243q0 -120 -92 -182q-91 -61 -235 -61h-332l114 545h-178l33 155h379l-53 -249h131q103 0 168 -60t65 -148zM591 232q0 31 -21.5 50t-58.5 19h-120l-35 -163h121q53 0 83.5 25.5t30.5 68.5z" />
    <glyph glyph-name="uni042B" unicode="&#x42b;" horiz-adv-x="1055" 
d="M678 243q0 -120 -92 -182q-91 -61 -235 -61h-332l147 700h201l-53 -249h131q103 0 168 -60t65 -148zM483 232q0 31 -21.5 50t-58.5 19h-120l-35 -163h121q53 0 83.5 25.5t30.5 68.5zM871 700h200l-149 -700h-200z" />
    <glyph glyph-name="uni042C" unicode="&#x42c;" horiz-adv-x="695" 
d="M678 243q0 -120 -92 -182q-91 -61 -235 -61h-332l147 700h201l-53 -249h131q103 0 168 -60t65 -148zM483 232q0 31 -21.5 50t-58.5 19h-120l-35 -163h121q53 0 83.5 25.5t30.5 68.5z" />
    <glyph glyph-name="uni042D" unicode="&#x42d;" horiz-adv-x="812" 
d="M803 393q3 -168 -116.5 -287t-290.5 -116q-141 0 -238.5 71.5t-109.5 191.5l198 36q3 -67 44 -105.5t107 -38.5q59 0 104 34.5t70 93.5h-207l32 155h196q-9 60 -48.5 93.5t-100.5 33.5q-62 0 -110 -38.5t-70 -103.5l-195 35q35 117 138.5 189.5t237.5 72.5
q155 2 258 -86.5t101 -230.5z" />
    <glyph glyph-name="uni042E" unicode="&#x42e;" horiz-adv-x="1127" 
d="M1118 393q3 -167 -118 -286.5t-292 -116.5q-147 0 -248.5 77t-113.5 206h-71l-58 -273h-200l149 700h200l-58 -272h54q38 126 146 204t248 78q155 2 259.5 -87t102.5 -230zM910 395q0 74 -42.5 117t-112.5 43q-89 0 -145.5 -75t-56.5 -175q0 -74 42 -117t114 -43
q89 0 145 74.5t56 175.5z" />
    <glyph glyph-name="uni042F" unicode="&#x42f;" horiz-adv-x="737" 
d="M761 700l-147 -700h-201l53 249h-69l-198 -249h-252l277 271q-57 25 -89.5 75t-32.5 111q0 121 91 182t236 61h332zM377 399h120l35 163h-121q-53 0 -83.5 -25.5t-30.5 -68.5q0 -31 21.5 -50t58.5 -19z" />
    <glyph glyph-name="uni0430" unicode="&#x430;" horiz-adv-x="547" 
d="M515 340q0 -15 -5 -45l-62 -295h-170l14 64q-43 -73 -137 -73q-68 0 -109 34t-41 89q0 72 37 110q34 36 80 51.5t129 26.5q56 7 77 14.5t21 23.5q0 22 -15.5 35t-41.5 13q-59 0 -95 -58l-149 53q79 127 252 127q98 0 156.5 -46t58.5 -124zM316 179l9 43l-55 -9
q-97 -14 -97 -63q0 -18 14.5 -30t37.5 -12q31 0 58 20t33 51z" />
    <glyph glyph-name="uni0431" unicode="&#x431;" horiz-adv-x="622" 
d="M597 281q2 -122 -84.5 -208t-211.5 -83q-121 0 -192 68q-69 69 -69 186q0 172 65 270q65 97 191 139q124 41 330 52l-35 -158h-39q-112 0 -173 -8q-60 -9 -98 -41.5t-60 -101.5q62 89 160 89q94 0 155 -57t61 -147zM431 281q0 47 -26 73t-73 26q-56 0 -90.5 -48.5
t-34.5 -112.5q0 -47 26 -72.5t73 -25.5q56 0 90.5 48t34.5 112z" />
    <glyph glyph-name="uni0432" unicode="&#x432;" horiz-adv-x="598" 
d="M545 130q0 -66 -59 -98t-147 -32h-340l108 500h313q64 0 107 -34q45 -34 45 -86q0 -47 -40 -80.5t-111 -44.5q124 -31 124 -125zM259 396l-20 -89h86q33 0 53 12.5t20 34.5q0 18 -13 30t-34 12h-92zM372 160q0 19 -15 31t-40 12h-99l-19 -89h105q31 0 49.5 12.5
t18.5 33.5z" />
    <glyph glyph-name="uni0433" unicode="&#x433;" horiz-adv-x="423" 
d="M476 500l-25 -120h-196l-81 -380h-175l106 500h371z" />
    <glyph glyph-name="uni0434" unicode="&#x434;" horiz-adv-x="626" 
d="M-67 -88l44 208h73l150 380h402l-81 -380h62l-44 -208h-151l19 88h-304l-19 -88h-151zM204 120h141l56 260h-96z" />
    <glyph glyph-name="uni0435" unicode="&#x435;" horiz-adv-x="572" 
d="M535 212h-334v-20q0 -39 18 -60t51 -21q66 0 89 61l157 -37q-53 -78 -116 -111.5t-157 -33.5q-99 0 -160 56.5t-61 147.5q0 140 87.5 228t225.5 88q101 0 160 -54.5t59 -144.5q0 -18 -3 -37t-6 -30.5t-7 -21.5zM218 308h164l1 14q0 33 -16.5 52t-46.5 19q-74 0 -102 -85z
" />
    <glyph glyph-name="uni0436" unicode="&#x436;" horiz-adv-x="895" 
d="M929 500l-216 -235l116 -265h-200l-68 201h-36l-43 -201h-175l43 201h-29l-157 -201h-198l226 259l-126 241h220l59 -179h30l38 179h175l-38 -179h34l147 179h198z" />
    <glyph glyph-name="uni0437" unicode="&#x437;" horiz-adv-x="532" 
d="M403 250q76 -36 76 -110q0 -72 -63 -112q-62 -40 -155 -40q-107 0 -180 45q-71 46 -79 132l162 16q0 -73 86 -73q30 0 49 12.5t19 33.5q0 46 -77 46h-35l24 108h37q81 0 81 42q0 20 -19 33t-49 13q-64 0 -83 -63l-154 41q25 63 91 99.5t154 36.5q96 0 162.5 -40.5
t66.5 -106.5q0 -93 -114 -113z" />
    <glyph glyph-name="uni0438" unicode="&#x438;" horiz-adv-x="652" 
d="M444 500h209l-106 -500h-175l66 309l-227 -309h-212l106 500h175l-68 -317z" />
    <glyph glyph-name="uni0439" unicode="&#x439;" horiz-adv-x="652" 
d="M444 500h209l-106 -500h-175l66 309l-227 -309h-212l106 500h175l-68 -317zM258 675q0 1 2 25h110q-2 -15 12 -26t37 -11q42 0 55 37h110q-19 -69 -66.5 -107.5t-115.5 -38.5q-66 0 -105 32.5t-39 88.5z" />
    <glyph glyph-name="uni043A" unicode="&#x43a;" horiz-adv-x="587" 
d="M621 500l-216 -235l116 -265h-200l-68 201h-36l-43 -201h-175l106 500h175l-38 -179h34l147 179h198z" />
    <glyph glyph-name="uni043B" unicode="&#x43b;" horiz-adv-x="597" 
d="M598 500l-106 -500h-175l81 380h-106l-63 -242q-21 -81 -86 -110q-63 -28 -176 -28l25 120q73 0 87 53l84 327h435z" />
    <glyph glyph-name="uni043C" unicode="&#x43c;" horiz-adv-x="740" 
d="M514 500h227l-106 -500h-175l62 294l-178 -248h-35l-73 247l-62 -293h-175l106 500h218l53 -196z" />
    <glyph glyph-name="uni043D" unicode="&#x43d;" horiz-adv-x="602" 
d="M428 500h175l-106 -500h-175l42 198h-148l-42 -198h-175l106 500h175l-39 -182h148z" />
    <glyph glyph-name="uni043E" unicode="&#x43e;" horiz-adv-x="627" 
d="M26 219q0 125 85 208t215 83q122 0 199 -61.5t77 -166.5q2 -125 -85 -209.5t-215 -82.5q-121 0 -198.5 62.5t-77.5 166.5zM426 281q0 47 -26 73t-73 26q-56 0 -90.5 -48.5t-34.5 -112.5q0 -46 26.5 -72.5t72.5 -26.5q56 0 90.5 48t34.5 113z" />
    <glyph glyph-name="uni043F" unicode="&#x43f;" horiz-adv-x="613" 
d="M614 500l-106 -500h-175l81 380h-159l-81 -380h-175l106 500h509z" />
    <glyph glyph-name="uni0440" unicode="&#x440;" horiz-adv-x="640" 
d="M617 303q2 -127 -73.5 -221.5t-188.5 -91.5q-133 0 -161 105l-65 -305h-175l151 710h175l-15 -73q62 83 153 83q89 0 144 -57.5t55 -149.5zM441 279q0 46 -26 73.5t-71 27.5q-54 0 -89 -47.5t-35 -108.5q0 -46 25.5 -74t69.5 -28q54 0 90 48t36 109z" />
    <glyph glyph-name="uni0441" unicode="&#x441;" horiz-adv-x="604" 
d="M25 214q0 129 82.5 212.5t210.5 83.5q111 0 182 -52t83 -144l-174 -30q0 96 -88 96q-54 0 -86.5 -49t-32.5 -114q0 -46 24.5 -71.5t68.5 -25.5q75 0 105 90l166 -31q-40 -93 -114.5 -141t-169.5 -48q-116 0 -187 59q-70 58 -70 165z" />
    <glyph glyph-name="uni0442" unicode="&#x442;" horiz-adv-x="466" 
d="M519 500l-25 -120h-145l-81 -380h-175l81 380h-146l25 120h466z" />
    <glyph glyph-name="uni0443" unicode="&#x443;" horiz-adv-x="584" 
d="M442 500h187l-443 -710h-220l194 250l-99 460h194l38 -262z" />
    <glyph glyph-name="uni0444" unicode="&#x444;" horiz-adv-x="727" 
d="M701 277q0 -121 -90 -199t-229 -87l-40 -211h-159l52 223q-95 22 -152 80t-57 140q0 120 88.5 197t226.5 88l36 192h159l-47 -202q97 -22 154.5 -79.5t57.5 -141.5zM265 132l27 118l24 127q-54 -14 -83.5 -54t-29.5 -97q0 -65 62 -94zM459 369l-28 -119l-24 -128
q56 13 86.5 53.5t30.5 98.5q0 67 -65 95z" />
    <glyph glyph-name="uni0445" unicode="&#x445;" horiz-adv-x="568" 
d="M598 500l-221 -253l125 -247h-193l-50 145l-119 -145h-180l222 254l-116 246h193l47 -135l112 135h180z" />
    <glyph glyph-name="uni0446" unicode="&#x446;" horiz-adv-x="639" 
d="M533 120h72l-46 -217h-155l12 97h-417l106 500h175l-81 -380h159l81 380h175z" />
    <glyph glyph-name="uni0447" unicode="&#x447;" horiz-adv-x="578" 
d="M404 500h175l-106 -500h-175l26 122q-58 -11 -109 -11q-75 0 -117.5 40.5t-42.5 109.5q0 25 6 53l39 186h175l-42 -198q-2 -14 -2 -15q0 -26 20.5 -41t55.5 -15q24 0 41 4z" />
    <glyph glyph-name="uni0448" unicode="&#x448;" horiz-adv-x="869" 
d="M695 500h175l-106 -500h-765l106 500h175l-81 -380h120l81 380h175l-81 -380h120z" />
    <glyph glyph-name="uni0449" unicode="&#x449;" horiz-adv-x="886" 
d="M789 120h63l-46 -217h-155l12 97h-664l106 500h175l-81 -380h120l81 380h175l-81 -380h120l81 380h175z" />
    <glyph glyph-name="uni044A" unicode="&#x44a;" horiz-adv-x="662" 
d="M629 197q0 -90 -71.5 -143.5t-191.5 -53.5h-298l79 380h-119l25 120h296l-30 -140h122q83 0 135.5 -46t52.5 -117zM453 184q0 25 -16.5 41t-42.5 16h-100l-25 -121h99q38 0 61.5 17.5t23.5 46.5z" />
    <glyph glyph-name="uni044B" unicode="&#x44b;" horiz-adv-x="874" 
d="M282 500l-30 -140h122q83 0 135.5 -46t52.5 -117q0 -90 -71.5 -143.5t-191.5 -53.5h-298l104 500h177zM327 241h-100l-25 -121h99q38 0 61.5 17.5t23.5 46.5q0 25 -16.5 41t-42.5 16zM594 0l106 500h175l-106 -500h-175z" />
    <glyph glyph-name="uni044C" unicode="&#x44c;" horiz-adv-x="595" 
d="M282 500l-30 -140h122q83 0 135.5 -46t52.5 -117q0 -90 -71.5 -143.5t-191.5 -53.5h-298l104 500h177zM327 241h-100l-25 -121h99q38 0 61.5 17.5t23.5 46.5q0 25 -16.5 41t-42.5 16z" />
    <glyph glyph-name="uni044D" unicode="&#x44d;" horiz-adv-x="604" 
d="M579 286q0 -129 -82.5 -212.5t-210.5 -83.5q-111 0 -182 52t-83 144l174 30q0 -96 88 -96q67 0 99 71h-118l23 112h114q-5 37 -29 57t-63 20q-75 0 -105 -90l-166 31q40 93 114.5 141t169.5 48q115 0 186 -59t71 -165z" />
    <glyph glyph-name="uni044E" unicode="&#x44e;" horiz-adv-x="870" 
d="M845 282q2 -125 -85 -209.5t-215 -82.5q-111 0 -188 53q-75 53 -86 148h-57l-40 -191h-175l106 500h175l-40 -189h43q29 90 105 144q76 55 181 55q122 0 199 -61.5t77 -166.5zM669 281q0 47 -26 73t-73 26q-56 0 -90.5 -48.5t-34.5 -112.5q0 -46 26.5 -72.5t72.5 -26.5
q56 0 90.5 48t34.5 113z" />
    <glyph glyph-name="uni044F" unicode="&#x44f;" horiz-adv-x="605" 
d="M310 500h296l-106 -500h-175l32 151h-42l-134 -151h-219l195 166q-48 19 -75.5 57t-27.5 84q0 89 73 141t183 52zM382 269l24 112h-98q-33 0 -54 -18.5t-21 -45.5q0 -21 16.5 -34.5t44.5 -13.5h88z" />
    <glyph glyph-name="uni0450" unicode="&#x450;" horiz-adv-x="572" 
d="M535 212h-334v-20q0 -39 18 -60t51 -21q66 0 89 61l157 -37q-53 -78 -116 -111.5t-157 -33.5q-99 0 -160 56.5t-61 147.5q0 140 87.5 228t225.5 88q101 0 160 -54.5t59 -144.5q0 -18 -3 -37t-6 -30.5t-7 -21.5zM218 308h164l1 14q0 33 -16.5 52t-46.5 19q-74 0 -102 -85z
M443 557h-149l-129 143h247z" />
    <glyph glyph-name="uni0451" unicode="&#x451;" horiz-adv-x="572" 
d="M146 652q0 41 27.5 68t66.5 27t66.5 -27t27.5 -68t-27 -67.5t-67 -26.5t-67 26.5t-27 67.5zM372 652q0 41 27.5 68t66.5 27t66.5 -27t27.5 -68t-27 -67.5t-67 -26.5t-67 26.5t-27 67.5zM554 311q0 -18 -3 -37t-6 -30.5t-7 -21.5l-3 -10h-334v-20q0 -39 18 -60t51 -21
q66 0 89 61l157 -37q-53 -78 -116 -111.5t-157 -33.5q-99 0 -160 56.5t-61 147.5q0 140 87.5 228t225.5 88q101 0 160 -54.5t59 -144.5zM218 308h164l1 14q0 33 -16.5 52t-46.5 19q-74 0 -102 -85z" />
    <glyph glyph-name="uni0452" unicode="&#x452;" horiz-adv-x="601" 
d="M571 357q0 -28 -6 -58l-64 -299l-9 -44q-17 -80 -86 -127q-70 -49 -175 -49q-39 0 -79 8l26 121q23 -14 53 -14q73 0 85 63l9 42l61 288q3 12 3 23q0 59 -69 59q-29 0 -51.5 -19t-31.5 -55l-63 -296h-175l106 500l10 43h-75l20 95h75l13 62h175l-13 -62h92l-20 -95h-92
l-24 -110q52 77 150 77q73 0 114 -41t41 -112z" />
    <glyph glyph-name="uni0453" unicode="&#x453;" horiz-adv-x="423" 
d="M476 500l-25 -120h-196l-81 -380h-175l106 500h371zM222 557l92 143h250l-189 -143h-153z" />
    <glyph glyph-name="uni0454" unicode="&#x454;" horiz-adv-x="604" 
d="M400 210l166 -31q-40 -93 -114.5 -141t-169.5 -48q-116 0 -187 59q-70 58 -70 165q0 129 82.5 212.5t210.5 83.5q111 0 182 -52t83 -144l-174 -30q0 96 -88 96q-69 0 -102 -77h121l-23 -112h-113q7 -34 30.5 -52.5t60.5 -18.5q75 0 105 90z" />
    <glyph glyph-name="uni0455" unicode="&#x455;" horiz-adv-x="497" 
d="M1 139l162 29q3 -30 25 -49t56 -19q50 0 50 33q0 19 -19 31.5t-70 31.5q-53 21 -80 35q-76 39 -76 116q0 73 59.5 118t156.5 45q75 0 135 -31.5t83 -87.5l-151 -31q-6 19 -23 32t-40 13q-20 0 -33 -9.5t-13 -23.5q0 -16 16.5 -26.5t62.5 -27.5q53 -20 80 -34
q78 -38 78 -122q0 -77 -62 -124.5t-163 -47.5q-85 0 -152 39t-82 110z" />
    <glyph glyph-name="uni0456" unicode="&#x456;" horiz-adv-x="289" 
d="M127 651q0 42 30 70.5t73 28.5t73 -28.5t30 -70.5t-30 -70t-73 -28t-73 28t-30 70zM4 0l106 500h175l-106 -500h-175z" />
    <glyph glyph-name="uni0457" unicode="&#x457;" horiz-adv-x="279" 
d="M21 652q0 41 27.5 68t66.5 27t66.5 -27t27.5 -68t-27 -67.5t-67 -26.5t-67 26.5t-27 67.5zM247 652q0 41 27.5 68t66.5 27t66.5 -27t27.5 -68t-27 -67.5t-67 -26.5t-67 26.5t-27 67.5zM-1 0l106 500h175l-106 -500h-175z" />
    <glyph glyph-name="uni0458" unicode="&#x458;" horiz-adv-x="289" 
d="M127 651q0 42 30 70.5t73 28.5t73 -28.5t30 -70.5t-30 -70t-73 -28t-73 28t-30 70zM-169 -207l26 117q26 -15 59 -15q30 0 51 16.5t27 46.5l115 542h176l-116 -544q-17 -81 -87.5 -128.5t-177.5 -47.5q-41 0 -73 13z" />
    <glyph glyph-name="uni0459" unicode="&#x459;" horiz-adv-x="913" 
d="M880 197q0 -90 -71.5 -143.5t-191.5 -53.5h-300l81 380h-106l-63 -242q-21 -81 -86 -110q-63 -28 -176 -28l25 120q73 0 87 53l84 327h437l-30 -140h122q83 0 135.5 -46t52.5 -117zM704 184q0 25 -16.5 41t-42.5 16h-100l-25 -121h99q38 0 61.5 17.5t23.5 46.5z" />
    <glyph glyph-name="uni045A" unicode="&#x45a;" horiz-adv-x="918" 
d="M885 197q0 -90 -71.5 -143.5t-191.5 -53.5h-300l42 198h-148l-42 -198h-175l106 500h175l-39 -182h148l39 182h177l-30 -140h122q83 0 135.5 -46t52.5 -117zM709 184q0 25 -16.5 41t-42.5 16h-100l-25 -121h99q38 0 61.5 17.5t23.5 46.5z" />
    <glyph glyph-name="uni045B" unicode="&#x45b;" horiz-adv-x="601" 
d="M571 357q0 -28 -6 -58l-64 -299h-176l61 288q3 12 3 23q0 59 -69 59q-29 0 -51.5 -19t-31.5 -55l-63 -296h-175l106 500l10 43h-75l20 95h75l13 62h175l-13 -62h92l-20 -95h-92l-24 -110q52 77 150 77q73 0 114 -41t41 -112z" />
    <glyph glyph-name="uni045C" unicode="&#x45c;" horiz-adv-x="587" 
d="M621 500l-216 -235l116 -265h-200l-68 201h-36l-43 -201h-175l106 500h175l-38 -179h34l147 179h198zM272 557l92 143h250l-189 -143h-153z" />
    <glyph glyph-name="uni045D" unicode="&#x45d;" horiz-adv-x="652" 
d="M444 500h209l-106 -500h-175l66 309l-227 -309h-212l106 500h175l-68 -317zM502 557h-149l-129 143h247z" />
    <glyph glyph-name="uni045E" unicode="&#x45e;" horiz-adv-x="584" 
d="M442 500h187l-443 -710h-220l194 250l-99 460h194l38 -262zM218 675q0 1 2 25h110q-2 -15 12 -26t37 -11q42 0 55 37h110q-19 -69 -66.5 -107.5t-115.5 -38.5q-66 0 -105 32.5t-39 88.5z" />
    <glyph glyph-name="uni045F" unicode="&#x45f;" horiz-adv-x="613" 
d="M439 500h175l-106 -500h-175l-30 -97h-155l12 97h-161l106 500h175l-81 -380h159z" />
    <glyph glyph-name="uni0462" unicode="&#x462;" horiz-adv-x="824" 
d="M807 243q0 -120 -92 -182q-91 -61 -235 -61h-332l108 512h-200l30 143h200l9 45h201l-10 -45h202l-30 -143h-202l-13 -61h131q103 0 168 -60t65 -148zM612 232q0 31 -21.5 50t-58.5 19h-120l-35 -163h121q53 0 83.5 25.5t30.5 68.5z" />
    <glyph glyph-name="uni0463" unicode="&#x463;" horiz-adv-x="672" 
d="M639 197q0 -90 -71.5 -143.5t-191.5 -53.5h-300l88 412l1 8h-129l24 110h129l36 170h175l-36 -170h188l-24 -110h-186l-13 -60h122q83 0 135.5 -46t52.5 -117zM463 184q0 25 -16.5 41t-42.5 16h-100l-25 -121h99q38 0 61.5 17.5t23.5 46.5z" />
    <glyph glyph-name="uni0472" unicode="&#x472;" horiz-adv-x="835" 
d="M826 393q3 -167 -118 -286.5t-292 -116.5q-155 -2 -260.5 87t-103.5 230q-3 167 118.5 286.5t293.5 116.5q155 2 259.5 -87t102.5 -230zM284 423h332q-7 62 -48 97t-105 35q-61 0 -107.5 -35.5t-71.5 -96.5zM595 278h-332q7 -62 48.5 -97.5t105.5 -35.5q60 0 107 36
t71 97z" />
    <glyph glyph-name="uni0473" unicode="&#x473;" horiz-adv-x="627" 
d="M602 282q2 -125 -85 -209.5t-215 -82.5q-121 0 -198.5 62.5t-77.5 166.5q0 125 85 208t215 83q122 0 199 -61.5t77 -166.5zM220 303h204q-5 37 -30.5 57t-66.5 20q-73 0 -107 -77zM407 193h-203q17 -73 97 -73q69 0 106 73z" />
    <glyph glyph-name="uni0474" unicode="&#x474;" horiz-adv-x="751" 
d="M822 710l-36 -168q-24 0 -43 -16t-45 -60l-277 -466h-198l-117 700h212l58 -480l143 260q49 90 84 136q37 48 88 71t131 23z" />
    <glyph glyph-name="uni0475" unicode="&#x475;" horiz-adv-x="559" 
d="M327 284l17 34q37 76 59 108q58 84 193 84l-31 -147q-23 0 -37 -11.5t-35 -48.5l-167 -303h-188l-77 500h187l23 -328z" />
    <glyph glyph-name="uni0490" unicode="&#x490;" horiz-adv-x="648" 
d="M556 830h170l-61 -285h-332l-116 -545h-200l149 700h348z" />
    <glyph glyph-name="uni0491" unicode="&#x491;" horiz-adv-x="424" 
d="M376 603h123l-47 -223h-197l-81 -380h-175l106 500h238z" />
    <glyph glyph-name="Wgrave" unicode="&#x1e80;" horiz-adv-x="1153" 
d="M1048 700h186l-347 -700h-222l-42 457l-226 -457h-239l-47 700h207l13 -495l252 495h192l45 -513zM767 757h-149l-129 143h247z" />
    <glyph glyph-name="wgrave" unicode="&#x1e81;" horiz-adv-x="857" 
d="M725 500h182l-254 -500h-203l-23 260l-125 -260h-203l-43 500h184l-3 -364l169 364h155l15 -362zM580 557h-149l-129 143h247z" />
    <glyph glyph-name="Wacute" unicode="&#x1e82;" horiz-adv-x="1153" 
d="M1048 700h186l-347 -700h-222l-42 457l-226 -457h-239l-47 700h207l13 -495l252 495h192l45 -513zM617 757l92 143h250l-189 -143h-153z" />
    <glyph glyph-name="wacute" unicode="&#x1e83;" horiz-adv-x="857" 
d="M725 500h182l-254 -500h-203l-23 260l-125 -260h-203l-43 500h184l-3 -364l169 364h155l15 -362zM414 557l92 143h250l-189 -143h-153z" />
    <glyph glyph-name="Wdieresis" unicode="&#x1e84;" horiz-adv-x="1153" 
d="M501 852q0 41 27.5 68t66.5 27t66.5 -27t27.5 -68t-27 -67.5t-67 -26.5t-67 26.5t-27 67.5zM727 852q0 41 27.5 68t66.5 27t66.5 -27t27.5 -68t-27 -67.5t-67 -26.5t-67 26.5t-27 67.5zM1048 700h186l-347 -700h-222l-42 457l-226 -457h-239l-47 700h207l13 -495l252 495
h192l45 -513z" />
    <glyph glyph-name="wdieresis" unicode="&#x1e85;" horiz-adv-x="857" 
d="M303 652q0 41 27.5 68t66.5 27t66.5 -27t27.5 -68t-27 -67.5t-67 -26.5t-67 26.5t-27 67.5zM529 652q0 41 27.5 68t66.5 27t66.5 -27t27.5 -68t-27 -67.5t-67 -26.5t-67 26.5t-27 67.5zM725 500h182l-254 -500h-203l-23 260l-125 -260h-203l-43 500h184l-3 -364l169 364
h155l15 -362z" />
    <glyph glyph-name="uni1E9E" unicode="&#x1e9e;" horiz-adv-x="771" 
d="M625 328q56 -36 80.5 -65t26.5 -81q0 -88 -72.5 -140t-181.5 -52q-86 0 -181 37l61 151q35 -27 54 -36t47 -9q30 0 48.5 13.5t18.5 36.5q0 16 -12 28t-42 29q-44 26 -61.5 46t-17.5 54q0 54 40 99t125 96q-48 22 -99 22q-69 0 -113 -39.5t-58 -111.5l-85 -406h-201
l100 477q23 113 113 173t216 60q85 0 172 -28q91 -29 152 -69l-24 -115l-30 -17q-79 -46 -105 -64.5t-26 -33.5q0 -12 12.5 -24t42.5 -31z" />
    <glyph glyph-name="Ygrave" unicode="&#x1ef2;" horiz-adv-x="689" 
d="M588 700h202l-342 -443l-54 -257h-200l54 254l-157 446h211l85 -272zM531 757h-149l-129 143h247z" />
    <glyph glyph-name="ygrave" unicode="&#x1ef3;" horiz-adv-x="584" 
d="M442 500h187l-443 -710h-220l194 250l-99 460h194l38 -262zM453 557h-149l-129 143h247z" />
    <glyph glyph-name="uni2009" unicode="&#x2009;" horiz-adv-x="170" 
 />
    <glyph glyph-name="endash" unicode="&#x2013;" horiz-adv-x="608" 
d="M61 348h528l-28 -133h-528z" />
    <glyph glyph-name="emdash" unicode="&#x2014;" horiz-adv-x="996" 
d="M61 348h916l-28 -133h-916z" />
    <glyph glyph-name="quoteleft" unicode="&#x2018;" horiz-adv-x="294" 
d="M322 749l9 -66q-46 0 -88 -19q-43 -18 -43 -43q0 -9 27 -20q77 -32 77 -94q0 -43 -29 -72t-72 -29q-51 0 -79.5 32.5t-28.5 89.5q0 102 65.5 161.5t161.5 59.5z" />
    <glyph glyph-name="quoteright" unicode="&#x2019;" horiz-adv-x="294" 
d="M112 409l-9 66q45 0 88 18q43 19 43 44q0 9 -27 20q-77 32 -77 94q0 43 29 72t72 29q51 0 79.5 -32.5t28.5 -89.5q0 -102 -65.5 -161.5t-161.5 -59.5z" />
    <glyph glyph-name="quotesinglbase" unicode="&#x201a;" horiz-adv-x="294" 
d="M-8 -153l-9 66q46 0 88 19q43 18 43 43q0 9 -27 20q-77 32 -77 94q0 43 29 72t72 29q51 0 79.5 -32.5t28.5 -89.5q0 -102 -65.5 -161.5t-161.5 -59.5z" />
    <glyph glyph-name="quotedblleft" unicode="&#x201c;" horiz-adv-x="546" 
d="M322 749l9 -66q-46 0 -88 -19q-43 -18 -43 -43q0 -9 27 -20q77 -32 77 -94q0 -43 -29 -72t-72 -29q-51 0 -79.5 32.5t-28.5 89.5q0 102 65.5 161.5t161.5 59.5zM574 749l9 -66q-46 0 -88 -19q-43 -18 -43 -43q0 -9 27 -20q77 -32 77 -94q0 -43 -29 -72t-72 -29
q-51 0 -79.5 32.5t-28.5 89.5q0 102 65.5 161.5t161.5 59.5z" />
    <glyph glyph-name="quotedblright" unicode="&#x201d;" horiz-adv-x="546" 
d="M364 409l-9 66q45 0 88 18q43 19 43 44q0 9 -27 20q-77 32 -77 94q0 43 29 72t72 29q51 0 79.5 -32.5t28.5 -89.5q0 -102 -65.5 -161.5t-161.5 -59.5zM112 409l-9 66q45 0 88 18q43 19 43 44q0 9 -27 20q-77 32 -77 94q0 43 29 72t72 29q51 0 79.5 -32.5t28.5 -89.5
q0 -102 -65.5 -161.5t-161.5 -59.5z" />
    <glyph glyph-name="quotedblbase" unicode="&#x201e;" horiz-adv-x="546" 
d="M244 -153l-9 66q46 0 88 19q43 18 43 43q0 9 -27 20q-77 32 -77 94q0 43 29 72t72 29q51 0 79.5 -32.5t28.5 -89.5q0 -102 -65.5 -161.5t-161.5 -59.5zM-8 -153l-9 66q46 0 88 19q43 18 43 43q0 9 -27 20q-77 32 -77 94q0 43 29 72t72 29q51 0 79.5 -32.5t28.5 -89.5
q0 -102 -65.5 -161.5t-161.5 -59.5z" />
    <glyph glyph-name="dagger" unicode="&#x2020;" horiz-adv-x="386" 
d="M447 633l-23 -110h-108l-57 -268h-130l57 268h-108l23 110h109l23 110h130l-23 -110h107z" />
    <glyph glyph-name="daggerdbl" unicode="&#x2021;" horiz-adv-x="386" 
d="M426 533h-108l-14 -68h108l-22 -100h-108l-23 -110h-130l23 110h-108l22 100h108l14 68h-108l21 100h109l23 110h130l-23 -110h107z" />
    <glyph glyph-name="bullet" unicode="&#x2022;" horiz-adv-x="445" 
d="M412 310q0 -74 -51 -123.5t-127 -49.5q-75 0 -125.5 49.5t-50.5 123.5t50.5 124.5t125.5 50.5q76 0 127 -50.5t51 -124.5z" />
    <glyph glyph-name="ellipsis" unicode="&#x2026;" horiz-adv-x="852" 
d="M495 92q0 -42 -30 -70.5t-73 -28.5t-73 28.5t-30 70.5t30 70t73 28t73 -28t30 -70zM774 92q0 -42 -30 -70.5t-73 -28.5t-73 28.5t-30 70.5t30 70t73 28t73 -28t30 -70zM216 92q0 -42 -30 -70.5t-73 -28.5t-73 28.5t-30 70.5t30 70t73 28t73 -28t30 -70z" />
    <glyph glyph-name="perthousand" unicode="&#x2030;" horiz-adv-x="1371" 
d="M84 505q0 83 62.5 142.5t148.5 59.5q79 0 129.5 -46.5t50.5 -116.5q0 -84 -62 -144.5t-147 -60.5q-81 0 -131.5 47t-50.5 119zM735 700h124l-313 -349l-304 -351h-126l330 357zM356 537q0 27 -19.5 47t-46.5 20q-40 0 -63 -26t-23 -67q0 -31 19 -50t51 -19q35 0 58.5 28
t23.5 67zM900 192q0 -83 -62.5 -142.5t-148.5 -59.5q-79 0 -129.5 46.5t-50.5 116.5q0 84 62 144.5t147 60.5q81 0 131.5 -47t50.5 -119zM1329 192q0 -83 -62.5 -142.5t-148.5 -59.5q-79 0 -129.5 46.5t-50.5 116.5q0 84 62 144.5t147 60.5q81 0 131.5 -47t50.5 -119z
M628 160q0 -27 19.5 -47t46.5 -20q40 0 63 26t23 67q0 31 -19 50t-51 19q-35 0 -58.5 -28t-23.5 -67zM1057 160q0 -27 19.5 -47t46.5 -20q40 0 63 26t23 67q0 31 -19 50t-51 19q-35 0 -58.5 -28t-23.5 -67z" />
    <glyph glyph-name="guilsinglleft" unicode="&#x2039;" horiz-adv-x="339" 
d="M35 282l140 173h180l-200 -196l112 -195h-171l-69 175z" />
    <glyph glyph-name="guilsinglright" unicode="&#x203a;" horiz-adv-x="339" 
d="M308 237l-140 -173h-180l200 196l-112 195h171l69 -175z" />
    <glyph glyph-name="fraction" unicode="&#x2044;" horiz-adv-x="120" 
d="M329 700h124l-313 -349l-304 -351h-126l330 357z" />
    <glyph glyph-name="uni2070" unicode="&#x2070;" horiz-adv-x="420" 
d="M88 540q0 97 56 162.5t146 65.5q85 0 132.5 -40.5t47.5 -115.5q0 -100 -56.5 -165t-148.5 -65q-82 0 -129.5 41.5t-47.5 116.5zM343 614q0 60 -51 60q-37 0 -58 -45q-20 -46 -20 -95q0 -58 52 -58q38 0 57 43q20 45 20 95z" />
    <glyph glyph-name="uni2074" unicode="&#x2074;" horiz-adv-x="380" 
d="M425 760l-47 -222h38l-17 -79h-38l-15 -73h-115l15 73h-176l11 64l200 237h144zM183 538h80l43 145z" />
    <glyph glyph-name="uni2075" unicode="&#x2075;" horiz-adv-x="352" 
d="M401 669h-173l-30 -82q37 43 91 43q47 0 75 -27t28 -72q0 -68 -49 -108q-50 -41 -122 -41q-60 0 -105 25.5t-57 71.5l128 25q-1 -17 10 -27.5t27 -10.5q19 0 32 14.5t13 34.5q0 28 -31 32q-23 2 -41 -21l-98 27l65 207h266z" />
    <glyph glyph-name="uni2076" unicode="&#x2076;" horiz-adv-x="372" 
d="M406 528q0 -61 -47 -104t-123 -43q-69 0 -111 35t-42 94q0 36 17 66.5t62 85.5l78 96h173l-164 -126q25 5 43 5q49 0 81.5 -29.5t32.5 -79.5zM288 524q0 18 -11.5 28.5t-30.5 10.5q-24 0 -38 -16t-14 -40q0 -42 40 -42q25 0 39.5 18t14.5 41z" />
    <glyph glyph-name="uni2077" unicode="&#x2077;" horiz-adv-x="335" 
d="M134 760h299l-13 -67l-193 -305h-152l239 280h-211z" />
    <glyph glyph-name="uni2078" unicode="&#x2078;" horiz-adv-x="380" 
d="M409 495q0 -53 -42.5 -83.5t-110.5 -30.5q-74 0 -128 27q-54 28 -54 82q0 43 25 67.5t75 36.5q-48 26 -48 68q0 51 38 79t102 28q68 0 117 -25q49 -24 49 -73q0 -76 -82 -95q59 -37 59 -81zM235 651q0 -15 11 -24t30 -9q18 0 29.5 11t11.5 29q0 32 -40 32
q-19 0 -30.5 -10.5t-11.5 -28.5zM291 512q0 16 -12 25.5t-32 9.5q-21 0 -33.5 -12t-12.5 -33q0 -15 11.5 -25t29.5 -10q21 0 35 12.5t14 32.5z" />
    <glyph glyph-name="uni2079" unicode="&#x2079;" horiz-adv-x="372" 
d="M426 634q0 -36 -17 -66.5t-62 -85.5l-78 -96h-173l164 126q-25 -5 -43 -5q-49 0 -81.5 29.5t-32.5 79.5q0 61 47 104t123 43q69 0 111 -35t42 -94zM263 581q24 0 38 16t14 40q0 42 -40 42q-25 0 -39.5 -18t-14.5 -41q0 -18 11.5 -28.5t30.5 -10.5z" />
    <glyph glyph-name="uni2080" unicode="&#x2080;" horiz-adv-x="420" 
d="M-20 34q0 97 56 162.5t146 65.5q85 0 132.5 -40.5t47.5 -115.5q0 -100 -56.5 -165t-148.5 -65q-82 0 -129.5 41.5t-47.5 116.5zM235 108q0 60 -51 60q-37 0 -58 -45q-20 -46 -20 -95q0 -58 52 -58q38 0 57 43q20 45 20 95z" />
    <glyph glyph-name="uni2081" unicode="&#x2081;" horiz-adv-x="298" 
d="M151 254h97l-79 -374h-122l59 279l-88 -56l-20 92z" />
    <glyph glyph-name="uni2082" unicode="&#x2082;" horiz-adv-x="369" 
d="M144 -24l-46 -17l200 21l-22 -100h-324l18 83l135 85q79 50 79 86q0 15 -9.5 23.5t-24.5 8.5q-37 0 -45 -42l-116 30q36 108 165 108q70 0 112.5 -32.5t42.5 -91.5q0 -56 -40 -93.5t-125 -68.5z" />
    <glyph glyph-name="uni2083" unicode="&#x2083;" horiz-adv-x="370" 
d="M224 65q67 -16 67 -78q0 -51 -41.5 -82t-110.5 -31q-71 0 -116.5 33t-51.5 85l124 18q-1 -22 11.5 -31.5t32.5 -9.5q40 0 40 33q0 31 -45 31h-22l14 72h26q42 0 48 28q3 17 -7.5 26t-28.5 9q-37 0 -45 -37l-116 33q39 98 165 98q66 0 109 -28.5t43 -80.5q0 -39 -25 -62.5
t-71 -25.5z" />
    <glyph glyph-name="uni2084" unicode="&#x2084;" horiz-adv-x="380" 
d="M317 254l-47 -222h38l-17 -79h-38l-15 -73h-115l15 73h-176l11 64l200 237h144zM75 32h80l43 145z" />
    <glyph glyph-name="uni2085" unicode="&#x2085;" horiz-adv-x="352" 
d="M293 163h-173l-30 -82q37 43 91 43q47 0 75 -27t28 -72q0 -68 -49 -108q-50 -41 -122 -41q-60 0 -105 25.5t-57 71.5l128 25q-1 -17 10 -27.5t27 -10.5q19 0 32 14.5t13 34.5q0 28 -31 32q-23 2 -41 -21l-98 27l65 207h266z" />
    <glyph glyph-name="uni2086" unicode="&#x2086;" horiz-adv-x="372" 
d="M298 22q0 -61 -47 -104t-123 -43q-69 0 -111 35t-42 94q0 36 17 66.5t62 85.5l78 96h173l-164 -126q25 5 43 5q49 0 81.5 -29.5t32.5 -79.5zM180 18q0 18 -11.5 28.5t-30.5 10.5q-24 0 -38 -16t-14 -40q0 -42 40 -42q25 0 39.5 18t14.5 41z" />
    <glyph glyph-name="uni2087" unicode="&#x2087;" horiz-adv-x="335" 
d="M26 252h299l-13 -67l-193 -305h-152l239 280h-211z" />
    <glyph glyph-name="uni2088" unicode="&#x2088;" horiz-adv-x="380" 
d="M301 -11q0 -53 -42.5 -83.5t-110.5 -30.5q-75 0 -128 28q-54 27 -54 81q0 43 25 67.5t75 36.5q-48 26 -48 68q0 51 38 79t102 28q68 0 117 -25q49 -24 49 -73q0 -76 -82 -95q59 -37 59 -81zM127 145q0 -15 11 -24t30 -9q18 0 29.5 11t11.5 29q0 32 -40 32
q-19 0 -30.5 -10.5t-11.5 -28.5zM183 6q0 16 -12 25.5t-32 9.5q-21 0 -33.5 -12t-12.5 -33q0 -15 11.5 -25t29.5 -10q21 0 35 12.5t14 32.5z" />
    <glyph glyph-name="uni2089" unicode="&#x2089;" horiz-adv-x="372" 
d="M318 128q0 -36 -17 -66.5t-62 -85.5l-78 -96h-173l164 126q-25 -5 -43 -5q-49 0 -81.5 29.5t-32.5 79.5q0 61 47 104t123 43q69 0 111 -35t42 -94zM155 75q24 0 38 16t14 40q0 42 -40 42q-25 0 -39.5 -18t-14.5 -41q0 -18 11.5 -28.5t30.5 -10.5z" />
    <glyph glyph-name="Euro" unicode="&#x20ac;" horiz-adv-x="684" 
d="M468 268l183 -54q-52 -110 -132.5 -167t-182.5 -57q-122 0 -195.5 65.5t-84.5 182.5h-73l16 75h57l7 55h-52l16 75h54q39 118 125 192t203 74q120 0 194.5 -64t85.5 -179l-194 -33q3 65 -19 94t-74 29q-72 0 -116 -113h155l-24 -75h-153q-6 -25 -9 -55h144l-24 -75h-124
q5 -95 93 -95q40 0 68.5 28.5t55.5 96.5z" />
    <glyph glyph-name="uni2116" unicode="&#x2116;" horiz-adv-x="1428" 
d="M722 700h172l-149 -700h-266l-182 506l-108 -506h-172l149 700h259l188 -507zM930 461q-2 108 72 183.5t182 73.5q101 0 165 -52.5t64 -142.5q0 -110 -72 -183.5t-182 -73.5q-101 0 -165 52.5t-64 142.5zM1263 523q0 39 -20 61t-59 22q-48 0 -76 -44t-28 -102
q0 -82 79 -82q47 0 75.5 44t28.5 101zM914 84l26 120h358l-26 -120h-358z" />
    <glyph glyph-name="trademark" unicode="&#x2122;" horiz-adv-x="832" 
d="M429 615h-105l-54 -253h-112l54 253h-104l18 85h321zM761 700h137l-72 -338h-109l47 220l-130 -170h-19l-56 175l-48 -225h-98l72 338h136l41 -128z" />
    <glyph glyph-name="oneeighth" unicode="&#x215b;" horiz-adv-x="868" 
d="M246 700h97l-79 -374h-122l59 279l-88 -56l-20 92zM677 700h124l-313 -349l-304 -351h-126l330 357zM815 109q0 -53 -42.5 -83.5t-110.5 -30.5q-74 0 -128 27q-54 28 -54 82q0 43 25 67.5t75 36.5q-48 26 -48 68q0 51 38 79t102 28q68 0 117 -25q49 -24 49 -73
q0 -76 -82 -95q59 -37 59 -81zM641 265q0 -15 11 -24t30 -9q18 0 29.5 11t11.5 29q0 32 -40 32q-19 0 -30.5 -10.5t-11.5 -28.5zM697 126q0 16 -12 25.5t-32 9.5q-21 0 -33.5 -12t-12.5 -33q0 -15 11.5 -25t29.5 -10q21 0 35 12.5t14 32.5z" />
    <glyph glyph-name="threeeighths" unicode="&#x215c;" horiz-adv-x="910" 
d="M319 511q67 -16 67 -78q0 -51 -41.5 -82t-110.5 -31q-71 0 -116.5 33t-51.5 85l124 18q-1 -22 11.5 -31.5t32.5 -9.5q40 0 40 33q0 31 -45 31h-22l14 72h26q42 0 48 28q3 17 -7.5 26t-28.5 9q-37 0 -45 -37l-116 33q39 98 165 98q66 0 109 -28.5t43 -80.5
q0 -39 -25 -62.5t-71 -25.5zM719 700h124l-313 -349l-304 -351h-126l330 357zM857 109q0 -53 -42.5 -83.5t-110.5 -30.5q-74 0 -128 27q-54 28 -54 82q0 43 25 67.5t75 36.5q-48 26 -48 68q0 51 38 79t102 28q68 0 117 -25q49 -24 49 -73q0 -76 -82 -95q59 -37 59 -81z
M683 265q0 -15 11 -24t30 -9q18 0 29.5 11t11.5 29q0 32 -40 32q-19 0 -30.5 -10.5t-11.5 -28.5zM739 126q0 16 -12 25.5t-32 9.5q-21 0 -33.5 -12t-12.5 -33q0 -15 11.5 -25t29.5 -10q21 0 35 12.5t14 32.5z" />
    <glyph glyph-name="fiveeighths" unicode="&#x215d;" horiz-adv-x="912" 
d="M388 609h-173l-30 -82q37 43 91 43q47 0 75 -27t28 -72q0 -68 -49 -108q-50 -41 -122 -41q-60 0 -105 25.5t-57 71.5l128 25q-1 -17 10 -27.5t27 -10.5q19 0 32 14.5t13 34.5q0 28 -31 32q-23 2 -41 -21l-98 27l65 207h266zM721 700h124l-313 -349l-304 -351h-126
l330 357zM859 109q0 -53 -42.5 -83.5t-110.5 -30.5q-74 0 -128 27q-54 28 -54 82q0 43 25 67.5t75 36.5q-48 26 -48 68q0 51 38 79t102 28q68 0 117 -25q49 -24 49 -73q0 -76 -82 -95q59 -37 59 -81zM685 265q0 -15 11 -24t30 -9q18 0 29.5 11t11.5 29q0 32 -40 32
q-19 0 -30.5 -10.5t-11.5 -28.5zM741 126q0 16 -12 25.5t-32 9.5q-21 0 -33.5 -12t-12.5 -33q0 -15 11.5 -25t29.5 -10q21 0 35 12.5t14 32.5z" />
    <glyph glyph-name="seveneighths" unicode="&#x215e;" horiz-adv-x="825" 
d="M122 700h299l-13 -67l-193 -305h-152l239 280h-211zM634 700h124l-313 -349l-304 -351h-126l330 357zM772 109q0 -53 -42.5 -83.5t-110.5 -30.5q-74 0 -128 27q-54 28 -54 82q0 43 25 67.5t75 36.5q-48 26 -48 68q0 51 38 79t102 28q68 0 117 -25q49 -24 49 -73
q0 -76 -82 -95q59 -37 59 -81zM598 265q0 -15 11 -24t30 -9q18 0 29.5 11t11.5 29q0 32 -40 32q-19 0 -30.5 -10.5t-11.5 -28.5zM654 126q0 16 -12 25.5t-32 9.5q-21 0 -33.5 -12t-12.5 -33q0 -15 11.5 -25t29.5 -10q21 0 35 12.5t14 32.5z" />
    <glyph glyph-name="arrowup" unicode="&#x2191;" horiz-adv-x="776" 
d="M750 363l-129 -124l-124 217l8 -456h-186l10 452l-125 -213l-130 123l326 338h24z" />
    <glyph glyph-name="arrowdown" unicode="&#x2193;" horiz-adv-x="777" 
d="M616 461l129 -124l-326 -337h-24l-326 338l130 123l125 -213l-10 452h186l-8 -456z" />
    <glyph glyph-name="uni2196" unicode="&#x2196;" horiz-adv-x="929" 
d="M856 119l-131 -131l-472 480l67 -264l-178 -4l-7 480l17 20h488l-5 -181l-260 63z" />
    <glyph glyph-name="uni2197" unicode="&#x2197;" horiz-adv-x="786" 
d="M721 700l17 -20l-7 -480l-178 4l67 264l-472 -480l-131 131l481 463l-260 -63l-5 181h488z" />
    <glyph glyph-name="uni2198" unicode="&#x2198;" horiz-adv-x="929" 
d="M829 500l7 -480l-17 -20h-488l5 181l260 -63l-481 463l131 131l472 -480l-67 264z" />
    <glyph glyph-name="uni2199" unicode="&#x2199;" horiz-adv-x="786" 
d="M330 118l260 63l5 -181h-488l-17 20l7 480l178 -4l-67 -264l472 480l131 -131z" />
    <glyph glyph-name="minus" unicode="&#x2212;" horiz-adv-x="559" 
d="M38 263l27 130h489l-27 -130h-489z" />
    <glyph glyph-name="approxequal" unicode="&#x2248;" horiz-adv-x="532" 
d="M113 315l-57 38q45 134 148 134q42 0 117 -24q63 -19 87 -19q28 0 49.5 15t28.5 36l55 -38q-39 -134 -145 -134q-41 0 -118 24q-63 19 -88 19q-27 0 -47.5 -15t-29.5 -36zM71 119l-56 38q45 134 148 134q43 0 115 -24q63 -19 89 -19q27 0 49 15t28 36l56 -38
q-43 -134 -145 -134q-36 0 -119 24q-63 19 -88 19q-27 0 -47.5 -15t-29.5 -36z" />
    <glyph glyph-name="notequal" unicode="&#x2260;" horiz-adv-x="532" 
d="M504 353h-147l-51 -83h180l-25 -121h-231l-65 -105h-119l65 105h-82l25 121h133l51 83h-166l26 121h216l64 103h119l-64 -103h97z" />
    <glyph glyph-name="lessequal" unicode="&#x2264;" horiz-adv-x="494" 
d="M510 561l-27 -134l-267 -69l237 -69l-27 -129l-374 149l21 103zM-14 0l23 110h406l-23 -110h-406z" />
    <glyph glyph-name="greaterequal" unicode="&#x2265;" horiz-adv-x="495" 
d="M116 561l374 -149l-21 -103l-438 -149l28 137l267 69l-237 69zM-3 0l23 110h406l-23 -110h-406z" />
    <glyph glyph-name="NULL" horiz-adv-x="0" 
 />
    <glyph glyph-name="CR" horiz-adv-x="333" 
 />
    <glyph glyph-name="G.ss06" horiz-adv-x="810" 
d="M455 375h355l-11 -58q-28 -150 -134.5 -238.5t-253.5 -88.5q-155 -2 -258.5 87t-101.5 229q-2 109 53 203t151 148.5t208 52.5q132 0 226.5 -65.5t115.5 -178.5l-192 -38q-7 60 -46.5 93t-105.5 33q-89 0 -145 -74t-56 -175q0 -76 43 -118t119 -42q107 0 147 91h-143z
" />
    <glyph glyph-name="Gbreve.ss06" horiz-adv-x="810" 
d="M455 375h355l-11 -58q-28 -150 -134.5 -238.5t-253.5 -88.5q-155 -2 -258.5 87t-101.5 229q-2 109 53 203t151 148.5t208 52.5q132 0 226.5 -65.5t115.5 -178.5l-192 -38q-7 60 -46.5 93t-105.5 33q-89 0 -145 -74t-56 -175q0 -76 43 -118t119 -42q107 0 147 91h-143z
M387 873q0 1 2 25h110q-2 -15 12 -26t37 -11q42 0 55 37h110q-19 -69 -66.5 -107.5t-115.5 -38.5q-66 0 -105 32.5t-39 88.5z" />
    <glyph glyph-name="Gcommaaccent.ss06" horiz-adv-x="810" 
d="M455 375h355l-11 -58q-28 -150 -134.5 -238.5t-253.5 -88.5q-155 -2 -258.5 87t-101.5 229q-2 109 53 203t151 148.5t208 52.5q132 0 226.5 -65.5t115.5 -178.5l-192 -38q-7 60 -46.5 93t-105.5 33q-89 0 -145 -74t-56 -175q0 -76 43 -118t119 -42q107 0 147 91h-143z
M204 -326l-1 59q5 -1 27 -1q77 0 77 33q0 7 -14 18q-35 21 -48.5 39t-13.5 47q0 37 25.5 61.5t64.5 24.5q44 0 70 -27t26 -73q0 -86 -46 -135t-128 -49q-18 0 -39 3z" />
    <glyph glyph-name="K.ss08" horiz-adv-x="752" 
d="M846 700l-332 -309l190 -391h-251l-87 253l-119 -110l-30 -143h-200l149 700h200l-64 -300l315 300h229z" />
    <glyph glyph-name="Kcommaaccent.ss08" horiz-adv-x="752" 
d="M846 700l-332 -309l190 -391h-251l-87 253l-119 -110l-30 -143h-200l149 700h200l-64 -300l315 300h229zM199 -326l-1 59q5 -1 27 -1q77 0 77 33q0 7 -14 18q-35 21 -48.5 39t-13.5 47q0 37 25.5 61.5t64.5 24.5q44 0 70 -27t26 -73q0 -86 -46 -135t-128 -49q-18 0 -39 3
z" />
    <glyph glyph-name="M.ss09" horiz-adv-x="1065" 
d="M788 700h303l-149 -700h-196l115 540l-317 -540h-150l-86 536l-114 -536h-177l149 700h304l70 -419z" />
    <glyph glyph-name="G.ss10" horiz-adv-x="838" 
d="M430 234l29 139h344l-78 -373h-115l-8 90q-79 -100 -214 -100q-144 -2 -241 86.5t-96 225.5q-3 170 118.5 290t293.5 118q133 0 226 -63t117 -176l-192 -43q-6 62 -45.5 94.5t-106.5 32.5q-89 0 -145.5 -75.5t-56.5 -175.5q0 -75 43.5 -118t118.5 -43q104 0 151 91h-143z
" />
    <glyph glyph-name="Gbreve.ss10" horiz-adv-x="838" 
d="M430 234l29 139h344l-78 -373h-115l-8 90q-79 -100 -214 -100q-144 -2 -241 86.5t-96 225.5q-3 170 118.5 290t293.5 118q133 0 226 -63t117 -176l-192 -43q-6 62 -45.5 94.5t-106.5 32.5q-89 0 -145.5 -75.5t-56.5 -175.5q0 -75 43.5 -118t118.5 -43q104 0 151 91h-143z
M400 875q0 1 2 25h110q-2 -15 12 -26t37 -11q42 0 55 37h110q-19 -69 -66.5 -107.5t-115.5 -38.5q-66 0 -105 32.5t-39 88.5z" />
    <glyph glyph-name="Gcommaaccent.ss10" horiz-adv-x="838" 
d="M430 234l29 139h344l-78 -373h-115l-8 90q-79 -100 -214 -100q-144 -2 -241 86.5t-96 225.5q-3 170 118.5 290t293.5 118q133 0 226 -63t117 -176l-192 -43q-6 62 -45.5 94.5t-106.5 32.5q-89 0 -145.5 -75.5t-56.5 -175.5q0 -75 43.5 -118t118.5 -43q104 0 151 91h-143z
M212 -326l-1 59q5 -1 27 -1q77 0 77 33q0 7 -14 18q-35 21 -48.5 39t-13.5 47q0 37 25.5 61.5t64.5 24.5q44 0 70 -27t26 -73q0 -86 -46 -135t-128 -49q-18 0 -39 3z" />
    <glyph glyph-name="i.loclTRK" horiz-adv-x="279" 
d="M-1 0l106 500h175l-106 -500h-175zM130 651q0 42 30 70.5t73 28.5t73 -28.5t30 -70.5t-30 -70t-73 -28t-73 28t-30 70z" />
    <glyph glyph-name="j.alt" horiz-adv-x="289" 
d="M127 651q0 42 30 70.5t73 28.5t73 -28.5t30 -70.5t-30 -70t-73 -28t-73 28t-30 70zM-108 -220l24 115q30 0 51 16.5t27 46.5l115 542h176l-116 -544q-18 -82 -90 -129t-187 -47z" />
    <glyph glyph-name="germandbls.calt" horiz-adv-x="771" 
d="M625 328q56 -36 80.5 -65t26.5 -81q0 -88 -72.5 -140t-181.5 -52q-86 0 -181 37l61 151q35 -27 54 -36t47 -9q30 0 48.5 13.5t18.5 36.5q0 16 -12 28t-42 29q-44 26 -61.5 46t-17.5 54q0 54 40 99t125 96q-48 22 -99 22q-69 0 -113 -39.5t-58 -111.5l-85 -406h-201
l100 477q23 113 113 173t216 60q85 0 172 -28q91 -29 152 -69l-24 -115l-30 -17q-79 -46 -105 -64.5t-26 -33.5q0 -12 12.5 -24t42.5 -31z" />
    <glyph glyph-name="a.ss01" horiz-adv-x="640" 
d="M466 500h175l-106 -500h-175l16 74q-63 -84 -154 -84q-89 0 -144 57.5t-55 149.5q-2 127 73.5 221.5t188.5 91.5q133 0 161 -106zM420 276q0 46 -25.5 74t-69.5 28q-54 0 -90 -48t-36 -109q0 -46 26 -73.5t71 -27.5q54 0 89 47.5t35 108.5z" />
    <glyph glyph-name="aacute.ss01" horiz-adv-x="640" 
d="M466 500h175l-106 -500h-175l16 74q-63 -84 -154 -84q-89 0 -144 57.5t-55 149.5q-2 127 73.5 221.5t188.5 91.5q133 0 161 -106zM420 276q0 46 -25.5 74t-69.5 28q-54 0 -90 -48t-36 -109q0 -46 26 -73.5t71 -27.5q54 0 89 47.5t35 108.5zM293 557l92 143h250l-189 -143
h-153z" />
    <glyph glyph-name="abreve.ss01" horiz-adv-x="640" 
d="M466 500h175l-106 -500h-175l16 74q-63 -84 -154 -84q-89 0 -144 57.5t-55 149.5q-2 127 73.5 221.5t188.5 91.5q133 0 161 -106zM420 276q0 46 -25.5 74t-69.5 28q-54 0 -90 -48t-36 -109q0 -46 26 -73.5t71 -27.5q54 0 89 47.5t35 108.5zM235 675q0 1 2 25h110
q-2 -15 12 -26t37 -11q42 0 55 37h110q-19 -69 -66.5 -107.5t-115.5 -38.5q-66 0 -105 32.5t-39 88.5z" />
    <glyph glyph-name="acircumflex.ss01" horiz-adv-x="640" 
d="M466 500h175l-106 -500h-175l16 74q-63 -84 -154 -84q-89 0 -144 57.5t-55 149.5q-2 127 73.5 221.5t188.5 91.5q133 0 161 -106zM420 276q0 46 -25.5 74t-69.5 28q-54 0 -90 -48t-36 -109q0 -46 26 -73.5t71 -27.5q54 0 89 47.5t35 108.5zM557 557h-129l-49 45l-71 -45
h-134l162 143h125z" />
    <glyph glyph-name="adieresis.ss01" horiz-adv-x="640" 
d="M182 652q0 41 27.5 68t66.5 27t66.5 -27t27.5 -68t-27 -67.5t-67 -26.5t-67 26.5t-27 67.5zM408 652q0 41 27.5 68t66.5 27t66.5 -27t27.5 -68t-27 -67.5t-67 -26.5t-67 26.5t-27 67.5zM466 500h175l-106 -500h-175l16 74q-63 -84 -154 -84q-89 0 -144 57.5t-55 149.5
q-2 127 73.5 221.5t188.5 91.5q133 0 161 -106zM420 276q0 46 -25.5 74t-69.5 28q-54 0 -90 -48t-36 -109q0 -46 26 -73.5t71 -27.5q54 0 89 47.5t35 108.5z" />
    <glyph glyph-name="agrave.ss01" horiz-adv-x="640" 
d="M466 500h175l-106 -500h-175l16 74q-63 -84 -154 -84q-89 0 -144 57.5t-55 149.5q-2 127 73.5 221.5t188.5 91.5q133 0 161 -106zM420 276q0 46 -25.5 74t-69.5 28q-54 0 -90 -48t-36 -109q0 -46 26 -73.5t71 -27.5q54 0 89 47.5t35 108.5zM468 557h-149l-129 143h247z
" />
    <glyph glyph-name="amacron.ss01" horiz-adv-x="640" 
d="M466 500h175l-106 -500h-175l16 74q-63 -84 -154 -84q-89 0 -144 57.5t-55 149.5q-2 127 73.5 221.5t188.5 91.5q133 0 161 -106zM420 276q0 46 -25.5 74t-69.5 28q-54 0 -90 -48t-36 -109q0 -46 26 -73.5t71 -27.5q54 0 89 47.5t35 108.5zM248 701h303l-23 -108h-303z
" />
    <glyph glyph-name="aogonek.ss01" horiz-adv-x="640" 
d="M420 -58q-1 -1 -1 -7q0 -17 18 -18h6q13 0 26 7l4 -98q-27 -7 -62 -7q-55 0 -96 22q-42 21 -42 62q0 32 20.5 54.5t67.5 46.5l15 70q-63 -84 -154 -84q-89 0 -144 57.5t-55 149.5q-2 127 73.5 221.5t188.5 91.5q133 0 161 -106l20 96h175l-106 -500h-69q-42 -37 -46 -58z
M420 276q0 46 -25.5 74t-69.5 28q-54 0 -90 -48t-36 -109q0 -46 26 -73.5t71 -27.5q54 0 89 47.5t35 108.5z" />
    <glyph glyph-name="aring.ss01" horiz-adv-x="640" 
d="M466 500h175l-106 -500h-175l16 74q-63 -84 -154 -84q-89 0 -144 57.5t-55 149.5q-2 127 73.5 221.5t188.5 91.5q133 0 161 -106zM420 276q0 46 -25.5 74t-69.5 28q-54 0 -90 -48t-36 -109q0 -46 26 -73.5t71 -27.5q54 0 89 47.5t35 108.5zM272 647q0 50 37.5 86.5
t90.5 36.5q48 0 80 -27.5t32 -71.5q0 -50 -37.5 -86.5t-90.5 -36.5q-49 0 -80.5 27.5t-31.5 71.5zM441 666q0 19 -12 30t-33 11q-23 0 -38 -16t-15 -39q0 -19 12 -30.5t33 -11.5q22 0 37.5 16t15.5 40z" />
    <glyph glyph-name="atilde.ss01" horiz-adv-x="640" 
d="M466 500h175l-106 -500h-175l16 74q-63 -84 -154 -84q-89 0 -144 57.5t-55 149.5q-2 127 73.5 221.5t188.5 91.5q133 0 161 -106zM420 276q0 46 -25.5 74t-69.5 28q-54 0 -90 -48t-36 -109q0 -46 26 -73.5t71 -27.5q54 0 89 47.5t35 108.5zM370 600q-21 17 -36 17
q-33 0 -64 -49l-71 34q20 67 54 102t77 35q35 0 75 -28q24 -18 40 -18q18 0 32 11.5t32 37.5l71 -34q-18 -64 -54.5 -100t-80.5 -36q-34 0 -75 28z" />
    <glyph glyph-name="l.ss02" horiz-adv-x="309" 
d="M140 700h175l-112 -526q-3 -12 -3 -21q0 -33 34 -33q23 0 51 14l-16 -134q-50 -10 -93 -10q-77 0 -116 33t-39 94q0 26 5 49z" />
    <glyph glyph-name="lacute.ss02" horiz-adv-x="309" 
d="M140 700h175l-112 -526q-3 -12 -3 -21q0 -33 34 -33q23 0 51 14l-16 -134q-50 -10 -93 -10q-77 0 -116 33t-39 94q0 26 5 49zM173 757l92 143h250l-189 -143h-153z" />
    <glyph glyph-name="lcaron.ss02" horiz-adv-x="309" 
d="M140 700h175l-112 -526q-3 -12 -3 -21q0 -33 34 -33q23 0 51 14l-16 -134q-50 -10 -93 -10q-77 0 -116 33t-39 94q0 26 5 49zM82 900h129l49 -45l71 45h134l-162 -143h-125z" />
    <glyph glyph-name="lcommaaccent.ss02" horiz-adv-x="309" 
d="M140 700h175l-112 -526q-3 -12 -3 -21q0 -33 34 -33q23 0 51 14l-16 -134q-50 -10 -93 -10q-77 0 -116 33t-39 94q0 26 5 49zM-18 -326l-1 59q5 -1 27 -1q77 0 77 33q0 7 -14 18q-35 21 -48.5 39t-13.5 47q0 37 25.5 61.5t64.5 24.5q44 0 70 -27t26 -73q0 -86 -46 -135
t-128 -49q-18 0 -39 3z" />
    <glyph glyph-name="lslash.ss02" horiz-adv-x="351" 
d="M256 352l-38 -178q-3 -12 -3 -21q0 -33 34 -33q23 0 51 14l-16 -134q-50 -10 -93 -10q-77 0 -116 33t-39 94q0 26 5 49l21 97l-50 -23l28 134l50 23l65 303h175l-45 -214l53 25l-28 -134z" />
    <glyph glyph-name="y.ss03" horiz-adv-x="604" 
d="M429 500h175l-111 -527q-19 -91 -96 -142q-76 -51 -184 -51q-91 0 -157.5 35.5t-90.5 100.5l168 43q16 -55 84 -55q40 0 67 18.5t34 50.5l21 102q-51 -75 -148 -75q-73 0 -114 41t-41 113q0 27 6 57l60 289h176l-57 -278q-3 -12 -3 -23q0 -59 69 -59q56 0 79 62z" />
    <glyph glyph-name="yacute.ss03" horiz-adv-x="604" 
d="M429 500h175l-111 -527q-19 -91 -96 -142q-76 -51 -184 -51q-91 0 -157.5 35.5t-90.5 100.5l168 43q16 -55 84 -55q40 0 67 18.5t34 50.5l21 102q-51 -75 -148 -75q-73 0 -114 41t-41 113q0 27 6 57l60 289h176l-57 -278q-3 -12 -3 -23q0 -59 69 -59q56 0 79 62zM287 557
l92 143h250l-189 -143h-153z" />
    <glyph glyph-name="ycircumflex.ss03" horiz-adv-x="604" 
d="M429 500h175l-111 -527q-19 -91 -96 -142q-76 -51 -184 -51q-91 0 -157.5 35.5t-90.5 100.5l168 43q16 -55 84 -55q40 0 67 18.5t34 50.5l21 102q-51 -75 -148 -75q-73 0 -114 41t-41 113q0 27 6 57l60 289h176l-57 -278q-3 -12 -3 -23q0 -59 69 -59q56 0 79 62zM551 557
h-129l-49 45l-71 -45h-134l162 143h125z" />
    <glyph glyph-name="ydieresis.ss03" horiz-adv-x="604" 
d="M176 652q0 41 27.5 68t66.5 27t66.5 -27t27.5 -68t-27 -67.5t-67 -26.5t-67 26.5t-27 67.5zM402 652q0 41 27.5 68t66.5 27t66.5 -27t27.5 -68t-27 -67.5t-67 -26.5t-67 26.5t-27 67.5zM429 500h175l-111 -527q-19 -91 -96 -142q-76 -51 -184 -51q-91 0 -157.5 35.5
t-90.5 100.5l168 43q16 -55 84 -55q40 0 67 18.5t34 50.5l21 102q-51 -75 -148 -75q-73 0 -114 41t-41 113q0 27 6 57l60 289h176l-57 -278q-3 -12 -3 -23q0 -59 69 -59q56 0 79 62z" />
    <glyph glyph-name="ygrave.ss03" horiz-adv-x="604" 
d="M429 500h175l-111 -527q-19 -91 -96 -142q-76 -51 -184 -51q-91 0 -157.5 35.5t-90.5 100.5l168 43q16 -55 84 -55q40 0 67 18.5t34 50.5l21 102q-51 -75 -148 -75q-73 0 -114 41t-41 113q0 27 6 57l60 289h176l-57 -278q-3 -12 -3 -23q0 -59 69 -59q56 0 79 62zM453 557
h-149l-129 143h247z" />
    <glyph glyph-name="u.ss04" horiz-adv-x="586" 
d="M593 500l-66 -313q-19 -90 -83 -143.5t-166 -53.5q-111 0 -175.5 51t-64.5 141q0 26 6 56l55 262h176l-64 -303q-2 -16 -2 -17q0 -29 18 -44t49 -15q29 0 49 17t25 44l67 318h176z" />
    <glyph glyph-name="uacute.ss04" horiz-adv-x="586" 
d="M593 500l-66 -313q-19 -90 -83 -143.5t-166 -53.5q-111 0 -175.5 51t-64.5 141q0 26 6 56l55 262h176l-64 -303q-2 -16 -2 -17q0 -29 18 -44t49 -15q29 0 49 17t25 44l67 318h176zM281 557l92 143h250l-189 -143h-153z" />
    <glyph glyph-name="ucircumflex.ss04" horiz-adv-x="586" 
d="M593 500l-66 -313q-19 -90 -83 -143.5t-166 -53.5q-111 0 -175.5 51t-64.5 141q0 26 6 56l55 262h176l-64 -303q-2 -16 -2 -17q0 -29 18 -44t49 -15q29 0 49 17t25 44l67 318h176zM545 557h-129l-49 45l-71 -45h-134l162 143h125z" />
    <glyph glyph-name="udieresis.ss04" horiz-adv-x="586" 
d="M170 652q0 41 27.5 68t66.5 27t66.5 -27t27.5 -68t-27 -67.5t-67 -26.5t-67 26.5t-27 67.5zM396 652q0 41 27.5 68t66.5 27t66.5 -27t27.5 -68t-27 -67.5t-67 -26.5t-67 26.5t-27 67.5zM593 500l-66 -313q-19 -90 -83 -143.5t-166 -53.5q-111 0 -175.5 51t-64.5 141
q0 26 6 56l55 262h176l-64 -303q-2 -16 -2 -17q0 -29 18 -44t49 -15q29 0 49 17t25 44l67 318h176z" />
    <glyph glyph-name="ugrave.ss04" horiz-adv-x="586" 
d="M593 500l-66 -313q-19 -90 -83 -143.5t-166 -53.5q-111 0 -175.5 51t-64.5 141q0 26 6 56l55 262h176l-64 -303q-2 -16 -2 -17q0 -29 18 -44t49 -15q29 0 49 17t25 44l67 318h176zM449 557h-149l-129 143h247z" />
    <glyph glyph-name="uhungarumlaut.ss04" horiz-adv-x="586" 
d="M593 500l-66 -313q-19 -90 -83 -143.5t-166 -53.5q-111 0 -175.5 51t-64.5 141q0 26 6 56l55 262h176l-64 -303q-2 -16 -2 -17q0 -29 18 -44t49 -15q29 0 49 17t25 44l67 318h176zM693 700l-189 -143h-102l59 103l-137 -103h-102l81 143h390z" />
    <glyph glyph-name="umacron.ss04" horiz-adv-x="586" 
d="M593 500l-66 -313q-19 -90 -83 -143.5t-166 -53.5q-111 0 -175.5 51t-64.5 141q0 26 6 56l55 262h176l-64 -303q-2 -16 -2 -17q0 -29 18 -44t49 -15q29 0 49 17t25 44l67 318h176zM236 701h303l-23 -108h-303z" />
    <glyph glyph-name="uogonek.ss04" horiz-adv-x="586" 
d="M417 500h176l-66 -313q-24 -111 -109 -161h3q-56 -36 -74 -52.5t-18 -33.5t18 -17q17 0 33 10l4 -96q-42 -15 -90 -15q-50 0 -81.5 18.5t-31.5 53.5q0 60 85 96q-105 2 -166.5 53.5t-61.5 138.5q0 26 6 56l55 262h176l-64 -303q-2 -16 -2 -17q0 -29 18 -44t49 -15
q29 0 49 17t25 44z" />
    <glyph glyph-name="uring.ss04" horiz-adv-x="586" 
d="M593 500l-66 -313q-19 -90 -83 -143.5t-166 -53.5q-111 0 -175.5 51t-64.5 141q0 26 6 56l55 262h176l-64 -303q-2 -16 -2 -17q0 -29 18 -44t49 -15q29 0 49 17t25 44l67 318h176zM260 647q0 50 37.5 86.5t90.5 36.5q48 0 80 -27.5t32 -71.5q0 -50 -37.5 -86.5
t-90.5 -36.5q-49 0 -80.5 27.5t-31.5 71.5zM429 666q0 19 -12 30t-33 11q-23 0 -38 -16t-15 -39q0 -19 12 -30.5t33 -11.5q22 0 37.5 16t15.5 40z" />
    <glyph glyph-name="g.ss07" horiz-adv-x="606" 
d="M531 441q37 -38 37 -94q2 -75 -79 -128t-181 -51q-61 0 -108 11q-19 -16 -19 -30q0 -26 49 -26h90q91 0 146.5 -42t55.5 -111q0 -85 -85 -137.5t-224 -52.5q-132 0 -203.5 36t-71.5 103q0 54 45 81.5t120 28.5q-78 29 -78 94q0 63 90 91q-57 40 -57 115q0 77 72.5 129
t180.5 52q72 0 129 -17q37 47 62 154l138 -127q-43 -51 -109 -79zM380 356q0 62 -62 62q-38 0 -58.5 -27t-20.5 -70q0 -62 59 -62q40 0 61 28.5t21 68.5zM95 -70q0 -56 123 -56q60 0 96 15.5t36 41.5q0 21 -17.5 34t-46.5 13h-92q-99 0 -99 -48z" />
    <glyph glyph-name="gbreve.ss07" horiz-adv-x="606" 
d="M531 441q37 -38 37 -94q2 -75 -79 -128t-181 -51q-61 0 -108 11q-19 -16 -19 -30q0 -26 49 -26h90q91 0 146.5 -42t55.5 -111q0 -85 -85 -137.5t-224 -52.5q-132 0 -203.5 36t-71.5 103q0 54 45 81.5t120 28.5q-78 29 -78 94q0 63 90 91q-57 40 -57 115q0 77 72.5 129
t180.5 52q72 0 129 -17q32 40 56 129q-54 -68 -144 -68q-66 0 -105 32.5t-39 88.5q0 1 2 25h110q-2 -15 12 -26t37 -11q42 0 55 37h110q-6 -27 -25 -59l131 -121q-43 -51 -109 -79zM380 356q0 62 -62 62q-38 0 -58.5 -27t-20.5 -70q0 -62 59 -62q40 0 61 28.5t21 68.5z
M95 -70q0 -56 123 -56q60 0 96 15.5t36 41.5q0 21 -17.5 34t-46.5 13h-92q-99 0 -99 -48z" />
    <glyph glyph-name="gcommaaccent.ss07" horiz-adv-x="606" 
d="M531 441q37 -38 37 -94q2 -75 -79 -128t-181 -51q-61 0 -108 11q-19 -16 -19 -30q0 -26 49 -26h90q91 0 146.5 -42t55.5 -111q0 -85 -85 -137.5t-224 -52.5q-132 0 -203.5 36t-71.5 103q0 54 45 81.5t120 28.5q-78 29 -78 94q0 63 90 91q-57 40 -57 115q0 77 72.5 129
t180.5 52q72 0 129 -17q37 47 62 154l138 -127q-43 -51 -109 -79zM380 356q0 62 -62 62q-38 0 -58.5 -27t-20.5 -70q0 -62 59 -62q40 0 61 28.5t21 68.5zM95 -70q0 -56 123 -56q60 0 96 15.5t36 41.5q0 21 -17.5 34t-46.5 13h-92q-99 0 -99 -48zM481 831l1 -59q-5 1 -27 1
q-77 0 -77 -33q0 -7 14 -18q35 -21 48.5 -39t13.5 -47q0 -37 -25.5 -61.5t-64.5 -24.5q-44 0 -70 27t-26 73q0 86 46 135t128 49q18 0 39 -3z" />
    <glyph glyph-name="k.ss08" horiz-adv-x="590" 
d="M644 500l-240 -210l144 -290h-220l-64 169l-64 -56l-24 -113h-175l149 700h175l-81 -381l198 181h202z" />
    <glyph glyph-name="kcommaaccent.ss08" horiz-adv-x="590" 
d="M644 500l-240 -210l144 -290h-220l-64 169l-64 -56l-24 -113h-175l149 700h175l-81 -381l198 181h202zM122 -326l-1 59q5 -1 27 -1q77 0 77 33q0 7 -14 18q-35 21 -48.5 39t-13.5 47q0 37 25.5 61.5t64.5 24.5q44 0 70 -27t26 -73q0 -86 -46 -135t-128 -49q-18 0 -39 3z
" />
    <glyph glyph-name="y.ss11" horiz-adv-x="569" 
d="M428 500h186l-330 -578q-37 -66 -110 -104q-71 -38 -150 -38q-62 0 -103 16l37 127q37 -28 83 -28q62 0 102 75l20 38l-102 492h194l37 -277z" />
    <glyph glyph-name="yacute.ss11" horiz-adv-x="569" 
d="M428 500h186l-330 -578q-37 -66 -110 -104q-71 -38 -150 -38q-62 0 -103 16l37 127q37 -28 83 -28q62 0 102 75l20 38l-102 492h194l37 -277zM263 557l92 143h250l-189 -143h-153z" />
    <glyph glyph-name="ycircumflex.ss11" horiz-adv-x="569" 
d="M428 500h186l-330 -578q-37 -66 -110 -104q-71 -38 -150 -38q-62 0 -103 16l37 127q37 -28 83 -28q62 0 102 75l20 38l-102 492h194l37 -277zM527 557h-129l-49 45l-71 -45h-134l162 143h125z" />
    <glyph glyph-name="ydieresis.ss11" horiz-adv-x="569" 
d="M152 652q0 41 27.5 68t66.5 27t66.5 -27t27.5 -68t-27 -67.5t-67 -26.5t-67 26.5t-27 67.5zM378 652q0 41 27.5 68t66.5 27t66.5 -27t27.5 -68t-27 -67.5t-67 -26.5t-67 26.5t-27 67.5zM428 500h186l-330 -578q-37 -66 -110 -104q-71 -38 -150 -38q-62 0 -103 16l37 127
q37 -28 83 -28q62 0 102 75l20 38l-102 492h194l37 -277z" />
    <glyph glyph-name="ygrave.ss11" horiz-adv-x="569" 
d="M428 500h186l-330 -578q-37 -66 -110 -104q-71 -38 -150 -38q-62 0 -103 16l37 127q37 -28 83 -28q62 0 102 75l20 38l-102 492h194l37 -277zM439 557h-149l-129 143h247z" />
    <glyph glyph-name="f_f" horiz-adv-x="743" 
d="M674 522l-5 -22h127l-25 -120h-127l-81 -380h-175l80 380h-180l-81 -380h-175l80 380h-70l25 120h71l5 24q18 86 92 136q76 50 184 50q40 0 64 -4l-25 -117q-21 6 -42 6q-82 0 -98 -73l-5 -22h181l5 24q18 86 92 136q76 50 184 50q46 0 86 -8l-26 -121q-23 14 -63 14
q-82 0 -98 -73z" />
    <glyph glyph-name="f_f_f" horiz-adv-x="1099" 
d="M1030 522l-5 -22h127l-25 -120h-127l-81 -380h-175l80 380h-180l-81 -380h-175l80 380h-180l-81 -380h-175l80 380h-70l25 120h71l5 24q18 86 92 136q76 50 184 50q40 0 64 -4l-25 -117q-21 6 -42 6q-82 0 -98 -73l-5 -22h181l5 24q18 86 92 136q76 50 184 50q40 0 64 -4
l-25 -117q-21 6 -42 6q-82 0 -98 -73l-5 -22h181l5 24q18 86 92 136q76 50 184 50q46 0 86 -8l-26 -121q-23 14 -63 14q-82 0 -98 -73z" />
    <glyph glyph-name="f_f_i" horiz-adv-x="1029" 
d="M1073 651q0 -42 -30 -70t-73 -28t-73 28t-30 70t30 70.5t73 28.5t73 -28.5t30 -70.5zM1025 500l-106 -500h-175l81 380h-181l-81 -380h-175l80 380h-180l-81 -380h-175l80 380h-70l25 120h71l5 24q18 86 92 136q76 50 184 50q40 0 64 -4l-25 -117q-21 6 -42 6
q-82 0 -98 -73l-5 -22h181l5 24q18 86 92 136q76 50 184 50q40 0 64 -4l-25 -117q-21 6 -42 6q-82 0 -98 -73l-5 -22h356z" />
    <glyph glyph-name="f_f_j" horiz-adv-x="1030" 
d="M1074 651q0 -42 -30 -70t-73 -28t-73 28t-30 70t30 70.5t73 28.5t73 -28.5t30 -70.5zM1026 500l-116 -544q-17 -81 -87.5 -128.5t-177.5 -47.5q-41 0 -73 13l26 117q26 -15 59 -15q30 0 51 16.5t27 46.5l90 422h-181l-81 -380h-175l80 380h-180l-81 -380h-175l80 380h-70
l25 120h71l5 24q18 86 92 136q76 50 184 50q40 0 64 -4l-25 -117q-21 6 -42 6q-82 0 -98 -73l-5 -22h181l5 24q18 86 92 136q76 50 184 50q40 0 64 -4l-25 -117q-21 6 -42 6q-82 0 -98 -73l-5 -22h357z" />
    <glyph glyph-name="f_f_l" horiz-adv-x="1025" 
d="M892 700h175l-149 -700h-175l81 380h-180l-81 -380h-175l80 380h-180l-81 -380h-175l80 380h-70l25 120h71l5 24q18 86 92 136q76 50 184 50q40 0 64 -4l-25 -117q-21 6 -42 6q-82 0 -98 -73l-5 -22h181l5 24q18 86 92 136q76 50 184 50q40 0 64 -4l-25 -117q-21 6 -42 6
q-82 0 -98 -73l-5 -22h180z" />
    <glyph glyph-name="f_j" horiz-adv-x="674" 
d="M718 651q0 -42 -30 -70t-73 -28t-73 28t-30 70t30 70.5t73 28.5t73 -28.5t30 -70.5zM670 500l-116 -544q-17 -81 -87.5 -128.5t-177.5 -47.5q-41 0 -73 13l26 117q26 -15 59 -15q30 0 51 16.5t27 46.5l90 422h-181l-81 -380h-175l80 380h-70l25 120h71l5 24q18 86 92 136
q76 50 184 50q40 0 64 -4l-25 -117q-21 6 -42 6q-82 0 -98 -73l-5 -22h357z" />
    <glyph glyph-name="f_l" horiz-adv-x="669" 
d="M536 700h175l-149 -700h-175l81 380h-180l-81 -380h-175l80 380h-70l25 120h71l5 24q18 86 92 136q76 50 184 50q40 0 64 -4l-25 -117q-21 6 -42 6q-82 0 -98 -73l-5 -22h180z" />
    <glyph glyph-name="f_f_l.ss02" horiz-adv-x="1063" 
d="M954 153q0 -33 34 -33q23 0 51 14l-16 -134q-50 -10 -93 -10q-77 0 -116 33t-39 94q0 26 5 49l46 214h-181l-81 -380h-175l80 380h-181l-81 -380h-175l80 380h-70l25 120h71l5 24q18 86 92 136q76 50 184 50q40 0 64 -4l-25 -117q-21 6 -42 6q-82 0 -98 -73l-5 -22h182
l5 24q18 86 92 136q76 50 184 50q40 0 64 -4l-25 -117q-21 6 -42 6q-82 0 -98 -73l-5 -22h181l43 200h175l-112 -526q-3 -12 -3 -21z" />
    <glyph glyph-name="f_l.ss02" horiz-adv-x="706" 
d="M597 153q0 -33 34 -33q23 0 51 14l-16 -134q-50 -10 -93 -10q-77 0 -116 33t-39 94q0 26 5 49l46 214h-181l-81 -380h-175l80 380h-70l25 120h71l5 24q18 86 92 136q76 50 184 50q40 0 64 -4l-25 -117q-21 6 -42 6q-82 0 -98 -73l-5 -22h181l43 200h175l-112 -526
q-3 -12 -3 -21z" />
    <glyph glyph-name="ordfeminine.ss01" horiz-adv-x="556" 
d="M454 709h150l-92 -434h-150l12 55q-50 -65 -123 -65q-80 0 -128 50.5t-48 131.5q-2 107 64.5 189t162.5 79q110 0 134 -93zM416 512q0 40 -22 63.5t-59 23.5q-48 0 -78 -43.5t-30 -100.5q0 -40 21.5 -62t60.5 -22q47 0 77 43.5t30 97.5zM72 84l26 120h358l-26 -120h-358z
" />
    <glyph glyph-name="uni0430.ss01" horiz-adv-x="640" 
d="M466 500h175l-106 -500h-175l16 74q-63 -84 -154 -84q-89 0 -144 57.5t-55 149.5q-2 127 73.5 221.5t188.5 91.5q133 0 161 -106zM420 276q0 46 -25.5 74t-69.5 28q-54 0 -90 -48t-36 -109q0 -46 26 -73.5t71 -27.5q54 0 89 47.5t35 108.5z" />
    <glyph glyph-name="zero.osf" horiz-adv-x="688" 
d="M45 254q-2 146 95 251.5t237 103.5q129 0 208.5 -70.5t79.5 -190.5q2 -146 -95.5 -252.5t-237.5 -103.5q-129 0 -208 71.5t-79 190.5zM479 347q0 55 -27 84.5t-78 29.5q-65 0 -104 -62.5t-39 -144.5q0 -55 27 -84.5t78 -29.5q64 0 103.5 63t39.5 144z" />
    <glyph glyph-name="one.osf" horiz-adv-x="615" 
d="M368 123h181l-26 -123h-547l26 123h182l70 331l-169 -97l-27 139l272 104h139z" />
    <glyph glyph-name="two.osf" horiz-adv-x="607" 
d="M271 142l-56 -20l333 22l-34 -144h-542l25 120l202 98l26 12q54 26 97 50q80 48 80 112q0 37 -24 57.5t-61 20.5q-42 0 -72.5 -26t-41.5 -79l-160 53q32 93 105.5 142t175.5 49q110 0 181.5 -55.5t71.5 -149.5q0 -70 -38 -117q-37 -46 -100 -78q-58 -28 -168 -67z" />
    <glyph glyph-name="three.osf" horiz-adv-x="620" 
d="M458 246q119 -35 119 -148q0 -95 -75.5 -151.5t-192.5 -56.5q-120 0 -202.5 59.5t-89.5 158.5l184 26q5 -45 34.5 -69.5t74.5 -24.5q42 0 68 21.5t26 57.5q0 35 -24.5 56.5t-70.5 21.5h-42l24 114h67q45 0 67.5 23.5t22.5 56.5q0 30 -23.5 49.5t-60.5 19.5
q-89 0 -118 -102l-175 48q31 98 109 150.5t190 52.5q109 0 185.5 -51.5t76.5 -145.5q0 -70 -45 -112.5t-129 -53.5z" />
    <glyph glyph-name="four.osf" horiz-adv-x="635" 
d="M659 600l-90 -421h72l-30 -140h-71l-30 -139h-185l29 139h-363l25 116l403 445h240zM484 480l-284 -301h185z" />
    <glyph glyph-name="five.osf" horiz-adv-x="620" 
d="M607 453h-327l-48 -161q68 77 165 77q86 0 140 -56.5t54 -148.5q2 -116 -86.5 -196t-216.5 -78q-104 0 -180 51t-89 137l183 50q4 -47 30 -72t66 -25q48 0 75 33.5t27 81.5q0 79 -79 79q-54 0 -92 -52l-166 45l109 382h485z" />
    <glyph glyph-name="six.osf" horiz-adv-x="640" 
d="M625 267q0 -116 -86.5 -196.5t-221.5 -80.5q-118 0 -196.5 62.5t-78.5 171.5q0 73 36.5 139.5t114.5 145.5l188 191h267l-298 -239q33 9 69 9q91 0 148.5 -54.5t57.5 -148.5zM438 257q0 42 -25.5 65.5t-69.5 23.5q-53 0 -84.5 -33t-31.5 -83q0 -44 25.5 -68.5t69.5 -24.5
q52 0 84 35t32 85z" />
    <glyph glyph-name="seven.osf" horiz-adv-x="620" 
d="M146 600h532l-26 -129l-364 -571h-242l427 547h-380z" />
    <glyph glyph-name="eight.osf" horiz-adv-x="620" 
d="M603 194q0 -91 -77 -147.5t-207 -56.5q-127 0 -216 52.5t-89 152.5q0 72 50 119t138 68q-94 46 -94 136q0 83 69 137.5t194 54.5q117 0 196.5 -48t79.5 -141q0 -65 -41 -108.5t-116 -61.5q57 -29 85 -66t28 -91zM283 496q0 -36 24.5 -56.5t61.5 -20.5q43 0 69.5 26
t26.5 64q0 35 -24.5 55t-62.5 20q-42 0 -68.5 -25t-26.5 -63zM415 224q0 36 -26.5 58t-69.5 22q-47 0 -76 -26.5t-29 -67.5q0 -38 25.5 -59t68.5 -21q49 0 78 27t29 67z" />
    <glyph glyph-name="nine.osf" horiz-adv-x="639" 
d="M619 376q0 -73 -36.5 -139.5t-114.5 -145.5l-188 -191h-267l298 239q-33 -9 -69 -9q-91 0 -148.5 54.5t-57.5 148.5q0 116 86.5 196.5t221.5 80.5q118 0 196.5 -62.5t78.5 -171.5zM318 254q53 0 84.5 33t31.5 83q0 44 -25.5 68.5t-69.5 24.5q-52 0 -84 -35t-32 -85
q0 -42 25.5 -65.5t69.5 -23.5z" />
    <glyph glyph-name="zero.osf.zero" horiz-adv-x="688" 
d="M665 348q2 -146 -95.5 -252.5t-237.5 -103.5q-129 0 -208 71.5t-79 190.5q-2 146 95 251.5t237 103.5q129 0 208.5 -70.5t79.5 -190.5zM231 266l230 155q-25 40 -87 40q-61 0 -100.5 -58.5t-42.5 -136.5zM479 343l-233 -157q25 -46 90 -46q63 0 102 61.5t41 141.5z" />
    <glyph glyph-name="one.ss05" horiz-adv-x="620" 
d="M386 140h172l-30 -140h-529l30 140h157l83 396l-162 -101l-30 146l279 119h148z" />
    <glyph glyph-name="one.ss05.osf" horiz-adv-x="479" 
d="M334 600h139l-127 -600h-184l96 454l-169 -97l-27 139z" />
    <glyph glyph-name="zero.tf" 
d="M36 253q-1 116 38.5 221t116 172t171.5 64q117 0 180.5 -69t63.5 -194q1 -115 -38.5 -220t-116 -172t-171.5 -65q-117 0 -180.5 69.5t-63.5 193.5zM422 473q0 44 -16.5 64t-52.5 20q-40 0 -70 -55q-31 -58 -47 -134t-16 -141q0 -44 16 -64t52 -20q40 0 70 55
q30 53 47 133t17 142z" />
    <glyph glyph-name="one.tf" 
d="M386 140h172l-30 -140h-529l30 140h157l83 396l-162 -101l-30 146l279 119h148z" />
    <glyph glyph-name="two.tf" 
d="M306 160l-69 -32l325 24l-32 -152h-540l28 125l215 146q110 75 156 122t46 92q0 32 -21 52.5t-55 20.5q-36 0 -63 -27.5t-35 -78.5l-190 38q33 105 110.5 162.5t181.5 57.5q119 0 192.5 -58.5t73.5 -153.5q-1 -59 -20.5 -105t-62 -86t-98.5 -73.5t-142 -73.5z" />
    <glyph glyph-name="three.tf" 
d="M471 341q98 -44 98 -142q0 -96 -74.5 -152.5t-189.5 -56.5q-119 0 -200 59.5t-87 158.5l185 26q4 -44 32 -69t71 -25q40 0 65 21.5t25 57.5q0 35 -23.5 56.5t-67.5 21.5h-41l24 114h67q42 0 63 23.5t21 56.5q0 30 -22 49.5t-57 19.5q-76 0 -108 -90l-176 48
q31 88 107.5 139.5t183.5 51.5t182 -51.5t75 -144.5q0 -67 -40 -111.5t-113 -60.5z" />
    <glyph glyph-name="four.tf" 
d="M624 700l-90 -421h62l-33 -140h-59l-30 -139h-188l30 139h-328l27 116l364 445h245zM449 583l-259 -304h158z" />
    <glyph glyph-name="five.tf" 
d="M585 553h-311l-47 -160q66 76 160 76q81 0 131 -56t50 -147q0 -118 -85 -197t-210 -79q-101 0 -174 51t-85 137l185 50q3 -47 26 -72t59 -25q46 0 71 36q25 37 25 82q0 36 -19.5 56t-53.5 20q-48 0 -90 -51l-159 44l107 382h471z" />
    <glyph glyph-name="six.tf" 
d="M582 270q2 -117 -83 -199.5t-215 -80.5q-114 0 -188 61.5t-74 169.5q0 72 35 138t112 151l174 190h270l-290 -238q37 8 68 8q85 0 138 -54t53 -146zM392 258q0 41 -21.5 64.5t-59.5 23.5q-46 0 -74 -33.5t-28 -84.5q0 -44 21.5 -67.5t60.5 -23.5q46 0 73.5 35.5
t27.5 85.5z" />
    <glyph glyph-name="seven.tf" 
d="M146 700h522l-26 -129l-364 -571h-232l418 547h-371z" />
    <glyph glyph-name="eight.tf" 
d="M467 351q109 -58 109 -156q0 -90 -75 -147.5t-201 -57.5q-78 0 -143 21t-109 68.5t-44 114.5q0 72 49 119t137 69q-92 45 -92 135q0 84 66.5 138.5t188.5 54.5q113 0 190.5 -47.5t77.5 -140.5q0 -130 -154 -171zM269 495q0 -34 22 -55t59 -21q41 0 66.5 25t25.5 66
q0 33 -22.5 53.5t-59.5 20.5q-41 0 -66 -24.5t-25 -64.5zM392 225q0 35 -25 57t-65 22q-44 0 -71.5 -26t-27.5 -69q0 -35 24.5 -57t64.5 -22q45 0 72.5 26t27.5 69z" />
    <glyph glyph-name="nine.tf" 
d="M624 480q0 -72 -35 -138t-112 -151l-174 -190h-270l290 238q-37 -8 -68 -8q-85 0 -138 54t-53 146q-2 117 83 199.5t215 80.5q114 0 188 -61.5t74 -169.5zM335 355q46 0 74 33.5t28 84.5q0 44 -21.5 67.5t-60.5 23.5q-46 0 -73.5 -35.5t-27.5 -85.5q0 -41 21.5 -64.5
t59.5 -23.5z" />
    <glyph glyph-name="zero.tf.zero" 
d="M606 447q1 -115 -38.5 -220t-116 -172t-171.5 -65q-117 0 -180.5 69.5t-63.5 193.5q-1 116 38.5 221t116 172t171.5 64q117 0 180.5 -69t63.5 -194zM231 338l191 150q-3 36 -19.5 52.5t-49.5 16.5q-44 0 -75 -64q-32 -67 -47 -155zM412 363l-192 -150q2 -37 18.5 -53.5
t49.5 -16.5q45 0 76 64q32 65 48 156z" />
    <glyph glyph-name="zero.tosf" 
d="M26 247q-2 147 89 256t221 106q116 0 188.5 -69t72.5 -185q2 -96 -39.5 -180.5t-114 -134.5t-157.5 -48q-118 0 -189 69t-71 186zM418 356q0 119 -87 119q-56 0 -91.5 -70.5t-35.5 -159.5q0 -57 22.5 -88t64.5 -31q54 -3 91 71t36 159z" />
    <glyph glyph-name="one.tosf" 
d="M377 123h181l-26 -123h-547l26 123h182l70 331l-169 -97l-27 139l272 104h139z" />
    <glyph glyph-name="two.tosf" 
d="M283 142l-53 -20l322 22l-36 -144h-524l26 120l193 99l31 16q61 32 88 48q75 48 75 110q0 36 -21.5 56.5t-53.5 20.5q-38 0 -65.5 -26.5t-36.5 -78.5l-161 53q30 92 101 141.5t170 49.5q105 0 174 -54.5t69 -148.5q0 -71 -38 -118q-37 -46 -96 -76q-58 -30 -164 -70z" />
    <glyph glyph-name="three.tosf" 
d="M448 241q98 -44 98 -142q0 -96 -74.5 -152.5t-189.5 -56.5q-119 0 -200 59.5t-87 158.5l185 26q4 -44 32 -69t71 -25q40 0 65 21.5t25 57.5q0 35 -23.5 56.5t-67.5 21.5h-41l24 114h67q42 0 63 23.5t21 56.5q0 30 -22 49.5t-57 19.5q-77 0 -108 -90l-176 48
q31 88 107.5 139.5t183.5 51.5t182 -51.5t75 -144.5q0 -67 -40 -111.5t-113 -60.5z" />
    <glyph glyph-name="four.tosf" 
d="M600 600l-90 -421h62l-33 -140h-59l-30 -139h-188l30 139h-328l27 116l364 445h245zM425 483l-259 -304h158z" />
    <glyph glyph-name="five.tosf" 
d="M564 453h-311l-47 -160q66 76 160 76q81 0 131 -56t50 -147q0 -118 -85 -197t-210 -79q-101 0 -174 51t-85 137l185 50q3 -47 26 -72t59 -25q45 0 71 36q25 37 25 82q0 36 -19.5 56t-53.5 20q-48 0 -90 -51l-159 44l107 382h471z" />
    <glyph glyph-name="six.tosf" 
d="M579 270q2 -117 -83 -199.5t-215 -80.5q-114 0 -188 61.5t-74 169.5q0 72 35 138t112 151l174 190h270l-290 -238q37 8 68 8q85 0 138 -54t53 -146zM389 258q0 41 -21.5 64.5t-59.5 23.5q-46 0 -74 -33.5t-28 -84.5q0 -44 21.5 -67.5t60.5 -23.5q46 0 73.5 35.5
t27.5 85.5z" />
    <glyph glyph-name="seven.tosf" 
d="M121 600h522l-26 -129l-364 -571h-232l418 547h-371z" />
    <glyph glyph-name="eight.tosf" 
d="M465 351q109 -58 109 -156q0 -90 -75 -147.5t-201 -57.5q-78 0 -143 21t-109 68.5t-44 114.5q0 72 49 119t137 69q-92 45 -92 135q0 84 66.5 138.5t188.5 54.5q113 0 190.5 -47.5t77.5 -140.5q0 -130 -154 -171zM267 495q0 -34 22 -55t59 -21q41 0 66.5 25t25.5 66
q0 33 -22.5 53.5t-59.5 20.5q-41 0 -66 -24.5t-25 -64.5zM390 225q0 35 -25 57t-65 22q-44 0 -71.5 -26t-27.5 -69q0 -35 24.5 -57t64.5 -22q45 0 72.5 26t27.5 69z" />
    <glyph glyph-name="nine.tosf" 
d="M603 379q0 -72 -35 -138t-112 -151l-174 -190h-270l290 238q-37 -8 -68 -8q-85 0 -138 54t-53 146q-2 117 83 199.5t215 80.5q114 0 188 -61.5t74 -169.5zM314 254q46 0 74 33.5t28 84.5q0 44 -21.5 67.5t-60.5 23.5q-46 0 -73.5 -35.5t-27.5 -85.5q0 -41 21.5 -64.5
t59.5 -23.5z" />
    <glyph glyph-name="zero.tosf.zero" 
d="M597 355q2 -96 -39.5 -180.5t-114 -134.5t-157.5 -48q-118 0 -189 69t-71 186q-2 147 89 256t221 106q116 0 188.5 -69t72.5 -185zM206 283l195 153q-23 39 -70 39q-51 0 -85 -57q-32 -56 -40 -135zM418 352l-207 -162q16 -64 80 -64q55 0 90 69t37 157z" />
    <glyph glyph-name="zero.zero" horiz-adv-x="682" 
d="M677 427q2 -114 -42 -214.5t-126.5 -162.5t-183.5 -60q-128 0 -202.5 76t-74.5 207q-2 114 42 214.5t126 162.5t183 60q131 0 204 -76q74 -77 74 -207zM252 332l221 174q-19 51 -81 51q-55 0 -91 -66q-36 -67 -49 -159zM477 392l-229 -180q14 -69 86 -69q57 0 95 74
q38 75 48 175z" />
    <glyph glyph-name="zero.dnom" horiz-adv-x="420" 
d="M6 154q0 97 56 162.5t146 65.5q85 0 132.5 -40.5t47.5 -115.5q0 -100 -56.5 -165t-148.5 -65q-82 0 -129.5 41.5t-47.5 116.5zM261 228q0 60 -51 60q-37 0 -58 -45q-20 -46 -20 -95q0 -58 52 -58q38 0 57 43q20 45 20 95z" />
    <glyph glyph-name="one.dnom" horiz-adv-x="298" 
d="M177 374h97l-79 -374h-122l59 279l-88 -56l-20 92z" />
    <glyph glyph-name="two.dnom" horiz-adv-x="369" 
d="M170 96l-46 -17l200 21l-22 -100h-324l18 83l135 85q79 50 79 86q0 15 -9.5 23.5t-24.5 8.5q-37 0 -45 -42l-116 30q36 108 165 108q70 0 112.5 -32.5t42.5 -91.5q0 -56 -40 -93.5t-125 -68.5z" />
    <glyph glyph-name="three.dnom" horiz-adv-x="370" 
d="M250 185q67 -16 67 -78q0 -51 -41.5 -82t-110.5 -31q-71 0 -116.5 33t-51.5 85l124 18q-1 -22 11.5 -31.5t32.5 -9.5q40 0 40 33q0 31 -45 31h-22l14 72h26q42 0 48 28q3 17 -7.5 26t-28.5 9q-37 0 -45 -37l-116 33q39 98 165 98q66 0 109 -28.5t43 -80.5
q0 -39 -25 -62.5t-71 -25.5z" />
    <glyph glyph-name="four.dnom" horiz-adv-x="380" 
d="M343 374l-47 -222h38l-17 -79h-38l-15 -73h-115l15 73h-176l11 64l200 237h144zM101 152h80l43 145z" />
    <glyph glyph-name="five.dnom" horiz-adv-x="352" 
d="M319 283h-173l-30 -82q37 43 91 43q47 0 75 -27t28 -72q0 -68 -49 -108q-50 -41 -122 -41q-60 0 -105 25.5t-57 71.5l128 25q-1 -17 10 -27.5t27 -10.5q19 0 32 14.5t13 34.5q0 28 -31 32q-23 2 -41 -21l-98 27l65 207h266z" />
    <glyph glyph-name="six.dnom" horiz-adv-x="372" 
d="M324 142q0 -61 -47 -104t-123 -43q-69 0 -111 35t-42 94q0 36 17 66.5t62 85.5l78 96h173l-164 -126q25 5 43 5q49 0 81.5 -29.5t32.5 -79.5zM206 138q0 18 -11.5 28.5t-30.5 10.5q-24 0 -38 -16t-14 -40q0 -42 40 -42q25 0 39.5 18t14.5 41z" />
    <glyph glyph-name="seven.dnom" horiz-adv-x="335" 
d="M52 372h299l-13 -67l-193 -305h-152l239 280h-211z" />
    <glyph glyph-name="eight.dnom" horiz-adv-x="380" 
d="M327 109q0 -53 -42.5 -83.5t-110.5 -30.5q-74 0 -128 27q-54 28 -54 82q0 43 25 67.5t75 36.5q-48 26 -48 68q0 51 38 79t102 28q68 0 117 -25q49 -24 49 -73q0 -76 -82 -95q59 -37 59 -81zM153 265q0 -15 11 -24t30 -9q18 0 29.5 11t11.5 29q0 32 -40 32
q-19 0 -30.5 -10.5t-11.5 -28.5zM209 126q0 16 -12 25.5t-32 9.5q-21 0 -33.5 -12t-12.5 -33q0 -15 11.5 -25t29.5 -10q21 0 35 12.5t14 32.5z" />
    <glyph glyph-name="nine.dnom" horiz-adv-x="372" 
d="M344 248q0 -36 -17 -66.5t-62 -85.5l-78 -96h-173l164 126q-25 -5 -43 -5q-49 0 -81.5 29.5t-32.5 79.5q0 61 47 104t123 43q69 0 111 -35t42 -94zM181 195q24 0 38 16t14 40q0 42 -40 42q-25 0 -39.5 -18t-14.5 -41q0 -18 11.5 -28.5t30.5 -10.5z" />
    <glyph glyph-name="zero.numr" horiz-adv-x="420" 
d="M75 480q0 97 56 162.5t146 65.5q85 0 132.5 -40.5t47.5 -115.5q0 -100 -56.5 -165t-148.5 -65q-82 0 -129.5 41.5t-47.5 116.5zM330 554q0 60 -51 60q-37 0 -58 -45q-20 -46 -20 -95q0 -58 52 -58q38 0 57 43q20 45 20 95z" />
    <glyph glyph-name="one.numr" horiz-adv-x="298" 
d="M246 700h97l-79 -374h-122l59 279l-88 -56l-20 92z" />
    <glyph glyph-name="two.numr" horiz-adv-x="369" 
d="M239 422l-46 -17l200 21l-22 -100h-324l18 83l135 85q79 50 79 86q0 15 -9.5 23.5t-24.5 8.5q-37 0 -45 -42l-116 30q36 108 165 108q70 0 112.5 -32.5t42.5 -91.5q0 -56 -40 -93.5t-125 -68.5z" />
    <glyph glyph-name="three.numr" horiz-adv-x="370" 
d="M319 511q67 -16 67 -78q0 -51 -41.5 -82t-110.5 -31q-71 0 -116.5 33t-51.5 85l124 18q-1 -22 11.5 -31.5t32.5 -9.5q40 0 40 33q0 31 -45 31h-22l14 72h26q42 0 48 28q3 17 -7.5 26t-28.5 9q-37 0 -45 -37l-116 33q39 98 165 98q66 0 109 -28.5t43 -80.5
q0 -39 -25 -62.5t-71 -25.5z" />
    <glyph glyph-name="four.numr" horiz-adv-x="380" 
d="M412 700l-47 -222h38l-17 -79h-38l-15 -73h-115l15 73h-176l11 64l200 237h144zM170 478h80l43 145z" />
    <glyph glyph-name="five.numr" horiz-adv-x="352" 
d="M388 609h-173l-30 -82q37 43 91 43q47 0 75 -27t28 -72q0 -68 -49 -108q-50 -41 -122 -41q-60 0 -105 25.5t-57 71.5l128 25q-1 -17 10 -27.5t27 -10.5q19 0 32 14.5t13 34.5q0 28 -31 32q-23 2 -41 -21l-98 27l65 207h266z" />
    <glyph glyph-name="six.numr" horiz-adv-x="372" 
d="M393 468q0 -61 -47 -104t-123 -43q-69 0 -111 35t-42 94q0 36 17 66.5t62 85.5l78 96h173l-164 -126q25 5 43 5q49 0 81.5 -29.5t32.5 -79.5zM275 464q0 18 -11.5 28.5t-30.5 10.5q-24 0 -38 -16t-14 -40q0 -42 40 -42q25 0 39.5 18t14.5 41z" />
    <glyph glyph-name="seven.numr" horiz-adv-x="335" 
d="M122 700h299l-13 -67l-193 -305h-152l239 280h-211z" />
    <glyph glyph-name="eight.numr" horiz-adv-x="380" 
d="M396 435q0 -53 -42.5 -83.5t-110.5 -30.5q-74 0 -128 27q-54 28 -54 82q0 43 25 67.5t75 36.5q-48 26 -48 68q0 51 38 79t102 28q68 0 117 -25q49 -24 49 -73q0 -76 -82 -95q59 -37 59 -81zM222 591q0 -15 11 -24t30 -9q18 0 29.5 11t11.5 29q0 32 -40 32
q-19 0 -30.5 -10.5t-11.5 -28.5zM278 452q0 16 -12 25.5t-32 9.5q-21 0 -33.5 -12t-12.5 -33q0 -15 11.5 -25t29.5 -10q21 0 35 12.5t14 32.5z" />
    <glyph glyph-name="nine.numr" horiz-adv-x="372" 
d="M413 574q0 -36 -17 -66.5t-62 -85.5l-78 -96h-173l164 126q-25 -5 -43 -5q-49 0 -81.5 29.5t-32.5 79.5q0 61 47 104t123 43q69 0 111 -35t42 -94zM250 521q24 0 38 16t14 40q0 42 -40 42q-25 0 -39.5 -18t-14.5 -41q0 -18 11.5 -28.5t30.5 -10.5z" />
    <glyph glyph-name="uni2081.ss05" horiz-adv-x="351" 
d="M188 -29h93l-19 -91h-314l19 91h99l40 188l-88 -56l-20 92l153 59h97z" />
    <glyph glyph-name="one.dnom.ss05" horiz-adv-x="351" 
d="M214 91h93l-19 -91h-314l19 91h99l40 188l-88 -56l-20 92l153 59h97z" />
    <glyph glyph-name="one.numr.ss05" horiz-adv-x="351" 
d="M283 417h93l-19 -91h-314l19 91h99l40 188l-88 -56l-20 92l153 59h97z" />
    <glyph glyph-name="uni00B9.ss05" horiz-adv-x="351" 
d="M296 477h93l-19 -91h-314l19 91h99l40 188l-88 -56l-20 92l153 59h97z" />
    <glyph glyph-name="onehalf.ss05" horiz-adv-x="930" 
d="M283 417h93l-19 -91h-314l19 91h99l40 188l-88 -56l-20 92l153 59h97zM740 700h124l-313 -349l-304 -351h-126l330 357zM731 96l-46 -17l200 21l-22 -100h-324l18 83l135 85q79 50 79 86q0 15 -9.5 23.5t-24.5 8.5q-37 0 -45 -42l-116 30q36 108 165 108
q70 0 112.5 -32.5t42.5 -91.5q0 -56 -40 -93.5t-125 -68.5z" />
    <glyph glyph-name="oneeighth.ss05" horiz-adv-x="931" 
d="M283 417h93l-19 -91h-314l19 91h99l40 188l-88 -56l-20 92l153 59h97zM740 700h124l-313 -349l-304 -351h-126l330 357zM878 109q0 -53 -42.5 -83.5t-110.5 -30.5q-74 0 -128 27q-54 28 -54 82q0 43 25 67.5t75 36.5q-48 26 -48 68q0 51 38 79t102 28q68 0 117 -25
q49 -24 49 -73q0 -76 -82 -95q59 -37 59 -81zM704 265q0 -15 11 -24t30 -9q18 0 29.5 11t11.5 29q0 32 -40 32q-19 0 -30.5 -10.5t-11.5 -28.5zM760 126q0 16 -12 25.5t-32 9.5q-21 0 -33.5 -12t-12.5 -33q0 -15 11.5 -25t29.5 -10q21 0 35 12.5t14 32.5z" />
    <glyph glyph-name="backslash.case" horiz-adv-x="409" 
d="M358 0h-153l-47 340l-63 360h154l45 -331z" />
    <glyph glyph-name="periodcentered.case" horiz-adv-x="294" 
d="M271 352q0 -42 -30 -70.5t-73 -28.5t-73 28.5t-30 70.5t30 70t73 28t73 -28t30 -70z" />
    <glyph glyph-name="bullet.case" horiz-adv-x="445" 
d="M418 340q0 -74 -51 -123.5t-127 -49.5q-75 0 -125.5 49.5t-50.5 123.5t50.5 124.5t125.5 50.5q76 0 127 -50.5t51 -124.5z" />
    <glyph glyph-name="exclamdown.case" horiz-adv-x="348" 
d="M144 608q0 42 30 70.5t73 28.5t73 -28.5t30 -70.5t-30 -70t-73 -28t-73 28t-30 70zM235 0h-228l139 443h139z" />
    <glyph glyph-name="questiondown.case" horiz-adv-x="565" 
d="M265 608q0 42 30 70.5t73 28.5t73 -28.5t30 -70.5t-30 -70t-73 -28t-73 28t-30 70zM422 443l-5 -27q-6 -36 -34 -61.5t-91 -59.5q-54 -30 -75.5 -50t-21.5 -46q0 -24 18.5 -40t48.5 -16q35 0 65 22t44 62l166 -63q-42 -84 -116 -129t-166 -45q-102 0 -169 47
q-65 48 -65 138q0 54 23 92q21 35 49.5 55.5t83.5 47.5q40 20 55 31.5t19 25.5l4 16h167z" />
    <glyph glyph-name="slash.case" horiz-adv-x="415" 
d="M-55 0l218 369l189 331h160l-213 -360l-195 -340h-159z" />
    <glyph glyph-name="comma.tf" horiz-adv-x="300" 
d="M-8 -153l-9 66q46 0 88 19q43 18 43 43q0 9 -27 20q-77 32 -77 94q0 43 29 72t72 29q51 0 79.5 -32.5t28.5 -89.5q0 -102 -65.5 -161.5t-161.5 -59.5z" />
    <glyph glyph-name="period.tf" horiz-adv-x="300" 
d="M217 92q0 -42 -30 -70.5t-73 -28.5t-73 28.5t-30 70.5t30 70t73 28t73 -28t30 -70z" />
    <glyph glyph-name="braceleft.case" horiz-adv-x="423" 
d="M415 750h74l-26 -120h-32q-33 0 -53.5 -20t-22.5 -51l-5 -82q-7 -112 -146 -144q94 -33 94 -106q0 -23 -9 -48l-30 -78q-7 -20 -7 -32q0 -26 43 -26h43l-25 -119h-62q-78 0 -126.5 36.5t-48.5 95.5q0 28 10 54l32 83q9 25 9 41q0 41 -59 41h-43l25 120h33q41 0 69.5 26.5
t31.5 69.5l4 87q4 79 67 125q65 47 160 47z" />
    <glyph glyph-name="braceright.case" horiz-adv-x="424" 
d="M382 399h43l-25 -120h-33q-41 0 -69.5 -26.5t-31.5 -69.5l-4 -87q-4 -79 -68 -125q-64 -47 -159 -47h-74l26 120h32q33 0 53.5 20t22.5 51l5 82q7 112 146 144q-94 33 -94 106q0 23 9 48l30 78q7 20 7 32q0 26 -43 26h-43l25 119h62q78 0 126.5 -36.5t48.5 -95.5
q0 -28 -10 -54l-32 -83q-9 -25 -9 -41q0 -41 59 -41z" />
    <glyph glyph-name="bracketleft.case" horiz-adv-x="406" 
d="M434 630h-121l-121 -567h121l-27 -129h-301l176 826h301z" />
    <glyph glyph-name="bracketright.case" horiz-adv-x="407" 
d="M1 64h121l121 567h-121l27 129h301l-176 -826h-301z" />
    <glyph glyph-name="parenleft.case" horiz-adv-x="377" 
d="M38 241q0 65 13 121q22 104 88 213q66 107 164 185h166q-202 -196 -251 -428q-14 -70 -14 -129q0 -148 76 -269h-139q-103 129 -103 307z" />
    <glyph glyph-name="parenright.case" horiz-adv-x="378" 
d="M368 453q0 -65 -13 -121q-22 -105 -89 -213q-64 -106 -163 -185h-166q202 196 251 428q14 70 14 129q0 148 -76 269h139q103 -129 103 -307z" />
    <glyph glyph-name="emdash.case" horiz-adv-x="996" 
d="M76 419h916l-28 -133h-916z" />
    <glyph glyph-name="endash.case" horiz-adv-x="608" 
d="M76 419h528l-28 -133h-528z" />
    <glyph glyph-name="hyphen.case" horiz-adv-x="409" 
d="M77 426h329l-31 -147h-329z" />
    <glyph glyph-name="guillemotleft.case" horiz-adv-x="559" 
d="M274 372l140 173h180l-200 -196l112 -195h-171l-69 175zM54 372l140 173h180l-200 -196l112 -195h-171l-69 175z" />
    <glyph glyph-name="guillemotright.case" horiz-adv-x="560" 
d="M328 327l-140 -173h-180l200 196l-112 195h171l69 -175zM548 327l-140 -173h-180l200 196l-112 195h171l69 -175z" />
    <glyph glyph-name="guilsinglleft.case" horiz-adv-x="339" 
d="M35 372l140 173h180l-200 -196l112 -195h-171l-69 175z" />
    <glyph glyph-name="guilsinglright.case" horiz-adv-x="340" 
d="M328 327l-140 -173h-180l200 196l-112 195h171l69 -175z" />
    <glyph glyph-name="space.tf" 
 />
    <glyph glyph-name="cent.tf" 
d="M396 210l166 -31q-40 -93 -114.5 -141t-169.5 -48h-4l-20 -95h-76l22 103q-84 18 -131.5 74t-47.5 142q0 126 81 210.5t206 85.5l20 95h76l-21 -101q84 -15 135 -64t61 -126l-174 -30q0 70 -50 90l-53 -253q66 6 94 89zM230 139l49 234q-37 -17 -59 -60.5t-22 -95.5
t32 -78z" />
    <glyph glyph-name="currency.tf" 
d="M454 189l60 -76l-82 -68l-66 83q-35 -13 -72 -13q-55 0 -99 23l-113 -93l-54 68l105 87q-21 34 -21 81q0 66 40 119l-50 63l82 68l52 -66q40 18 87 18q67 0 113 -33l98 81l54 -68l-97 -80q12 -29 12 -63q0 -76 -49 -131zM302 218q35 0 58.5 28t23.5 67q0 28 -15.5 46
t-43.5 21q-41 1 -67 -26t-26 -67q0 -31 19 -50t51 -19z" />
    <glyph glyph-name="dollar.tf" 
d="M571 234q0 -110 -74 -178t-194 -68q-19 0 -24 1l-20 -94h-71l22 103q-83 21 -136.5 71.5t-65.5 124.5l183 27q8 -50 50 -75l29 136q-63 27 -96 46q-89 52 -89 145q0 106 72 171.5t190 65.5h13l20 96h71l-22 -104q77 -18 125.5 -64.5t59.5 -118.5l-177 -21q-7 45 -37 65
l-27 -125q65 -28 103 -48q95 -52 95 -156zM309 470l23 106q-51 -12 -51 -61q0 -26 28 -45zM382 193q0 33 -48 59l-26 -125q33 0 53.5 18t20.5 48z" />
    <glyph glyph-name="Euro.tf" 
d="M397 256l186 -28q-112 -238 -308 -238q-108 0 -172.5 64.5t-72.5 183.5h-65l16 75h50q1 23 7 56h-45l16 75h47q39 118 120 191q81 75 195 75q105 0 171 -66q66 -63 74 -178l-181 -19q-1 50 -20 80t-53 30q-66 0 -107 -113h129l-23 -75h-128q-6 -30 -9 -56h120l-23 -75
h-103q0 -49 16 -72t52 -23q39 0 65.5 27t45.5 86z" />
    <glyph glyph-name="sterling.tf" 
d="M205 124l357 26l-33 -150h-553l24 110q82 70 113 136h-96l28 120h82l-12 30q-25 58 -25 95q0 98 68.5 158.5t180.5 60.5q100 0 169.5 -46.5t101.5 -136.5l-182 -52q-7 43 -27.5 62.5t-57.5 19.5q-33 0 -53.5 -23t-20.5 -61q0 -25 24 -79l12 -28h194l-27 -120h-168
q-25 -60 -99 -122z" />
    <glyph glyph-name="yen.tf" 
d="M717 701l-271 -367h98l-16 -76h-123l-12 -55h123l-16 -75h-124l-28 -128h-197l28 128h-131l16 75h131l12 55h-131l16 76h105l-118 367h206l65 -242l168 242h199z" />
    <glyph glyph-name="plus.tf" 
d="M235 268h-175l25 120h175l39 181h139l-39 -181h175l-25 -120h-175l-39 -181h-139z" />
    <glyph glyph-name="minus.tf" 
d="M59 263l27 130h489l-27 -130h-489z" />
    <glyph glyph-name="multiply.tf" 
d="M225 328l-112 141l108 92l111 -141l169 139l80 -96l-168 -139l107 -137l-108 -92l-107 137l-169 -139l-80 96z" />
    <glyph glyph-name="divide.tf" 
d="M267 532q0 41 27.5 67.5t69.5 26.5q40 0 68.5 -26.5t28.5 -67.5q0 -39 -28.5 -65.5t-68.5 -26.5q-41 0 -69 26.5t-28 65.5zM60 268l26 120h489l-26 -120h-489zM374 125q0 -41 -28.5 -67.5t-68.5 -26.5q-42 0 -69.5 26.5t-27.5 67.5q0 39 28 65.5t69 26.5q40 0 68.5 -26.5
t28.5 -65.5z" />
    <glyph glyph-name="equal.tf" 
d="M132 474h432l-26 -121h-432zM88 270h432l-25 -121h-432z" />
    <glyph glyph-name="notequal.tf" 
d="M538 353h-147l-51 -83h180l-25 -121h-231l-65 -105h-119l65 105h-82l25 121h133l51 83h-166l26 121h216l64 103h119l-64 -103h97z" />
    <glyph glyph-name="greater.tf" 
d="M164 571l368 -179l-24 -123l-444 -179l29 147l300 99l-257 99z" />
    <glyph glyph-name="less.tf" 
d="M570 571l-29 -147l-300 -99l257 -99l-28 -136l-368 179l24 123z" />
    <glyph glyph-name="greaterequal.tf" 
d="M163 561l374 -149l-21 -103l-438 -149l28 137l267 69l-237 69zM44 0l23 110h406l-23 -110h-406z" />
    <glyph glyph-name="lessequal.tf" 
d="M568 561l-27 -134l-267 -69l237 -69l-27 -129l-374 149l21 103zM44 0l23 110h406l-23 -110h-406z" />
    <glyph glyph-name="plusminus.tf" 
d="M245 318h-175l26 120h175l28 131h139l-28 -131h175l-26 -120h-175l-27 -131h-139zM3 0l25 120h489l-25 -120h-489z" />
    <glyph glyph-name="approxequal.tf" 
d="M147 315l-57 38q45 134 148 134q42 0 117 -24q63 -19 87 -19q28 0 49.5 15t28.5 36l55 -38q-39 -134 -145 -134q-41 0 -118 24q-63 19 -88 19q-27 0 -47.5 -15t-29.5 -36zM105 119l-56 38q45 134 148 134q43 0 115 -24q63 -19 89 -19q27 0 49 15t28 36l56 -38
q-43 -134 -145 -134q-36 0 -119 24q-63 19 -88 19q-27 0 -47.5 -15t-29.5 -36z" />
    <glyph glyph-name="trademark.ss09" horiz-adv-x="863" 
d="M409 615h-95l-54 -253h-112l54 253h-94l18 85h301zM771 700h158l-72 -338h-109l53 254l-142 -254h-79l-35 270l-56 -270h-98l72 338h165l28 -194z" />
    <glyph glyph-name="caron.alt" horiz-adv-x="500" 
d="M284 700h174l-114 -162h-103z" />
    </font>
</defs>
</svg>
