<?xml version="1.0" standalone="no"?>
<!DOCTYPE svg PUBLIC "-//W3C//DTD SVG 1.1//EN" "http://www.w3.org/Graphics/SVG/1.1/DTD/svg11.dtd" >
<svg>
<metadata>
Created by FontForge 20090622 at Fri Aug 11 14:06:45 2017
 By deploy user
Copyright &#194;&#169; 2017 by Ren&#195;&#169; Bieder. All rights reserved.
</metadata>
<defs>
<font id="Quarion-Thin" horiz-adv-x="600" >
  <font-face 
    font-family="Quarion"
    font-weight="250"
    font-stretch="normal"
    units-per-em="1000"
    panose-1="2 1 0 3 6 0 0 0 0 0"
    ascent="763"
    descent="-237"
    x-height="483"
    cap-height="700"
    bbox="-404 -232 1255 934"
    underline-thickness="50"
    underline-position="-50"
    unicode-range="U+0020-U+FB01"
  />
<missing-glyph 
d="M50 0v700h500v-700h-500zM300 370l210 305h-420zM75 43l211 306l-211 306v-612zM525 44v611l-211 -306zM92 25h417l-209 303z" />
    <glyph glyph-name="arrowleft" unicode="&#x3c;&#x2014;" horiz-adv-x="800" 
d="M750 374v-36l-648 2l251 -240l-25 -24l-278 274v12l278 274l24 -24l-250 -240z" />
    <glyph glyph-name="arrowright" unicode="&#x2d;&#x3e;" horiz-adv-x="800" 
d="M472 636l278 -274v-12l-278 -274l-25 24l251 240l-648 -2v36l648 -2l-250 240z" />
    <glyph glyph-name="fi" unicode="fi" horiz-adv-x="538" 
d="M454 483v-483h-34v456h-277v-456h-34v456h-87v27h87v74q0 69 45 111t115 42q40 0 62 -8v-35q-22 13 -62 13q-55 0 -90.5 -33.5t-35.5 -89.5v-74h311zM469 654q0 -13 -8.5 -21t-21.5 -8q-14 0 -22.5 8t-8.5 21t8.5 21.5t22.5 8.5q30 0 30 -30z" />
    <glyph glyph-name=".notdef" 
d="M50 0v700h500v-700h-500zM300 370l210 305h-420zM75 43l211 306l-211 306v-612zM525 44v611l-211 -306zM92 25h417l-209 303z" />
    <glyph glyph-name=".null" horiz-adv-x="0" 
 />
    <glyph glyph-name="nonmarkingreturn" horiz-adv-x="333" 
 />
    <glyph glyph-name="space" unicode=" " horiz-adv-x="243" 
 />
    <glyph glyph-name="exclam" unicode="!" horiz-adv-x="261" 
d="M112 700h36l-5 -479h-26zM161 23q0 -13 -8 -21.5t-22 -8.5t-22.5 8.5t-8.5 21.5t8.5 21t22.5 8q13 0 21.5 -8t8.5 -21z" />
    <glyph glyph-name="quotedbl" unicode="&#x22;" horiz-adv-x="285" 
d="M60 700h34l-3 -209h-28zM191 700h34l-3 -209h-28z" />
    <glyph glyph-name="numbersign" unicode="#" horiz-adv-x="694" 
d="M664 474h-153l-67 -262h191v-28h-199l-47 -184h-28l47 184h-215l-47 -184h-28l47 184h-135v28h142l67 262h-179v27h186l51 198h29l-51 -198h214l51 198h29l-51 -198h146v-27zM415 212l67 262h-214l-67 -262h214z" />
    <glyph glyph-name="dollar" unicode="$" horiz-adv-x="617" 
d="M561 178q0 -84 -64.5 -136t-166.5 -52h-13v-95h-27v97q-87 10 -149 60.5t-84 128.5l37 9q20 -69 72 -113.5t124 -54.5v321q-109 28 -158.5 65t-52.5 120q0 80 58 129q59 50 153 53v95h27v-95q85 -5 145.5 -49t83.5 -119l-35 -9q-20 66 -71 104.5t-123 43.5v-310
q83 -21 130 -39q114 -42 114 -154zM290 378v303q-79 -3 -127.5 -44t-48.5 -103q0 -67 45 -100q48 -34 131 -56zM526 173q0 51 -28 82q-26 29 -64.5 45t-116.5 36v-317h15q86 0 140 43t54 111z" />
    <glyph glyph-name="percent" unicode="%" horiz-adv-x="809" 
d="M44 542q0 71 47.5 118t119.5 47q71 0 118.5 -47t47.5 -118q0 -72 -47.5 -119.5t-119.5 -47.5q-71 0 -118.5 47.5t-47.5 119.5zM638 700h35l-264 -353l-254 -347h-38l265 350zM345 542q0 60 -39 100q-37 40 -96 40q-58 0 -97 -40q-38 -41 -38 -100q0 -62 38.5 -102
t97.5 -40t96 40q38 41 38 102zM766 156q0 -71 -47.5 -118t-118.5 -47q-72 0 -119.5 47t-47.5 118q0 72 47.5 119.5t118.5 47.5q72 0 119.5 -47.5t47.5 -119.5zM464 156q0 -59 38 -100q39 -40 97 -40q59 0 96 40q39 40 39 100q0 61 -38 102q-37 40 -96 40t-97.5 -40
t-38.5 -102z" />
    <glyph glyph-name="ampersand" unicode="&#x26;" horiz-adv-x="666" 
d="M631 0h-40l-98 95q-78 -105 -219 -105q-98 0 -158 50t-60 130q0 128 164 193q-58 58 -82.5 98t-24.5 86q0 74 47.5 118.5t125.5 44.5q76 0 125 -44q49 -43 49 -117q0 -60 -46 -105t-142 -88l215 -214q43 75 64 201l31 -5q-19 -132 -72 -218zM252 376q178 80 178 174
q0 59 -40 95t-104 36q-63 0 -102 -36t-39 -96q0 -46 25 -83q23 -33 82 -90zM471 117l-230 225q-61 -27 -105 -65q-46 -40 -46 -108q0 -67 51 -108t134 -41q128 0 196 97z" />
    <glyph glyph-name="quotesingle" unicode="'" horiz-adv-x="154" 
d="M60 700h34l-3 -209h-28z" />
    <glyph glyph-name="parenleft" unicode="(" horiz-adv-x="280" 
d="M57 287q0 110 42.5 219t121.5 194h32q-164 -195 -164 -413t164 -413h-32q-79 85 -121.5 194t-42.5 219z" />
    <glyph glyph-name="parenright" unicode=")" horiz-adv-x="280" 
d="M59 -126h-32q164 195 164 413t-164 413h32q79 -85 121.5 -194t42.5 -219t-42.5 -219t-121.5 -194z" />
    <glyph glyph-name="asterisk" unicode="*" horiz-adv-x="394" 
d="M347 663l-130 -71l129 -71l-13 -24l-127 81l5 -152h-27l5 150l-127 -79l-14 24l134 71l-135 70l14 25l128 -79l-5 149h27l-5 -150l128 80z" />
    <glyph glyph-name="plus" unicode="+" horiz-adv-x="486" 
d="M227 317h-184v28h184v190h31v-190h185v-28h-185v-190h-31v190z" />
    <glyph glyph-name="comma" unicode="," horiz-adv-x="183" 
d="M36 -148l-3 19q72 4 72 113q0 7 -9 10q-29 6 -29 29q0 13 8.5 21t21.5 8q32 0 32 -43q0 -38 -3 -60.5t-11.5 -46t-28 -35.5t-50.5 -15z" />
    <glyph glyph-name="hyphen" unicode="-" horiz-adv-x="409" 
d="M59 294h290v-30h-290v30z" />
    <glyph glyph-name="period" unicode="." horiz-adv-x="183" 
d="M122 23q0 -13 -8 -21.5t-22 -8.5t-22.5 8.5t-8.5 21.5t8.5 21t22.5 8q13 0 21.5 -8t8.5 -21z" />
    <glyph glyph-name="slash" unicode="/" horiz-adv-x="425" 
d="M39 -126l168 437l146 389h32l-153 -397l-161 -429h-32z" />
    <glyph glyph-name="zero" unicode="0" 
d="M562 350q0 -164 -71 -262t-191 -98t-191 98t-71 262q0 163 71 261.5t191 98.5t191 -98.5t71 -261.5zM526 350q0 152 -60 241q-59 89 -166 89t-167 -89q-59 -89 -59 -241q0 -154 59.5 -242t166.5 -88t166.5 88t59.5 242z" />
    <glyph glyph-name="one" unicode="1" horiz-adv-x="393" 
d="M242 700h34v-700h-35v673l-206 -114l-12 30z" />
    <glyph glyph-name="two" unicode="2" 
d="M117 27l430 4v-31h-478v22l152 115q121 94 177 158q58 67 75 112q16 44 16 91q0 81 -54 131.5t-142 50.5q-75 0 -130.5 -43t-76.5 -116l-34 15q27 81 91 127.5t150 46.5q103 0 167 -57.5t64 -155.5q0 -50 -17 -98q-37 -107 -264 -276z" />
    <glyph glyph-name="three" unicode="3" 
d="M548 185q0 -87 -68.5 -141t-178.5 -54q-89 0 -155.5 47t-92.5 127l34 15q21 -73 78.5 -116t135.5 -43q95 0 153 46t58 122q0 70 -58.5 114.5t-150.5 44.5h-41v28h41q85 0 138 41q53 42 53 109q0 70 -51 112.5t-136 42.5q-77 0 -133 -43t-77 -116l-34 15q27 81 92 127.5
t152 46.5q99 0 161 -51t62 -134q0 -64 -43.5 -106.5t-121.5 -56.5q85 -13 134 -59.5t49 -117.5z" />
    <glyph glyph-name="four" unicode="4" horiz-adv-x="604" 
d="M577 219v-29h-112v-190h-35v190h-395v23l383 487l12 -1v1h35v-481h112zM430 668l-356 -449h356v449z" />
    <glyph glyph-name="five" unicode="5" horiz-adv-x="606" 
d="M552 228q0 -107 -67.5 -172.5t-171.5 -65.5q-89 0 -154.5 45.5t-90.5 124.5l36 16q21 -73 76.5 -114.5t133.5 -41.5q90 0 146.5 57t56.5 151q0 93 -54.5 149.5t-144.5 56.5q-124 0 -196 -115l-30 7l45 374h389l-5 -33h-358l-39 -313q71 108 196 108q103 0 167.5 -64.5
t64.5 -169.5z" />
    <glyph glyph-name="six" unicode="6" 
d="M555 228q0 -105 -69.5 -171.5t-178.5 -66.5q-112 0 -181.5 66.5t-69.5 173.5q0 90 52 157l235 313h47l-227 -283q62 48 151 48q105 0 173 -66.5t68 -170.5zM520 227q0 94 -58.5 152t-153.5 58q-97 0 -157 -57.5t-60 -151.5t59.5 -152t156.5 -58q95 0 154 57.5t59 151.5z
" />
    <glyph glyph-name="seven" unicode="7" 
d="M78 700h485v-30l-349 -670h-45l361 667h-457z" />
    <glyph glyph-name="eight" unicode="8" 
d="M548 180q0 -84 -68 -137t-179 -53q-112 0 -180.5 52.5t-68.5 137.5q0 76 54 123q53 47 135 58q-71 12 -119 57q-47 45 -47 115q0 79 62.5 128t163.5 49t162.5 -49t61.5 -128q0 -69 -45.5 -114t-117.5 -58q78 -10 132 -58q54 -47 54 -123zM301 377q87 0 138.5 42.5
t51.5 111.5t-51.5 110t-138.5 41t-139.5 -41.5t-52.5 -109.5q0 -69 52.5 -111.5t139.5 -42.5zM512 182q0 75 -57.5 120t-153.5 45q-98 0 -155.5 -45t-57.5 -120q0 -74 58 -119t155 -45q96 0 153.5 45t57.5 119z" />
    <glyph glyph-name="nine" unicode="9" 
d="M544 470q0 -90 -52 -157l-235 -313h-47l227 283q-61 -48 -151 -48q-105 0 -173 66.5t-68 170.5q0 105 69.5 171.5t178.5 66.5q112 0 181.5 -66.5t69.5 -173.5zM509 472q0 94 -59.5 152t-156.5 58q-95 0 -154 -57.5t-59 -151.5t58.5 -152t153.5 -58q97 0 157 57.5
t60 151.5z" />
    <glyph glyph-name="colon" unicode=":" horiz-adv-x="183" 
d="M61 462q0 13 8.5 21.5t22.5 8.5q30 0 30 -30q0 -13 -8.5 -21t-21.5 -8q-14 0 -22.5 8t-8.5 21zM122 24q0 -13 -8 -21.5t-22 -8.5t-22.5 8.5t-8.5 21.5t8.5 21t22.5 8q13 0 21.5 -8t8.5 -21z" />
    <glyph glyph-name="semicolon" unicode=";" horiz-adv-x="183" 
d="M61 462q0 13 8.5 21.5t22.5 8.5q30 0 30 -30q0 -13 -8.5 -21t-21.5 -8q-14 0 -22.5 8t-8.5 21zM29 -148l-3 19q72 4 72 113q0 7 -9 10q-29 6 -29 29q0 13 8.5 21t21.5 8q32 0 32 -43q0 -38 -3 -60.5t-11.5 -46t-28 -35.5t-50.5 -15z" />
    <glyph glyph-name="less" unicode="&#x3c;" horiz-adv-x="465" 
d="M402 508v-35l-319 -142l319 -142v-36l-352 163v29z" />
    <glyph glyph-name="equal" unicode="=" horiz-adv-x="458" 
d="M40 419h378v-30h-378v30zM40 235h378v-30h-378v30z" />
    <glyph glyph-name="greater" unicode="&#x3e;" horiz-adv-x="465" 
d="M63 508l352 -163v-29l-352 -163v36l319 142l-319 142v35z" />
    <glyph glyph-name="question" unicode="?" horiz-adv-x="514" 
d="M219 221v16q3 54 25 79.5t78 57.5q38 22 57 37q51 42 51 113q0 70 -46 113t-122 43q-68 0 -118.5 -36t-75.5 -101l-34 16q31 73 89.5 112t138.5 39q91 0 146.5 -51t55.5 -133q0 -47 -17 -79q-16 -30 -38.5 -49t-64.5 -43q-38 -23 -53 -34.5t-27.5 -32.5t-14.5 -51v-16
h-30zM264 23q0 -13 -8 -21.5t-22 -8.5t-22.5 8.5t-8.5 21.5t8.5 21t22.5 8q13 0 21.5 -8t8.5 -21z" />
    <glyph glyph-name="at" unicode="@" horiz-adv-x="870" 
d="M619 468l-34 -250q-1 -5 -1 -20q0 -38 22.5 -61t56.5 -23q57 0 101 63.5t44 167.5q0 151 -93 247t-247 96q-79 1 -153.5 -30.5t-130 -86.5t-88 -134.5t-31.5 -168.5q0 -170 101 -275t268 -105q77 0 152.5 23.5t130.5 66.5l14 -22q-127 -91 -298 -91q-178 0 -287 111
t-109 290q-2 126 58 229.5t159.5 159.5t213.5 55q164 0 264.5 -102.5t100.5 -262.5q0 -114 -49.5 -184t-123.5 -70q-45 0 -72 28.5t-28 75.5q-41 -102 -148 -102q-72 0 -114.5 47t-42.5 128q0 91 51 151.5t131 60.5q52 0 89 -28.5t49 -83.5l14 100h30zM565 307q0 70 -34 108
t-90 38q-68 0 -112 -52t-44 -131q0 -69 36.5 -109.5t96.5 -40.5q73 0 110 55t37 132z" />
    <glyph glyph-name="A" unicode="A" horiz-adv-x="732" 
d="M651 0l-98 226h-377l-97 -226h-37l301 700h42l305 -700h-39zM188 255h353l-177 409z" />
    <glyph glyph-name="B" unicode="B" horiz-adv-x="639" 
d="M592 192q0 -87 -68.5 -139.5t-182.5 -52.5h-244v700h241q102 0 163 -48q62 -47 62 -127q0 -63 -46.5 -107.5t-125.5 -58.5q93 -13 147 -57.5t54 -109.5zM133 670v-299h176q97 0 157 42.5t60 110.5q0 66 -51 106t-138 40h-204zM555 193q0 68 -65 108.5t-176 40.5h-181
v-312h207q100 0 157.5 44t57.5 119z" />
    <glyph glyph-name="C" unicode="C" horiz-adv-x="763" 
d="M674 211l37 -10q-33 -95 -115 -153t-188 -58q-151 -2 -252 100t-99 260q-2 156 98.5 259t250.5 101q105 1 189 -58q83 -59 116 -153l-37 -10q-28 84 -99 137t-167 53q-135 2 -225.5 -92t-88.5 -237q-2 -143 88.5 -237t225.5 -92q97 0 167 52q71 53 99 138z" />
    <glyph glyph-name="D" unicode="D" horiz-adv-x="744" 
d="M97 0v700h233q157 0 257 -97.5t100 -252.5t-100 -252.5t-257 -97.5h-233zM133 30h197q142 0 231 89t89 231t-89 230.5t-231 88.5h-197v-639z" />
    <glyph glyph-name="E" unicode="E" horiz-adv-x="615" 
d="M548 670h-415v-281h375v-30h-375v-329h415v-30h-451v700h452z" />
    <glyph glyph-name="F" unicode="F" horiz-adv-x="594" 
d="M547 670h-414v-291h375v-29h-375v-350h-36v700h450v-30z" />
    <glyph glyph-name="G" unicode="G" horiz-adv-x="772" 
d="M450 262v30h243v-239q-112 -63 -267 -63q-167 -2 -269 100t-100 258q-2 157 99.5 260.5t250.5 101.5q108 0 190 -58q83 -59 116 -153l-37 -10q-28 87 -100.5 138.5t-168.5 51.5q-134 2 -224.5 -92.5t-88.5 -238.5q0 -145 89 -236t244 -91q144 0 234 46v195h-211z" />
    <glyph glyph-name="H" unicode="H" horiz-adv-x="757" 
d="M625 700h36v-700h-36v340h-492v-340h-36v700h36v-331h492v331z" />
    <glyph glyph-name="I" unicode="I" horiz-adv-x="249" 
d="M107 700h36v-700h-36v700z" />
    <glyph glyph-name="J" unicode="J" horiz-adv-x="562" 
d="M42 150l35 15q19 -64 65.5 -100.5t112.5 -36.5q82 0 130.5 51t48.5 136v485h36v-485q0 -98 -59.5 -158t-155.5 -60q-76 0 -132.5 41t-80.5 112z" />
    <glyph glyph-name="K" unicode="K" horiz-adv-x="630" 
d="M608 0h-49l-426 356v-356h-36v700h36v-334l421 334h48l-431 -338z" />
    <glyph glyph-name="L" unicode="L" horiz-adv-x="596" 
d="M133 30h421v-30h-457v700h36v-670z" />
    <glyph glyph-name="M" unicode="M" horiz-adv-x="874" 
d="M728 700h49v-700h-36v661l-299 -484h-13l-298 484v-661h-34v700h52l289 -469z" />
    <glyph glyph-name="N" unicode="N" horiz-adv-x="797" 
d="M666 700h35v-700h-51l-519 663v-663h-34v700h49l520 -662v662z" />
    <glyph glyph-name="O" unicode="O" horiz-adv-x="811" 
d="M754 350q2 -156 -98.5 -259t-249.5 -101q-150 -2 -250.5 101t-98.5 259q-2 156 98.5 259t250.5 101q149 2 249.5 -101t98.5 -259zM717 350q2 143 -88 237t-223 92q-135 2 -224.5 -92t-87.5 -237q-2 -143 87.5 -237t224.5 -92q133 -2 223 92t88 237z" />
    <glyph glyph-name="P" unicode="P" horiz-adv-x="614" 
d="M587 516q0 -81 -68.5 -132t-175.5 -51h-210v-333h-36v700h246q108 0 176 -51t68 -133zM550 516q0 71 -55 112.5t-151 41.5h-211v-308h211q96 0 151 41.5t55 112.5z" />
    <glyph glyph-name="Q" unicode="Q" horiz-adv-x="824" 
d="M451 -6l350 -47l-12 -36l-437 80q-134 26 -214.5 122t-80.5 237q-2 156 98.5 259t250.5 101q149 2 249.5 -101t98.5 -259q0 -145 -84.5 -243t-218.5 -113zM406 21q133 -2 223 92t88 237q2 143 -88 237t-223 92q-135 2 -224.5 -92t-87.5 -237q-2 -143 87.5 -237t224.5 -92
z" />
    <glyph glyph-name="R" unicode="R" horiz-adv-x="622" 
d="M596 0h-48l-265 333h-150v-333h-36v700h246q108 0 176 -51t68 -133q0 -81 -68.5 -132t-175.5 -51h-23zM133 670v-308h211q96 0 151 41.5t55 112.5t-55 112.5t-151 41.5h-211z" />
    <glyph glyph-name="S" unicode="S" horiz-adv-x="617" 
d="M57 181l37 9q23 -79 87 -125t151 -46q86 0 140 43t54 111q0 51 -29 83q-26 29 -65 45t-119 36q-83 21 -124 37q-110 45 -110 154q0 81 62 131.5t160 50.5q90 0 155.5 -44.5t89.5 -123.5l-35 -9q-22 70 -77.5 109t-133.5 39q-83 0 -134.5 -41t-51.5 -106q0 -52 29 -84
q27 -29 66 -45t119 -37q75 -19 123 -38q110 -41 110 -152q0 -84 -64.5 -136t-166.5 -52q-100 0 -174 51t-99 140z" />
    <glyph glyph-name="T" unicode="T" horiz-adv-x="644" 
d="M597 700v-30h-257v-670h-35v670h-258v30h550z" />
    <glyph glyph-name="U" unicode="U" horiz-adv-x="727" 
d="M605 700h36v-440q0 -116 -78 -193t-200 -77q-121 0 -198.5 77t-77.5 193v440h35v-441q0 -102 68 -170.5t173 -68.5q106 0 174 68.5t68 170.5v441z" />
    <glyph glyph-name="V" unicode="V" horiz-adv-x="684" 
d="M612 700h35l-284 -700h-42l-284 700h37l269 -663z" />
    <glyph glyph-name="W" unicode="W" horiz-adv-x="1004" 
d="M927 700h35l-217 -700h-47l-198 659l-209 -659h-43l-206 700h36l193 -664l210 664h42l200 -666z" />
    <glyph glyph-name="X" unicode="X" horiz-adv-x="639" 
d="M597 700l-258 -349l258 -351h-43l-235 323l-235 -323h-42l257 351l-257 349h43l234 -322l236 322h42z" />
    <glyph glyph-name="Y" unicode="Y" horiz-adv-x="617" 
d="M554 700h41l-269 -414v-286h-34v285l-270 415h41l246 -379z" />
    <glyph glyph-name="Z" unicode="Z" horiz-adv-x="652" 
d="M111 30h481v-30h-528v19l477 651h-473v30h520v-20z" />
    <glyph glyph-name="bracketleft" unicode="[" horiz-adv-x="320" 
d="M280 673h-155v-772h155v-27h-185v827h185v-28z" />
    <glyph glyph-name="backslash" unicode="\" horiz-adv-x="425" 
d="M386 -126h-32l-161 429l-153 397h32l146 -389z" />
    <glyph glyph-name="bracketright" unicode="]" horiz-adv-x="320" 
d="M40 673v28h185v-827h-185v27h155v772h-155z" />
    <glyph glyph-name="asciicircum" unicode="^" horiz-adv-x="431" 
d="M385 424h-35l-135 247l-135 -247h-33l156 276h25z" />
    <glyph glyph-name="underscore" unicode="_" horiz-adv-x="502" 
d="M10 -125h482v-34h-482v34z" />
    <glyph glyph-name="grave" unicode="`" horiz-adv-x="500" 
d="M310 573h-28l-92 127h46z" />
    <glyph glyph-name="a" unicode="a" horiz-adv-x="500" 
d="M424 333v-333h-34v111q-21 -57 -70 -89t-117 -32q-70 0 -112.5 34.5t-42.5 93.5q0 56 32 88q30 30 71 44t119 27q67 10 93.5 21.5t26.5 34.5v3q0 57 -38 93t-100 36q-54 0 -98 -29.5t-67 -81.5l-31 16q30 58 81.5 90.5t116.5 32.5q76 0 123 -44t47 -116zM390 188v98
q-25 -17 -115 -34q-64 -12 -101 -24q-91 -28 -91 -110q0 -47 34 -74.5t91 -27.5q78 0 130 49.5t52 122.5z" />
    <glyph glyph-name="b" unicode="b" horiz-adv-x="597" 
d="M555 242q0 -115 -63.5 -183.5t-170.5 -68.5q-75 0 -127.5 37.5t-76.5 105.5v-133h-35v700h35v-349q23 67 76 104.5t128 37.5q107 0 170.5 -69t63.5 -182zM520 242q0 98 -56 160.5t-147 62.5t-146 -61q-54 -62 -54 -162q0 -102 54 -163q55 -61 146 -61q93 0 148 61t55 163
z" />
    <glyph glyph-name="c" unicode="c" horiz-adv-x="537" 
d="M41 241q0 109 72 180.5t177 71.5q72 0 126 -36t81 -100l-32 -11q-22 57 -67.5 88t-107.5 31q-91 0 -152 -62.5t-61 -161.5q0 -98 61 -160.5t152 -62.5q63 0 108.5 31.5t66.5 88.5l33 -10q-27 -64 -81.5 -101t-126.5 -37q-105 0 -177 71.5t-72 179.5z" />
    <glyph glyph-name="d" unicode="d" horiz-adv-x="596" 
d="M479 700h35v-700h-35v133q-24 -68 -76.5 -105.5t-127.5 -37.5q-107 0 -170.5 68.5t-63.5 183.5q0 113 63.5 182t170.5 69q75 0 128 -37.5t76 -104.5v349zM479 242q0 101 -55 162q-54 61 -145 61t-147 -62.5t-56 -160.5q0 -102 55 -163t148 -61q91 0 145 61q55 61 55 163z
" />
    <glyph glyph-name="e" unicode="e" horiz-adv-x="533" 
d="M491 239h-415q1 -99 57.5 -160t142.5 -61q59 0 103.5 29.5t65.5 81.5l33 -15q-28 -59 -80 -91.5t-121 -32.5q-103 0 -169.5 71t-66.5 182t66.5 180.5t166.5 69.5q98 0 158 -65.5t60 -173.5q0 -12 -1 -15zM77 265h380q-2 92 -51 146.5t-131 54.5q-84 0 -138 -54.5
t-60 -146.5z" />
    <glyph glyph-name="f" unicode="f" horiz-adv-x="305" 
d="M143 557v-74h163v-27h-163v-456h-34v456h-87v27h87v74q0 69 45 111t115 42q40 0 62 -8v-35q-22 13 -62 13q-55 0 -90.5 -33.5t-35.5 -89.5z" />
    <glyph glyph-name="g" unicode="g" horiz-adv-x="594" 
d="M479 483h34v-492q0 -95 -66.5 -153t-170.5 -58q-78 0 -136 33.5t-86 92.5l29 15q23 -53 74.5 -83t118.5 -30q89 0 146 51t57 132v149q-24 -66 -76.5 -102t-128.5 -36q-106 0 -169.5 66.5t-63.5 177.5q0 112 63.5 179.5t169.5 67.5q76 0 128.5 -36t76.5 -102v128zM480 248
q0 100 -54.5 159t-146.5 59q-93 0 -148 -60t-55 -160q0 -99 55 -158t148 -59q92 0 146.5 59t54.5 160z" />
    <glyph glyph-name="h" unicode="h" horiz-adv-x="558" 
d="M482 306v-306h-35v305q0 77 -40.5 119t-111.5 42q-81 0 -130.5 -61.5t-49.5 -165.5v-239h-34v700h34v-350q22 68 70.5 105.5t116.5 37.5q84 0 132 -48.5t48 -138.5z" />
    <glyph glyph-name="i" unicode="i" horiz-adv-x="198" 
d="M69 654q0 13 8.5 21.5t22.5 8.5q30 0 30 -30q0 -13 -8.5 -21t-21.5 -8q-14 0 -22.5 8t-8.5 21zM81 0v483h34v-483h-34z" />
    <glyph glyph-name="j" unicode="j" horiz-adv-x="198" 
d="M69 654q0 13 8.5 21.5t22.5 8.5q30 0 30 -30q0 -13 -8.5 -21t-21.5 -8q-14 0 -22.5 8t-8.5 21zM115 483v-550q0 -71 -40.5 -112t-109.5 -41q-30 0 -52 8v35q20 -13 52 -13q54 0 85 33t31 90v550h34z" />
    <glyph glyph-name="k" unicode="k" horiz-adv-x="476" 
d="M458 0h-48l-293 269v-269h-34v700h34v-422l271 205h49l-282 -209z" />
    <glyph glyph-name="l" unicode="l" horiz-adv-x="200" 
d="M83 0v700h34v-700h-34z" />
    <glyph glyph-name="m" unicode="m" horiz-adv-x="925" 
d="M849 306v-306h-34v305q0 77 -41 119t-112 42q-80 0 -130 -62t-50 -165v-239h-34v305q0 77 -41 119t-112 42q-80 0 -130 -62t-50 -165v-239h-34v483h34v-135q21 69 69.5 107t117.5 38q74 0 120.5 -38t56.5 -108q22 69 71.5 107.5t118.5 38.5q85 0 132.5 -48.5t47.5 -138.5
z" />
    <glyph glyph-name="n" unicode="n" horiz-adv-x="558" 
d="M482 306v-306h-35v305q0 77 -40.5 119t-111.5 42q-81 0 -130.5 -61.5t-49.5 -165.5v-239h-34v483h34v-133q22 68 70.5 105.5t116.5 37.5q84 0 132 -48.5t48 -138.5z" />
    <glyph glyph-name="o" unicode="o" horiz-adv-x="579" 
d="M538 241q0 -109 -71 -180t-177 -71q-105 0 -177 71.5t-72 179.5q0 109 72 180.5t177 71.5q106 0 177 -71.5t71 -180.5zM503 241q0 99 -61 161.5t-152 62.5t-152 -62.5t-61 -161.5q0 -98 61 -160.5t152 -62.5t152 62.5t61 160.5z" />
    <glyph glyph-name="p" unicode="p" horiz-adv-x="594" 
d="M553 241q0 -113 -63.5 -182t-170.5 -69q-75 0 -128 37.5t-76 104.5v-342h-34v693h34v-133q24 68 76.5 105.5t127.5 37.5q107 0 170.5 -68.5t63.5 -183.5zM518 241q0 102 -55 163t-148 61q-91 0 -146 -61q-54 -61 -54 -163q0 -101 54 -162q55 -61 146 -61t147 62.5
t56 160.5z" />
    <glyph glyph-name="q" unicode="q" horiz-adv-x="594" 
d="M479 483h34v-693h-34v342q-23 -67 -76 -104.5t-128 -37.5q-107 0 -170.5 69t-63.5 182q0 115 63.5 183.5t170.5 68.5q75 0 127.5 -37.5t76.5 -105.5v133zM479 241q0 102 -55 163q-54 61 -145 61q-93 0 -148 -61t-55 -163q0 -98 56 -160.5t147 -62.5t145 61q55 61 55 162z
" />
    <glyph glyph-name="r" unicode="r" horiz-adv-x="355" 
d="M325 488v-33q-13 5 -37 5q-84 0 -129 -69q-44 -68 -44 -175v-216h-34v483h34v-151q19 76 63.5 117.5t111.5 41.5q22 0 35 -3z" />
    <glyph glyph-name="s" unicode="s" horiz-adv-x="455" 
d="M44 119l33 10q44 -113 167 -113q60 0 97 27.5t37 74.5q0 33 -20 55q-19 21 -47 32.5t-82 25.5q-63 19 -87 29q-76 32 -76 104q0 58 43.5 93.5t116.5 35.5q60 0 105 -25t67 -71l-34 -11q-37 81 -138 81q-57 0 -91.5 -27t-34.5 -71q3 -46 35 -67t110 -42q55 -16 87 -30
q79 -31 79 -107q0 -60 -45.5 -96.5t-120.5 -36.5q-72 0 -125 34.5t-76 94.5z" />
    <glyph glyph-name="t" unicode="t" horiz-adv-x="378" 
d="M338 32v-34q-22 -8 -56 -8q-69 0 -117.5 42.5t-48.5 110.5v313h-99v27h99v177h34v-177h183v-27h-183v-311q0 -56 38.5 -90.5t94.5 -34.5q35 0 55 12z" />
    <glyph glyph-name="u" unicode="u" horiz-adv-x="558" 
d="M443 483h34v-483h-34v133q-22 -68 -70.5 -105.5t-116.5 -37.5q-84 0 -132 48.5t-48 138.5v306h35v-305q0 -77 40.5 -119t111.5 -42q81 0 130.5 61.5t49.5 165.5v239z" />
    <glyph glyph-name="v" unicode="v" horiz-adv-x="510" 
d="M441 483h36l-204 -483h-37l-203 483h39l185 -450z" />
    <glyph glyph-name="w" unicode="w" horiz-adv-x="791" 
d="M729 483h34l-171 -483h-39l-159 436l-160 -436h-40l-166 483h36l152 -450l162 450h33l163 -450z" />
    <glyph glyph-name="x" unicode="x" horiz-adv-x="502" 
d="M464 483l-193 -240l184 -243h-41l-163 220l-172 -220h-41l194 240l-184 243h41l162 -219l172 219h41z" />
    <glyph glyph-name="y" unicode="y" horiz-adv-x="512" 
d="M443 483h36l-326 -693h-43l134 262l-211 431h39l191 -392z" />
    <glyph glyph-name="z" unicode="z" horiz-adv-x="430" 
d="M69 27h331v-27h-372v22l323 434h-313v27h356v-19z" />
    <glyph glyph-name="braceleft" unicode="{" horiz-adv-x="323" 
d="M160 574q0 -16 3 -33l22 -131q2 -26 2 -27q0 -77 -70 -96q70 -19 70 -96q0 -1 -2 -27l-22 -130q-3 -16 -3 -32q0 -47 24 -74t65 -27h34v-27h-34q-56 0 -89 34.5t-33 92.5q0 15 3 33l22 130q2 24 2 25q0 39 -20.5 61.5t-56.5 22.5h-37v27h37q35 0 56 22.5t21 62.5
q0 1 -2 25l-22 130q-3 16 -3 33q0 58 33.5 92.5t88.5 34.5h34v-27h-34q-41 0 -65 -27t-24 -72z" />
    <glyph glyph-name="bar" unicode="|" horiz-adv-x="224" 
d="M97 700h30v-826h-30v826z" />
    <glyph glyph-name="braceright" unicode="}" horiz-adv-x="323" 
d="M246 300h37v-27h-37q-36 0 -56.5 -22.5t-20.5 -61.5q0 -1 2 -25l22 -130q3 -18 3 -33q0 -58 -33 -92.5t-89 -34.5h-34v27h34q41 0 65 27t24 74q0 16 -3 32l-22 130q-2 26 -2 27q0 77 70 96q-70 19 -70 96q0 1 2 27l22 131q3 17 3 33q0 45 -24 72t-65 27h-34v27h34
q55 0 88.5 -34.5t33.5 -92.5q0 -17 -3 -33l-22 -130q-2 -24 -2 -25q0 -40 21 -62.5t56 -22.5z" />
    <glyph glyph-name="asciitilde" unicode="~" horiz-adv-x="407" 
d="M60 295l-25 6q15 84 89 84q35 0 87 -33q41 -29 72 -29q55 0 64 63l25 -5q-14 -86 -88 -86q-35 0 -87 33q-41 29 -73 29q-53 0 -64 -62z" />
    <glyph glyph-name="exclamdown" unicode="&#xa1;" horiz-adv-x="261" 
d="M100 464q0 13 8.5 21.5t22.5 8.5q30 0 30 -30q0 -13 -8.5 -21t-21.5 -8q-14 0 -22.5 8t-8.5 21zM112 -213l5 479h26l5 -479h-36z" />
    <glyph glyph-name="cent" unicode="&#xa2;" horiz-adv-x="537" 
d="M297 -10v-95h-27v96q-98 6 -163.5 76.5t-65.5 173.5t65.5 174t163.5 77v113h27v-112q70 -2 122.5 -38t77.5 -98l-32 -11q-21 54 -64.5 85.5t-103.5 33.5v-447q60 2 104 33.5t64 86.5l33 -10q-25 -63 -77.5 -99.5t-123.5 -38.5zM270 19v445q-84 -6 -138.5 -68.5
t-54.5 -154.5q0 -93 54.5 -154.5t138.5 -67.5z" />
    <glyph glyph-name="sterling" unicode="&#xa3;" horiz-adv-x="578" 
d="M92 27l450 3v-30h-495v30q89 47 125.5 87.5t36.5 91.5q0 31 -12 62h-133v27h119q-7 12 -35 49q-38 49 -53.5 83.5t-15.5 79.5q0 87 59.5 143.5t155.5 56.5q82 0 145 -43.5t93 -118.5l-35 -15q-24 69 -78 108t-126 39q-81 0 -129.5 -49t-48.5 -121q0 -41 14.5 -73
t50.5 -82q28 -40 38 -57h232v-27h-219q11 -30 11 -60q0 -107 -150 -184z" />
    <glyph glyph-name="currency" unicode="&#xa4;" horiz-adv-x="527" 
d="M391 179l87 -88l-17 -18l-88 88q-45 -39 -110 -39q-64 0 -109 39l-88 -88l-18 18l88 88q-39 45 -39 110t39 108l-88 88l18 18l88 -88q44 39 110 39t109 -39l88 88l17 -18l-87 -87q39 -44 39 -109t-39 -110zM398 289q0 59 -39 100q-37 40 -96 40q-58 0 -97 -40
q-38 -41 -38 -100q0 -62 38.5 -102t97.5 -40t96 40q38 41 38 102z" />
    <glyph glyph-name="yen" unicode="&#xa5;" horiz-adv-x="570" 
d="M548 700l-233 -346h184v-25h-196v-105h196v-25h-196v-199h-34v199h-196v25h196v105h-196v25h183l-234 346h41l223 -330l221 330h41z" />
    <glyph glyph-name="brokenbar" unicode="&#xa6;" horiz-adv-x="224" 
d="M97 350v350h30v-350h-30zM127 230v-356h-30v356h30z" />
    <glyph glyph-name="section" unicode="&#xa7;" horiz-adv-x="514" 
d="M345 155q79 -43 79 -117q0 -58 -45 -95.5t-117 -37.5q-63 0 -111 28t-68 76l33 11q39 -89 146 -89q58 0 93 28t35 74q0 37 -22 60q-19 22 -47.5 36.5t-90.5 37.5q-64 24 -96 40q-86 43 -86 125q0 100 125 126q-83 45 -83 119q0 58 45 95.5t117 37.5q62 0 110.5 -28
t68.5 -77l-33 -11q-39 90 -146 90q-58 0 -93 -28.5t-35 -74.5q0 -35 21 -59q20 -22 49.5 -37t89.5 -38q60 -22 95 -39q87 -43 87 -125q0 -102 -121 -128zM432 279q0 36 -22 61q-20 23 -49.5 38.5t-92.5 38.5q-6 3 -28.5 11.5t-36.5 14.5q-121 -20 -121 -107q0 -37 22 -62
q20 -23 49.5 -38t91.5 -38q47 -17 72 -29q115 26 115 110z" />
    <glyph glyph-name="dieresis" unicode="&#xa8;" horiz-adv-x="500" 
d="M124 654q0 13 8.5 21.5t22.5 8.5q30 0 30 -30q0 -13 -8.5 -21t-21.5 -8q-14 0 -22.5 8t-8.5 21zM315 654q0 13 8.5 21.5t22.5 8.5q30 0 30 -30q0 -13 -8.5 -21t-21.5 -8q-14 0 -22.5 8t-8.5 21z" />
    <glyph glyph-name="copyright" unicode="&#xa9;" horiz-adv-x="798" 
d="M40 352q-2 151 102.5 256t257.5 102q152 2 256.5 -102t101.5 -254q2 -153 -102.5 -257.5t-257.5 -102.5q-152 -3 -256.5 102t-101.5 256zM734 354q0 141 -96.5 237.5t-237.5 96.5q-140 2 -238.5 -97t-96.5 -239q-2 -141 95.5 -240t237.5 -96q141 -2 239.5 97.5
t96.5 240.5zM217 346q0 84 54 138.5t135 54.5q51 0 92 -25t64 -70l-24 -13q-19 40 -54 62.5t-78 22.5q-70 0 -115 -47.5t-45 -122.5q0 -74 45 -121q45 -46 115 -46q43 0 78 23t54 62l24 -12q-23 -45 -64 -70.5t-92 -25.5q-81 0 -135 54t-54 136z" />
    <glyph glyph-name="ordfeminine" unicode="&#xaa;" horiz-adv-x="440" 
d="M233 504q60 9 83.5 18.5t23.5 30.5v4q0 53 -33 86t-88 33q-49 0 -88 -26t-59 -72l-31 14q25 52 71.5 81.5t106.5 29.5q71 0 113.5 -40t42.5 -106v-295h-35v100q-19 -51 -64.5 -80t-107.5 -29t-98 29.5t-36 78.5q0 52 29 81q27 27 63 39t107 23zM340 430v76
q-15 -8 -98 -25q-91 -15 -130.5 -37t-42.5 -80q0 -39 28 -62t78 -23q70 0 117.5 43t47.5 108zM43 160h348v-27h-348v27z" />
    <glyph glyph-name="guillemotleft" unicode="&#xab;" horiz-adv-x="445" 
d="M229 267l132 171h38l-141 -179l141 -178h-38l-132 170v16zM53 267l132 171h38l-141 -179l141 -178h-38l-132 170v16z" />
    <glyph glyph-name="registered" unicode="&#xae;" horiz-adv-x="565" 
d="M505 488q0 -92 -65 -156.5t-157 -64.5q-93 0 -158 64t-65 156t65 157.5t158 65.5q92 0 157 -65t65 -157zM486 488q0 86 -59 145.5t-144 59.5q-86 0 -145 -59.5t-59 -146.5q0 -85 59 -144t145 -59q85 0 144 59.5t59 144.5zM305 482l86 -103h-24l-82 103h-55v-103h-18v225
h90q33 0 53.5 -17.5t20.5 -44.5t-19.5 -43t-51.5 -17zM230 587v-89h72q25 0 40 12t15 32t-15 32.5t-40 12.5h-72z" />
    <glyph glyph-name="overscore" unicode="&#xaf;" horiz-adv-x="500" 
d="M137 656h226v-27h-226v27z" />
    <glyph glyph-name="degree" unicode="&#xb0;" horiz-adv-x="394" 
d="M50 581q0 62 42 104t105 42t105 -42t42 -104q0 -63 -42 -105.5t-105 -42.5t-105 42.5t-42 105.5zM315 581q0 53 -34 87q-35 35 -84 35t-84 -35q-34 -34 -34 -87t34 -88.5t84 -35.5t84 35.5t34 88.5z" />
    <glyph glyph-name="plusminus" unicode="&#xb1;" horiz-adv-x="486" 
d="M227 324h-184v27h184v184h31v-184h185v-27h-185v-184h-31v184zM43 0v27h400v-27h-400z" />
    <glyph glyph-name="uni00B2" unicode="&#xb2;" horiz-adv-x="316" 
d="M76 444l204 3v-26h-241v21l70 50q79 55 105 95q26 41 26 71q0 38 -24.5 60.5t-63.5 22.5q-69 0 -98 -69l-27 11q16 39 48.5 61t75.5 22q54 0 86 -29.5t32 -79.5q0 -37 -29 -81q-28 -42 -115 -99z" />
    <glyph glyph-name="uni00B3" unicode="&#xb3;" horiz-adv-x="311" 
d="M275 511q0 -42 -33.5 -68.5t-85.5 -26.5q-97 0 -129 84l28 9q27 -69 101 -69q40 0 65.5 20t25.5 53q0 34 -26.5 53.5t-70.5 19.5h-22v21h22q41 0 64.5 19t23.5 49t-23 48.5t-60 18.5q-70 0 -101 -67l-27 8q36 83 127 83q50 0 81 -25t31 -66q0 -59 -73 -78q38 -7 60 -29.5
t22 -56.5z" />
    <glyph glyph-name="acute" unicode="&#xb4;" horiz-adv-x="500" 
d="M190 573l74 127h46l-92 -127h-28z" />
    <glyph glyph-name="paragraph" unicode="&#xb6;" horiz-adv-x="551" 
d="M277 330h-34q-95 0 -152.5 48.5t-57.5 132.5q0 88 57.5 138.5t152.5 50.5h208v-700h-30v673h-114v-673h-30v330z" />
    <glyph glyph-name="middot" unicode="&#xb7;" horiz-adv-x="183" 
d="M122 329q0 -13 -8 -21.5t-22 -8.5t-22.5 8.5t-8.5 21.5t8.5 21t22.5 8q13 0 21.5 -8t8.5 -21z" />
    <glyph glyph-name="cedilla" unicode="&#xb8;" horiz-adv-x="500" 
d="M335 -134q0 -36 -25.5 -57.5t-67.5 -21.5q-47 0 -76 23l14 22q21 -21 62 -21q28 0 45 15t17 40q0 23 -15.5 37t-41.5 14q-24 0 -42 -9l-9 6l37 86h29l-32 -66q11 4 26 4q34 0 56.5 -20t22.5 -52z" />
    <glyph glyph-name="uni00B9" unicode="&#xb9;" horiz-adv-x="221" 
d="M130 761h27v-340h-30v319l-99 -60l-9 24z" />
    <glyph glyph-name="ordmasculine" unicode="&#xba;" horiz-adv-x="506" 
d="M35 477q0 99 62 162.5t156 63.5t156 -63.5t62 -162.5q0 -98 -62 -161t-156 -63t-156 63t-62 161zM436 477q0 88 -52 143t-131 55q-80 0 -131 -55t-51 -143q0 -87 51.5 -141.5t130.5 -54.5t131 54.5t52 141.5zM79 133v27h348v-27h-348z" />
    <glyph glyph-name="guillemotright" unicode="&#xbb;" horiz-adv-x="445" 
d="M216 267v-16l-132 -170h-38l141 178l-141 179h38zM392 267v-16l-132 -170h-38l141 178l-141 179h38z" />
    <glyph glyph-name="onequarter" unicode="&#xbc;" horiz-adv-x="592" 
d="M130 701h27v-340h-30v319l-99 -60l-9 24zM540 700h35l-264 -353l-254 -347h-38l265 350zM568 112v-21h-56v-91h-29v91h-191v14l187 235h33v-228h56zM487 317l-163 -205h159z" />
    <glyph glyph-name="onehalf" unicode="&#xbd;" horiz-adv-x="662" 
d="M130 701h27v-340h-30v319l-99 -60l-9 24zM540 700h35l-264 -353l-254 -347h-38l265 350zM422 23l204 3v-26h-241v21l70 50q79 55 105 95q26 41 26 71q0 38 -24.5 60.5t-63.5 22.5q-69 0 -98 -69l-27 11q16 39 48.5 61t75.5 22q54 0 86 -29.5t32 -79.5q0 -37 -29 -81
q-28 -42 -115 -99z" />
    <glyph glyph-name="threequarters" unicode="&#xbe;" horiz-adv-x="645" 
d="M275 451q0 -42 -33.5 -68.5t-85.5 -26.5q-97 0 -129 84l28 9q27 -69 101 -69q40 0 65.5 20t25.5 53q0 34 -26.5 53.5t-70.5 19.5h-22v21h22q41 0 64.5 19t23.5 49t-23 48.5t-60 18.5q-70 0 -101 -67l-27 8q36 83 127 83q50 0 81 -25t31 -66q0 -59 -73 -78q38 -7 60 -29.5
t22 -56.5zM593 700h35l-264 -353l-254 -347h-38l265 350zM621 112v-21h-56v-91h-29v91h-191v14l187 235h33v-228h56zM540 317l-163 -205h159z" />
    <glyph glyph-name="questiondown" unicode="&#xbf;" horiz-adv-x="514" 
d="M250 486q0 14 8.5 22t21.5 8q14 0 22.5 -8.5t8.5 -21.5t-8.5 -21t-22.5 -8q-13 0 -21.5 8t-8.5 21zM295 288v-16q-3 -54 -25 -79.5t-78 -57.5q-34 -20 -57 -38q-51 -38 -51 -112q0 -70 46 -113t122 -43q68 0 118.5 36t75.5 101l34 -16q-31 -73 -89.5 -112t-138.5 -39
q-91 0 -146.5 51t-55.5 133q0 47 17 79q16 30 38.5 49t64.5 43q38 23 53 34.5t27.5 32.5t14.5 51v16h30z" />
    <glyph glyph-name="Agrave" unicode="&#xc0;" horiz-adv-x="732" 
d="M651 0l-98 226h-377l-97 -226h-37l301 700h42l305 -700h-39zM188 255h353l-177 409zM378 790h-28l-92 127h46z" />
    <glyph glyph-name="Aacute" unicode="&#xc1;" horiz-adv-x="732" 
d="M651 0l-98 226h-377l-97 -226h-37l301 700h42l305 -700h-39zM188 255h353l-177 409zM345 790l74 127h46l-92 -127h-28z" />
    <glyph glyph-name="Acircumflex" unicode="&#xc2;" horiz-adv-x="732" 
d="M651 0l-98 226h-377l-97 -226h-37l301 700h42l305 -700h-39zM188 255h353l-177 409zM240 789l110 128h30l112 -128h-31l-95 100l-95 -100h-31z" />
    <glyph glyph-name="Atilde" unicode="&#xc3;" horiz-adv-x="732" 
d="M651 0l-98 226h-377l-97 -226h-37l301 700h42l305 -700h-39zM188 255h353l-177 409zM361 820q-37 22 -55 22q-36 0 -54 -42l-23 7q26 64 78 64q22 0 65 -25q33 -23 55 -23q36 0 54 43l23 -6q-24 -66 -77 -66q-25 0 -66 26z" />
    <glyph glyph-name="Adieresis" unicode="&#xc4;" horiz-adv-x="732" 
d="M651 0l-98 226h-377l-97 -226h-37l301 700h42l305 -700h-39zM188 255h353l-177 409zM240 824q0 13 8.5 21.5t22.5 8.5q13 0 21.5 -8t8.5 -22q0 -13 -8.5 -21t-21.5 -8q-14 0 -22.5 8t-8.5 21zM431 824q0 13 8.5 21.5t22.5 8.5q13 0 21.5 -8t8.5 -22q0 -13 -8.5 -21
t-21.5 -8q-14 0 -22.5 8t-8.5 21z" />
    <glyph glyph-name="Aring" unicode="&#xc5;" horiz-adv-x="732" 
d="M651 0l-98 226h-377l-97 -226h-37l301 700h42l305 -700h-39zM188 255h353l-177 409zM275 846q0 39 26 63.5t65 24.5t65.5 -25t26.5 -63t-26.5 -62.5t-65.5 -24.5t-65 24.5t-26 62.5zM433 846q0 29 -19.5 47.5t-47.5 18.5t-47 -18.5t-19 -47.5t19 -47t47 -18t47.5 18
t19.5 47z" />
    <glyph glyph-name="AE" unicode="&#xc6;" horiz-adv-x="1062" 
d="M995 670h-415v-281h375v-30h-375v-329h415v-30h-451v226h-308l-157 -226h-37l484 700h470zM256 255h288v415z" />
    <glyph glyph-name="Ccedilla" unicode="&#xc7;" horiz-adv-x="763" 
d="M674 211l37 -10q-33 -95 -116 -154t-189 -57h-7l-27 -56q11 4 26 4q34 0 56.5 -20t22.5 -52q0 -36 -25.5 -57.5t-67.5 -21.5q-47 0 -76 23l14 22q21 -21 62 -21q28 0 45 15t17 40q0 23 -15.5 37t-41.5 14q-24 0 -42 -9l-9 6l33 77q-138 12 -226 111.5t-88 247.5
q-2 156 98.5 259t250.5 101q105 1 189 -58q83 -59 116 -153l-37 -10q-28 84 -99 137t-167 53q-135 2 -225.5 -92t-88.5 -237q-2 -143 88.5 -237t225.5 -92q97 0 167 52q71 53 99 138z" />
    <glyph glyph-name="Egrave" unicode="&#xc8;" horiz-adv-x="615" 
d="M548 670h-415v-281h375v-30h-375v-329h415v-30h-451v700h452zM348 790h-28l-92 127h46z" />
    <glyph glyph-name="Eacute" unicode="&#xc9;" horiz-adv-x="615" 
d="M548 670h-415v-281h375v-30h-375v-329h415v-30h-451v700h452zM315 790l74 127h46l-92 -127h-28z" />
    <glyph glyph-name="Ecircumflex" unicode="&#xca;" horiz-adv-x="615" 
d="M548 670h-415v-281h375v-30h-375v-329h415v-30h-451v700h452zM210 789l110 128h30l112 -128h-31l-95 100l-95 -100h-31z" />
    <glyph glyph-name="Edieresis" unicode="&#xcb;" horiz-adv-x="615" 
d="M210 824q0 13 8.5 21.5t22.5 8.5q30 0 30 -30q0 -13 -8.5 -21t-21.5 -8q-14 0 -22.5 8t-8.5 21zM401 824q0 13 8.5 21.5t22.5 8.5q30 0 30 -30q0 -13 -8.5 -21t-21.5 -8q-14 0 -22.5 8t-8.5 21zM548 670h-415v-281h375v-30h-375v-329h415v-30h-451v700h452z" />
    <glyph glyph-name="Igrave" unicode="&#xcc;" horiz-adv-x="249" 
d="M107 700h36v-700h-36v700zM137 790h-28l-92 127h46z" />
    <glyph glyph-name="Iacute" unicode="&#xcd;" horiz-adv-x="249" 
d="M107 700h36v-700h-36v700zM104 790l74 127h46l-92 -127h-28z" />
    <glyph glyph-name="Icircumflex" unicode="&#xce;" horiz-adv-x="249" 
d="M107 700h36v-700h-36v700zM-1 789l110 128h30l112 -128h-31l-95 100l-95 -100h-31z" />
    <glyph glyph-name="Idieresis" unicode="&#xcf;" horiz-adv-x="249" 
d="M-1 824q0 13 8.5 21.5t22.5 8.5q30 0 30 -30q0 -13 -8.5 -21t-21.5 -8q-14 0 -22.5 8t-8.5 21zM190 824q0 13 8.5 21.5t22.5 8.5q30 0 30 -30q0 -13 -8.5 -21t-21.5 -8q-14 0 -22.5 8t-8.5 21zM107 700h36v-700h-36v700z" />
    <glyph glyph-name="Eth" unicode="&#xd0;" horiz-adv-x="749" 
d="M692 350q0 -155 -100 -252.5t-257 -97.5h-233v342h-77v29h77v329h233q157 0 257 -97.5t100 -252.5zM655 350q0 142 -89 230.5t-231 88.5h-197v-298h237v-29h-237v-312h197q142 0 231 89t89 231z" />
    <glyph glyph-name="Ntilde" unicode="&#xd1;" horiz-adv-x="797" 
d="M666 700h35v-700h-51l-519 663v-663h-34v700h49l520 -662v662zM394 820q-37 22 -55 22q-36 0 -54 -42l-23 7q26 64 78 64q22 0 65 -25q33 -23 55 -23q36 0 54 43l23 -6q-24 -66 -77 -66q-25 0 -66 26z" />
    <glyph glyph-name="Ograve" unicode="&#xd2;" horiz-adv-x="811" 
d="M754 350q2 -156 -98.5 -259t-249.5 -101q-150 -2 -250.5 101t-98.5 259q-2 156 98.5 259t250.5 101q149 2 249.5 -101t98.5 -259zM717 350q2 143 -88 237t-223 92q-135 2 -224.5 -92t-87.5 -237q-2 -143 87.5 -237t224.5 -92q133 -2 223 92t88 237zM418 790h-28l-92 127
h46z" />
    <glyph glyph-name="Oacute" unicode="&#xd3;" horiz-adv-x="811" 
d="M754 350q2 -156 -98.5 -259t-249.5 -101q-150 -2 -250.5 101t-98.5 259q-2 156 98.5 259t250.5 101q149 2 249.5 -101t98.5 -259zM717 350q2 143 -88 237t-223 92q-135 2 -224.5 -92t-87.5 -237q-2 -143 87.5 -237t224.5 -92q133 -2 223 92t88 237zM385 790l74 127h46
l-92 -127h-28z" />
    <glyph glyph-name="Ocircumflex" unicode="&#xd4;" horiz-adv-x="811" 
d="M754 350q2 -156 -98.5 -259t-249.5 -101q-150 -2 -250.5 101t-98.5 259q-2 156 98.5 259t250.5 101q149 2 249.5 -101t98.5 -259zM717 350q2 143 -88 237t-223 92q-135 2 -224.5 -92t-87.5 -237q-2 -143 87.5 -237t224.5 -92q133 -2 223 92t88 237zM280 789l110 128h30
l112 -128h-31l-95 100l-95 -100h-31z" />
    <glyph glyph-name="Otilde" unicode="&#xd5;" horiz-adv-x="811" 
d="M754 350q2 -156 -98.5 -259t-249.5 -101q-150 -2 -250.5 101t-98.5 259q-2 156 98.5 259t250.5 101q149 2 249.5 -101t98.5 -259zM717 350q2 143 -88 237t-223 92q-135 2 -224.5 -92t-87.5 -237q-2 -143 87.5 -237t224.5 -92q133 -2 223 92t88 237zM401 820
q-37 22 -55 22q-36 0 -54 -42l-23 7q26 64 78 64q22 0 65 -25q33 -23 55 -23q36 0 54 43l23 -6q-24 -66 -77 -66q-25 0 -66 26z" />
    <glyph glyph-name="Odieresis" unicode="&#xd6;" horiz-adv-x="811" 
d="M280 871q0 13 8.5 21.5t22.5 8.5q30 0 30 -30q0 -13 -8.5 -21t-21.5 -8q-14 0 -22.5 8t-8.5 21zM471 871q0 13 8.5 21.5t22.5 8.5q30 0 30 -30q0 -13 -8.5 -21t-21.5 -8q-14 0 -22.5 8t-8.5 21zM754 350q2 -156 -98.5 -259t-249.5 -101q-150 -2 -250.5 101t-98.5 259
q-2 156 98.5 259t250.5 101q149 2 249.5 -101t98.5 -259zM717 350q2 143 -88 237t-223 92q-135 2 -224.5 -92t-87.5 -237q-2 -143 87.5 -237t224.5 -92q133 -2 223 92t88 237z" />
    <glyph glyph-name="multiply" unicode="&#xd7;" horiz-adv-x="432" 
d="M197 331l-146 146l20 20l145 -146l146 146l20 -20l-146 -146l146 -146l-20 -20l-146 147l-146 -147l-19 20z" />
    <glyph glyph-name="Oslash" unicode="&#xd8;" horiz-adv-x="811" 
d="M754 350q2 -156 -98.5 -259t-249.5 -101q-137 0 -234 84l-90 -98l-20 20l90 98q-95 100 -95 256q-2 156 98.5 259t250.5 101q133 0 233 -84l93 101l20 -20l-93 -101q95 -100 95 -256zM175 120l441 480q-85 79 -210 79q-135 2 -224.5 -92t-87.5 -237q0 -141 81 -230z
M717 350q0 141 -81 230l-441 -480q87 -79 211 -79q133 -2 223 92t88 237z" />
    <glyph glyph-name="Ugrave" unicode="&#xd9;" horiz-adv-x="727" 
d="M605 700h36v-440q0 -116 -78 -193t-200 -77q-121 0 -198.5 77t-77.5 193v440h35v-441q0 -102 68 -170.5t173 -68.5q106 0 174 68.5t68 170.5v441zM371 790h-28l-92 127h46z" />
    <glyph glyph-name="Uacute" unicode="&#xda;" horiz-adv-x="727" 
d="M605 700h36v-440q0 -116 -78 -193t-200 -77q-121 0 -198.5 77t-77.5 193v440h35v-441q0 -102 68 -170.5t173 -68.5q106 0 174 68.5t68 170.5v441zM338 790l74 127h46l-92 -127h-28z" />
    <glyph glyph-name="Ucircumflex" unicode="&#xdb;" horiz-adv-x="727" 
d="M605 700h36v-440q0 -116 -78 -193t-200 -77q-121 0 -198.5 77t-77.5 193v440h35v-441q0 -102 68 -170.5t173 -68.5q106 0 174 68.5t68 170.5v441zM233 789l110 128h30l112 -128h-31l-95 100l-95 -100h-31z" />
    <glyph glyph-name="Udieresis" unicode="&#xdc;" horiz-adv-x="727" 
d="M233 871q0 13 8.5 21.5t22.5 8.5q30 0 30 -30q0 -13 -8.5 -21t-21.5 -8q-14 0 -22.5 8t-8.5 21zM424 871q0 13 8.5 21.5t22.5 8.5q30 0 30 -30q0 -13 -8.5 -21t-21.5 -8q-14 0 -22.5 8t-8.5 21zM605 700h36v-440q0 -116 -78 -193t-200 -77q-121 0 -198.5 77t-77.5 193
v440h35v-441q0 -102 68 -170.5t173 -68.5q106 0 174 68.5t68 170.5v441z" />
    <glyph glyph-name="Yacute" unicode="&#xdd;" horiz-adv-x="617" 
d="M554 700h41l-269 -414v-286h-34v285l-270 415h41l246 -379zM288 790l74 127h46l-92 -127h-28z" />
    <glyph glyph-name="Thorn" unicode="&#xde;" horiz-adv-x="614" 
d="M587 359q0 -80 -66 -131.5t-166 -51.5h-223v-176h-35v700h35v-156h223q100 0 166 -52t66 -133zM550 359q0 71 -54 113t-142 42h-222v-308h222q87 0 141.5 42t54.5 111z" />
    <glyph glyph-name="germandbls" unicode="&#xdf;" horiz-adv-x="575" 
d="M83 0v491q0 101 57 159q58 60 153 60q83 0 132.5 -45.5t49.5 -109.5q-3 -51 -26 -76.5t-79 -57.5q-37 -21 -51.5 -34t-14.5 -32q0 -20 18 -33.5t65 -32.5q38 -15 57 -25t41 -27t31.5 -40.5t11.5 -56.5q0 -69 -50 -109.5t-136 -40.5q-62 0 -130 21l5 32q66 -24 127 -24
q68 0 108.5 32.5t40.5 86.5q-3 49 -29 72.5t-90 51.5q-55 23 -77 41.5t-22 49.5q0 27 16 44t59 43q49 29 69.5 52.5t20.5 62.5q0 52 -39 89t-108 37q-80 0 -128 -52t-48 -138v-491h-34z" />
    <glyph glyph-name="agrave" unicode="&#xe0;" horiz-adv-x="500" 
d="M424 333v-333h-34v111q-21 -57 -70 -89t-117 -32q-70 0 -112.5 34.5t-42.5 93.5q0 56 32 88q30 30 71 44t119 27q67 10 93.5 21.5t26.5 34.5v3q0 57 -38 93t-100 36q-54 0 -98 -29.5t-67 -81.5l-31 16q30 58 81.5 90.5t116.5 32.5q76 0 123 -44t47 -116zM390 188v98
q-25 -17 -115 -34q-64 -12 -101 -24q-91 -28 -91 -110q0 -47 34 -74.5t91 -27.5q78 0 130 49.5t52 122.5zM276 573h-28l-92 127h46z" />
    <glyph glyph-name="aacute" unicode="&#xe1;" horiz-adv-x="500" 
d="M424 333v-333h-34v111q-21 -57 -70 -89t-117 -32q-70 0 -112.5 34.5t-42.5 93.5q0 56 32 88q30 30 71 44t119 27q67 10 93.5 21.5t26.5 34.5v3q0 57 -38 93t-100 36q-54 0 -98 -29.5t-67 -81.5l-31 16q30 58 81.5 90.5t116.5 32.5q76 0 123 -44t47 -116zM390 188v98
q-25 -17 -115 -34q-64 -12 -101 -24q-91 -28 -91 -110q0 -47 34 -74.5t91 -27.5q78 0 130 49.5t52 122.5zM230 573l74 127h46l-92 -127h-28z" />
    <glyph glyph-name="acircumflex" unicode="&#xe2;" horiz-adv-x="500" 
d="M424 333v-333h-34v111q-21 -57 -70 -89t-117 -32q-70 0 -112.5 34.5t-42.5 93.5q0 56 32 88q30 30 71 44t119 27q67 10 93.5 21.5t26.5 34.5v3q0 57 -38 93t-100 36q-54 0 -98 -29.5t-67 -81.5l-31 16q30 58 81.5 90.5t116.5 32.5q76 0 123 -44t47 -116zM390 188v98
q-25 -17 -115 -34q-64 -12 -101 -24q-91 -28 -91 -110q0 -47 34 -74.5t91 -27.5q78 0 130 49.5t52 122.5zM125 572l110 128h30l112 -128h-31l-95 100l-95 -100h-31z" />
    <glyph glyph-name="atilde" unicode="&#xe3;" horiz-adv-x="500" 
d="M424 333v-333h-34v111q-21 -57 -70 -89t-117 -32q-70 0 -112.5 34.5t-42.5 93.5q0 56 32 88q30 30 71 44t119 27q67 10 93.5 21.5t26.5 34.5v3q0 57 -38 93t-100 36q-54 0 -98 -29.5t-67 -81.5l-31 16q30 58 81.5 90.5t116.5 32.5q76 0 123 -44t47 -116zM390 188v98
q-25 -17 -115 -34q-64 -12 -101 -24q-91 -28 -91 -110q0 -47 34 -74.5t91 -27.5q78 0 130 49.5t52 122.5zM246 650q-37 22 -55 22q-36 0 -54 -42l-23 7q26 64 78 64q22 0 65 -25q33 -23 55 -23q36 0 54 43l23 -6q-24 -66 -77 -66q-25 0 -66 26z" />
    <glyph glyph-name="adieresis" unicode="&#xe4;" horiz-adv-x="500" 
d="M125 654q0 13 8.5 21.5t22.5 8.5q30 0 30 -30q0 -13 -8.5 -21t-21.5 -8q-14 0 -22.5 8t-8.5 21zM316 654q0 13 8.5 21.5t22.5 8.5q30 0 30 -30q0 -13 -8.5 -21t-21.5 -8q-14 0 -22.5 8t-8.5 21zM424 333v-333h-34v111q-21 -57 -70 -89t-117 -32q-70 0 -112.5 34.5
t-42.5 93.5q0 56 32 88q30 30 71 44t119 27q67 10 93.5 21.5t26.5 34.5v3q0 57 -38 93t-100 36q-54 0 -98 -29.5t-67 -81.5l-31 16q30 58 81.5 90.5t116.5 32.5q76 0 123 -44t47 -116zM390 188v98q-25 -17 -115 -34q-64 -12 -101 -24q-91 -28 -91 -110q0 -47 34 -74.5
t91 -27.5q78 0 130 49.5t52 122.5z" />
    <glyph glyph-name="aring" unicode="&#xe5;" horiz-adv-x="500" 
d="M424 333v-333h-34v111q-21 -57 -70 -89t-117 -32q-70 0 -112.5 34.5t-42.5 93.5q0 56 32 88q30 30 71 44t119 27q67 10 93.5 21.5t26.5 34.5v3q0 57 -38 93t-100 36q-54 0 -98 -29.5t-67 -81.5l-31 16q30 58 81.5 90.5t116.5 32.5q76 0 123 -44t47 -116zM390 188v98
q-25 -17 -115 -34q-64 -12 -101 -24q-91 -28 -91 -110q0 -47 34 -74.5t91 -27.5q78 0 130 49.5t52 122.5zM160 647q0 39 26 63.5t65 24.5t65.5 -25t26.5 -63t-26.5 -62.5t-65.5 -24.5t-65 24.5t-26 62.5zM318 647q0 29 -19.5 47.5t-47.5 18.5t-47 -18.5t-19 -47.5t19 -47
t47 -18t47.5 18t19.5 47z" />
    <glyph glyph-name="ae" unicode="&#xe6;" horiz-adv-x="882" 
d="M840 239h-415q1 -99 57.5 -160t142.5 -61q59 0 103.5 29.5t65.5 81.5l33 -15q-28 -59 -80 -91.5t-121 -32.5q-74 0 -130.5 37t-83.5 103q-18 -68 -72 -104t-135 -36q-77 0 -117 33.5t-40 94.5q0 56 32 88q30 30 71 44t119 27q67 10 93.5 21.5t26.5 34.5v3q0 57 -38 93
t-100 36q-54 0 -98 -29.5t-67 -81.5l-31 16q30 58 81 90.5t116 32.5q66 0 109 -33.5t54 -93.5q28 60 83 93.5t124 33.5q98 0 158 -65.5t60 -173.5q0 -12 -1 -15zM426 265h380q-2 92 -51 146.5t-131 54.5q-84 0 -138 -54.5t-60 -146.5zM390 191v96q-25 -19 -117 -36
q-58 -10 -99 -23q-91 -27 -91 -110q0 -49 32.5 -75.5t94.5 -26.5q83 0 131.5 46.5t48.5 128.5z" />
    <glyph glyph-name="ccedilla" unicode="&#xe7;" horiz-adv-x="537" 
d="M290 -10h-6l-27 -56q11 4 26 4q34 0 56.5 -20t22.5 -52q0 -36 -25.5 -57.5t-67.5 -21.5q-47 0 -76 23l14 22q21 -21 62 -21q28 0 45 15t17 40q0 23 -15.5 37t-41.5 14q-24 0 -42 -9l-9 6l34 78q-94 11 -155 81t-61 168q0 109 72 180.5t177 71.5q72 0 126 -36t81 -100
l-32 -11q-22 57 -67.5 88t-107.5 31q-91 0 -152 -62.5t-61 -161.5q0 -98 61 -160.5t152 -62.5q63 0 108.5 31.5t66.5 88.5l33 -10q-27 -64 -81.5 -101t-126.5 -37z" />
    <glyph glyph-name="egrave" unicode="&#xe8;" horiz-adv-x="533" 
d="M491 239h-415q1 -99 57.5 -160t142.5 -61q59 0 103.5 29.5t65.5 81.5l33 -15q-28 -59 -80 -91.5t-121 -32.5q-103 0 -169.5 71t-66.5 182t66.5 180.5t166.5 69.5q98 0 158 -65.5t60 -173.5q0 -12 -1 -15zM77 265h380q-2 92 -51 146.5t-131 54.5q-84 0 -138 -54.5
t-60 -146.5zM300 573h-28l-92 127h46z" />
    <glyph glyph-name="eacute" unicode="&#xe9;" horiz-adv-x="533" 
d="M491 239h-415q1 -99 57.5 -160t142.5 -61q59 0 103.5 29.5t65.5 81.5l33 -15q-28 -59 -80 -91.5t-121 -32.5q-103 0 -169.5 71t-66.5 182t66.5 180.5t166.5 69.5q98 0 158 -65.5t60 -173.5q0 -12 -1 -15zM77 265h380q-2 92 -51 146.5t-131 54.5q-84 0 -138 -54.5
t-60 -146.5zM254 573l74 127h46l-92 -127h-28z" />
    <glyph glyph-name="ecircumflex" unicode="&#xea;" horiz-adv-x="533" 
d="M491 239h-415q1 -99 57.5 -160t142.5 -61q59 0 103.5 29.5t65.5 81.5l33 -15q-28 -59 -80 -91.5t-121 -32.5q-103 0 -169.5 71t-66.5 182t66.5 180.5t166.5 69.5q98 0 158 -65.5t60 -173.5q0 -12 -1 -15zM77 265h380q-2 92 -51 146.5t-131 54.5q-84 0 -138 -54.5
t-60 -146.5zM149 572l110 128h30l112 -128h-31l-95 100l-95 -100h-31z" />
    <glyph glyph-name="edieresis" unicode="&#xeb;" horiz-adv-x="533" 
d="M149 654q0 13 8.5 21.5t22.5 8.5q30 0 30 -30q0 -13 -8.5 -21t-21.5 -8q-14 0 -22.5 8t-8.5 21zM340 654q0 13 8.5 21.5t22.5 8.5q30 0 30 -30q0 -13 -8.5 -21t-21.5 -8q-14 0 -22.5 8t-8.5 21zM491 239h-415q1 -99 57.5 -160t142.5 -61q59 0 103.5 29.5t65.5 81.5
l33 -15q-28 -59 -80 -91.5t-121 -32.5q-103 0 -169.5 71t-66.5 182t66.5 180.5t166.5 69.5q98 0 158 -65.5t60 -173.5q0 -12 -1 -15zM77 265h380q-2 92 -51 146.5t-131 54.5q-84 0 -138 -54.5t-60 -146.5z" />
    <glyph glyph-name="igrave" unicode="&#xec;" horiz-adv-x="196" 
d="M81 0v483h34v-483h-34zM110 573h-28l-92 127h46z" />
    <glyph glyph-name="iacute" unicode="&#xed;" horiz-adv-x="196" 
d="M81 0v483h34v-483h-34zM77 573l74 127h46l-92 -127h-28z" />
    <glyph glyph-name="icircumflex" unicode="&#xee;" horiz-adv-x="196" 
d="M81 0v483h34v-483h-34zM-28 572l110 128h30l112 -128h-31l-95 100l-95 -100h-31z" />
    <glyph glyph-name="idieresis" unicode="&#xef;" horiz-adv-x="196" 
d="M-28 654q0 13 8.5 21.5t22.5 8.5q30 0 30 -30q0 -13 -8.5 -21t-21.5 -8q-14 0 -22.5 8t-8.5 21zM163 654q0 13 8.5 21.5t22.5 8.5q30 0 30 -30q0 -13 -8.5 -21t-21.5 -8q-14 0 -22.5 8t-8.5 21zM81 0v483h34v-483h-34z" />
    <glyph glyph-name="eth" unicode="&#xf0;" horiz-adv-x="579" 
d="M538 247q0 -115 -70.5 -186t-177.5 -71q-106 0 -177.5 71t-71.5 179t70.5 177.5t174.5 69.5q119 0 190 -95q-53 130 -187 217l-151 -64l-10 21l137 58q-54 32 -118 59l41 17q66 -30 111 -62l87 37l10 -21l-74 -31q104 -75 160 -173t56 -203zM503 240q0 98 -61 158.5
t-153 60.5t-152 -60.5t-60 -158.5q0 -97 61 -159.5t152 -62.5t152 62.5t61 159.5z" />
    <glyph glyph-name="ntilde" unicode="&#xf1;" horiz-adv-x="558" 
d="M482 306v-306h-35v305q0 77 -40.5 119t-111.5 42q-81 0 -130.5 -61.5t-49.5 -165.5v-239h-34v483h34v-133q22 68 70.5 105.5t116.5 37.5q84 0 132 -48.5t48 -138.5zM281 650q-37 22 -55 22q-36 0 -54 -42l-23 7q26 64 78 64q22 0 65 -25q33 -23 55 -23q36 0 54 43l23 -6
q-24 -66 -77 -66q-25 0 -66 26z" />
    <glyph glyph-name="ograve" unicode="&#xf2;" horiz-adv-x="579" 
d="M538 241q0 -109 -71 -180t-177 -71q-105 0 -177 71.5t-72 179.5q0 109 72 180.5t177 71.5q106 0 177 -71.5t71 -180.5zM503 241q0 99 -61 161.5t-152 62.5t-152 -62.5t-61 -161.5q0 -98 61 -160.5t152 -62.5t152 62.5t61 160.5zM315 573h-28l-92 127h46z" />
    <glyph glyph-name="oacute" unicode="&#xf3;" horiz-adv-x="579" 
d="M538 241q0 -109 -71 -180t-177 -71q-105 0 -177 71.5t-72 179.5q0 109 72 180.5t177 71.5q106 0 177 -71.5t71 -180.5zM503 241q0 99 -61 161.5t-152 62.5t-152 -62.5t-61 -161.5q0 -98 61 -160.5t152 -62.5t152 62.5t61 160.5zM269 573l74 127h46l-92 -127h-28z" />
    <glyph glyph-name="ocircumflex" unicode="&#xf4;" horiz-adv-x="579" 
d="M538 241q0 -109 -71 -180t-177 -71q-105 0 -177 71.5t-72 179.5q0 109 72 180.5t177 71.5q106 0 177 -71.5t71 -180.5zM503 241q0 99 -61 161.5t-152 62.5t-152 -62.5t-61 -161.5q0 -98 61 -160.5t152 -62.5t152 62.5t61 160.5zM164 572l110 128h30l112 -128h-31l-95 100
l-95 -100h-31z" />
    <glyph glyph-name="otilde" unicode="&#xf5;" horiz-adv-x="579" 
d="M538 241q0 -109 -71 -180t-177 -71q-105 0 -177 71.5t-72 179.5q0 109 72 180.5t177 71.5q106 0 177 -71.5t71 -180.5zM503 241q0 99 -61 161.5t-152 62.5t-152 -62.5t-61 -161.5q0 -98 61 -160.5t152 -62.5t152 62.5t61 160.5zM285 650q-37 22 -55 22q-36 0 -54 -42
l-23 7q26 64 78 64q22 0 65 -25q33 -23 55 -23q36 0 54 43l23 -6q-24 -66 -77 -66q-25 0 -66 26z" />
    <glyph glyph-name="odieresis" unicode="&#xf6;" horiz-adv-x="579" 
d="M164 654q0 13 8.5 21.5t22.5 8.5q30 0 30 -30q0 -13 -8.5 -21t-21.5 -8q-14 0 -22.5 8t-8.5 21zM355 654q0 13 8.5 21.5t22.5 8.5q30 0 30 -30q0 -13 -8.5 -21t-21.5 -8q-14 0 -22.5 8t-8.5 21zM538 241q0 -109 -71 -180t-177 -71q-105 0 -177 71.5t-72 179.5
q0 109 72 180.5t177 71.5q106 0 177 -71.5t71 -180.5zM503 241q0 99 -61 161.5t-152 62.5t-152 -62.5t-61 -161.5q0 -98 61 -160.5t152 -62.5t152 62.5t61 160.5z" />
    <glyph glyph-name="divide" unicode="&#xf7;" horiz-adv-x="486" 
d="M213 491q0 13 8.5 21.5t22.5 8.5q30 0 30 -30q0 -13 -8.5 -21t-21.5 -8q-14 0 -22.5 8t-8.5 21zM43 317v28h400v-28h-400zM274 171q0 -13 -8 -21.5t-22 -8.5t-22.5 8.5t-8.5 21.5t8.5 21t22.5 8q13 0 21.5 -8t8.5 -21z" />
    <glyph glyph-name="oslash" unicode="&#xf8;" horiz-adv-x="579" 
d="M538 241q0 -109 -71 -180t-177 -71q-86 0 -155 51l-57 -68l-21 16l58 70q-74 71 -74 182q0 109 72 180.5t177 71.5q82 0 147 -45l63 76l22 -16l-64 -77q80 -74 80 -190zM135 83l283 341q-56 41 -128 41q-91 0 -152 -62.5t-61 -161.5q0 -96 58 -158zM503 241
q0 103 -65 166l-284 -342q59 -47 136 -47q91 0 152 62.5t61 160.5z" />
    <glyph glyph-name="ugrave" unicode="&#xf9;" horiz-adv-x="558" 
d="M443 483h34v-483h-34v133q-22 -68 -70.5 -105.5t-116.5 -37.5q-84 0 -132 48.5t-48 138.5v306h35v-305q0 -77 40.5 -119t111.5 -42q81 0 130.5 61.5t49.5 165.5v239zM304 573h-28l-92 127h46z" />
    <glyph glyph-name="uacute" unicode="&#xfa;" horiz-adv-x="558" 
d="M443 483h34v-483h-34v133q-22 -68 -70.5 -105.5t-116.5 -37.5q-84 0 -132 48.5t-48 138.5v306h35v-305q0 -77 40.5 -119t111.5 -42q81 0 130.5 61.5t49.5 165.5v239zM258 573l74 127h46l-92 -127h-28z" />
    <glyph glyph-name="ucircumflex" unicode="&#xfb;" horiz-adv-x="558" 
d="M443 483h34v-483h-34v133q-22 -68 -70.5 -105.5t-116.5 -37.5q-84 0 -132 48.5t-48 138.5v306h35v-305q0 -77 40.5 -119t111.5 -42q81 0 130.5 61.5t49.5 165.5v239zM153 572l110 128h30l112 -128h-31l-95 100l-95 -100h-31z" />
    <glyph glyph-name="udieresis" unicode="&#xfc;" horiz-adv-x="558" 
d="M153 654q0 13 8.5 21.5t22.5 8.5q30 0 30 -30q0 -13 -8.5 -21t-21.5 -8q-14 0 -22.5 8t-8.5 21zM344 654q0 13 8.5 21.5t22.5 8.5q30 0 30 -30q0 -13 -8.5 -21t-21.5 -8q-14 0 -22.5 8t-8.5 21zM443 483h34v-483h-34v133q-22 -68 -70.5 -105.5t-116.5 -37.5
q-84 0 -132 48.5t-48 138.5v306h35v-305q0 -77 40.5 -119t111.5 -42q81 0 130.5 61.5t49.5 165.5v239z" />
    <glyph glyph-name="yacute" unicode="&#xfd;" horiz-adv-x="512" 
d="M443 483h36l-326 -693h-43l134 262l-211 431h39l191 -392zM240 573l74 127h46l-92 -127h-28z" />
    <glyph glyph-name="thorn" unicode="&#xfe;" horiz-adv-x="594" 
d="M553 241q0 -113 -63.5 -182t-170.5 -69q-75 0 -128 37.5t-76 104.5v-342h-34v910h35v-217h-1v-133q24 68 76.5 105.5t127.5 37.5q107 0 170.5 -68.5t63.5 -183.5zM518 241q0 102 -55 163t-148 61q-91 0 -146 -61q-54 -61 -54 -163q0 -101 54 -162q55 -61 146 -61
t147 62.5t56 160.5z" />
    <glyph glyph-name="ydieresis" unicode="&#xff;" horiz-adv-x="512" 
d="M135 607q0 13 8.5 21.5t22.5 8.5q30 0 30 -30q0 -13 -8.5 -21t-21.5 -8q-14 0 -22.5 8t-8.5 21zM326 607q0 13 8.5 21.5t22.5 8.5q30 0 30 -30q0 -13 -8.5 -21t-21.5 -8q-14 0 -22.5 8t-8.5 21zM443 483h36l-326 -693h-43l134 262l-211 431h39l191 -392z" />
    <glyph glyph-name="Amacron" unicode="&#x100;" horiz-adv-x="732" 
d="M651 0l-98 226h-377l-97 -226h-37l301 700h42l305 -700h-39zM188 255h353l-177 409zM253 846h226v-27h-226v27z" />
    <glyph glyph-name="amacron" unicode="&#x101;" horiz-adv-x="500" 
d="M424 333v-333h-34v111q-21 -57 -70 -89t-117 -32q-70 0 -112.5 34.5t-42.5 93.5q0 56 32 88q30 30 71 44t119 27q67 10 93.5 21.5t26.5 34.5v3q0 57 -38 93t-100 36q-54 0 -98 -29.5t-67 -81.5l-31 16q30 58 81.5 90.5t116.5 32.5q76 0 123 -44t47 -116zM390 188v98
q-25 -17 -115 -34q-64 -12 -101 -24q-91 -28 -91 -110q0 -47 34 -74.5t91 -27.5q78 0 130 49.5t52 122.5zM138 656h226v-27h-226v27z" />
    <glyph glyph-name="Abreve" unicode="&#x102;" horiz-adv-x="732" 
d="M651 0l-98 226h-377l-97 -226h-37l301 700h42l305 -700h-39zM188 255h353l-177 409zM254 914h26q3 -45 25.5 -71t59.5 -26t60.5 26.5t27.5 70.5h25q-3 -54 -34.5 -88t-78.5 -34q-46 0 -77 34t-34 88z" />
    <glyph glyph-name="abreve" unicode="&#x103;" horiz-adv-x="500" 
d="M424 333v-333h-34v111q-21 -57 -70 -89t-117 -32q-70 0 -112.5 34.5t-42.5 93.5q0 56 32 88q30 30 71 44t119 27q67 10 93.5 21.5t26.5 34.5v3q0 57 -38 93t-100 36q-54 0 -98 -29.5t-67 -81.5l-31 16q30 58 81.5 90.5t116.5 32.5q76 0 123 -44t47 -116zM390 188v98
q-25 -17 -115 -34q-64 -12 -101 -24q-91 -28 -91 -110q0 -47 34 -74.5t91 -27.5q78 0 130 49.5t52 122.5zM139 697h26q3 -45 25.5 -71t59.5 -26t60.5 26.5t27.5 70.5h25q-3 -54 -34.5 -88t-78.5 -34q-46 0 -77 34t-34 88z" />
    <glyph glyph-name="Aogonek" unicode="&#x104;" horiz-adv-x="732" 
d="M651 0l-98 226h-377l-97 -226h-37l301 700h42l305 -700h-39zM188 255h353l-177 409zM562 -107q0 27 20.5 52t68.5 55h23q-44 -32 -61.5 -54.5t-17.5 -44.5q0 -21 14.5 -33t38.5 -12q27 0 51 15l7 -29q-25 -13 -63 -13q-37 0 -59 17t-22 47z" />
    <glyph glyph-name="aogonek" unicode="&#x105;" horiz-adv-x="500" 
d="M448 -126l7 -29q-25 -13 -63 -13q-37 0 -59 17t-22 47q0 26 19.5 50t64.5 54h-5v111q-21 -57 -70 -89t-117 -32q-70 0 -112.5 34.5t-42.5 93.5q0 56 32 88q30 30 71 44t119 27q67 10 93.5 21.5t26.5 34.5v3q0 57 -38 93t-100 36q-54 0 -98 -29.5t-67 -81.5l-31 16
q30 58 81.5 90.5t116.5 32.5q76 0 123 -44t47 -116v-333h-5q-75 -55 -75 -96q0 -21 14.5 -33t38.5 -12q27 0 51 15zM390 188v98q-25 -17 -115 -34q-64 -12 -101 -24q-91 -28 -91 -110q0 -47 34 -74.5t91 -27.5q78 0 130 49.5t52 122.5z" />
    <glyph glyph-name="Cacute" unicode="&#x106;" horiz-adv-x="763" 
d="M674 211l37 -10q-33 -95 -115 -153t-188 -58q-151 -2 -252 100t-99 260q-2 156 98.5 259t250.5 101q105 1 189 -58q83 -59 116 -153l-37 -10q-28 84 -99 137t-167 53q-135 2 -225.5 -92t-88.5 -237q-2 -143 88.5 -237t225.5 -92q97 0 167 52q71 53 99 138zM367 790
l74 127h46l-92 -127h-28z" />
    <glyph glyph-name="cacute" unicode="&#x107;" horiz-adv-x="537" 
d="M41 241q0 109 72 180.5t177 71.5q72 0 126 -36t81 -100l-32 -11q-22 57 -67.5 88t-107.5 31q-91 0 -152 -62.5t-61 -161.5q0 -98 61 -160.5t152 -62.5q63 0 108.5 31.5t66.5 88.5l33 -10q-27 -64 -81.5 -101t-126.5 -37q-105 0 -177 71.5t-72 179.5zM271 573l74 127h46
l-92 -127h-28z" />
    <glyph glyph-name="Ccaron" unicode="&#x10c;" horiz-adv-x="763" 
d="M674 211l37 -10q-33 -95 -115 -153t-188 -58q-151 -2 -252 100t-99 260q-2 156 98.5 259t250.5 101q105 1 189 -58q83 -59 116 -153l-37 -10q-28 84 -99 137t-167 53q-135 2 -225.5 -92t-88.5 -237q-2 -143 88.5 -237t225.5 -92q97 0 167 52q71 53 99 138zM262 918h31
l95 -100l95 100h31l-112 -128h-30z" />
    <glyph glyph-name="ccaron" unicode="&#x10d;" horiz-adv-x="537" 
d="M41 241q0 109 72 180.5t177 71.5q72 0 126 -36t81 -100l-32 -11q-22 57 -67.5 88t-107.5 31q-91 0 -152 -62.5t-61 -161.5q0 -98 61 -160.5t152 -62.5q63 0 108.5 31.5t66.5 88.5l33 -10q-27 -64 -81.5 -101t-126.5 -37q-105 0 -177 71.5t-72 179.5zM166 701h31l95 -100
l95 100h31l-112 -128h-30z" />
    <glyph glyph-name="Dcaron" unicode="&#x10e;" horiz-adv-x="744" 
d="M97 0v700h233q157 0 257 -97.5t100 -252.5t-100 -252.5t-257 -97.5h-233zM133 30h197q142 0 231 89t89 231t-89 230.5t-231 88.5h-197v-639zM216 918h31l95 -100l95 100h31l-112 -128h-30z" />
    <glyph glyph-name="dcaron" unicode="&#x10f;" horiz-adv-x="596" 
d="M479 700h35v-700h-35v133q-24 -68 -76.5 -105.5t-127.5 -37.5q-107 0 -170.5 68.5t-63.5 183.5q0 113 63.5 182t170.5 69q75 0 128 -37.5t76 -104.5v349zM479 242q0 101 -55 162q-54 61 -145 61t-147 -62.5t-56 -160.5q0 -102 55 -163t148 -61q91 0 145 61q55 61 55 163z
M595 700h39l-28 -149h-23z" />
    <glyph glyph-name="Dcroat" unicode="&#x110;" horiz-adv-x="749" 
d="M692 350q0 -155 -100 -252.5t-257 -97.5h-233v342h-77v29h77v329h233q157 0 257 -97.5t100 -252.5zM655 350q0 142 -89 230.5t-231 88.5h-197v-298h237v-29h-237v-312h197q142 0 231 89t89 231z" />
    <glyph glyph-name="dslash" unicode="&#x111;" horiz-adv-x="596" 
d="M573 603v-26h-59v-577h-35v133q-24 -68 -76.5 -105.5t-127.5 -37.5q-107 0 -170.5 68.5t-63.5 183.5q0 113 63.5 182t170.5 69q75 0 128 -37.5t76 -104.5v226h-215v26h215v97h35v-97h59zM479 242q0 101 -55 162q-54 61 -145 61t-147 -62.5t-56 -160.5q0 -102 55 -163
t148 -61q91 0 145 61q55 61 55 163z" />
    <glyph glyph-name="Emacron" unicode="&#x112;" horiz-adv-x="615" 
d="M548 670h-415v-281h375v-30h-375v-329h415v-30h-451v700h452zM223 846h226v-27h-226v27z" />
    <glyph glyph-name="emacron" unicode="&#x113;" horiz-adv-x="533" 
d="M491 239h-415q1 -99 57.5 -160t142.5 -61q59 0 103.5 29.5t65.5 81.5l33 -15q-28 -59 -80 -91.5t-121 -32.5q-103 0 -169.5 71t-66.5 182t66.5 180.5t166.5 69.5q98 0 158 -65.5t60 -173.5q0 -12 -1 -15zM77 265h380q-2 92 -51 146.5t-131 54.5q-84 0 -138 -54.5
t-60 -146.5zM162 656h226v-27h-226v27z" />
    <glyph glyph-name="Edotaccent" unicode="&#x116;" horiz-adv-x="615" 
d="M548 670h-415v-281h375v-30h-375v-329h415v-30h-451v700h452zM302 824q0 13 8.5 21.5t22.5 8.5q13 0 21.5 -8t8.5 -22q0 -13 -8.5 -21t-21.5 -8q-14 0 -22.5 8t-8.5 21z" />
    <glyph glyph-name="edotaccent" unicode="&#x117;" horiz-adv-x="533" 
d="M491 239h-415q1 -99 57.5 -160t142.5 -61q59 0 103.5 29.5t65.5 81.5l33 -15q-28 -59 -80 -91.5t-121 -32.5q-103 0 -169.5 71t-66.5 182t66.5 180.5t166.5 69.5q98 0 158 -65.5t60 -173.5q0 -12 -1 -15zM77 265h380q-2 92 -51 146.5t-131 54.5q-84 0 -138 -54.5
t-60 -146.5zM241 654q0 13 8.5 21.5t22.5 8.5q30 0 30 -30q0 -13 -8.5 -21t-21.5 -8q-14 0 -22.5 8t-8.5 21z" />
    <glyph glyph-name="Eogonek" unicode="&#x118;" horiz-adv-x="615" 
d="M548 670h-415v-281h375v-30h-375v-329h415v-30h-451v700h452zM401 -107q0 27 20.5 52t68.5 55h23q-44 -32 -61.5 -54.5t-17.5 -44.5q0 -21 14.5 -33t38.5 -12q27 0 51 15l7 -29q-25 -13 -63 -13q-37 0 -59 17t-22 47z" />
    <glyph glyph-name="eogonek" unicode="&#x119;" horiz-adv-x="533" 
d="M491 239h-415q1 -99 57.5 -160t142.5 -61q59 0 103.5 29.5t65.5 81.5l33 -15q-15 -30 -35 -53l-11 -11q-58 -61 -73 -83q-16 -25 -16 -48q0 -21 14.5 -33.5t37.5 -12.5q29 0 51 15l8 -28q-26 -14 -63 -14q-36 0 -58.5 18t-22.5 47q0 37 68 101q-45 -22 -101 -22
q-103 0 -169.5 71t-66.5 182t66.5 180.5t166.5 69.5q98 0 158 -65.5t60 -173.5q0 -12 -1 -15zM77 265h380q-2 92 -51 146.5t-131 54.5q-84 0 -138 -54.5t-60 -146.5z" />
    <glyph glyph-name="Ecaron" unicode="&#x11a;" horiz-adv-x="615" 
d="M548 670h-415v-281h375v-30h-375v-329h415v-30h-451v700h452zM210 918h31l95 -100l95 100h31l-112 -128h-30z" />
    <glyph glyph-name="ecaron" unicode="&#x11b;" horiz-adv-x="533" 
d="M491 239h-415q1 -99 57.5 -160t142.5 -61q59 0 103.5 29.5t65.5 81.5l33 -15q-28 -59 -80 -91.5t-121 -32.5q-103 0 -169.5 71t-66.5 182t66.5 180.5t166.5 69.5q98 0 158 -65.5t60 -173.5q0 -12 -1 -15zM77 265h380q-2 92 -51 146.5t-131 54.5q-84 0 -138 -54.5
t-60 -146.5zM149 701h31l95 -100l95 100h31l-112 -128h-30z" />
    <glyph glyph-name="Gbreve" unicode="&#x11e;" horiz-adv-x="772" 
d="M450 262v30h243v-239q-112 -63 -267 -63q-167 -2 -269 100t-100 258q-2 157 99.5 260.5t250.5 101.5q108 0 190 -58q83 -59 116 -153l-37 -10q-28 87 -100.5 138.5t-168.5 51.5q-134 2 -224.5 -92.5t-88.5 -238.5q0 -145 89 -236t244 -91q144 0 234 46v195h-211zM274 914
h26q3 -45 25.5 -71t59.5 -26t60.5 26.5t27.5 70.5h25q-3 -54 -34.5 -88t-78.5 -34q-46 0 -77 34t-34 88z" />
    <glyph glyph-name="gbreve" unicode="&#x11f;" horiz-adv-x="594" 
d="M479 483h34v-492q0 -95 -66.5 -153t-170.5 -58q-78 0 -136 33.5t-86 92.5l29 15q23 -53 74.5 -83t118.5 -30q89 0 146 51t57 132v149q-24 -66 -76.5 -102t-128.5 -36q-106 0 -169.5 66.5t-63.5 177.5q0 112 63.5 179.5t169.5 67.5q76 0 128.5 -36t76.5 -102v128zM480 248
q0 100 -54.5 159t-146.5 59q-93 0 -148 -60t-55 -160q0 -99 55 -158t148 -59q92 0 146.5 59t54.5 160zM182 697h26q3 -45 25.5 -71t59.5 -26t60.5 26.5t27.5 70.5h25q-3 -54 -34.5 -88t-78.5 -34q-46 0 -77 34t-34 88z" />
    <glyph glyph-name="Gcommaaccent" unicode="&#x122;" horiz-adv-x="772" 
d="M450 262v30h243v-239q-112 -63 -267 -63q-167 -2 -269 100t-100 258q-2 157 99.5 260.5t250.5 101.5q108 0 190 -58q83 -59 116 -153l-37 -10q-28 87 -100.5 138.5t-168.5 51.5q-134 2 -224.5 -92.5t-88.5 -238.5q0 -145 89 -236t244 -91q144 0 234 46v195h-211z
M333 -232l-3 18q39 2 52 21.5t13 59.5q0 7 -9 9q-28 4 -28 28q0 12 8.5 20t21.5 8q30 0 30 -41q0 -26 -1 -39.5t-5.5 -31t-13.5 -26.5t-25 -16t-40 -10z" />
    <glyph glyph-name="gcommaaccent" unicode="&#x123;" horiz-adv-x="594" 
d="M479 483h34v-492q0 -95 -66.5 -153t-170.5 -58q-78 0 -136 33.5t-86 92.5l29 15q23 -53 74.5 -83t118.5 -30q89 0 146 51t57 132v149q-24 -66 -76.5 -102t-128.5 -36q-106 0 -169.5 66.5t-63.5 177.5q0 112 63.5 179.5t169.5 67.5q76 0 128.5 -36t76.5 -102v128zM480 248
q0 100 -54.5 159t-146.5 59q-93 0 -148 -60t-55 -160q0 -99 55 -158t148 -59q92 0 146.5 59t54.5 160zM344 736l3 -18q-39 -2 -52 -21.5t-13 -59.5q0 -7 9 -9q28 -4 28 -28q0 -12 -8.5 -20t-21.5 -8q-30 0 -30 41q0 26 1 39.5t5.5 31t13.5 26.5t25 16t40 10z" />
    <glyph glyph-name="hbar" unicode="&#x127;" horiz-adv-x="558" 
d="M482 306v-306h-35v305q0 77 -40.5 119t-111.5 42q-81 0 -130.5 -61.5t-49.5 -165.5v-239h-34v577h-78v26h78v97h34v-97h197v-26h-197v-227q22 68 70.5 105.5t116.5 37.5q84 0 132 -48.5t48 -138.5z" />
    <glyph glyph-name="Imacron" unicode="&#x12a;" horiz-adv-x="249" 
d="M107 700h36v-700h-36v700zM12 846h226v-27h-226v27z" />
    <glyph glyph-name="imacron" unicode="&#x12b;" horiz-adv-x="196" 
d="M81 0v483h34v-483h-34zM-15 656h226v-27h-226v27z" />
    <glyph glyph-name="Iogonek" unicode="&#x12e;" horiz-adv-x="249" 
d="M107 700h36v-700h-36v700zM27 -107q0 27 20.5 52t68.5 55h23q-44 -32 -61.5 -54.5t-17.5 -44.5q0 -21 14.5 -33t38.5 -12q27 0 51 15l7 -29q-25 -13 -63 -13q-37 0 -59 17t-22 47z" />
    <glyph glyph-name="iogonek" unicode="&#x12f;" horiz-adv-x="196" 
d="M64 654q0 13 8.5 21.5t22.5 8.5q30 0 30 -30q0 -13 -8.5 -21t-21.5 -8q-14 0 -22.5 8t-8.5 21zM139 -126l7 -29q-25 -13 -63 -13q-37 0 -59 17t-22 47q0 26 19.5 50t64.5 54h-5v483h34v-483h-5q-75 -55 -75 -96q0 -21 14.5 -33t38.5 -12q27 0 51 15z" />
    <glyph glyph-name="Idot" unicode="&#x130;" horiz-adv-x="249" 
d="M107 700h36v-700h-36v700zM91 824q0 13 8.5 21.5t22.5 8.5q13 0 21.5 -8t8.5 -22q0 -13 -8.5 -21t-21.5 -8q-14 0 -22.5 8t-8.5 21z" />
    <glyph glyph-name="dotlessi" unicode="&#x131;" horiz-adv-x="196" 
d="M81 0v483h34v-483h-34z" />
    <glyph glyph-name="IJ" unicode="&#x132;" horiz-adv-x="811" 
d="M107 700h36v-700h-36v700zM291 150l35 15q19 -64 65.5 -100.5t112.5 -36.5q82 0 130.5 51t48.5 136v485h36v-485q0 -98 -59.5 -158t-155.5 -60q-76 0 -132.5 41t-80.5 112z" />
    <glyph glyph-name="ij" unicode="&#x133;" horiz-adv-x="396" 
d="M69 654q0 13 8.5 21.5t22.5 8.5q30 0 30 -30q0 -13 -8.5 -21t-21.5 -8q-14 0 -22.5 8t-8.5 21zM267 654q0 13 8.5 21.5t22.5 8.5q30 0 30 -30q0 -13 -8.5 -21t-21.5 -8q-14 0 -22.5 8t-8.5 21zM81 0v483h34v-483h-34zM313 483v-550q0 -71 -40.5 -112t-109.5 -41
q-30 0 -52 8v35q20 -13 52 -13q54 0 85 33t31 90v550h34z" />
    <glyph glyph-name="Kcommaaccent" unicode="&#x136;" horiz-adv-x="630" 
d="M608 0h-49l-426 356v-356h-36v700h36v-334l421 334h48l-431 -338zM247 -232l-3 18q39 2 52 21.5t13 59.5q0 7 -9 9q-28 4 -28 28q0 12 8.5 20t21.5 8q30 0 30 -41q0 -26 -1 -39.5t-5.5 -31t-13.5 -26.5t-25 -16t-40 -10z" />
    <glyph glyph-name="kcommaaccent" unicode="&#x137;" horiz-adv-x="476" 
d="M458 0h-48l-293 269v-269h-34v700h34v-422l271 205h49l-282 -209zM185 -232l-3 18q39 2 52 21.5t13 59.5q0 7 -9 9q-28 4 -28 28q0 12 8.5 20t21.5 8q30 0 30 -41q0 -26 -1 -39.5t-5.5 -31t-13.5 -26.5t-25 -16t-40 -10z" />
    <glyph glyph-name="Lacute" unicode="&#x139;" horiz-adv-x="596" 
d="M133 30h421v-30h-457v700h36v-670zM94 790l74 127h46l-92 -127h-28z" />
    <glyph glyph-name="lacute" unicode="&#x13a;" horiz-adv-x="200" 
d="M83 0v700h34v-700h-34zM82 790l74 127h46l-92 -127h-28z" />
    <glyph glyph-name="Lcommaaccent" unicode="&#x13b;" horiz-adv-x="596" 
d="M133 30h421v-30h-457v700h36v-670zM257 -232l-3 18q39 2 52 21.5t13 59.5q0 7 -9 9q-28 4 -28 28q0 12 8.5 20t21.5 8q30 0 30 -41q0 -26 -1 -39.5t-5.5 -31t-13.5 -26.5t-25 -16t-40 -10z" />
    <glyph glyph-name="lcommaaccent" unicode="&#x13c;" horiz-adv-x="200" 
d="M83 0v700h34v-700h-34zM47 -232l-3 18q39 2 52 21.5t13 59.5q0 7 -9 9q-28 4 -28 28q0 12 8.5 20t21.5 8q30 0 30 -41q0 -26 -1 -39.5t-5.5 -31t-13.5 -26.5t-25 -16t-40 -10z" />
    <glyph glyph-name="Lcaron" unicode="&#x13d;" horiz-adv-x="596" 
d="M133 30h421v-30h-457v700h36v-670zM-11 918h31l95 -100l95 100h31l-112 -128h-30z" />
    <glyph glyph-name="lcaron" unicode="&#x13e;" horiz-adv-x="200" 
d="M83 0v700h34v-700h-34zM-23 918h31l95 -100l95 100h31l-112 -128h-30z" />
    <glyph glyph-name="Lslash" unicode="&#x141;" horiz-adv-x="596" 
d="M133 30h421v-30h-457v290l-73 -27v29l73 27v381h36v-367l210 79v-29l-210 -79v-274z" />
    <glyph glyph-name="lslash" unicode="&#x142;" horiz-adv-x="228" 
d="M215 467v-29l-84 -42v-396h-34v380l-84 -42v29l84 42v291h34v-275z" />
    <glyph glyph-name="Nacute" unicode="&#x143;" horiz-adv-x="797" 
d="M666 700h35v-700h-51l-519 663v-663h-34v700h49l520 -662v662zM378 790l74 127h46l-92 -127h-28z" />
    <glyph glyph-name="nacute" unicode="&#x144;" horiz-adv-x="558" 
d="M482 306v-306h-35v305q0 77 -40.5 119t-111.5 42q-81 0 -130.5 -61.5t-49.5 -165.5v-239h-34v483h34v-133q22 68 70.5 105.5t116.5 37.5q84 0 132 -48.5t48 -138.5zM265 573l74 127h46l-92 -127h-28z" />
    <glyph glyph-name="Ncommaaccent" unicode="&#x145;" horiz-adv-x="797" 
d="M666 700h35v-700h-51l-519 663v-663h-34v700h49l520 -662v662zM346 -232l-3 18q39 2 52 21.5t13 59.5q0 7 -9 9q-28 4 -28 28q0 12 8.5 20t21.5 8q30 0 30 -41q0 -26 -1 -39.5t-5.5 -31t-13.5 -26.5t-25 -16t-40 -10z" />
    <glyph glyph-name="ncommaaccent" unicode="&#x146;" horiz-adv-x="558" 
d="M482 306v-306h-35v305q0 77 -40.5 119t-111.5 42q-81 0 -130.5 -61.5t-49.5 -165.5v-239h-34v483h34v-133q22 68 70.5 105.5t116.5 37.5q84 0 132 -48.5t48 -138.5zM226 -232l-3 18q39 2 52 21.5t13 59.5q0 7 -9 9q-28 4 -28 28q0 12 8.5 20t21.5 8q30 0 30 -41
q0 -26 -1 -39.5t-5.5 -31t-13.5 -26.5t-25 -16t-40 -10z" />
    <glyph glyph-name="Ncaron" unicode="&#x147;" horiz-adv-x="797" 
d="M666 700h35v-700h-51l-519 663v-663h-34v700h49l520 -662v662zM273 918h31l95 -100l95 100h31l-112 -128h-30z" />
    <glyph glyph-name="ncaron" unicode="&#x148;" horiz-adv-x="558" 
d="M482 306v-306h-35v305q0 77 -40.5 119t-111.5 42q-81 0 -130.5 -61.5t-49.5 -165.5v-239h-34v483h34v-133q22 68 70.5 105.5t116.5 37.5q84 0 132 -48.5t48 -138.5zM160 701h31l95 -100l95 100h31l-112 -128h-30z" />
    <glyph glyph-name="Omacron" unicode="&#x14c;" horiz-adv-x="811" 
d="M754 350q2 -156 -98.5 -259t-249.5 -101q-150 -2 -250.5 101t-98.5 259q-2 156 98.5 259t250.5 101q149 2 249.5 -101t98.5 -259zM717 350q2 143 -88 237t-223 92q-135 2 -224.5 -92t-87.5 -237q-2 -143 87.5 -237t224.5 -92q133 -2 223 92t88 237zM293 846h226v-27h-226
v27z" />
    <glyph glyph-name="omacron" unicode="&#x14d;" horiz-adv-x="579" 
d="M538 241q0 -109 -71 -180t-177 -71q-105 0 -177 71.5t-72 179.5q0 109 72 180.5t177 71.5q106 0 177 -71.5t71 -180.5zM503 241q0 99 -61 161.5t-152 62.5t-152 -62.5t-61 -161.5q0 -98 61 -160.5t152 -62.5t152 62.5t61 160.5zM177 656h226v-27h-226v27z" />
    <glyph glyph-name="Ohungarumlaut" unicode="&#x150;" horiz-adv-x="811" 
d="M754 350q2 -156 -98.5 -259t-249.5 -101q-150 -2 -250.5 101t-98.5 259q-2 156 98.5 259t250.5 101q149 2 249.5 -101t98.5 -259zM717 350q2 143 -88 237t-223 92q-135 2 -224.5 -92t-87.5 -237q-2 -143 87.5 -237t224.5 -92q133 -2 223 92t88 237zM332 790l73 127h47
l-93 -127h-27zM465 790l74 127h46l-92 -127h-28z" />
    <glyph glyph-name="ohungarumlaut" unicode="&#x151;" horiz-adv-x="579" 
d="M538 241q0 -109 -71 -180t-177 -71q-105 0 -177 71.5t-72 179.5q0 109 72 180.5t177 71.5q106 0 177 -71.5t71 -180.5zM503 241q0 99 -61 161.5t-152 62.5t-152 -62.5t-61 -161.5q0 -98 61 -160.5t152 -62.5t152 62.5t61 160.5zM219 573l73 127h47l-93 -127h-27zM352 573
l74 127h46l-92 -127h-28z" />
    <glyph glyph-name="OE" unicode="&#x152;" horiz-adv-x="1073" 
d="M1006 670h-415v-281h375v-30h-375v-329h415v-30h-592q-157 0 -257 97.5t-100 252.5t100 252.5t257 97.5h593zM555 30v639h-141q-142 0 -231 -88.5t-89 -230.5t89 -231t231 -89h141z" />
    <glyph glyph-name="oe" unicode="&#x153;" horiz-adv-x="995" 
d="M953 239h-415q1 -99 57.5 -160t142.5 -61q59 0 103.5 29.5t65.5 81.5l33 -15q-28 -59 -80 -91.5t-121 -32.5q-78 0 -135.5 40t-83.5 112q-28 -70 -89.5 -111t-140.5 -41q-105 0 -177 71.5t-72 179.5q0 109 72 180.5t177 71.5q78 0 139.5 -41t89.5 -110q25 70 83 110.5
t134 40.5q98 0 158 -65.5t60 -173.5q0 -12 -1 -15zM539 265h380q-2 92 -51 146.5t-131 54.5q-84 0 -138 -54.5t-60 -146.5zM503 241q0 99 -61 161.5t-152 62.5t-152 -62.5t-61 -161.5q0 -98 61 -160.5t152 -62.5t152 62.5t61 160.5z" />
    <glyph glyph-name="Racute" unicode="&#x154;" horiz-adv-x="622" 
d="M596 0h-48l-265 333h-150v-333h-36v700h246q108 0 176 -51t68 -133q0 -81 -68.5 -132t-175.5 -51h-23zM133 670v-308h211q96 0 151 41.5t55 112.5t-55 112.5t-151 41.5h-211zM274 790l74 127h46l-92 -127h-28z" />
    <glyph glyph-name="racute" unicode="&#x155;" horiz-adv-x="355" 
d="M325 488v-33q-13 5 -37 5q-84 0 -129 -69q-44 -68 -44 -175v-216h-34v483h34v-151q19 76 63.5 117.5t111.5 41.5q22 0 35 -3zM157 573l74 127h46l-92 -127h-28z" />
    <glyph glyph-name="Rcommaaccent" unicode="&#x156;" horiz-adv-x="622" 
d="M596 0h-48l-265 333h-150v-333h-36v700h246q108 0 176 -51t68 -133q0 -81 -68.5 -132t-175.5 -51h-23zM133 670v-308h211q96 0 151 41.5t55 112.5t-55 112.5t-151 41.5h-211zM264 -232l-3 18q39 2 52 21.5t13 59.5q0 7 -9 9q-28 4 -28 28q0 12 8.5 20t21.5 8q30 0 30 -41
q0 -26 -1 -39.5t-5.5 -31t-13.5 -26.5t-25 -16t-40 -10z" />
    <glyph glyph-name="rcommaaccent" unicode="&#x157;" horiz-adv-x="355" 
d="M325 488v-33q-13 5 -37 5q-84 0 -129 -69q-44 -68 -44 -175v-216h-34v483h34v-151q19 76 63.5 117.5t111.5 41.5q22 0 35 -3zM41 -232l-3 18q39 2 52 21.5t13 59.5q0 7 -9 9q-28 4 -28 28q0 12 8.5 20t21.5 8q30 0 30 -41q0 -26 -1 -39.5t-5.5 -31t-13.5 -26.5t-25 -16
t-40 -10z" />
    <glyph glyph-name="Rcaron" unicode="&#x158;" horiz-adv-x="622" 
d="M596 0h-48l-265 333h-150v-333h-36v700h246q108 0 176 -51t68 -133q0 -81 -68.5 -132t-175.5 -51h-23zM133 670v-308h211q96 0 151 41.5t55 112.5t-55 112.5t-151 41.5h-211zM169 918h31l95 -100l95 100h31l-112 -128h-30z" />
    <glyph glyph-name="rcaron" unicode="&#x159;" horiz-adv-x="355" 
d="M325 488v-33q-13 5 -37 5q-84 0 -129 -69q-44 -68 -44 -175v-216h-34v483h34v-151q19 76 63.5 117.5t111.5 41.5q22 0 35 -3zM52 701h31l95 -100l95 100h31l-112 -128h-30z" />
    <glyph glyph-name="Sacute" unicode="&#x15a;" horiz-adv-x="617" 
d="M57 181l37 9q23 -79 87 -125t151 -46q86 0 140 43t54 111q0 51 -29 83q-26 29 -65 45t-119 36q-83 21 -124 37q-110 45 -110 154q0 81 62 131.5t160 50.5q90 0 155.5 -44.5t89.5 -123.5l-35 -9q-22 70 -77.5 109t-133.5 39q-83 0 -134.5 -41t-51.5 -106q0 -52 29 -84
q27 -29 66 -45t119 -37q75 -19 123 -38q110 -41 110 -152q0 -84 -64.5 -136t-166.5 -52q-100 0 -174 51t-99 140zM288 790l74 127h46l-92 -127h-28z" />
    <glyph glyph-name="sacute" unicode="&#x15b;" horiz-adv-x="455" 
d="M44 119l33 10q44 -113 167 -113q60 0 97 27.5t37 74.5q0 33 -20 55q-19 21 -47 32.5t-82 25.5q-63 19 -87 29q-76 32 -76 104q0 58 43.5 93.5t116.5 35.5q60 0 105 -25t67 -71l-34 -11q-37 81 -138 81q-57 0 -91.5 -27t-34.5 -71q3 -46 35 -67t110 -42q55 -16 87 -30
q79 -31 79 -107q0 -60 -45.5 -96.5t-120.5 -36.5q-72 0 -125 34.5t-76 94.5zM207 573l74 127h46l-92 -127h-28z" />
    <glyph glyph-name="Scedilla" unicode="&#x15e;" horiz-adv-x="617" 
d="M330 -10h-4l-27 -56q11 4 26 4q34 0 56.5 -20t22.5 -52q0 -36 -25.5 -57.5t-67.5 -21.5q-47 0 -76 23l14 22q21 -21 62 -21q28 0 45 15t17 40q0 23 -15.5 37t-41.5 14q-24 0 -42 -9l-9 6l33 77q-89 8 -153.5 58.5t-87.5 131.5l37 9q23 -79 87 -125t151 -46q86 0 140 43
t54 111q0 51 -29 83q-26 29 -65 45t-119 36q-83 21 -124 37q-110 45 -110 154q0 81 62 131.5t160 50.5q90 0 155.5 -44.5t89.5 -123.5l-35 -9q-22 70 -77.5 109t-133.5 39q-83 0 -134.5 -41t-51.5 -106q0 -52 29 -84q27 -29 66 -45t119 -37q75 -19 123 -38q110 -41 110 -152
q0 -84 -64.5 -136t-166.5 -52z" />
    <glyph glyph-name="scedilla" unicode="&#x15f;" horiz-adv-x="455" 
d="M245 -10h-5l-27 -56q11 4 26 4q34 0 56.5 -20t22.5 -52q0 -36 -25.5 -57.5t-67.5 -21.5q-47 0 -76 23l14 22q21 -21 62 -21q28 0 45 15t17 40q0 23 -15.5 37t-41.5 14q-24 0 -42 -9l-9 6l34 78q-60 7 -104.5 40.5t-64.5 86.5l33 10q44 -113 167 -113q60 0 97 27.5
t37 74.5q0 33 -20 55q-19 21 -47 32.5t-82 25.5q-63 19 -87 29q-76 32 -76 104q0 58 43.5 93.5t116.5 35.5q60 0 105 -25t67 -71l-34 -11q-37 81 -138 81q-57 0 -91.5 -27t-34.5 -71q3 -46 35 -67t110 -42q55 -16 87 -30q79 -31 79 -107q0 -60 -45.5 -96.5t-120.5 -36.5z
" />
    <glyph glyph-name="Scaron" unicode="&#x160;" horiz-adv-x="617" 
d="M57 181l37 9q23 -79 87 -125t151 -46q86 0 140 43t54 111q0 51 -29 83q-26 29 -65 45t-119 36q-83 21 -124 37q-110 45 -110 154q0 81 62 131.5t160 50.5q90 0 155.5 -44.5t89.5 -123.5l-35 -9q-22 70 -77.5 109t-133.5 39q-83 0 -134.5 -41t-51.5 -106q0 -52 29 -84
q27 -29 66 -45t119 -37q75 -19 123 -38q110 -41 110 -152q0 -84 -64.5 -136t-166.5 -52q-100 0 -174 51t-99 140zM183 918h31l95 -100l95 100h31l-112 -128h-30z" />
    <glyph glyph-name="scaron" unicode="&#x161;" horiz-adv-x="455" 
d="M44 119l33 10q44 -113 167 -113q60 0 97 27.5t37 74.5q0 33 -20 55q-19 21 -47 32.5t-82 25.5q-63 19 -87 29q-76 32 -76 104q0 58 43.5 93.5t116.5 35.5q60 0 105 -25t67 -71l-34 -11q-37 81 -138 81q-57 0 -91.5 -27t-34.5 -71q3 -46 35 -67t110 -42q55 -16 87 -30
q79 -31 79 -107q0 -60 -45.5 -96.5t-120.5 -36.5q-72 0 -125 34.5t-76 94.5zM102 701h31l95 -100l95 100h31l-112 -128h-30z" />
    <glyph glyph-name="uni0162" unicode="&#x162;" horiz-adv-x="644" 
d="M597 700v-30h-257v-670h-35v670h-258v30h550zM411 -134q0 -36 -25.5 -57.5t-67.5 -21.5q-47 0 -76 23l14 22q21 -21 62 -21q28 0 45 15t17 40q0 23 -15.5 37t-41.5 14q-24 0 -42 -9l-9 6l37 86h29l-32 -66q11 4 26 4q34 0 56.5 -20t22.5 -52z" />
    <glyph glyph-name="uni0163" unicode="&#x163;" horiz-adv-x="378" 
d="M251 -8l-28 -58q11 4 26 4q34 0 56.5 -20t22.5 -52q0 -36 -25.5 -57.5t-67.5 -21.5q-47 0 -76 23l14 22q21 -21 62 -21q28 0 45 15t17 40q0 23 -15.5 37t-41.5 14q-24 0 -42 -9l-9 6l36 84q-50 16 -79.5 54.5t-29.5 90.5v313h-99v27h99v177h34v-177h183v-27h-183v-311
q0 -56 38.5 -90.5t94.5 -34.5q35 0 55 12v-34q-22 -8 -56 -8q-5 0 -31 2z" />
    <glyph glyph-name="Tcaron" unicode="&#x164;" horiz-adv-x="644" 
d="M597 700v-30h-257v-670h-35v670h-258v30h550zM196 918h31l95 -100l95 100h31l-112 -128h-30z" />
    <glyph glyph-name="tcaron" unicode="&#x165;" horiz-adv-x="378" 
d="M338 32v-34q-22 -8 -56 -8q-69 0 -117.5 42.5t-48.5 110.5v313h-99v27h99v177h34v-177h183v-27h-183v-311q0 -56 38.5 -90.5t94.5 -34.5q35 0 55 12zM246 700h39l-28 -149h-23z" />
    <glyph glyph-name="Tbar" unicode="&#x166;" horiz-adv-x="644" 
d="M597 670h-257v-264h143v-26h-143v-380h-35v380h-142v26h142v264h-258v30h550v-30z" />
    <glyph glyph-name="tbar" unicode="&#x167;" horiz-adv-x="378" 
d="M338 32v-34q-22 -8 -56 -8q-69 0 -117.5 42.5t-48.5 110.5v131h-85v26h85v156h-99v27h99v177h34v-177h183v-27h-183v-156h129v-26h-129v-129q0 -56 38.5 -90.5t94.5 -34.5q35 0 55 12z" />
    <glyph glyph-name="Umacron" unicode="&#x16a;" horiz-adv-x="727" 
d="M605 700h36v-440q0 -116 -78 -193t-200 -77q-121 0 -198.5 77t-77.5 193v440h35v-441q0 -102 68 -170.5t173 -68.5q106 0 174 68.5t68 170.5v441zM246 846h226v-27h-226v27z" />
    <glyph glyph-name="umacron" unicode="&#x16b;" horiz-adv-x="558" 
d="M443 483h34v-483h-34v133q-22 -68 -70.5 -105.5t-116.5 -37.5q-84 0 -132 48.5t-48 138.5v306h35v-305q0 -77 40.5 -119t111.5 -42q81 0 130.5 61.5t49.5 165.5v239zM166 656h226v-27h-226v27z" />
    <glyph glyph-name="Uring" unicode="&#x16e;" horiz-adv-x="727" 
d="M605 700h36v-440q0 -116 -78 -193t-200 -77q-121 0 -198.5 77t-77.5 193v440h35v-441q0 -102 68 -170.5t173 -68.5q106 0 174 68.5t68 170.5v441zM268 846q0 39 26 63.5t65 24.5t65.5 -25t26.5 -63t-26.5 -62.5t-65.5 -24.5t-65 24.5t-26 62.5zM426 846q0 29 -19.5 47.5
t-47.5 18.5t-47 -18.5t-19 -47.5t19 -47t47 -18t47.5 18t19.5 47z" />
    <glyph glyph-name="uring" unicode="&#x16f;" horiz-adv-x="558" 
d="M443 483h34v-483h-34v133q-22 -68 -70.5 -105.5t-116.5 -37.5q-84 0 -132 48.5t-48 138.5v306h35v-305q0 -77 40.5 -119t111.5 -42q81 0 130.5 61.5t49.5 165.5v239zM188 647q0 39 26 63.5t65 24.5t65.5 -25t26.5 -63t-26.5 -62.5t-65.5 -24.5t-65 24.5t-26 62.5z
M346 647q0 29 -19.5 47.5t-47.5 18.5t-47 -18.5t-19 -47.5t19 -47t47 -18t47.5 18t19.5 47z" />
    <glyph glyph-name="Uhungarumlaut" unicode="&#x170;" horiz-adv-x="727" 
d="M605 700h36v-440q0 -116 -78 -193t-200 -77q-121 0 -198.5 77t-77.5 193v440h35v-441q0 -102 68 -170.5t173 -68.5q106 0 174 68.5t68 170.5v441zM285 790l73 127h47l-93 -127h-27zM418 790l74 127h46l-92 -127h-28z" />
    <glyph glyph-name="uhungarumlaut" unicode="&#x171;" horiz-adv-x="558" 
d="M443 483h34v-483h-34v133q-22 -68 -70.5 -105.5t-116.5 -37.5q-84 0 -132 48.5t-48 138.5v306h35v-305q0 -77 40.5 -119t111.5 -42q81 0 130.5 61.5t49.5 165.5v239zM208 573l73 127h47l-93 -127h-27zM341 573l74 127h46l-92 -127h-28z" />
    <glyph glyph-name="Uogonek" unicode="&#x172;" horiz-adv-x="727" 
d="M605 700h36v-440q0 -97 -55 -168q-56 -70 -147 -93q-64 -49 -64 -88q0 -21 14.5 -33t38.5 -12q27 0 51 15l7 -29q-25 -13 -63 -13q-37 0 -59 17t-22 47q0 44 63 90q-21 -3 -42 -3q-121 0 -198.5 77t-77.5 193v440h35v-441q0 -102 68 -170.5t173 -68.5q106 0 174 68.5
t68 170.5v441z" />
    <glyph glyph-name="uogonek" unicode="&#x173;" horiz-adv-x="558" 
d="M495 -126l7 -29q-25 -13 -63 -13q-37 0 -59 17t-22 47q0 50 85 104v133q-22 -68 -70.5 -105.5t-116.5 -37.5q-84 0 -132 48.5t-48 138.5v306h35v-305q0 -77 40.5 -119t111.5 -42q81 0 130.5 61.5t49.5 165.5v239h34v-483h-11q-75 -55 -75 -96q0 -21 14.5 -33t38.5 -12
q27 0 51 15z" />
    <glyph glyph-name="Wcircumflex" unicode="&#x174;" horiz-adv-x="1004" 
d="M927 700h35l-217 -700h-47l-198 659l-209 -659h-43l-206 700h36l193 -664l210 664h42l200 -666zM376 789l110 128h30l112 -128h-31l-95 100l-95 -100h-31z" />
    <glyph glyph-name="wcircumflex" unicode="&#x175;" horiz-adv-x="791" 
d="M729 483h34l-171 -483h-39l-159 436l-160 -436h-40l-166 483h36l152 -450l162 450h33l163 -450zM270 572l110 128h30l112 -128h-31l-95 100l-95 -100h-31z" />
    <glyph glyph-name="Ycircumflex" unicode="&#x176;" horiz-adv-x="617" 
d="M554 700h41l-269 -414v-286h-34v285l-270 415h41l246 -379zM183 789l110 128h30l112 -128h-31l-95 100l-95 -100h-31z" />
    <glyph glyph-name="ycircumflex" unicode="&#x177;" horiz-adv-x="512" 
d="M443 483h36l-326 -693h-43l134 262l-211 431h39l191 -392zM135 572l110 128h30l112 -128h-31l-95 100l-95 -100h-31z" />
    <glyph glyph-name="Ydieresis" unicode="&#x178;" horiz-adv-x="617" 
d="M183 824q0 13 8.5 21.5t22.5 8.5q30 0 30 -30q0 -13 -8.5 -21t-21.5 -8q-14 0 -22.5 8t-8.5 21zM374 824q0 13 8.5 21.5t22.5 8.5q30 0 30 -30q0 -13 -8.5 -21t-21.5 -8q-14 0 -22.5 8t-8.5 21zM554 700h41l-269 -414v-286h-34v285l-270 415h41l246 -379z" />
    <glyph glyph-name="Zacute" unicode="&#x179;" horiz-adv-x="652" 
d="M111 30h481v-30h-528v19l477 651h-473v30h520v-20zM305 790l74 127h46l-92 -127h-28z" />
    <glyph glyph-name="zacute" unicode="&#x17a;" horiz-adv-x="430" 
d="M69 27h331v-27h-372v22l323 434h-313v27h356v-19zM195 573l74 127h46l-92 -127h-28z" />
    <glyph glyph-name="Zdotaccent" unicode="&#x17b;" horiz-adv-x="652" 
d="M111 30h481v-30h-528v19l477 651h-473v30h520v-20zM292 824q0 13 8.5 21.5t22.5 8.5q13 0 21.5 -8t8.5 -22q0 -13 -8.5 -21t-21.5 -8q-14 0 -22.5 8t-8.5 21z" />
    <glyph glyph-name="zdotaccent" unicode="&#x17c;" horiz-adv-x="430" 
d="M69 27h331v-27h-372v22l323 434h-313v27h356v-19zM182 654q0 13 8.5 21.5t22.5 8.5q30 0 30 -30q0 -13 -8.5 -21t-21.5 -8q-14 0 -22.5 8t-8.5 21z" />
    <glyph glyph-name="Zcaron" unicode="&#x17d;" horiz-adv-x="652" 
d="M111 30h481v-30h-528v19l477 651h-473v30h520v-20zM200 918h31l95 -100l95 100h31l-112 -128h-30z" />
    <glyph glyph-name="zcaron" unicode="&#x17e;" horiz-adv-x="430" 
d="M69 27h331v-27h-372v22l323 434h-313v27h356v-19zM90 701h31l95 -100l95 100h31l-112 -128h-30z" />
    <glyph glyph-name="Scommaaccent" unicode="&#x218;" horiz-adv-x="617" 
d="M57 181l37 9q23 -79 87 -125t151 -46q86 0 140 43t54 111q0 51 -29 83q-26 29 -65 45t-119 36q-83 21 -124 37q-110 45 -110 154q0 81 62 131.5t160 50.5q90 0 155.5 -44.5t89.5 -123.5l-35 -9q-22 70 -77.5 109t-133.5 39q-83 0 -134.5 -41t-51.5 -106q0 -52 29 -84
q27 -29 66 -45t119 -37q75 -19 123 -38q110 -41 110 -152q0 -84 -64.5 -136t-166.5 -52q-100 0 -174 51t-99 140zM256 -232l-3 18q39 2 52 21.5t13 59.5q0 7 -9 9q-28 4 -28 28q0 12 8.5 20t21.5 8q30 0 30 -41q0 -26 -1 -39.5t-5.5 -31t-13.5 -26.5t-25 -16t-40 -10z" />
    <glyph glyph-name="scommaaccent" unicode="&#x219;" horiz-adv-x="455" 
d="M44 119l33 10q44 -113 167 -113q60 0 97 27.5t37 74.5q0 33 -20 55q-19 21 -47 32.5t-82 25.5q-63 19 -87 29q-76 32 -76 104q0 58 43.5 93.5t116.5 35.5q60 0 105 -25t67 -71l-34 -11q-37 81 -138 81q-57 0 -91.5 -27t-34.5 -71q3 -46 35 -67t110 -42q55 -16 87 -30
q79 -31 79 -107q0 -60 -45.5 -96.5t-120.5 -36.5q-72 0 -125 34.5t-76 94.5zM168 -232l-3 18q39 2 52 21.5t13 59.5q0 7 -9 9q-28 4 -28 28q0 12 8.5 20t21.5 8q30 0 30 -41q0 -26 -1 -39.5t-5.5 -31t-13.5 -26.5t-25 -16t-40 -10z" />
    <glyph glyph-name="uni021A" unicode="&#x21a;" horiz-adv-x="644" 
d="M597 700v-30h-257v-670h-35v670h-258v30h550zM263 -232l-3 18q39 2 52 21.5t13 59.5q0 7 -9 9q-28 4 -28 28q0 12 8.5 20t21.5 8q30 0 30 -41q0 -26 -1 -39.5t-5.5 -31t-13.5 -26.5t-25 -16t-40 -10z" />
    <glyph glyph-name="uni021B" unicode="&#x21b;" horiz-adv-x="378" 
d="M338 32v-34q-22 -8 -56 -8q-69 0 -117.5 42.5t-48.5 110.5v313h-99v27h99v177h34v-177h183v-27h-183v-311q0 -56 38.5 -90.5t94.5 -34.5q35 0 55 12zM180 -232l-3 18q39 2 52 21.5t13 59.5q0 7 -9 9q-28 4 -28 28q0 12 8.5 20t21.5 8q30 0 30 -41q0 -26 -1 -39.5
t-5.5 -31t-13.5 -26.5t-25 -16t-40 -10z" />
    <glyph glyph-name="uni0237" unicode="&#x237;" horiz-adv-x="198" 
d="M115 483v-550q0 -71 -40.5 -112t-109.5 -41q-30 0 -52 8v35q20 -13 52 -13q54 0 85 33t31 90v550h34z" />
    <glyph glyph-name="circumflex" unicode="&#x2c6;" horiz-adv-x="500" 
d="M124 572l110 128h30l112 -128h-31l-95 100l-95 -100h-31z" />
    <glyph glyph-name="caron" unicode="&#x2c7;" horiz-adv-x="500" 
d="M124 701h31l95 -100l95 100h31l-112 -128h-30z" />
    <glyph glyph-name="breve" unicode="&#x2d8;" horiz-adv-x="500" 
d="M138 697h26q3 -45 25.5 -71t59.5 -26t60.5 26.5t27.5 70.5h25q-3 -54 -34.5 -88t-78.5 -34q-46 0 -77 34t-34 88z" />
    <glyph glyph-name="dotaccent" unicode="&#x2d9;" horiz-adv-x="500" 
d="M219 654q0 13 8.5 21.5t22.5 8.5q30 0 30 -30q0 -13 -8.5 -21t-21.5 -8q-14 0 -22.5 8t-8.5 21z" />
    <glyph glyph-name="ring" unicode="&#x2da;" horiz-adv-x="500" 
d="M159 647q0 39 26 63.5t65 24.5t65.5 -25t26.5 -63t-26.5 -62.5t-65.5 -24.5t-65 24.5t-26 62.5zM317 647q0 29 -19.5 47.5t-47.5 18.5t-47 -18.5t-19 -47.5t19 -47t47 -18t47.5 18t19.5 47z" />
    <glyph glyph-name="ogonek" unicode="&#x2db;" horiz-adv-x="500" 
d="M180 -107q0 27 20.5 52t68.5 55h23q-44 -32 -61.5 -54.5t-17.5 -44.5q0 -21 14.5 -33t38.5 -12q27 0 51 15l7 -29q-25 -13 -63 -13q-37 0 -59 17t-22 47z" />
    <glyph glyph-name="tilde" unicode="&#x2dc;" horiz-adv-x="500" 
d="M245 650q-37 22 -55 22q-36 0 -54 -42l-23 7q26 64 78 64q22 0 65 -25q33 -23 55 -23q36 0 54 43l23 -6q-24 -66 -77 -66q-25 0 -66 26z" />
    <glyph glyph-name="hungarumlaut" unicode="&#x2dd;" horiz-adv-x="500" 
d="M127 573l73 127h47l-93 -127h-27zM260 573l74 127h46l-92 -127h-28z" />
    <glyph glyph-name="gravecomb" unicode="&#x300;" horiz-adv-x="0" 
d="M-223 790h-28l-92 127h46z" />
    <glyph glyph-name="acutecomb" unicode="&#x301;" horiz-adv-x="0" 
d="M-310 790l74 127h46l-92 -127h-28z" />
    <glyph glyph-name="uni0302" unicode="&#x302;" horiz-adv-x="0" 
d="M-376 789l110 128h30l112 -128h-31l-95 100l-95 -100h-31z" />
    <glyph glyph-name="tildecomb" unicode="&#x303;" horiz-adv-x="0" 
d="M-255 820q-37 22 -55 22q-36 0 -54 -42l-23 7q26 64 78 64q22 0 65 -25q33 -23 55 -23q36 0 54 43l23 -6q-24 -66 -77 -66q-25 0 -66 26z" />
    <glyph glyph-name="uni0304" unicode="&#x304;" horiz-adv-x="0" 
d="M-363 846h226v-27h-226v27z" />
    <glyph glyph-name="uni0306" unicode="&#x306;" horiz-adv-x="0" 
d="M-362 914h26q3 -45 25.5 -71t59.5 -26t60.5 26.5t27.5 70.5h25q-3 -54 -34.5 -88t-78.5 -34q-46 0 -77 34t-34 88z" />
    <glyph glyph-name="uni0307" unicode="&#x307;" horiz-adv-x="0" 
d="M-281 824q0 13 8.5 21.5t22.5 8.5q13 0 21.5 -8t8.5 -22q0 -13 -8.5 -21t-21.5 -8q-14 0 -22.5 8t-8.5 21z" />
    <glyph glyph-name="uni0308" unicode="&#x308;" horiz-adv-x="0" 
d="M-376 824q0 13 8.5 21.5t22.5 8.5q13 0 21.5 -8t8.5 -22q0 -13 -8.5 -21t-21.5 -8q-14 0 -22.5 8t-8.5 21zM-185 824q0 13 8.5 21.5t22.5 8.5q13 0 21.5 -8t8.5 -22q0 -13 -8.5 -21t-21.5 -8q-14 0 -22.5 8t-8.5 21z" />
    <glyph glyph-name="uni030A" unicode="&#x30a;" horiz-adv-x="0" 
d="M-341 846q0 39 26 63.5t65 24.5t65.5 -25t26.5 -63t-26.5 -62.5t-65.5 -24.5t-65 24.5t-26 62.5zM-183 846q0 29 -19.5 47.5t-47.5 18.5t-47 -18.5t-19 -47.5t19 -47t47 -18t47.5 18t19.5 47z" />
    <glyph glyph-name="uni030B" unicode="&#x30b;" horiz-adv-x="0" 
d="M-373 790l73 127h47l-93 -127h-27zM-240 790l74 127h46l-92 -127h-28z" />
    <glyph glyph-name="uni030C" unicode="&#x30c;" horiz-adv-x="0" 
d="M-376 918h31l95 -100l95 100h31l-112 -128h-30z" />
    <glyph glyph-name="uni0312" unicode="&#x312;" horiz-adv-x="0" 
d="M-200 736l3 -18q-39 -2 -52 -21.5t-13 -59.5q0 -7 9 -9q28 -4 28 -28q0 -12 -8.5 -20t-21.5 -8q-30 0 -30 41q0 26 1 39.5t5.5 31t13.5 26.5t25 16t40 10z" />
    <glyph glyph-name="uni0326" unicode="&#x326;" horiz-adv-x="0" 
d="M-303 -232l-3 18q39 2 52 21.5t13 59.5q0 7 -9 9q-28 4 -28 28q0 12 8.5 20t21.5 8q30 0 30 -41q0 -26 -1 -39.5t-5.5 -31t-13.5 -26.5t-25 -16t-40 -10z" />
    <glyph glyph-name="uni0327" unicode="&#x327;" horiz-adv-x="0" 
d="M-165 -134q0 -36 -25.5 -57.5t-67.5 -21.5q-47 0 -76 23l14 22q21 -21 62 -21q28 0 45 15t17 40q0 23 -15.5 37t-41.5 14q-24 0 -42 -9l-9 6l37 86h29l-32 -66q11 4 26 4q34 0 56.5 -20t22.5 -52z" />
    <glyph glyph-name="uni0328" unicode="&#x328;" horiz-adv-x="0" 
d="M-320 -107q0 27 20.5 52t68.5 55h23q-44 -32 -61.5 -54.5t-17.5 -44.5q0 -21 14.5 -33t38.5 -12q27 0 51 15l7 -29q-25 -13 -63 -13q-37 0 -59 17t-22 47z" />
    <glyph glyph-name="uni0335" unicode="&#x335;" horiz-adv-x="0" 
d="M-404 337v26h309v-26h-309z" />
    <glyph glyph-name="uni0400" unicode="&#x400;" horiz-adv-x="615" 
d="M548 670h-415v-281h375v-30h-375v-329h415v-30h-451v700h452zM348 790h-28l-92 127h46z" />
    <glyph glyph-name="uni0401" unicode="&#x401;" horiz-adv-x="615" 
d="M210 824q0 13 8.5 21.5t22.5 8.5q30 0 30 -30q0 -13 -8.5 -21t-21.5 -8q-14 0 -22.5 8t-8.5 21zM401 824q0 13 8.5 21.5t22.5 8.5q30 0 30 -30q0 -13 -8.5 -21t-21.5 -8q-14 0 -22.5 8t-8.5 21zM548 670h-415v-281h375v-30h-375v-329h415v-30h-451v700h452z" />
    <glyph glyph-name="uni0402" unicode="&#x402;" horiz-adv-x="702" 
d="M627 291v-155q0 -64 -44 -105t-111 -41q-62 0 -130 21l5 32q66 -24 125 -24q53 0 86 32.5t33 84.5v152q0 68 -41.5 108t-110.5 40q-109 0 -209 -102v-334h-36v670h-194v30h477v-30h-247v-298q93 95 212 95q82 0 133.5 -48t51.5 -128z" />
    <glyph glyph-name="uni0403" unicode="&#x403;" horiz-adv-x="559" 
d="M512 700v-30h-379v-670h-36v700h415zM292 790l74 127h46l-92 -127h-28z" />
    <glyph glyph-name="uni0404" unicode="&#x404;" horiz-adv-x="763" 
d="M674 211l37 -10q-33 -95 -115 -153t-188 -58q-151 -2 -252 100t-99 260q-2 156 98.5 259t250.5 101q105 1 189 -58q83 -59 116 -153l-37 -10q-28 84 -99 137t-167 53q-132 0 -220 -86.5t-94 -223.5h352v-29h-352q3 -141 91.5 -230t222.5 -89q97 0 167 52q71 53 99 138z
" />
    <glyph glyph-name="uni0405" unicode="&#x405;" horiz-adv-x="617" 
d="M57 181l37 9q23 -79 87 -125t151 -46q86 0 140 43t54 111q0 51 -29 83q-26 29 -65 45t-119 36q-83 21 -124 37q-110 45 -110 154q0 81 62 131.5t160 50.5q90 0 155.5 -44.5t89.5 -123.5l-35 -9q-22 70 -77.5 109t-133.5 39q-83 0 -134.5 -41t-51.5 -106q0 -52 29 -84
q27 -29 66 -45t119 -37q75 -19 123 -38q110 -41 110 -152q0 -84 -64.5 -136t-166.5 -52q-100 0 -174 51t-99 140z" />
    <glyph glyph-name="uni0406" unicode="&#x406;" horiz-adv-x="249" 
d="M107 700h36v-700h-36v700z" />
    <glyph glyph-name="uni0407" unicode="&#x407;" horiz-adv-x="249" 
d="M-1 824q0 13 8.5 21.5t22.5 8.5q30 0 30 -30q0 -13 -8.5 -21t-21.5 -8q-14 0 -22.5 8t-8.5 21zM190 824q0 13 8.5 21.5t22.5 8.5q30 0 30 -30q0 -13 -8.5 -21t-21.5 -8q-14 0 -22.5 8t-8.5 21zM107 700h36v-700h-36v700z" />
    <glyph glyph-name="uni0408" unicode="&#x408;" horiz-adv-x="562" 
d="M42 150l35 15q19 -64 65.5 -100.5t112.5 -36.5q82 0 130.5 51t48.5 136v485h36v-485q0 -98 -59.5 -158t-155.5 -60q-76 0 -132.5 41t-80.5 112z" />
    <glyph glyph-name="uni0409" unicode="&#x409;" horiz-adv-x="1072" 
d="M1045 184q0 -82 -68 -133t-176 -51h-246v670h-363l-19 -446q-4 -107 -49.5 -165.5t-120.5 -58.5v30q60 0 95 50t39 144l20 476h434v-333h210q107 0 175.5 -51t68.5 -132zM1008 184q0 71 -55 112.5t-151 41.5h-211v-308h211q96 0 151 41.5t55 112.5z" />
    <glyph glyph-name="uni040A" unicode="&#x40a;" horiz-adv-x="1142" 
d="M1115 184q0 -82 -68 -133t-176 -51h-246v340h-492v-340h-36v700h36v-331h492v331h36v-331h210q107 0 175.5 -52t68.5 -133zM1081 184q0 71 -56.5 113.5t-152.5 42.5h-211v-310h211q96 0 152.5 41.5t56.5 112.5z" />
    <glyph glyph-name="uni040B" unicode="&#x40b;" horiz-adv-x="702" 
d="M627 297v-297h-36v294q0 71 -41.5 110.5t-114.5 39.5q-106 0 -205 -89v-355h-36v670h-194v30h483v-30h-253v-283q98 86 208 86q88 0 138.5 -46.5t50.5 -129.5z" />
    <glyph glyph-name="uni040C" unicode="&#x40c;" horiz-adv-x="650" 
d="M560 0l-338 346h-89v-346h-36v700h36v-324h89l332 324h48l-351 -338l357 -362h-48zM280 790l74 127h46l-92 -127h-28z" />
    <glyph glyph-name="uni040D" unicode="&#x40d;" horiz-adv-x="797" 
d="M411 790h-28l-92 127h46zM650 700h51v-700h-35v662l-520 -662h-49v700h34v-663z" />
    <glyph glyph-name="uni040E" unicode="&#x40e;" horiz-adv-x="613" 
d="M543 700h33l-344 -700h-40l98 191l-253 509h37l234 -474l1 3zM197 914h26q3 -45 25.5 -71t59.5 -26t60.5 26.5t27.5 70.5h25q-3 -54 -34.5 -88t-78.5 -34q-46 0 -77 34t-34 88z" />
    <glyph glyph-name="uni040F" unicode="&#x40f;" horiz-adv-x="733" 
d="M600 700h36v-700h-248l-6 -130h-29l-6 130h-250v700h36v-670h467v670z" />
    <glyph glyph-name="uni0410" unicode="&#x410;" horiz-adv-x="732" 
d="M651 0l-98 226h-377l-97 -226h-37l301 700h42l305 -700h-39zM188 255h353l-177 409z" />
    <glyph glyph-name="uni0411" unicode="&#x411;" horiz-adv-x="634" 
d="M587 184q0 -82 -68 -133t-176 -51h-246v700h445v-30h-409v-303h210q107 0 175.5 -51t68.5 -132zM550 184q0 71 -55 112.5t-151 41.5h-211v-308h211q96 0 151 41.5t55 112.5z" />
    <glyph glyph-name="uni0412" unicode="&#x412;" horiz-adv-x="639" 
d="M592 192q0 -87 -68.5 -139.5t-182.5 -52.5h-244v700h241q102 0 163 -48q62 -47 62 -127q0 -63 -46.5 -107.5t-125.5 -58.5q93 -13 147 -57.5t54 -109.5zM133 670v-299h176q97 0 157 42.5t60 110.5q0 66 -51 106t-138 40h-204zM555 193q0 68 -65 108.5t-176 40.5h-181
v-312h207q100 0 157.5 44t57.5 119z" />
    <glyph glyph-name="uni0413" unicode="&#x413;" horiz-adv-x="559" 
d="M512 700v-30h-379v-670h-36v700h415z" />
    <glyph glyph-name="uni0414" unicode="&#x414;" horiz-adv-x="726" 
d="M650 30v-149h-36v119h-548v-119h-36v149h87l149 670h324v-670h60zM295 670l-139 -640h398v640h-259z" />
    <glyph glyph-name="uni0415" unicode="&#x415;" horiz-adv-x="615" 
d="M548 670h-415v-281h375v-30h-375v-329h415v-30h-451v700h452z" />
    <glyph glyph-name="uni0416" unicode="&#x416;" horiz-adv-x="1030" 
d="M960 0l-338 346h-89v-346h-36v346h-89l-338 -346h-48l357 362l-351 338h48l332 -324h89v324h36v-324h89l332 324h48l-351 -338l357 -362h-48z" />
    <glyph glyph-name="uni0417" unicode="&#x417;" horiz-adv-x="601" 
d="M549 185q0 -87 -68.5 -141t-178.5 -54q-89 0 -155.5 47t-93.5 128l37 15q21 -73 78 -115.5t134 -42.5q95 0 152.5 45.5t57.5 120.5q0 71 -58 114.5t-151 43.5h-40v30h41q86 0 138 41t52 107q0 70 -51.5 112t-134.5 42q-77 0 -132.5 -42.5t-76.5 -115.5l-36 15
q27 82 91.5 128.5t153.5 46.5q99 0 161 -51t62 -134q0 -65 -42.5 -107.5t-119.5 -56.5q83 -13 131.5 -59.5t48.5 -116.5z" />
    <glyph glyph-name="uni0418" unicode="&#x418;" horiz-adv-x="797" 
d="M650 700h51v-700h-35v662l-520 -662h-49v700h34v-663z" />
    <glyph glyph-name="uni0419" unicode="&#x419;" horiz-adv-x="797" 
d="M287 914h26q3 -45 25.5 -71t59.5 -26t60.5 26.5t27.5 70.5h25q-3 -54 -34.5 -88t-78.5 -34q-46 0 -77 34t-34 88zM650 700h51v-700h-35v662l-520 -662h-49v700h34v-663z" />
    <glyph glyph-name="uni041A" unicode="&#x41a;" horiz-adv-x="650" 
d="M560 0l-338 346h-89v-346h-36v700h36v-324h89l332 324h48l-351 -338l357 -362h-48z" />
    <glyph glyph-name="uni041B" unicode="&#x41b;" horiz-adv-x="688" 
d="M591 700v-700h-36v670h-363l-19 -446q-4 -107 -49.5 -165.5t-120.5 -58.5v30q60 0 95 50t39 144l20 476h434z" />
    <glyph glyph-name="uni041C" unicode="&#x41c;" horiz-adv-x="874" 
d="M728 700h49v-700h-36v661l-299 -484h-13l-298 484v-661h-34v700h52l289 -469z" />
    <glyph glyph-name="uni041D" unicode="&#x41d;" horiz-adv-x="757" 
d="M625 700h36v-700h-36v340h-492v-340h-36v700h36v-331h492v331z" />
    <glyph glyph-name="uni041E" unicode="&#x41e;" horiz-adv-x="811" 
d="M754 350q2 -156 -98.5 -259t-249.5 -101q-150 -2 -250.5 101t-98.5 259q-2 156 98.5 259t250.5 101q149 2 249.5 -101t98.5 -259zM717 350q2 143 -88 237t-223 92q-135 2 -224.5 -92t-87.5 -237q-2 -143 87.5 -237t224.5 -92q133 -2 223 92t88 237z" />
    <glyph glyph-name="uni041F" unicode="&#x41f;" horiz-adv-x="733" 
d="M636 700v-700h-36v670h-467v-670h-36v700h539z" />
    <glyph glyph-name="uni0420" unicode="&#x420;" horiz-adv-x="614" 
d="M587 516q0 -81 -68.5 -132t-175.5 -51h-210v-333h-36v700h246q108 0 176 -51t68 -133zM550 516q0 71 -55 112.5t-151 41.5h-211v-308h211q96 0 151 41.5t55 112.5z" />
    <glyph glyph-name="uni0421" unicode="&#x421;" horiz-adv-x="763" 
d="M674 211l37 -10q-33 -95 -115 -153t-188 -58q-151 -2 -252 100t-99 260q-2 156 98.5 259t250.5 101q105 1 189 -58q83 -59 116 -153l-37 -10q-28 84 -99 137t-167 53q-135 2 -225.5 -92t-88.5 -237q-2 -143 88.5 -237t225.5 -92q97 0 167 52q71 53 99 138z" />
    <glyph glyph-name="uni0422" unicode="&#x422;" horiz-adv-x="644" 
d="M597 700v-30h-257v-670h-35v670h-258v30h550z" />
    <glyph glyph-name="uni0423" unicode="&#x423;" horiz-adv-x="613" 
d="M543 700h33l-344 -700h-40l98 191l-253 509h37l234 -474l1 3z" />
    <glyph glyph-name="uni0424" unicode="&#x424;" horiz-adv-x="802" 
d="M418 90v-90h-33v90q-148 3 -238 74t-90 185q0 115 90 186.5t238 74.5v90h33v-90q148 -5 237.5 -76t89.5 -185t-89.5 -184t-237.5 -75zM385 118v464q-132 -3 -211.5 -67.5t-79.5 -165.5q0 -100 79.5 -164t211.5 -67zM708 349q0 101 -79 165t-211 68v-464q132 4 211 67.5
t79 163.5z" />
    <glyph glyph-name="uni0425" unicode="&#x425;" horiz-adv-x="639" 
d="M597 700l-258 -349l258 -351h-43l-235 323l-235 -323h-42l257 351l-257 349h43l234 -322l236 322h42z" />
    <glyph glyph-name="uni0426" unicode="&#x426;" horiz-adv-x="789" 
d="M712 30v-160h-29l-6 130h-580v700h36v-670h467v670h36v-670h76z" />
    <glyph glyph-name="uni0427" unicode="&#x427;" horiz-adv-x="638" 
d="M505 700h36v-700h-36v269q-74 -28 -198 -28q-101 0 -163.5 60.5t-62.5 158.5v240h36v-240q0 -86 52.5 -138t138.5 -52q129 0 197 32v398z" />
    <glyph glyph-name="uni0428" unicode="&#x428;" horiz-adv-x="1039" 
d="M907 700h36v-700h-846v700h36v-670h372v670h36v-670h366v670z" />
    <glyph glyph-name="uni0429" unicode="&#x429;" horiz-adv-x="1095" 
d="M1019 30v-160h-29l-6 130h-887v700h36v-670h372v670h36v-670h366v670h36v-670h76z" />
    <glyph glyph-name="uni042A" unicode="&#x42a;" horiz-adv-x="710" 
d="M684 184q0 -82 -68 -133t-176 -51h-246v670h-194v30h230v-333h210q107 0 175.5 -51t68.5 -132zM647 184q0 71 -55 112.5t-151 41.5h-211v-308h211q96 0 151 41.5t55 112.5z" />
    <glyph glyph-name="uni042B" unicode="&#x42b;" horiz-adv-x="863" 
d="M343 0h-246v700h36v-333h210q107 0 175.5 -51t68.5 -132q0 -82 -68 -133t-176 -51zM721 700h36v-700h-36v700zM344 338h-211v-308h211q96 0 151 41.5t55 112.5t-55 112.5t-151 41.5z" />
    <glyph glyph-name="uni042C" unicode="&#x42c;" horiz-adv-x="614" 
d="M343 0h-246v700h36v-333h210q107 0 175.5 -51t68.5 -132q0 -82 -68 -133t-176 -51zM344 338h-211v-308h211q96 0 151 41.5t55 112.5t-55 112.5t-151 41.5z" />
    <glyph glyph-name="uni042D" unicode="&#x42d;" horiz-adv-x="763" 
d="M706 350q2 -156 -98.5 -259t-250.5 -101q-107 -2 -190 57q-81 58 -115 154l37 10q29 -85 99 -138q70 -52 167 -52q134 0 222.5 89t91.5 230h-352v29h352q-6 137 -94 223.5t-220 86.5q-96 0 -167 -53t-99 -137l-37 10q33 94 115 152q83 59 188 59q150 2 251.5 -100.5
t99.5 -259.5z" />
    <glyph glyph-name="uni042E" unicode="&#x42e;" horiz-adv-x="1041" 
d="M984 350q2 -156 -98.5 -259t-249.5 -101q-148 0 -247 98t-102 252h-154v-340h-36v700h36v-331h154q6 151 104.5 246t244.5 95q149 2 249.5 -101t98.5 -259zM947 350q2 143 -88 237t-223 92q-135 2 -224.5 -92t-87.5 -237q-2 -143 87.5 -237t224.5 -92q133 -2 223 92
t88 237z" />
    <glyph glyph-name="uni042F" unicode="&#x42f;" horiz-adv-x="622" 
d="M279 700h246v-700h-36v333h-150l-265 -333h-48l276 333h-23q-107 0 -175.5 51t-68.5 132q0 82 68 133t176 51zM489 362v308h-211q-96 0 -151 -41.5t-55 -112.5t55 -112.5t151 -41.5h211z" />
    <glyph glyph-name="uni0430" unicode="&#x430;" horiz-adv-x="500" 
d="M424 333v-333h-34v111q-21 -57 -70 -89t-117 -32q-70 0 -112.5 34.5t-42.5 93.5q0 56 32 88q30 30 71 44t119 27q67 10 93.5 21.5t26.5 34.5v3q0 57 -38 93t-100 36q-54 0 -98 -29.5t-67 -81.5l-31 16q30 58 81.5 90.5t116.5 32.5q76 0 123 -44t47 -116zM390 188v98
q-25 -17 -115 -34q-64 -12 -101 -24q-91 -28 -91 -110q0 -47 34 -74.5t91 -27.5q78 0 130 49.5t52 122.5z" />
    <glyph glyph-name="uni0431" unicode="&#x431;" horiz-adv-x="581" 
d="M539 239q0 -111 -70.5 -180t-181.5 -69q-106 0 -176 74t-70 186q0 168 46 256q46 90 130 130q82 39 242 74v-33q-133 -25 -208 -57q-77 -32 -119.5 -96.5t-53.5 -176.5q26 68 85.5 107t135.5 39q106 0 173 -71t67 -183zM502 239q0 100 -58.5 163t-151.5 63
q-96 0 -155.5 -62t-59.5 -156q0 -99 59.5 -164t151.5 -65q95 0 154.5 61t59.5 160z" />
    <glyph glyph-name="uni0432" unicode="&#x432;" horiz-adv-x="514" 
d="M473 130q0 -59 -47 -94.5t-127 -35.5h-218v483h214q72 0 114 -33t42 -87q0 -45 -33 -76t-93 -40q70 -7 109 -38t39 -79zM115 456v-198h160q65 0 103.5 27.5t38.5 72.5q0 44 -32.5 71t-88.5 27h-181zM438 134q0 45 -42.5 71t-116.5 26h-164v-204h184q64 0 101.5 29.5
t37.5 77.5z" />
    <glyph glyph-name="uni0433" unicode="&#x433;" horiz-adv-x="404" 
d="M394 483v-27h-279v-456h-34v483h313z" />
    <glyph glyph-name="uni0434" unicode="&#x434;" horiz-adv-x="547" 
d="M8 -87v114h81l83 456h270v-456h60v-114h-35v87h-424v-87h-35zM121 27h289v429h-215z" />
    <glyph glyph-name="uni0435" unicode="&#x435;" horiz-adv-x="533" 
d="M491 239h-415q1 -99 57.5 -160t142.5 -61q59 0 103.5 29.5t65.5 81.5l33 -15q-28 -59 -80 -91.5t-121 -32.5q-103 0 -169.5 71t-66.5 182t66.5 180.5t166.5 69.5q98 0 158 -65.5t60 -173.5q0 -12 -1 -15zM77 265h380q-2 92 -51 146.5t-131 54.5q-84 0 -138 -54.5
t-60 -146.5z" />
    <glyph glyph-name="uni0436" unicode="&#x436;" horiz-adv-x="745" 
d="M665 0l-211 236h-64v-236h-35v236h-64l-211 -236h-42l227 251l-223 232h44l206 -219h63v219h35v-219h63l206 219h44l-223 -232l227 -251h-42z" />
    <glyph glyph-name="uni0437" unicode="&#x437;" horiz-adv-x="489" 
d="M438 128q0 -62 -52.5 -100t-137.5 -38q-72 0 -124.5 35.5t-70.5 95.5l35 6q14 -51 56 -80t102 -29q71 0 114 31t43 83q0 47 -43 75t-116 28h-31v27h31q67 0 106.5 27t39.5 71q0 47 -39 76t-103 29q-57 0 -98.5 -29t-55.5 -77l-34 6q17 59 68 93.5t121 34.5q79 0 127 -36
t48 -94q0 -42 -31 -73t-85 -41q60 -10 95 -42.5t35 -78.5z" />
    <glyph glyph-name="uni0438" unicode="&#x438;" horiz-adv-x="565" 
d="M438 483h47v-483h-35v450l-324 -450h-45v483h34v-451z" />
    <glyph glyph-name="uni0439" unicode="&#x439;" horiz-adv-x="565" 
d="M438 483h47v-483h-35v450l-324 -450h-45v483h34v-451zM171 697h26q3 -45 25.5 -71t59.5 -26t60.5 26.5t27.5 70.5h25q-3 -54 -34.5 -88t-78.5 -34q-46 0 -77 34t-34 88z" />
    <glyph glyph-name="uni043A" unicode="&#x43a;" horiz-adv-x="470" 
d="M390 0l-211 236h-64v-236h-34v483h34v-219h63l206 219h44l-223 -232l227 -251h-42z" />
    <glyph glyph-name="uni043B" unicode="&#x43b;" horiz-adv-x="555" 
d="M475 483v-483h-35v456h-256l-14 -291q-4 -75 -45.5 -120t-104.5 -45v27q49 0 81 37.5t35 100.5l15 318h324z" />
    <glyph glyph-name="uni043C" unicode="&#x43c;" horiz-adv-x="642" 
d="M511 483h51v-483h-34v449l-200 -330h-14l-200 332v-451h-33v483h51l190 -314z" />
    <glyph glyph-name="uni043D" unicode="&#x43d;" horiz-adv-x="563" 
d="M448 483h34v-483h-34v248h-333v-248h-34v483h34v-208h333v208z" />
    <glyph glyph-name="uni043E" unicode="&#x43e;" horiz-adv-x="579" 
d="M538 241q0 -109 -71 -180t-177 -71q-105 0 -177 71.5t-72 179.5q0 109 72 180.5t177 71.5q106 0 177 -71.5t71 -180.5zM503 241q0 99 -61 161.5t-152 62.5t-152 -62.5t-61 -161.5q0 -98 61 -160.5t152 -62.5t152 62.5t61 160.5z" />
    <glyph glyph-name="uni043F" unicode="&#x43f;" horiz-adv-x="543" 
d="M462 483v-483h-34v456h-313v-456h-34v483h381z" />
    <glyph glyph-name="uni0440" unicode="&#x440;" horiz-adv-x="594" 
d="M553 241q0 -113 -63.5 -182t-170.5 -69q-75 0 -128 37.5t-76 104.5v-342h-34v693h34v-133q24 68 76.5 105.5t127.5 37.5q107 0 170.5 -68.5t63.5 -183.5zM518 241q0 102 -55 163t-148 61q-91 0 -146 -61q-54 -61 -54 -163q0 -101 54 -162q55 -61 146 -61t147 62.5
t56 160.5z" />
    <glyph glyph-name="uni0441" unicode="&#x441;" horiz-adv-x="537" 
d="M41 241q0 109 72 180.5t177 71.5q72 0 126 -36t81 -100l-32 -11q-22 57 -67.5 88t-107.5 31q-91 0 -152 -62.5t-61 -161.5q0 -98 61 -160.5t152 -62.5q63 0 108.5 31.5t66.5 88.5l33 -10q-27 -64 -81.5 -101t-126.5 -37q-105 0 -177 71.5t-72 179.5z" />
    <glyph glyph-name="uni0442" unicode="&#x442;" horiz-adv-x="441" 
d="M414 483v-27h-176v-456h-35v456h-176v27h387z" />
    <glyph glyph-name="uni0443" unicode="&#x443;" horiz-adv-x="512" 
d="M443 483h36l-326 -693h-43l134 262l-211 431h39l191 -392z" />
    <glyph glyph-name="uni0444" unicode="&#x444;" horiz-adv-x="696" 
d="M365 -10v-210h-34v210q-130 4 -210 74t-80 178q0 109 79.5 177.5t210.5 73.5v207h34v-207q131 -5 210.5 -73.5t79.5 -177.5q0 -108 -80 -178t-210 -74zM332 18v447q-115 -5 -185.5 -66t-70.5 -157q0 -97 70.5 -158t185.5 -66zM620 242q0 97 -70 157.5t-185 65.5v-447
q115 5 185 66t70 158z" />
    <glyph glyph-name="uni0445" unicode="&#x445;" horiz-adv-x="502" 
d="M464 483l-193 -240l184 -243h-41l-163 220l-172 -220h-41l194 240l-184 243h41l162 -219l172 219h41z" />
    <glyph glyph-name="uni0446" unicode="&#x446;" horiz-adv-x="552" 
d="M516 27v-124h-27l-5 97h-403v483h34v-456h313v456h34v-456h54z" />
    <glyph glyph-name="uni0447" unicode="&#x447;" horiz-adv-x="516" 
d="M401 483h35v-483h-35v192q-60 -21 -145 -21q-195 0 -195 191v121h34v-121q0 -165 168 -165q79 0 138 22v264z" />
    <glyph glyph-name="uni0448" unicode="&#x448;" horiz-adv-x="802" 
d="M687 483h34v-483h-640v483h34v-456h269v456h34v-456h269v456z" />
    <glyph glyph-name="uni0449" unicode="&#x449;" horiz-adv-x="806" 
d="M770 27v-124h-27l-5 97h-657v483h34v-456h269v456h34v-456h269v456h34v-456h49z" />
    <glyph glyph-name="uni044A" unicode="&#x44a;" horiz-adv-x="579" 
d="M548 148q0 -66 -51 -107q-50 -41 -129 -41h-201v456h-140v27h174v-185h167q79 0 129.5 -42t50.5 -108zM513 148q0 55 -41 89t-105 34h-166v-244h166q64 0 105 33.5t41 87.5z" />
    <glyph glyph-name="uni044B" unicode="&#x44b;" horiz-adv-x="689" 
d="M282 0h-201v483h34v-185h167q79 0 129.5 -42t50.5 -108t-51 -107q-50 -41 -129 -41zM281 271h-166v-244h166q64 0 105 33.5t41 87.5q0 55 -41 89t-105 34zM574 0v483h34v-483h-34z" />
    <glyph glyph-name="uni044C" unicode="&#x44c;" horiz-adv-x="493" 
d="M282 0h-201v483h34v-185h167q79 0 129.5 -42t50.5 -108t-51 -107q-50 -41 -129 -41zM281 271h-166v-244h166q64 0 105 33.5t41 87.5q0 55 -41 89t-105 34z" />
    <glyph glyph-name="uni044D" unicode="&#x44d;" horiz-adv-x="537" 
d="M496 241q0 -108 -72 -179.5t-177 -71.5q-72 0 -126.5 37t-81.5 101l33 10q21 -57 66.5 -88.5t108.5 -31.5q89 0 149.5 60t63.5 154h-259v27h258q-4 91 -64.5 148.5t-147.5 57.5q-62 0 -107.5 -31t-67.5 -88l-32 11q27 64 81 100t126 36q105 0 177 -71.5t72 -180.5z" />
    <glyph glyph-name="uni044E" unicode="&#x44e;" horiz-adv-x="754" 
d="M712 241q0 -109 -71 -180t-177 -71q-104 0 -176 69.5t-73 175.5h-100v-235h-34v483h34v-221h101q7 101 77.5 166t170.5 65q106 0 177 -71.5t71 -180.5zM677 241q0 99 -61 161.5t-152 62.5t-152 -62.5t-61 -161.5q0 -98 61 -160.5t152 -62.5t152 62.5t61 160.5z" />
    <glyph glyph-name="uni044F" unicode="&#x44f;" horiz-adv-x="512" 
d="M233 483h198v-483h-34v221h-143l-175 -221h-47l187 221q-72 4 -115.5 40t-43.5 93q0 58 47.5 93.5t125.5 35.5zM397 248v208h-162q-64 0 -102 -28t-38 -74q0 -48 38 -77t102 -29h162z" />
    <glyph glyph-name="uni0450" unicode="&#x450;" horiz-adv-x="533" 
d="M491 239h-415q1 -99 57.5 -160t142.5 -61q59 0 103.5 29.5t65.5 81.5l33 -15q-28 -59 -80 -91.5t-121 -32.5q-103 0 -169.5 71t-66.5 182t66.5 180.5t166.5 69.5q98 0 158 -65.5t60 -173.5q0 -12 -1 -15zM77 265h380q-2 92 -51 146.5t-131 54.5q-84 0 -138 -54.5
t-60 -146.5zM300 573h-28l-92 127h46z" />
    <glyph glyph-name="uni0451" unicode="&#x451;" horiz-adv-x="533" 
d="M149 654q0 13 8.5 21.5t22.5 8.5q30 0 30 -30q0 -13 -8.5 -21t-21.5 -8q-14 0 -22.5 8t-8.5 21zM340 654q0 13 8.5 21.5t22.5 8.5q30 0 30 -30q0 -13 -8.5 -21t-21.5 -8q-14 0 -22.5 8t-8.5 21zM491 239h-415q1 -99 57.5 -160t142.5 -61q59 0 103.5 29.5t65.5 81.5
l33 -15q-28 -59 -80 -91.5t-121 -32.5q-103 0 -169.5 71t-66.5 182t66.5 180.5t166.5 69.5q98 0 158 -65.5t60 -173.5q0 -12 -1 -15zM77 265h380q-2 92 -51 146.5t-131 54.5q-84 0 -138 -54.5t-60 -146.5z" />
    <glyph glyph-name="uni0452" unicode="&#x452;" horiz-adv-x="558" 
d="M482 306v-373q0 -71 -40.5 -112t-109.5 -41q-30 0 -52 8v35q20 -13 52 -13q54 0 85 33t31 90v67h-1v305q0 77 -40.5 119t-111.5 42q-81 0 -130.5 -61.5t-49.5 -165.5v-239h-34v577h-78v26h78v97h34v-97h197v-26h-197v-227q22 68 70.5 105.5t116.5 37.5q84 0 132 -48.5
t48 -138.5z" />
    <glyph glyph-name="uni0453" unicode="&#x453;" horiz-adv-x="404" 
d="M394 483v-27h-279v-456h-34v483h313zM181 573l74 127h46l-92 -127h-28z" />
    <glyph glyph-name="uni0454" unicode="&#x454;" horiz-adv-x="537" 
d="M465 138l33 -10q-27 -64 -81.5 -101t-126.5 -37q-105 0 -177 71.5t-72 179.5q0 109 72 180.5t177 71.5q72 0 126 -36t81 -100l-32 -11q-22 57 -67.5 88t-107.5 31q-87 0 -147.5 -57.5t-64.5 -148.5h258v-27h-259q3 -94 63.5 -154t149.5 -60q63 0 108.5 31.5t66.5 88.5z
" />
    <glyph glyph-name="uni0455" unicode="&#x455;" horiz-adv-x="455" 
d="M44 119l33 10q44 -113 167 -113q60 0 97 27.5t37 74.5q0 33 -20 55q-19 21 -47 32.5t-82 25.5q-63 19 -87 29q-76 32 -76 104q0 58 43.5 93.5t116.5 35.5q60 0 105 -25t67 -71l-34 -11q-37 81 -138 81q-57 0 -91.5 -27t-34.5 -71q3 -46 35 -67t110 -42q55 -16 87 -30
q79 -31 79 -107q0 -60 -45.5 -96.5t-120.5 -36.5q-72 0 -125 34.5t-76 94.5z" />
    <glyph glyph-name="uni0456" unicode="&#x456;" horiz-adv-x="198" 
d="M69 654q0 13 8.5 21.5t22.5 8.5q30 0 30 -30q0 -13 -8.5 -21t-21.5 -8q-14 0 -22.5 8t-8.5 21zM81 0v483h34v-483h-34z" />
    <glyph glyph-name="uni0457" unicode="&#x457;" horiz-adv-x="196" 
d="M-28 607q0 13 8.5 21.5t22.5 8.5q30 0 30 -30q0 -13 -8.5 -21t-21.5 -8q-14 0 -22.5 8t-8.5 21zM163 607q0 13 8.5 21.5t22.5 8.5q30 0 30 -30q0 -13 -8.5 -21t-21.5 -8q-14 0 -22.5 8t-8.5 21zM81 0v483h34v-483h-34z" />
    <glyph glyph-name="uni0458" unicode="&#x458;" horiz-adv-x="198" 
d="M69 654q0 13 8.5 21.5t22.5 8.5q30 0 30 -30q0 -13 -8.5 -21t-21.5 -8q-14 0 -22.5 8t-8.5 21zM115 483v-550q0 -71 -40.5 -112t-109.5 -41q-30 0 -52 8v35q20 -13 52 -13q54 0 85 33t31 90v550h34z" />
    <glyph glyph-name="uni0459" unicode="&#x459;" horiz-adv-x="852" 
d="M822 148q0 -66 -51 -107q-50 -41 -129 -41h-202v456h-256l-14 -291q-4 -75 -45.5 -120t-104.5 -45v27q49 0 81 37.5t35 100.5l15 318h324v-185h167q79 0 129.5 -42t50.5 -108zM787 148q0 55 -41 89t-105 34h-166v-244h166q64 0 105 33.5t41 87.5z" />
    <glyph glyph-name="uni045A" unicode="&#x45a;" horiz-adv-x="860" 
d="M829 148q0 -66 -51 -107q-50 -41 -129 -41h-201v248h-333v-248h-34v483h34v-208h333v208h34v-185h167q79 0 129.5 -42t50.5 -108zM794 148q0 55 -41 89t-105 34h-166v-244h166q64 0 105 33.5t41 87.5z" />
    <glyph glyph-name="uni045B" unicode="&#x45b;" horiz-adv-x="558" 
d="M482 306v-306h-35v305q0 77 -40.5 119t-111.5 42q-81 0 -130.5 -61.5t-49.5 -165.5v-239h-34v577h-78v26h78v97h34v-97h197v-26h-197v-227q22 68 70.5 105.5t116.5 37.5q84 0 132 -48.5t48 -138.5z" />
    <glyph glyph-name="uni045C" unicode="&#x45c;" horiz-adv-x="470" 
d="M390 0l-211 236h-64v-236h-34v483h34v-219h63l206 219h44l-223 -232l227 -251h-42zM216 573l74 127h46l-92 -127h-28z" />
    <glyph glyph-name="uni045D" unicode="&#x45d;" horiz-adv-x="565" 
d="M438 483h47v-483h-35v450l-324 -450h-45v483h34v-451zM308 573h-28l-92 127h46z" />
    <glyph glyph-name="uni045E" unicode="&#x45e;" horiz-adv-x="512" 
d="M443 483h36l-326 -693h-43l134 262l-211 431h39l191 -392zM149 697h26q3 -45 25.5 -71t59.5 -26t60.5 26.5t27.5 70.5h25q-3 -54 -34.5 -88t-78.5 -34q-46 0 -77 34t-34 88z" />
    <glyph glyph-name="uni045F" unicode="&#x45f;" horiz-adv-x="543" 
d="M428 483h34v-483h-176l-5 -97h-27l-5 97h-168v483h34v-456h313v456z" />
    <glyph glyph-name="uni0462" unicode="&#x462;" horiz-adv-x="713" 
d="M687 184q0 -82 -68 -133t-176 -51h-246v579h-197v30h197v91h36v-91h250v-30h-250v-212h210q107 0 175.5 -51t68.5 -132zM650 184q0 71 -55 112.5t-151 41.5h-211v-308h211q96 0 151 41.5t55 112.5z" />
    <glyph glyph-name="uni0463" unicode="&#x463;" horiz-adv-x="573" 
d="M542 148q0 -66 -51 -107q-50 -41 -129 -41h-201v456h-134v27h134v217h34v-217h203v-27h-203v-158h167q79 0 129.5 -42t50.5 -108zM507 148q0 55 -41 89t-105 34h-166v-244h166q64 0 105 33.5t41 87.5z" />
    <glyph glyph-name="uni0472" unicode="&#x472;" horiz-adv-x="811" 
d="M754 350q2 -156 -98.5 -259t-249.5 -101q-150 -2 -250.5 101t-98.5 259q-2 156 98.5 259t250.5 101q149 2 249.5 -101t98.5 -259zM94 369h623q-6 137 -93.5 223.5t-217.5 86.5t-218 -86.5t-94 -223.5zM717 340h-623q3 -141 91 -230t221 -89q132 0 220 89t91 230z" />
    <glyph glyph-name="uni0473" unicode="&#x473;" horiz-adv-x="579" 
d="M538 241q0 -109 -71 -180t-177 -71q-105 0 -177 71.5t-72 179.5q0 109 72 180.5t177 71.5q106 0 177 -71.5t71 -180.5zM78 258h424q-4 92 -64 149.5t-148 57.5t-148 -57.5t-64 -149.5zM503 231h-426q3 -93 63.5 -153t149.5 -60t149.5 60t63.5 153z" />
    <glyph glyph-name="uni0474" unicode="&#x474;" horiz-adv-x="677" 
d="M675 700v-28q-25 0 -44 -22t-42 -79l-230 -571h-41l-281 700h37l266 -664l215 539q29 72 55 98.5t65 26.5z" />
    <glyph glyph-name="uni0475" unicode="&#x475;" horiz-adv-x="554" 
d="M510 493v-27q-23 0 -38 -15.5t-34 -57.5l-165 -393h-37l-203 483h39l185 -450l147 360q24 59 45.5 79.5t60.5 20.5z" />
    <glyph glyph-name="uni0490" unicode="&#x490;" horiz-adv-x="559" 
d="M483 830h29v-160h-379v-670h-36v700h380z" />
    <glyph glyph-name="uni0491" unicode="&#x491;" horiz-adv-x="404" 
d="M368 603h26v-147h-279v-456h-34v483h281z" />
    <glyph glyph-name="Wgrave" unicode="&#x1e80;" horiz-adv-x="1004" 
d="M927 700h35l-217 -700h-47l-198 659l-209 -659h-43l-206 700h36l193 -664l210 664h42l200 -666zM514 790h-28l-92 127h46z" />
    <glyph glyph-name="wgrave" unicode="&#x1e81;" horiz-adv-x="791" 
d="M729 483h34l-171 -483h-39l-159 436l-160 -436h-40l-166 483h36l152 -450l162 450h33l163 -450zM421 573h-28l-92 127h46z" />
    <glyph glyph-name="Wacute" unicode="&#x1e82;" horiz-adv-x="1004" 
d="M927 700h35l-217 -700h-47l-198 659l-209 -659h-43l-206 700h36l193 -664l210 664h42l200 -666zM481 790l74 127h46l-92 -127h-28z" />
    <glyph glyph-name="wacute" unicode="&#x1e83;" horiz-adv-x="791" 
d="M729 483h34l-171 -483h-39l-159 436l-160 -436h-40l-166 483h36l152 -450l162 450h33l163 -450zM375 573l74 127h46l-92 -127h-28z" />
    <glyph glyph-name="Wdieresis" unicode="&#x1e84;" horiz-adv-x="1004" 
d="M376 824q0 13 8.5 21.5t22.5 8.5q30 0 30 -30q0 -13 -8.5 -21t-21.5 -8q-14 0 -22.5 8t-8.5 21zM567 824q0 13 8.5 21.5t22.5 8.5q30 0 30 -30q0 -13 -8.5 -21t-21.5 -8q-14 0 -22.5 8t-8.5 21zM927 700h35l-217 -700h-47l-198 659l-209 -659h-43l-206 700h36l193 -664
l210 664h42l200 -666z" />
    <glyph glyph-name="wdieresis" unicode="&#x1e85;" horiz-adv-x="791" 
d="M270 654q0 13 8.5 21.5t22.5 8.5q30 0 30 -30q0 -13 -8.5 -21t-21.5 -8q-14 0 -22.5 8t-8.5 21zM461 654q0 13 8.5 21.5t22.5 8.5q30 0 30 -30q0 -13 -8.5 -21t-21.5 -8q-14 0 -22.5 8t-8.5 21zM729 483h34l-171 -483h-39l-159 436l-160 -436h-40l-166 483h36l152 -450
l162 450h33l163 -450z" />
    <glyph glyph-name="uni1E9E" unicode="&#x1e9e;" horiz-adv-x="680" 
d="M497 287q51 -22 72 -35q65 -38 65 -112q0 -68 -53 -109t-142 -41q-67 0 -137 21l5 33q71 -24 133 -24q72 0 114.5 32t42.5 85q-3 48 -29.5 71.5t-90.5 50.5q-63 26 -89 48.5t-29 69.5q4 53 40 94.5t148 128.5q-83 79 -201 79q-101 0 -165 -53q-62 -53 -62 -141v-485h-36
v485q0 100 73 162.5t185 62.5q137 0 237 -94v-29q-104 -79 -144 -123q-41 -44 -41 -83q0 -32 23 -51t81 -43z" />
    <glyph glyph-name="Ygrave" unicode="&#x1ef2;" horiz-adv-x="617" 
d="M554 700h41l-269 -414v-286h-34v285l-270 415h41l246 -379zM321 790h-28l-92 127h46z" />
    <glyph glyph-name="ygrave" unicode="&#x1ef3;" horiz-adv-x="512" 
d="M443 483h36l-326 -693h-43l134 262l-211 431h39l191 -392zM273 573h-28l-92 127h46z" />
    <glyph glyph-name="uni2009" unicode="&#x2009;" horiz-adv-x="143" 
 />
    <glyph glyph-name="endash" unicode="&#x2013;" horiz-adv-x="578" 
d="M59 292h459v-26h-459v26z" />
    <glyph glyph-name="emdash" unicode="&#x2014;" horiz-adv-x="977" 
d="M59 292h858v-26h-858v26z" />
    <glyph glyph-name="quoteleft" unicode="&#x2018;" horiz-adv-x="183" 
d="M147 710l3 -19q-72 -4 -72 -113q0 -7 9 -10q29 -6 29 -29q0 -13 -8.5 -21t-21.5 -8q-32 0 -32 43q0 38 3 60.5t11.5 46t28 35.5t50.5 15z" />
    <glyph glyph-name="quoteright" unicode="&#x2019;" horiz-adv-x="183" 
d="M36 510l-3 19q72 4 72 113q0 7 -9 10q-29 6 -29 29q0 13 8.5 21t21.5 8q32 0 32 -43q0 -38 -3 -60.5t-11.5 -46t-28 -35.5t-50.5 -15z" />
    <glyph glyph-name="quotesinglbase" unicode="&#x201a;" horiz-adv-x="183" 
d="M36 -148l-3 19q72 4 72 113q0 7 -9 10q-29 6 -29 29q0 13 8.5 21t21.5 8q32 0 32 -43q0 -38 -3 -60.5t-11.5 -46t-28 -35.5t-50.5 -15z" />
    <glyph glyph-name="quotedblleft" unicode="&#x201c;" horiz-adv-x="310" 
d="M146 710l3 -19q-72 -4 -72 -113q0 -7 9 -10q29 -6 29 -29q0 -13 -8.5 -21t-21.5 -8q-32 0 -32 43q0 38 3 60.5t11.5 46t28 35.5t50.5 15zM274 710l3 -19q-72 -4 -72 -113q0 -7 9 -10q29 -6 29 -29q0 -13 -8.5 -21t-21.5 -8q-32 0 -32 43q0 38 3 60.5t11.5 46t28 35.5
t50.5 15z" />
    <glyph glyph-name="quotedblright" unicode="&#x201d;" horiz-adv-x="310" 
d="M164 510l-3 19q72 4 72 113q0 7 -9 10q-29 6 -29 29q0 13 8.5 21t21.5 8q32 0 32 -43q0 -38 -3 -60.5t-11.5 -46t-28 -35.5t-50.5 -15zM36 510l-3 19q72 4 72 113q0 7 -9 10q-29 6 -29 29q0 13 8.5 21t21.5 8q32 0 32 -43q0 -38 -3 -60.5t-11.5 -46t-28 -35.5t-50.5 -15z
" />
    <glyph glyph-name="quotedblbase" unicode="&#x201e;" horiz-adv-x="310" 
d="M164 -148l-3 19q72 4 72 113q0 7 -9 10q-29 6 -29 29q0 13 8.5 21t21.5 8q32 0 32 -43q0 -38 -3 -60.5t-11.5 -46t-28 -35.5t-50.5 -15zM36 -148l-3 19q72 4 72 113q0 7 -9 10q-29 6 -29 29q0 13 8.5 21t21.5 8q32 0 32 -43q0 -38 -3 -60.5t-11.5 -46t-28 -35.5
t-50.5 -15z" />
    <glyph glyph-name="dagger" unicode="&#x2020;" horiz-adv-x="353" 
d="M323 598v-28h-132v-318h-30v318h-131v28h131v142h30v-142h132z" />
    <glyph glyph-name="daggerdbl" unicode="&#x2021;" horiz-adv-x="353" 
d="M323 570h-132v-148h132v-28h-132v-142h-30v142h-131v28h131v148h-131v28h131v142h30v-142h132v-28z" />
    <glyph glyph-name="bullet" unicode="&#x2022;" horiz-adv-x="339" 
d="M265 329q0 -42 -27 -69t-69 -27t-69 27t-27 69q0 43 27 70t69 27t69 -27t27 -70z" />
    <glyph glyph-name="ellipsis" unicode="&#x2026;" horiz-adv-x="488" 
d="M275 23q0 -13 -8 -21.5t-22 -8.5t-22.5 8.5t-8.5 21.5t8.5 21t22.5 8q13 0 21.5 -8t8.5 -21zM428 23q0 -13 -8 -21.5t-22 -8.5t-22.5 8.5t-8.5 21.5t8.5 21t22.5 8q13 0 21.5 -8t8.5 -21zM122 23q0 -13 -8 -21.5t-22 -8.5t-22.5 8.5t-8.5 21.5t8.5 21t22.5 8
q13 0 21.5 -8t8.5 -21z" />
    <glyph glyph-name="perthousand" unicode="&#x2030;" horiz-adv-x="1212" 
d="M44 542q0 71 47.5 118t119.5 47q71 0 118.5 -47t47.5 -118q0 -72 -47.5 -119.5t-119.5 -47.5q-71 0 -118.5 47.5t-47.5 119.5zM638 700h35l-264 -353l-254 -347h-38l265 350zM345 542q0 60 -39 100q-37 40 -96 40q-58 0 -97 -40q-38 -41 -38 -100q0 -62 38.5 -102
t97.5 -40t96 40q38 41 38 102zM766 156q0 -71 -47.5 -118t-118.5 -47q-72 0 -119.5 47t-47.5 118q0 72 47.5 119.5t118.5 47.5q72 0 119.5 -47.5t47.5 -119.5zM1169 156q0 -71 -47.5 -118t-118.5 -47q-72 0 -119.5 47t-47.5 118q0 72 47.5 119.5t118.5 47.5
q72 0 119.5 -47.5t47.5 -119.5zM464 156q0 -59 38 -100q39 -40 97 -40q59 0 96 40q39 40 39 100q0 61 -38 102q-37 40 -96 40t-97.5 -40t-38.5 -102zM867 156q0 -59 38 -100q39 -40 97 -40q59 0 96 40q39 40 39 100q0 61 -38 102q-37 40 -96 40t-97.5 -40t-38.5 -102z" />
    <glyph glyph-name="guilsinglleft" unicode="&#x2039;" horiz-adv-x="270" 
d="M53 267l132 171h38l-141 -179l141 -178h-38l-132 170v16z" />
    <glyph glyph-name="guilsinglright" unicode="&#x203a;" horiz-adv-x="270" 
d="M217 267v-16l-132 -170h-38l141 178l-141 179h38z" />
    <glyph glyph-name="fraction" unicode="&#x2044;" horiz-adv-x="118" 
d="M302 700h35l-264 -353l-254 -347h-38l265 350z" />
    <glyph glyph-name="uni2070" unicode="&#x2070;" horiz-adv-x="346" 
d="M37 592q0 79 37 126.5t99 47.5q63 0 99.5 -47.5t36.5 -126.5q0 -81 -36.5 -128.5t-99.5 -47.5t-99.5 47.5t-36.5 128.5zM279 592q0 70 -27.5 109.5t-78.5 39.5t-78.5 -39.5t-27.5 -109.5q0 -72 27.5 -111.5t78.5 -39.5t78.5 39.5t27.5 111.5z" />
    <glyph glyph-name="uni2074" unicode="&#x2074;" horiz-adv-x="323" 
d="M299 533v-21h-56v-91h-29v91h-191v14l187 235h33v-228h56zM218 738l-163 -205h159z" />
    <glyph glyph-name="uni2075" unicode="&#x2075;" horiz-adv-x="307" 
d="M273 532q0 -53 -34 -85.5t-89 -32.5q-45 0 -78 22.5t-49 61.5l30 10q25 -69 99 -69q42 0 67.5 25.5t25.5 66.5t-25 66.5t-66 25.5q-62 0 -93 -51l-25 6l23 183h203l-4 -24h-179l-20 -142q34 52 100 52q51 0 82.5 -31.5t31.5 -83.5z" />
    <glyph glyph-name="uni2076" unicode="&#x2076;" horiz-adv-x="324" 
d="M291 533q0 -52 -34.5 -85t-90.5 -33t-90.5 33t-34.5 85q0 47 28 82l108 146h39l-107 -129q28 17 65 17q52 0 84.5 -32t32.5 -84zM262 531q0 43 -26 69t-69 26q-44 0 -71 -26t-27 -68q0 -43 26.5 -68.5t70.5 -25.5q43 0 69.5 25.5t26.5 67.5z" />
    <glyph glyph-name="uni2077" unicode="&#x2077;" horiz-adv-x="286" 
d="M18 761h248v-18l-158 -322h-34l165 315h-224z" />
    <glyph glyph-name="uni2078" unicode="&#x2078;" horiz-adv-x="316" 
d="M281 509q0 -43 -33.5 -68.5t-88.5 -25.5q-56 0 -90 25.5t-34 67.5q0 34 22.5 57t58.5 32q-71 20 -71 81q0 40 31.5 64t82.5 24q50 0 81 -24t31 -63q0 -61 -70 -81q35 -7 57.5 -30.5t22.5 -58.5zM159 608q39 0 61.5 19t22.5 50t-23 49t-61 18q-39 0 -62.5 -18t-23.5 -48
q0 -31 23.5 -50.5t62.5 -19.5zM252 512q0 33 -25.5 54t-67.5 21q-44 0 -69.5 -21t-25.5 -54q0 -34 26 -53.5t69 -19.5t68 19.5t25 53.5z" />
    <glyph glyph-name="uni2079" unicode="&#x2079;" horiz-adv-x="324" 
d="M283 649q0 -47 -28 -82l-108 -146h-39l107 129q-28 -17 -65 -17q-52 0 -84.5 32t-32.5 84t34.5 85t90.5 33t90.5 -33t34.5 -85zM255 650q0 43 -26.5 68.5t-70.5 25.5q-43 0 -69.5 -25.5t-26.5 -67.5q0 -43 26 -69t69 -26q44 0 71 26t27 68z" />
    <glyph glyph-name="uni2080" unicode="&#x2080;" horiz-adv-x="346" 
d="M37 81q0 79 37 126.5t99 47.5q63 0 99.5 -47.5t36.5 -126.5q0 -81 -36.5 -128.5t-99.5 -47.5t-99.5 47.5t-36.5 128.5zM279 81q0 70 -27.5 109.5t-78.5 39.5t-78.5 -39.5t-27.5 -109.5q0 -72 27.5 -111.5t78.5 -39.5t78.5 39.5t27.5 111.5z" />
    <glyph glyph-name="uni2081" unicode="&#x2081;" horiz-adv-x="221" 
d="M130 250h27v-340h-30v319l-99 -60l-9 24z" />
    <glyph glyph-name="uni2082" unicode="&#x2082;" horiz-adv-x="316" 
d="M76 -67l204 3v-26h-241v21l70 50q79 55 105 95q26 41 26 71q0 38 -24.5 60.5t-63.5 22.5q-69 0 -98 -69l-27 11q16 39 48.5 61t75.5 22q54 0 86 -29.5t32 -79.5q0 -37 -29 -81q-28 -42 -115 -99z" />
    <glyph glyph-name="uni2083" unicode="&#x2083;" horiz-adv-x="311" 
d="M275 0q0 -42 -33.5 -68.5t-85.5 -26.5q-97 0 -129 84l28 9q27 -69 101 -69q40 0 65.5 20t25.5 53q0 34 -26.5 53.5t-70.5 19.5h-22v21h22q41 0 64.5 19t23.5 49t-23 48.5t-60 18.5q-70 0 -101 -67l-27 8q36 83 127 83q50 0 81 -25t31 -66q0 -59 -73 -78q38 -7 60 -29.5
t22 -56.5z" />
    <glyph glyph-name="uni2084" unicode="&#x2084;" horiz-adv-x="323" 
d="M299 22v-21h-56v-91h-29v91h-191v14l187 235h33v-228h56zM218 227l-163 -205h159z" />
    <glyph glyph-name="uni2085" unicode="&#x2085;" horiz-adv-x="307" 
d="M273 21q0 -53 -34 -85.5t-89 -32.5q-45 0 -78 22.5t-49 61.5l30 10q25 -69 99 -69q42 0 67.5 25.5t25.5 66.5t-25 66.5t-66 25.5q-62 0 -93 -51l-25 6l23 183h203l-4 -24h-179l-20 -142q34 52 100 52q51 0 82.5 -31.5t31.5 -83.5z" />
    <glyph glyph-name="uni2086" unicode="&#x2086;" horiz-adv-x="324" 
d="M291 22q0 -52 -34.5 -85t-90.5 -33t-90.5 33t-34.5 85q0 47 28 82l108 146h39l-107 -129q28 17 65 17q52 0 84.5 -32t32.5 -84zM262 20q0 43 -26 69t-69 26q-44 0 -71 -26t-27 -68q0 -43 26.5 -68.5t70.5 -25.5q43 0 69.5 25.5t26.5 67.5z" />
    <glyph glyph-name="uni2087" unicode="&#x2087;" horiz-adv-x="286" 
d="M18 250h248v-18l-158 -322h-34l165 315h-224z" />
    <glyph glyph-name="uni2088" unicode="&#x2088;" horiz-adv-x="316" 
d="M281 -2q0 -43 -33.5 -68.5t-88.5 -25.5q-56 0 -90 25.5t-34 67.5q0 34 22.5 57t58.5 32q-71 20 -71 81q0 40 31.5 64t82.5 24q50 0 81 -24t31 -63q0 -61 -70 -81q35 -7 57.5 -30.5t22.5 -58.5zM159 97q39 0 61.5 19t22.5 50t-23 49t-61 18q-39 0 -62.5 -18t-23.5 -48
q0 -31 23.5 -50.5t62.5 -19.5zM252 1q0 33 -25.5 54t-67.5 21q-44 0 -69.5 -21t-25.5 -54q0 -34 26 -53.5t69 -19.5t68 19.5t25 53.5z" />
    <glyph glyph-name="uni2089" unicode="&#x2089;" horiz-adv-x="324" 
d="M283 138q0 -47 -28 -82l-108 -146h-39l107 129q-28 -17 -65 -17q-52 0 -84.5 32t-32.5 84t34.5 85t90.5 33t90.5 -33t34.5 -85zM255 139q0 43 -26.5 68.5t-70.5 25.5q-43 0 -69.5 -25.5t-26.5 -67.5q0 -43 26 -69t69 -26q44 0 71 26t27 68z" />
    <glyph glyph-name="Euro" unicode="&#x20ac;" horiz-adv-x="663" 
d="M577 215l34 -8q-27 -104 -90.5 -160.5t-155.5 -56.5q-104 0 -171.5 72t-84.5 201h-79v25h76q-3 30 -3 62q0 34 1 43h-74v25h76q13 134 83 213q69 79 176 79q92 0 155.5 -56.5t90.5 -160.5l-34 -8q-22 93 -76.5 144t-135.5 51q-93 0 -151.5 -69t-71.5 -193h267l-3 -25
h-266q-1 -9 -1 -43q0 -32 3 -62h250l-3 -25h-244q15 -115 72.5 -179t147.5 -64q81 0 135.5 51t76.5 144z" />
    <glyph glyph-name="uni2116" unicode="&#x2116;" horiz-adv-x="1329" 
d="M666 700h35v-700h-51l-519 663v-663h-34v700h49l520 -662v662zM819 477q0 99 62 162.5t156 63.5t156 -63.5t62 -162.5q0 -98 -62 -161t-156 -63t-156 63t-62 161zM1220 477q0 88 -52 143t-131 55q-80 0 -131 -55t-51 -143q0 -87 51.5 -141.5t130.5 -54.5t131 54.5
t52 141.5zM863 133v27h348v-27h-348z" />
    <glyph glyph-name="trademark" unicode="&#x2122;" horiz-adv-x="655" 
d="M23 678v22h234v-22h-104v-284h-25v284h-105zM581 700h34v-306h-25v282l-131 -222h-9l-127 222v-282h-24v306h37l120 -209z" />
    <glyph glyph-name="oneeighth" unicode="&#x215b;" horiz-adv-x="665" 
d="M130 701h27v-340h-30v319l-99 -60l-9 24zM540 700h35l-264 -353l-254 -347h-38l265 350zM630 88q0 -43 -33.5 -68.5t-88.5 -25.5q-56 0 -90 25.5t-34 67.5q0 34 22.5 57t58.5 32q-71 20 -71 81q0 40 31.5 64t82.5 24q50 0 81 -24t31 -63q0 -61 -70 -81q35 -7 57.5 -30.5
t22.5 -58.5zM508 187q39 0 61.5 19t22.5 50t-23 49t-61 18q-39 0 -62.5 -18t-23.5 -48q0 -31 23.5 -50.5t62.5 -19.5zM601 91q0 33 -25.5 54t-67.5 21q-44 0 -69.5 -21t-25.5 -54q0 -34 26 -53.5t69 -19.5t68 19.5t25 53.5z" />
    <glyph glyph-name="threeeighths" unicode="&#x215c;" horiz-adv-x="718" 
d="M275 451q0 -42 -33.5 -68.5t-85.5 -26.5q-97 0 -129 84l28 9q27 -69 101 -69q40 0 65.5 20t25.5 53q0 34 -26.5 53.5t-70.5 19.5h-22v21h22q41 0 64.5 19t23.5 49t-23 48.5t-60 18.5q-70 0 -101 -67l-27 8q36 83 127 83q50 0 81 -25t31 -66q0 -59 -73 -78q38 -7 60 -29.5
t22 -56.5zM593 700h35l-264 -353l-254 -347h-38l265 350zM683 88q0 -43 -33.5 -68.5t-88.5 -25.5q-56 0 -90 25.5t-34 67.5q0 34 22.5 57t58.5 32q-71 20 -71 81q0 40 31.5 64t82.5 24q50 0 81 -24t31 -63q0 -61 -70 -81q35 -7 57.5 -30.5t22.5 -58.5zM561 187q39 0 61.5 19
t22.5 50t-23 49t-61 18q-39 0 -62.5 -18t-23.5 -48q0 -31 23.5 -50.5t62.5 -19.5zM654 91q0 33 -25.5 54t-67.5 21q-44 0 -69.5 -21t-25.5 -54q0 -34 26 -53.5t69 -19.5t68 19.5t25 53.5z" />
    <glyph glyph-name="fiveeighths" unicode="&#x215d;" horiz-adv-x="721" 
d="M273 472q0 -53 -34 -85.5t-89 -32.5q-45 0 -78 22.5t-49 61.5l30 10q25 -69 99 -69q42 0 67.5 25.5t25.5 66.5t-25 66.5t-66 25.5q-62 0 -93 -51l-25 6l23 183h203l-4 -24h-179l-20 -142q34 52 100 52q51 0 82.5 -31.5t31.5 -83.5zM596 700h35l-264 -353l-254 -347h-38
l265 350zM686 88q0 -43 -33.5 -68.5t-88.5 -25.5q-56 0 -90 25.5t-34 67.5q0 34 22.5 57t58.5 32q-71 20 -71 81q0 40 31.5 64t82.5 24q50 0 81 -24t31 -63q0 -61 -70 -81q35 -7 57.5 -30.5t22.5 -58.5zM564 187q39 0 61.5 19t22.5 50t-23 49t-61 18q-39 0 -62.5 -18
t-23.5 -48q0 -31 23.5 -50.5t62.5 -19.5zM657 91q0 33 -25.5 54t-67.5 21q-44 0 -69.5 -21t-25.5 -54q0 -34 26 -53.5t69 -19.5t68 19.5t25 53.5z" />
    <glyph glyph-name="seveneighths" unicode="&#x215e;" horiz-adv-x="640" 
d="M18 701h248v-18l-158 -322h-34l165 315h-224zM515 700h35l-264 -353l-254 -347h-38l265 350zM605 88q0 -43 -33.5 -68.5t-88.5 -25.5q-56 0 -90 25.5t-34 67.5q0 34 22.5 57t58.5 32q-71 20 -71 81q0 40 31.5 64t82.5 24q50 0 81 -24t31 -63q0 -61 -70 -81
q35 -7 57.5 -30.5t22.5 -58.5zM483 187q39 0 61.5 19t22.5 50t-23 49t-61 18q-39 0 -62.5 -18t-23.5 -48q0 -31 23.5 -50.5t62.5 -19.5zM576 91q0 33 -25.5 54t-67.5 21q-44 0 -69.5 -21t-25.5 -54q0 -34 26 -53.5t69 -19.5t68 19.5t25 53.5z" />
    <glyph glyph-name="arrowup" unicode="&#x2191;" horiz-adv-x="660" 
d="M610 422l-23 -25l-241 251l2 -648h-35l2 648l-240 -250l-25 24l275 278h11z" />
    <glyph glyph-name="arrowdown" unicode="&#x2193;" horiz-adv-x="660" 
d="M587 303l23 -25l-274 -278h-11l-275 278l25 24l240 -250l-2 648h35l-2 -648z" />
    <glyph glyph-name="uni2196" unicode="&#x2196;" horiz-adv-x="772" 
d="M766 22l-26 -26l-650 653l8 -388l-35 2l-3 429l8 8h432l-1 -35l-386 6z" />
    <glyph glyph-name="uni2197" unicode="&#x2197;" horiz-adv-x="772" 
d="M704 700l8 -8l-3 -429l-35 -2l8 388l-650 -653l-26 26l653 649l-386 -6l-1 35h432z" />
    <glyph glyph-name="uni2198" unicode="&#x2198;" horiz-adv-x="772" 
d="M709 437l3 -429l-8 -8h-432l1 35l386 -6l-653 649l26 26l650 -653l-8 388z" />
    <glyph glyph-name="uni2199" unicode="&#x2199;" horiz-adv-x="772" 
d="M113 29l386 6l1 -35h-432l-8 8l3 429l35 2l-8 -388l650 653l26 -26z" />
    <glyph glyph-name="minus" unicode="&#x2212;" horiz-adv-x="486" 
d="M43 317v28h400v-28h-400z" />
    <glyph glyph-name="approxequal" unicode="&#x2248;" horiz-adv-x="474" 
d="M59 349l-24 6q6 38 31 61.5t66 23.5q17 0 34 -4t29 -8.5t48 -19.5q67 -30 97 -30q66 0 75 63l24 -6q-6 -39 -30.5 -62.5t-65.5 -23.5q-36 0 -111 33q-66 29 -97 29q-33 0 -52.5 -17.5t-23.5 -44.5zM59 189l-24 6q6 38 31 61.5t66 23.5q25 0 45 -6t66 -26q67 -30 97 -30
q66 0 75 63l24 -5q-14 -87 -96 -87q-38 0 -112 33q-66 29 -96 29q-33 0 -52.5 -17.5t-23.5 -44.5z" />
    <glyph glyph-name="notequal" unicode="&#x2260;" horiz-adv-x="458" 
d="M418 389h-146l-63 -154h209v-30h-221l-57 -141h-31l57 141h-126v30h138l63 154h-201v30h213l56 138h31l-56 -138h134v-30z" />
    <glyph glyph-name="lessequal" unicode="&#x2264;" horiz-adv-x="465" 
d="M402 508v-35l-318 -135l318 -136v-35l-352 156v28zM50 0v29h352v-29h-352z" />
    <glyph glyph-name="greaterequal" unicode="&#x2265;" horiz-adv-x="465" 
d="M63 508l352 -157v-28l-352 -156v35l318 136l-318 135v35zM63 0v29h352v-29h-352z" />
    <glyph glyph-name="NULL" horiz-adv-x="0" 
 />
    <glyph glyph-name="CR" horiz-adv-x="333" 
 />
    <glyph glyph-name="G.ss06" horiz-adv-x="775" 
d="M482 301h240v-16q2 -121 -87 -209t-229 -86q-150 -2 -250.5 101t-98.5 259q-2 156 98.5 259t250.5 101q107 0 191.5 -58.5t116.5 -152.5l-37 -10q-27 85 -100 137q-73 53 -169 53q-135 2 -225.5 -92t-88.5 -237q-2 -143 87.5 -237t224.5 -92q123 0 198.5 72t80.5 179
h-203v29z" />
    <glyph glyph-name="Gbreve.ss06" horiz-adv-x="775" 
d="M482 301h240v-16q2 -121 -87 -209t-229 -86q-150 -2 -250.5 101t-98.5 259q-2 156 98.5 259t250.5 101q107 0 191.5 -58.5t116.5 -152.5l-37 -10q-27 85 -100 137q-73 53 -169 53q-135 2 -225.5 -92t-88.5 -237q-2 -143 87.5 -237t224.5 -92q123 0 198.5 72t80.5 179
h-203v29zM282 914h26q3 -45 25.5 -71t59.5 -26t60.5 26.5t27.5 70.5h25q-3 -54 -34.5 -88t-78.5 -34q-46 0 -77 34t-34 88z" />
    <glyph glyph-name="Gcommaaccent.ss06" horiz-adv-x="775" 
d="M482 301h240v-16q2 -121 -87 -209t-229 -86q-150 -2 -250.5 101t-98.5 259q-2 156 98.5 259t250.5 101q107 0 191.5 -58.5t116.5 -152.5l-37 -10q-27 85 -100 137q-73 53 -169 53q-135 2 -225.5 -92t-88.5 -237q-2 -143 87.5 -237t224.5 -92q123 0 198.5 72t80.5 179
h-203v29zM355 -232l-3 18q39 2 52 21.5t13 59.5q0 7 -9 9q-28 4 -28 28q0 12 8.5 20t21.5 8q30 0 30 -41q0 -26 -1 -39.5t-5.5 -31t-13.5 -26.5t-25 -16t-40 -10z" />
    <glyph glyph-name="K.ss08" horiz-adv-x="630" 
d="M563 0l-318 347l-112 -110v-237h-36v700h36v-420l427 420h42l-335 -331l341 -369h-45z" />
    <glyph glyph-name="Kcommaaccent.ss08" horiz-adv-x="630" 
d="M563 0l-318 347l-112 -110v-237h-36v700h36v-420l427 420h42l-335 -331l341 -369h-45zM247 -232l-3 18q39 2 52 21.5t13 59.5q0 7 -9 9q-28 4 -28 28q0 12 8.5 20t21.5 8q30 0 30 -41q0 -26 -1 -39.5t-5.5 -31t-13.5 -26.5t-25 -16t-40 -10z" />
    <glyph glyph-name="M.ss09" horiz-adv-x="907" 
d="M755 700h56v-700h-36v663l-303 -663h-41l-302 663v-663h-32v700h55l302 -663z" />
    <glyph glyph-name="G.ss10" horiz-adv-x="802" 
d="M463 292h252v-292h-29l-2 184q-31 -91 -103.5 -142.5t-177.5 -51.5q-148 -2 -247.5 101t-98.5 259q-2 156 98.5 259t250.5 101q109 0 191 -58q83 -59 116 -153l-37 -10q-28 87 -100.5 138.5t-169.5 51.5q-136 0 -224 -92t-88 -238q0 -145 87.5 -236.5t224.5 -91.5
q118 0 191 72t81 169h-215v30z" />
    <glyph glyph-name="Gbreve.ss10" horiz-adv-x="802" 
d="M463 292h252v-292h-29l-2 184q-31 -91 -103.5 -142.5t-177.5 -51.5q-148 -2 -247.5 101t-98.5 259q-2 156 98.5 259t250.5 101q109 0 191 -58q83 -59 116 -153l-37 -10q-28 87 -100.5 138.5t-169.5 51.5q-136 0 -224 -92t-88 -238q0 -145 87.5 -236.5t224.5 -91.5
q118 0 191 72t81 169h-215v30zM289 914h26q3 -45 25.5 -71t59.5 -26t60.5 26.5t27.5 70.5h25q-3 -54 -34.5 -88t-78.5 -34q-46 0 -77 34t-34 88z" />
    <glyph glyph-name="Gcommaaccent.ss10" horiz-adv-x="802" 
d="M463 292h252v-292h-29l-2 184q-31 -91 -103.5 -142.5t-177.5 -51.5q-148 -2 -247.5 101t-98.5 259q-2 156 98.5 259t250.5 101q109 0 191 -58q83 -59 116 -153l-37 -10q-28 87 -100.5 138.5t-169.5 51.5q-136 0 -224 -92t-88 -238q0 -145 87.5 -236.5t224.5 -91.5
q118 0 191 72t81 169h-215v30zM348 -232l-3 18q39 2 52 21.5t13 59.5q0 7 -9 9q-28 4 -28 28q0 12 8.5 20t21.5 8q30 0 30 -41q0 -26 -1 -39.5t-5.5 -31t-13.5 -26.5t-25 -16t-40 -10z" />
    <glyph glyph-name="i.loclTRK" horiz-adv-x="196" 
d="M81 0v483h34v-483h-34zM64 654q0 13 8.5 21.5t22.5 8.5q30 0 30 -30q0 -13 -8.5 -21t-21.5 -8q-14 0 -22.5 8t-8.5 21z" />
    <glyph glyph-name="j.alt" horiz-adv-x="198" 
d="M69 654q0 13 8.5 21.5t22.5 8.5q30 0 30 -30q0 -13 -8.5 -21t-21.5 -8q-14 0 -22.5 8t-8.5 21zM81 -67v550h34v-550q0 -62 -33 -102t-91 -48v28q42 8 66 40t24 82z" />
    <glyph glyph-name="germandbls.calt" horiz-adv-x="680" 
d="M497 287q51 -22 72 -35q65 -38 65 -112q0 -68 -53 -109t-142 -41q-67 0 -137 21l5 33q71 -24 133 -24q72 0 114.5 32t42.5 85q-3 48 -29.5 71.5t-90.5 50.5q-63 26 -89 48.5t-29 69.5q4 53 40 94.5t148 128.5q-83 79 -201 79q-101 0 -165 -53q-62 -53 -62 -141v-485h-36
v485q0 100 73 162.5t185 62.5q137 0 237 -94v-29q-104 -79 -144 -123q-41 -44 -41 -83q0 -32 23 -51t81 -43z" />
    <glyph glyph-name="a.ss01" horiz-adv-x="595" 
d="M480 483h34v-483h-34v136q-24 -70 -76.5 -108t-128.5 -38q-107 0 -170.5 68.5t-63.5 183.5q0 113 63.5 182t170.5 69q76 0 128.5 -38t76.5 -107v135zM479 242q0 101 -55 162q-54 61 -145 61t-147 -62.5t-56 -160.5q0 -102 55 -163t148 -61q91 0 145 61q55 61 55 163z" />
    <glyph glyph-name="aacute.ss01" horiz-adv-x="595" 
d="M480 483h34v-483h-34v136q-24 -70 -76.5 -108t-128.5 -38q-107 0 -170.5 68.5t-63.5 183.5q0 113 63.5 182t170.5 69q76 0 128.5 -38t76.5 -107v135zM479 242q0 101 -55 162q-54 61 -145 61t-147 -62.5t-56 -160.5q0 -102 55 -163t148 -61q91 0 145 61q55 61 55 163z
M274 573l74 127h46l-92 -127h-28z" />
    <glyph glyph-name="abreve.ss01" horiz-adv-x="595" 
d="M480 483h34v-483h-34v136q-24 -70 -76.5 -108t-128.5 -38q-107 0 -170.5 68.5t-63.5 183.5q0 113 63.5 182t170.5 69q76 0 128.5 -38t76.5 -107v135zM479 242q0 101 -55 162q-54 61 -145 61t-147 -62.5t-56 -160.5q0 -102 55 -163t148 -61q91 0 145 61q55 61 55 163z
M183 697h26q3 -45 25.5 -71t59.5 -26t60.5 26.5t27.5 70.5h25q-3 -54 -34.5 -88t-78.5 -34q-46 0 -77 34t-34 88z" />
    <glyph glyph-name="acircumflex.ss01" horiz-adv-x="595" 
d="M480 483h34v-483h-34v136q-24 -70 -76.5 -108t-128.5 -38q-107 0 -170.5 68.5t-63.5 183.5q0 113 63.5 182t170.5 69q76 0 128.5 -38t76.5 -107v135zM479 242q0 101 -55 162q-54 61 -145 61t-147 -62.5t-56 -160.5q0 -102 55 -163t148 -61q91 0 145 61q55 61 55 163z
M169 572l110 128h30l112 -128h-31l-95 100l-95 -100h-31z" />
    <glyph glyph-name="adieresis.ss01" horiz-adv-x="595" 
d="M169 654q0 13 8.5 21.5t22.5 8.5q30 0 30 -30q0 -13 -8.5 -21t-21.5 -8q-14 0 -22.5 8t-8.5 21zM360 654q0 13 8.5 21.5t22.5 8.5q30 0 30 -30q0 -13 -8.5 -21t-21.5 -8q-14 0 -22.5 8t-8.5 21zM480 483h34v-483h-34v136q-24 -70 -76.5 -108t-128.5 -38
q-107 0 -170.5 68.5t-63.5 183.5q0 113 63.5 182t170.5 69q76 0 128.5 -38t76.5 -107v135zM479 242q0 101 -55 162q-54 61 -145 61t-147 -62.5t-56 -160.5q0 -102 55 -163t148 -61q91 0 145 61q55 61 55 163z" />
    <glyph glyph-name="agrave.ss01" horiz-adv-x="595" 
d="M480 483h34v-483h-34v136q-24 -70 -76.5 -108t-128.5 -38q-107 0 -170.5 68.5t-63.5 183.5q0 113 63.5 182t170.5 69q76 0 128.5 -38t76.5 -107v135zM479 242q0 101 -55 162q-54 61 -145 61t-147 -62.5t-56 -160.5q0 -102 55 -163t148 -61q91 0 145 61q55 61 55 163z
M320 573h-28l-92 127h46z" />
    <glyph glyph-name="amacron.ss01" horiz-adv-x="595" 
d="M480 483h34v-483h-34v136q-24 -70 -76.5 -108t-128.5 -38q-107 0 -170.5 68.5t-63.5 183.5q0 113 63.5 182t170.5 69q76 0 128.5 -38t76.5 -107v135zM479 242q0 101 -55 162q-54 61 -145 61t-147 -62.5t-56 -160.5q0 -102 55 -163t148 -61q91 0 145 61q55 61 55 163z
M182 656h226v-27h-226v27z" />
    <glyph glyph-name="aogonek.ss01" horiz-adv-x="595" 
d="M531 -126l7 -29q-25 -13 -63 -13q-37 0 -59 17t-22 47q0 50 86 105v135q-24 -70 -76.5 -108t-128.5 -38q-107 0 -170.5 68.5t-63.5 183.5q0 113 63.5 182t170.5 69q76 0 128.5 -38t76.5 -107v135h34v-483h-12q-75 -55 -75 -96q0 -21 14.5 -33t38.5 -12q27 0 51 15z
M479 242q0 101 -55 162q-54 61 -145 61t-147 -62.5t-56 -160.5q0 -102 55 -163t148 -61q91 0 145 61q55 61 55 163z" />
    <glyph glyph-name="aring.ss01" horiz-adv-x="595" 
d="M480 483h34v-483h-34v136q-24 -70 -76.5 -108t-128.5 -38q-107 0 -170.5 68.5t-63.5 183.5q0 113 63.5 182t170.5 69q76 0 128.5 -38t76.5 -107v135zM479 242q0 101 -55 162q-54 61 -145 61t-147 -62.5t-56 -160.5q0 -102 55 -163t148 -61q91 0 145 61q55 61 55 163z
M204 647q0 39 26 63.5t65 24.5t65.5 -25t26.5 -63t-26.5 -62.5t-65.5 -24.5t-65 24.5t-26 62.5zM362 647q0 29 -19.5 47.5t-47.5 18.5t-47 -18.5t-19 -47.5t19 -47t47 -18t47.5 18t19.5 47z" />
    <glyph glyph-name="atilde.ss01" horiz-adv-x="595" 
d="M480 483h34v-483h-34v136q-24 -70 -76.5 -108t-128.5 -38q-107 0 -170.5 68.5t-63.5 183.5q0 113 63.5 182t170.5 69q76 0 128.5 -38t76.5 -107v135zM479 242q0 101 -55 162q-54 61 -145 61t-147 -62.5t-56 -160.5q0 -102 55 -163t148 -61q91 0 145 61q55 61 55 163z
M290 650q-37 22 -55 22q-36 0 -54 -42l-23 7q26 64 78 64q22 0 65 -25q33 -23 55 -23q36 0 54 43l23 -6q-24 -66 -77 -66q-25 0 -66 26z" />
    <glyph glyph-name="l.ss02" horiz-adv-x="244" 
d="M73 700h34v-585q0 -46 23 -71.5t65 -25.5q24 0 40 13l4 -31q-21 -10 -48 -10q-57 0 -87.5 32.5t-30.5 92.5v585z" />
    <glyph glyph-name="lacute.ss02" horiz-adv-x="244" 
d="M73 700h34v-585q0 -46 23 -71.5t65 -25.5q24 0 40 13l4 -31q-21 -10 -48 -10q-57 0 -87.5 32.5t-30.5 92.5v585zM72 790l74 127h46l-92 -127h-28z" />
    <glyph glyph-name="lcaron.ss02" horiz-adv-x="244" 
d="M73 700h34v-585q0 -46 23 -71.5t65 -25.5q24 0 40 13l4 -31q-21 -10 -48 -10q-57 0 -87.5 32.5t-30.5 92.5v585zM-33 918h31l95 -100l95 100h31l-112 -128h-30z" />
    <glyph glyph-name="lcommaaccent.ss02" horiz-adv-x="244" 
d="M73 700h34v-585q0 -46 23 -71.5t65 -25.5q24 0 40 13l4 -31q-21 -10 -48 -10q-57 0 -87.5 32.5t-30.5 92.5v585zM74 -232l-3 18q39 2 52 21.5t13 59.5q0 7 -9 9q-28 4 -28 28q0 12 8.5 20t21.5 8q30 0 30 -41q0 -26 -1 -39.5t-5.5 -31t-13.5 -26.5t-25 -16t-40 -10z" />
    <glyph glyph-name="lslash.ss02" horiz-adv-x="266" 
d="M249 31l4 -31q-21 -10 -48 -10q-57 0 -87.5 32.5t-30.5 92.5v260l-74 -37v29l74 37v296h34v-280l94 47v-29l-94 -47v-276q0 -46 23 -71.5t65 -25.5q24 0 40 13z" />
    <glyph glyph-name="y.ss03" horiz-adv-x="560" 
d="M445 483h34v-510q0 -89 -60 -141q-59 -52 -156 -52q-65 0 -119.5 30.5t-84.5 81.5l28 17q26 -47 74 -74t102 -27q81 0 131.5 45t50.5 120v173q-21 -69 -70 -107.5t-118 -38.5q-84 0 -131.5 48.5t-47.5 138.5v296h34v-294q0 -77 41 -119.5t111 -42.5q80 0 130.5 62
t50.5 166v228z" />
    <glyph glyph-name="yacute.ss03" horiz-adv-x="560" 
d="M445 483h34v-510q0 -89 -60 -141q-59 -52 -156 -52q-65 0 -119.5 30.5t-84.5 81.5l28 17q26 -47 74 -74t102 -27q81 0 131.5 45t50.5 120v173q-21 -69 -70 -107.5t-118 -38.5q-84 0 -131.5 48.5t-47.5 138.5v296h34v-294q0 -77 41 -119.5t111 -42.5q80 0 130.5 62
t50.5 166v228zM256 573l74 127h46l-92 -127h-28z" />
    <glyph glyph-name="ycircumflex.ss03" horiz-adv-x="560" 
d="M445 483h34v-510q0 -89 -60 -141q-59 -52 -156 -52q-65 0 -119.5 30.5t-84.5 81.5l28 17q26 -47 74 -74t102 -27q81 0 131.5 45t50.5 120v173q-21 -69 -70 -107.5t-118 -38.5q-84 0 -131.5 48.5t-47.5 138.5v296h34v-294q0 -77 41 -119.5t111 -42.5q80 0 130.5 62
t50.5 166v228zM151 572l110 128h30l112 -128h-31l-95 100l-95 -100h-31z" />
    <glyph glyph-name="ydieresis.ss03" horiz-adv-x="560" 
d="M151 654q0 13 8.5 21.5t22.5 8.5q30 0 30 -30q0 -13 -8.5 -21t-21.5 -8q-14 0 -22.5 8t-8.5 21zM342 654q0 13 8.5 21.5t22.5 8.5q30 0 30 -30q0 -13 -8.5 -21t-21.5 -8q-14 0 -22.5 8t-8.5 21zM445 483h34v-510q0 -89 -60 -141q-59 -52 -156 -52q-65 0 -119.5 30.5
t-84.5 81.5l28 17q26 -47 74 -74t102 -27q81 0 131.5 45t50.5 120v173q-21 -69 -70 -107.5t-118 -38.5q-84 0 -131.5 48.5t-47.5 138.5v296h34v-294q0 -77 41 -119.5t111 -42.5q80 0 130.5 62t50.5 166v228z" />
    <glyph glyph-name="ygrave.ss03" horiz-adv-x="560" 
d="M445 483h34v-510q0 -89 -60 -141q-59 -52 -156 -52q-65 0 -119.5 30.5t-84.5 81.5l28 17q26 -47 74 -74t102 -27q81 0 131.5 45t50.5 120v173q-21 -69 -70 -107.5t-118 -38.5q-84 0 -131.5 48.5t-47.5 138.5v296h34v-294q0 -77 41 -119.5t111 -42.5q80 0 130.5 62
t50.5 166v228zM302 573h-28l-92 127h46z" />
    <glyph glyph-name="u.ss04" horiz-adv-x="552" 
d="M443 483h34v-287q0 -95 -54 -150.5t-147 -55.5t-146.5 55.5t-53.5 150.5v287h34v-289q0 -81 44 -128.5t122 -47.5t122.5 47.5t44.5 128.5v289z" />
    <glyph glyph-name="uacute.ss04" horiz-adv-x="552" 
d="M443 483h34v-287q0 -95 -54 -150.5t-147 -55.5t-146.5 55.5t-53.5 150.5v287h34v-289q0 -81 44 -128.5t122 -47.5t122.5 47.5t44.5 128.5v289zM262 573l74 127h46l-92 -127h-28z" />
    <glyph glyph-name="ucircumflex.ss04" horiz-adv-x="552" 
d="M443 483h34v-287q0 -95 -54 -150.5t-147 -55.5t-146.5 55.5t-53.5 150.5v287h34v-289q0 -81 44 -128.5t122 -47.5t122.5 47.5t44.5 128.5v289zM157 572l110 128h30l112 -128h-31l-95 100l-95 -100h-31z" />
    <glyph glyph-name="udieresis.ss04" horiz-adv-x="552" 
d="M157 654q0 13 8.5 21.5t22.5 8.5q30 0 30 -30q0 -13 -8.5 -21t-21.5 -8q-14 0 -22.5 8t-8.5 21zM348 654q0 13 8.5 21.5t22.5 8.5q30 0 30 -30q0 -13 -8.5 -21t-21.5 -8q-14 0 -22.5 8t-8.5 21zM443 483h34v-287q0 -95 -54 -150.5t-147 -55.5t-146.5 55.5t-53.5 150.5
v287h34v-289q0 -81 44 -128.5t122 -47.5t122.5 47.5t44.5 128.5v289z" />
    <glyph glyph-name="ugrave.ss04" horiz-adv-x="552" 
d="M443 483h34v-287q0 -95 -54 -150.5t-147 -55.5t-146.5 55.5t-53.5 150.5v287h34v-289q0 -81 44 -128.5t122 -47.5t122.5 47.5t44.5 128.5v289zM308 573h-28l-92 127h46z" />
    <glyph glyph-name="uhungarumlaut.ss04" horiz-adv-x="552" 
d="M443 483h34v-287q0 -95 -54 -150.5t-147 -55.5t-146.5 55.5t-53.5 150.5v287h34v-289q0 -81 44 -128.5t122 -47.5t122.5 47.5t44.5 128.5v289zM212 573l73 127h47l-93 -127h-27zM345 573l74 127h46l-92 -127h-28z" />
    <glyph glyph-name="umacron.ss04" horiz-adv-x="552" 
d="M443 483h34v-287q0 -95 -54 -150.5t-147 -55.5t-146.5 55.5t-53.5 150.5v287h34v-289q0 -81 44 -128.5t122 -47.5t122.5 47.5t44.5 128.5v289zM170 656h226v-27h-226v27z" />
    <glyph glyph-name="uogonek.ss04" horiz-adv-x="552" 
d="M443 483h34v-287q0 -128 -91 -179q-58 -36 -79 -59t-21 -47q0 -21 14 -33t38 -12q28 0 51 15l8 -29q-25 -13 -63 -13q-37 0 -59 17t-22 47q0 47 72 92q-28 -5 -49 -5q-93 0 -146.5 55.5t-53.5 150.5v287h34v-289q0 -81 44 -128.5t122 -47.5t122.5 47.5t44.5 128.5v289z
" />
    <glyph glyph-name="uring.ss04" horiz-adv-x="552" 
d="M443 483h34v-287q0 -95 -54 -150.5t-147 -55.5t-146.5 55.5t-53.5 150.5v287h34v-289q0 -81 44 -128.5t122 -47.5t122.5 47.5t44.5 128.5v289zM192 647q0 39 26 63.5t65 24.5t65.5 -25t26.5 -63t-26.5 -62.5t-65.5 -24.5t-65 24.5t-26 62.5zM350 647q0 29 -19.5 47.5
t-47.5 18.5t-47 -18.5t-19 -47.5t19 -47t47 -18t47.5 18t19.5 47z" />
    <glyph glyph-name="g.ss07" horiz-adv-x="518" 
d="M491 -64q0 -71 -65 -113q-64 -43 -168 -43q-107 0 -169 39t-62 105q0 46 29 76.5t78 39.5q-30 10 -48.5 32t-18.5 49q0 49 61 82q-59 46 -59 125q0 74 51.5 119.5t136.5 45.5q62 0 109 -26q76 40 115 117l28 -23q-47 -74 -124 -107q60 -45 60 -126q0 -73 -52 -119
q-53 -45 -136 -45q-66 0 -112 28q-47 -31 -47 -66q0 -28 25 -47t67 -19h135q77 0 121.5 -33.5t44.5 -90.5zM257 188q70 0 111.5 38t41.5 102t-41.5 102.5t-111.5 38.5t-111.5 -38.5t-41.5 -102.5t41.5 -102t111.5 -38zM457 -67q0 44 -36 70t-98 26h-131q-62 0 -97.5 -27
t-35.5 -76q0 -56 52.5 -88t147.5 -32q90 0 144 34.5t54 92.5z" />
    <glyph glyph-name="gbreve.ss07" horiz-adv-x="518" 
d="M491 -64q0 -71 -65 -113q-64 -43 -168 -43q-107 0 -169 39t-62 105q0 46 29 76.5t78 39.5q-30 10 -48.5 32t-18.5 49q0 49 61 82q-59 46 -59 125q0 74 51.5 119.5t136.5 45.5q62 0 109 -26q76 40 115 117l28 -23q-47 -74 -124 -107q60 -45 60 -126q0 -73 -52 -119
q-53 -45 -136 -45q-66 0 -112 28q-47 -31 -47 -66q0 -28 25 -47t67 -19h135q77 0 121.5 -33.5t44.5 -90.5zM257 188q70 0 111.5 38t41.5 102t-41.5 102.5t-111.5 38.5t-111.5 -38.5t-41.5 -102.5t41.5 -102t111.5 -38zM457 -67q0 44 -36 70t-98 26h-131q-62 0 -97.5 -27
t-35.5 -76q0 -56 52.5 -88t147.5 -32q90 0 144 34.5t54 92.5zM147 697h26q3 -45 25.5 -71t59.5 -26t60.5 26.5t27.5 70.5h25q-3 -54 -34.5 -88t-78.5 -34q-46 0 -77 34t-34 88z" />
    <glyph glyph-name="gcommaaccent.ss07" horiz-adv-x="518" 
d="M491 -64q0 -71 -65 -113q-64 -43 -168 -43q-107 0 -169 39t-62 105q0 46 29 76.5t78 39.5q-30 10 -48.5 32t-18.5 49q0 49 61 82q-59 46 -59 125q0 74 51.5 119.5t136.5 45.5q62 0 109 -26q76 40 115 117l28 -23q-47 -74 -124 -107q60 -45 60 -126q0 -73 -52 -119
q-53 -45 -136 -45q-66 0 -112 28q-47 -31 -47 -66q0 -28 25 -47t67 -19h135q77 0 121.5 -33.5t44.5 -90.5zM257 188q70 0 111.5 38t41.5 102t-41.5 102.5t-111.5 38.5t-111.5 -38.5t-41.5 -102.5t41.5 -102t111.5 -38zM457 -67q0 44 -36 70t-98 26h-131q-62 0 -97.5 -27
t-35.5 -76q0 -56 52.5 -88t147.5 -32q90 0 144 34.5t54 92.5zM309 736l3 -18q-39 -2 -52 -21.5t-13 -59.5q0 -7 9 -9q28 -4 28 -28q0 -12 -8.5 -20t-21.5 -8q-30 0 -30 41q0 26 1 39.5t5.5 31t13.5 26.5t25 16t40 10z" />
    <glyph glyph-name="k.ss08" horiz-adv-x="477" 
d="M415 0l-219 270l-79 -70v-200h-34v700h34v-465l274 248h43l-216 -193l240 -290h-43z" />
    <glyph glyph-name="kcommaaccent.ss08" horiz-adv-x="477" 
d="M415 0l-219 270l-79 -70v-200h-34v700h34v-465l274 248h43l-216 -193l240 -290h-43zM185 -232l-3 18q39 2 52 21.5t13 59.5q0 7 -9 9q-28 4 -28 28q0 12 8.5 20t21.5 8q30 0 30 -41q0 -26 -1 -39.5t-5.5 -31t-13.5 -26.5t-25 -16t-40 -10z" />
    <glyph glyph-name="y.ss11" horiz-adv-x="515" 
d="M444 483h37l-272 -624q-19 -43 -43 -61t-65 -18q-35 0 -68 15l5 34q32 -19 62 -19t47 13t31 46l72 159l-214 455h38l195 -416z" />
    <glyph glyph-name="yacute.ss11" horiz-adv-x="515" 
d="M444 483h37l-272 -624q-19 -43 -43 -61t-65 -18q-35 0 -68 15l5 34q32 -19 62 -19t47 13t31 46l72 159l-214 455h38l195 -416zM243 573l74 127h46l-92 -127h-28z" />
    <glyph glyph-name="ycircumflex.ss11" horiz-adv-x="515" 
d="M444 483h37l-272 -624q-19 -43 -43 -61t-65 -18q-35 0 -68 15l5 34q32 -19 62 -19t47 13t31 46l72 159l-214 455h38l195 -416zM138 572l110 128h30l112 -128h-31l-95 100l-95 -100h-31z" />
    <glyph glyph-name="ydieresis.ss11" horiz-adv-x="515" 
d="M138 654q0 13 8.5 21.5t22.5 8.5q30 0 30 -30q0 -13 -8.5 -21t-21.5 -8q-14 0 -22.5 8t-8.5 21zM329 654q0 13 8.5 21.5t22.5 8.5q30 0 30 -30q0 -13 -8.5 -21t-21.5 -8q-14 0 -22.5 8t-8.5 21zM444 483h37l-272 -624q-19 -43 -43 -61t-65 -18q-35 0 -68 15l5 34
q32 -19 62 -19t47 13t31 46l72 159l-214 455h38l195 -416z" />
    <glyph glyph-name="ygrave.ss11" horiz-adv-x="515" 
d="M444 483h37l-272 -624q-19 -43 -43 -61t-65 -18q-35 0 -68 15l5 34q32 -19 62 -19t47 13t31 46l72 159l-214 455h38l195 -416zM289 573h-28l-92 127h46z" />
    <glyph glyph-name="f_f" horiz-adv-x="616" 
d="M454 557v-74h163v-27h-163v-456h-34v456h-277v-456h-34v456h-87v27h87v74q0 69 45 111t115 42q40 0 62 -8v-35q-22 13 -62 13q-55 0 -90.5 -33.5t-35.5 -89.5v-74h277v74q0 69 45 111t115 42q40 0 62 -8v-35q-22 13 -62 13q-55 0 -90.5 -33.5t-35.5 -89.5z" />
    <glyph glyph-name="f_f_f" horiz-adv-x="927" 
d="M765 557v-74h163v-27h-163v-456h-34v456h-277v-456h-34v456h-277v-456h-34v456h-87v27h87v74q0 69 45 111t115 42q40 0 62 -8v-35q-22 13 -62 13q-55 0 -90.5 -33.5t-35.5 -89.5v-74h277v74q0 69 45 111t115 42q40 0 62 -8v-35q-22 13 -62 13q-55 0 -90.5 -33.5
t-35.5 -89.5v-74h277v74q0 69 45 111t115 42q40 0 62 -8v-35q-22 13 -62 13q-55 0 -90.5 -33.5t-35.5 -89.5z" />
    <glyph glyph-name="f_f_i" horiz-adv-x="849" 
d="M765 483v-483h-34v456h-277v-456h-34v456h-277v-456h-34v456h-87v27h87v74q0 69 45 111t115 42q40 0 62 -8v-35q-22 13 -62 13q-55 0 -90.5 -33.5t-35.5 -89.5v-74h277v74q0 69 45 111t115 42q40 0 62 -8v-35q-22 13 -62 13q-55 0 -90.5 -33.5t-35.5 -89.5v-74h311z
M780 654q0 -13 -8.5 -21t-21.5 -8q-14 0 -22.5 8t-8.5 21t8.5 21.5t22.5 8.5q30 0 30 -30z" />
    <glyph glyph-name="f_f_j" horiz-adv-x="847" 
d="M764 483v-550q0 -71 -40.5 -112t-109.5 -41q-30 0 -52 8v35q20 -13 52 -13q54 0 85 33t31 90v523h-276v-456h-34v456h-277v-456h-34v456h-87v27h87v74q0 69 45 111t115 42q40 0 62 -8v-35q-22 13 -62 13q-55 0 -90.5 -33.5t-35.5 -89.5v-74h277v74q0 69 45 111t115 42
q40 0 62 -8v-35q-22 13 -62 13q-55 0 -90.5 -33.5t-35.5 -89.5v-74h310zM779 654q0 -13 -8.5 -21t-21.5 -8q-14 0 -22.5 8t-8.5 21t8.5 21.5t22.5 8.5q30 0 30 -30z" />
    <glyph glyph-name="f_f_l" horiz-adv-x="848" 
d="M731 700h34v-700h-34v456h-277v-456h-34v456h-277v-456h-34v456h-87v27h87v74q0 69 45 111t115 42q40 0 62 -8v-35q-22 13 -62 13q-55 0 -90.5 -33.5t-35.5 -89.5v-74h277v74q0 69 45 111t115 42q40 0 62 -8v-35q-22 13 -62 13q-55 0 -90.5 -33.5t-35.5 -89.5v-74h277
v217z" />
    <glyph glyph-name="f_j" horiz-adv-x="536" 
d="M453 483v-550q0 -71 -40.5 -112t-109.5 -41q-30 0 -52 8v35q20 -13 52 -13q54 0 85 33t31 90v523h-276v-456h-34v456h-87v27h87v74q0 69 45 111t115 42q40 0 62 -8v-35q-22 13 -62 13q-55 0 -90.5 -33.5t-35.5 -89.5v-74h310zM468 654q0 -13 -8.5 -21t-21.5 -8
q-14 0 -22.5 8t-8.5 21t8.5 21.5t22.5 8.5q30 0 30 -30z" />
    <glyph glyph-name="f_l" horiz-adv-x="537" 
d="M420 700h34v-700h-34v456h-277v-456h-34v456h-87v27h87v74q0 69 45 111t115 42q40 0 62 -8v-35q-22 13 -62 13q-55 0 -90.5 -33.5t-35.5 -89.5v-74h277v217z" />
    <glyph glyph-name="f_f_l.ss02" horiz-adv-x="896" 
d="M887 31l4 -31q-21 -10 -48 -10q-57 0 -87.5 32.5t-30.5 92.5v341h-271v-456h-34v456h-277v-456h-34v456h-87v27h87v74q0 69 45 111t115 42q40 0 62 -8v-35q-22 13 -62 13q-55 0 -90.5 -33.5t-35.5 -89.5v-74h277v74q0 69 45 111t115 42q40 0 62 -8v-35q-22 13 -62 13
q-55 0 -90.5 -33.5t-35.5 -89.5v-74h271v217h34v-585q0 -46 23 -71.5t65 -25.5q24 0 40 13z" />
    <glyph glyph-name="f_l.ss02" horiz-adv-x="585" 
d="M576 31l4 -31q-21 -10 -48 -10q-57 0 -87.5 32.5t-30.5 92.5v341h-271v-456h-34v456h-87v27h87v74q0 69 45 111t115 42q40 0 62 -8v-35q-22 13 -62 13q-55 0 -90.5 -33.5t-35.5 -89.5v-74h271v217h34v-585q0 -46 23 -71.5t65 -25.5q24 0 40 13z" />
    <glyph glyph-name="ordfeminine.ss01" horiz-adv-x="520" 
d="M418 694h34v-432h-34v121q-21 -62 -67 -96t-112 -34q-94 0 -149 61t-55 164q0 102 55 163q56 62 149 62q66 0 112 -34t67 -96v121zM417 478q0 90 -46.5 143.5t-124.5 53.5q-80 0 -127.5 -54t-47.5 -143q0 -90 47 -143.5t128 -53.5q78 0 124.5 53.5t46.5 143.5zM87 133v27
h349v-27h-349z" />
    <glyph glyph-name="uni0430.ss01" horiz-adv-x="595" 
d="M480 483h34v-483h-34v136q-24 -70 -76.5 -108t-128.5 -38q-107 0 -170.5 68.5t-63.5 183.5q0 113 63.5 182t170.5 69q76 0 128.5 -38t76.5 -107v135zM479 242q0 101 -55 162q-54 61 -145 61t-147 -62.5t-56 -160.5q0 -102 55 -163t148 -61q91 0 145 61q55 61 55 163z" />
    <glyph glyph-name="zero.osf" horiz-adv-x="610" 
d="M567 301q0 -139 -72 -224.5t-190 -85.5t-190 85.5t-72 224.5t72 224t190 85t190 -85t72 -224zM532 301q0 126 -62 201.5t-165 75.5t-165 -75.5t-62 -201.5t62 -201.5t165 -75.5t165 75.5t62 201.5z" />
    <glyph glyph-name="one.osf" 
d="M331 27h229v-27h-493v27h229v543l-206 -99l-12 33l219 95h34v-572z" />
    <glyph glyph-name="two.osf" horiz-adv-x="591" 
d="M114 28l424 4v-32h-470v28l148 92q145 90 194.5 146.5t52.5 139.5q0 77 -49.5 124.5t-130.5 47.5q-150 0 -197 -143l-34 16q28 76 87 117.5t144 41.5q96 0 156 -56.5t60 -147.5q-3 -93 -57 -153.5t-208 -151.5z" />
    <glyph glyph-name="three.osf" 
d="M548 85q0 -87 -68.5 -141t-178.5 -54q-89 0 -155.5 47t-92.5 127l34 15q21 -73 78.5 -116t135.5 -43q95 0 153 46t58 122q0 70 -58.5 114.5t-150.5 44.5h-41v28h41q85 0 138 41q53 42 53 109q0 70 -51 112.5t-136 42.5q-77 0 -133 -43t-77 -116l-34 15q27 81 92 127.5
t152 46.5q99 0 161 -51t62 -134q0 -64 -43.5 -106.5t-121.5 -56.5q85 -13 134 -59.5t49 -117.5z" />
    <glyph glyph-name="four.osf" 
d="M577 119v-29h-112v-190h-35v190h-395v23l383 487l12 -1v1h35v-481h112zM430 568l-356 -449h356v449z" />
    <glyph glyph-name="five.osf" 
d="M552 128q0 -107 -67.5 -172.5t-171.5 -65.5q-89 0 -154.5 45.5t-90.5 124.5l36 16q21 -73 76.5 -114.5t133.5 -41.5q90 0 146.5 57t56.5 151q0 93 -54.5 149.5t-144.5 56.5q-124 0 -196 -115l-30 7l45 374h389l-5 -33h-358l-39 -313q71 108 196 108q103 0 167.5 -64.5
t64.5 -169.5z" />
    <glyph glyph-name="six.osf" 
d="M555 228q0 -105 -69.5 -171.5t-178.5 -66.5q-112 0 -181.5 66.5t-69.5 173.5q0 90 52 157l235 313h47l-227 -283q62 48 151 48q105 0 173 -66.5t68 -170.5zM520 227q0 94 -58.5 152t-153.5 58q-97 0 -157 -57.5t-60 -151.5t59.5 -152t156.5 -58q95 0 154 57.5t59 151.5z
" />
    <glyph glyph-name="seven.osf" 
d="M78 600h485v-30l-349 -670h-45l361 667h-457z" />
    <glyph glyph-name="eight.osf" 
d="M548 180q0 -84 -68 -137t-179 -53q-112 0 -180.5 52.5t-68.5 137.5q0 76 54 123q53 47 135 58q-71 12 -119 57q-47 45 -47 115q0 79 62.5 128t163.5 49t162.5 -49t61.5 -128q0 -69 -45.5 -114t-117.5 -58q78 -10 132 -58q54 -47 54 -123zM301 377q87 0 138.5 42.5
t51.5 111.5t-51.5 110t-138.5 41t-139.5 -41.5t-52.5 -109.5q0 -69 52.5 -111.5t139.5 -42.5zM512 182q0 75 -57.5 120t-153.5 45q-98 0 -155.5 -45t-57.5 -120q0 -74 58 -119t155 -45q96 0 153.5 45t57.5 119z" />
    <glyph glyph-name="nine.osf" 
d="M544 370q0 -90 -52 -157l-235 -313h-47l227 283q-61 -48 -151 -48q-105 0 -173 66.5t-68 170.5q0 105 69.5 171.5t178.5 66.5q112 0 181.5 -66.5t69.5 -173.5zM509 372q0 94 -59.5 152t-156.5 58q-95 0 -154 -57.5t-59 -151.5t58.5 -152t153.5 -58q97 0 157 57.5
t60 151.5z" />
    <glyph glyph-name="zero.osf.zero" horiz-adv-x="610" 
d="M567 301q0 -139 -72 -224.5t-190 -85.5t-190 85.5t-72 224.5t72 224t190 85t190 -85t72 -224zM78 301q0 -74 23 -134l390 305q-62 106 -186 106q-103 0 -165 -75.5t-62 -201.5zM532 301q0 83 -29 149l-393 -305q61 -121 195 -121q103 0 165 75.5t62 201.5z" />
    <glyph glyph-name="one.ss05" 
d="M331 27h229v-27h-493v27h229v646l-206 -114l-12 30l219 111h34v-673z" />
    <glyph glyph-name="one.ss05.osf" horiz-adv-x="393" 
d="M242 599h34v-599h-35v570l-206 -99l-12 33z" />
    <glyph glyph-name="zero.tf" 
d="M549 350q0 -166 -65 -264q-64 -96 -184 -96t-185 96q-64 97 -64 264q0 168 64 263q64 97 185 97q120 0 184 -97q65 -97 65 -263zM513 350q0 158 -54 244t-159 86t-159 -86t-54 -244t54 -244t159 -86t159 86t54 244z" />
    <glyph glyph-name="one.tf" 
d="M331 27h229v-27h-493v27h229v646l-206 -114l-12 30l219 111h34v-673z" />
    <glyph glyph-name="two.tf" 
d="M114 27l431 3v-30h-475v27l152 114q116 86 176 156q58 67 73 111q16 42 16 91q0 81 -53 131t-141 50q-75 0 -129.5 -42.5t-75.5 -115.5l-34 15q26 81 89.5 127t149.5 46q102 0 166 -57.5t64 -154.5q0 -51 -17 -99q-35 -106 -264 -276z" />
    <glyph glyph-name="three.tf" 
d="M548 185q0 -87 -66.5 -141t-173.5 -54q-88 0 -153 46.5t-92 127.5l34 15q21 -74 77 -116.5t134 -42.5q93 0 148 46q56 47 56 122q0 71 -58.5 115.5t-150.5 44.5h-41v28h41q85 0 138 41q53 42 53 109q0 70 -51 112.5t-136 42.5q-77 0 -133 -43t-77 -116l-34 15
q27 81 92 127.5t152 46.5q99 0 161 -51t62 -134q0 -64 -42.5 -106.5t-117.5 -56.5q82 -13 130 -60t48 -118z" />
    <glyph glyph-name="four.tf" 
d="M577 219v-29h-112v-190h-35v190h-395v23l383 487l12 -1v1h35v-481h112zM430 668l-356 -449h356v449z" />
    <glyph glyph-name="five.tf" 
d="M545 228q0 -108 -66.5 -173t-171.5 -65q-90 0 -155.5 45.5t-89.5 124.5l36 16q20 -73 76 -114.5t134 -41.5q90 0 146 57t56 151t-54 150.5t-144 56.5q-127 0 -196 -116l-30 7l61 375h372l-4 -33h-341l-55 -312q72 107 195 107q103 0 167 -65t64 -170z" />
    <glyph glyph-name="six.tf" 
d="M555 228q0 -105 -69.5 -171.5t-178.5 -66.5q-112 0 -181.5 66.5t-69.5 173.5q0 90 52 157l234 313h48l-216 -277q55 42 140 42q105 0 173 -66.5t68 -170.5zM520 227q0 94 -58.5 152t-153.5 58q-97 0 -157 -57.5t-60 -151.5t59.5 -152t156.5 -58q95 0 154 57.5t59 151.5z
" />
    <glyph glyph-name="seven.tf" 
d="M64 700h499v-30l-329 -670h-44l340 667h-470z" />
    <glyph glyph-name="eight.tf" 
d="M545 180q0 -84 -67 -137t-177 -53t-178 52.5t-68 137.5q0 76 53 124q52 47 133 58q-72 12 -117.5 58t-45.5 114q0 80 61 128t162 48q100 0 160 -48q61 -48 61 -128q0 -70 -47 -115t-114 -57q78 -11 130 -58q54 -47 54 -124zM301 378q84 0 135 42.5t51 111.5t-50 109.5
t-136 40.5t-137.5 -41t-51.5 -109q0 -69 51.5 -111.5t137.5 -42.5zM508 182q0 75 -56 120.5t-151 45.5t-152 -45.5t-57 -120.5q0 -74 57 -119t152 -45t151 44.5t56 119.5z" />
    <glyph glyph-name="nine.tf" 
d="M544 471q0 -90 -52 -157l-234 -313h-48l216 277q-56 -42 -140 -42q-105 0 -173 66.5t-68 170.5q0 105 69.5 171.5t178.5 66.5q112 0 181.5 -66.5t69.5 -173.5zM509 473q0 94 -59.5 152t-156.5 58q-95 0 -154 -57.5t-59 -151.5t58.5 -152t153.5 -58q97 0 157 57.5
t60 151.5z" />
    <glyph glyph-name="zero.tf.zero" 
d="M549 350q0 -166 -65 -264q-64 -96 -184 -96t-185 96q-64 97 -64 264q0 168 64 263q64 97 185 97q120 0 184 -97q65 -97 65 -263zM87 350q0 -74 12 -132l391 307q-50 155 -190 155q-105 0 -159 -86t-54 -244zM513 350q0 88 -16 149l-393 -305q45 -174 196 -174
q105 0 159 86t54 244z" />
    <glyph glyph-name="zero.tosf" 
d="M562 301q0 -139 -72 -224.5t-190 -85.5t-190 85.5t-72 224.5t72 224.5t190 85.5t190 -85.5t72 -224.5zM527 301q0 127 -62 202.5t-165 75.5t-165 -75.5t-62 -202.5q0 -126 62 -201.5t165 -75.5t165 75.5t62 201.5z" />
    <glyph glyph-name="one.tosf" 
d="M331 27h229v-27h-493v27h229v543l-206 -99l-12 33l219 95h34v-572z" />
    <glyph glyph-name="two.tosf" 
d="M108 29l436 3v-32h-484v28l151 92q151 92 203 148.5t55 138.5q0 77 -50.5 124.5t-133.5 47.5q-151 0 -198 -143l-34 16q27 76 86.5 117.5t145.5 41.5q97 0 158.5 -56.5t61.5 -147.5q-3 -92 -60 -153.5t-216 -152.5z" />
    <glyph glyph-name="three.tosf" 
d="M548 85q0 -87 -66.5 -141t-173.5 -54q-88 0 -153 46.5t-92 127.5l34 15q21 -74 77 -116.5t134 -42.5q93 0 148 46q56 47 56 122q0 71 -58.5 115.5t-150.5 44.5h-41v28h41q85 0 138 41q53 42 53 109q0 70 -51 112.5t-136 42.5q-77 0 -133 -43t-77 -116l-34 15
q27 81 92 127.5t152 46.5q99 0 161 -51t62 -134q0 -64 -42.5 -106.5t-117.5 -56.5q82 -13 130 -60t48 -118z" />
    <glyph glyph-name="four.tosf" 
d="M577 119v-29h-112v-190h-35v190h-395v23l383 487l12 -1v1h35v-481h112zM430 568l-356 -449h356v449z" />
    <glyph glyph-name="five.tosf" 
d="M545 128q0 -108 -66.5 -173t-171.5 -65q-90 0 -155.5 45.5t-89.5 124.5l36 16q20 -73 76 -114.5t134 -41.5q90 0 146 57t56 151t-54 150.5t-144 56.5q-127 0 -196 -116l-30 7l61 375h372l-4 -33h-341l-55 -312q72 107 195 107q103 0 167 -65t64 -170z" />
    <glyph glyph-name="six.tosf" 
d="M555 228q0 -105 -69.5 -171.5t-178.5 -66.5q-112 0 -181.5 66.5t-69.5 173.5q0 90 52 157l234 313h48l-216 -277q55 42 140 42q105 0 173 -66.5t68 -170.5zM520 227q0 94 -58.5 152t-153.5 58q-97 0 -157 -57.5t-60 -151.5t59.5 -152t156.5 -58q95 0 154 57.5t59 151.5z
" />
    <glyph glyph-name="seven.tosf" 
d="M64 600h499v-30l-329 -670h-44l340 667h-470z" />
    <glyph glyph-name="eight.tosf" 
d="M545 180q0 -84 -67 -137t-177 -53t-178 52.5t-68 137.5q0 76 53 124q52 47 133 58q-72 12 -117.5 58t-45.5 114q0 80 61 128t162 48q100 0 160 -48q61 -48 61 -128q0 -70 -47 -115t-114 -57q78 -11 130 -58q54 -47 54 -124zM301 378q84 0 135 42.5t51 111.5t-50 109.5
t-136 40.5t-137.5 -41t-51.5 -109q0 -69 51.5 -111.5t137.5 -42.5zM508 182q0 75 -56 120.5t-151 45.5t-152 -45.5t-57 -120.5q0 -74 57 -119t152 -45t151 44.5t56 119.5z" />
    <glyph glyph-name="nine.tosf" 
d="M544 370q0 -90 -52 -157l-234 -313h-48l216 277q-56 -42 -140 -42q-105 0 -173 66.5t-68 170.5q0 105 69.5 171.5t178.5 66.5q112 0 181.5 -66.5t69.5 -173.5zM509 372q0 94 -59.5 152t-156.5 58q-95 0 -154 -57.5t-59 -151.5t58.5 -152t153.5 -58q97 0 157 57.5
t60 151.5z" />
    <glyph glyph-name="zero.tosf.zero" 
d="M562 301q0 -139 -72 -224.5t-190 -85.5t-190 85.5t-72 224.5t72 224.5t190 85.5t190 -85.5t72 -224.5zM73 301q0 -75 23 -135l391 306q-62 107 -187 107q-103 0 -165 -75.5t-62 -202.5zM527 301q0 84 -29 148l-392 -305q28 -57 78 -88.5t116 -31.5q103 0 165 75.5
t62 201.5z" />
    <glyph glyph-name="zero.zero" 
d="M562 350q0 -164 -71 -262t-191 -98t-191 98t-71 262q0 163 71 261.5t191 98.5t191 -98.5t71 -261.5zM74 350q0 -78 15 -139l408 320q-27 72 -77.5 110.5t-119.5 38.5q-107 0 -167 -89q-59 -89 -59 -241zM526 350q0 85 -20 156l-410 -318q25 -81 77.5 -124.5t126.5 -43.5
q107 0 166.5 88t59.5 242z" />
    <glyph glyph-name="zero.dnom" horiz-adv-x="346" 
d="M37 171q0 79 37 126.5t99 47.5q63 0 99.5 -47.5t36.5 -126.5q0 -81 -36.5 -128.5t-99.5 -47.5t-99.5 47.5t-36.5 128.5zM279 171q0 70 -27.5 109.5t-78.5 39.5t-78.5 -39.5t-27.5 -109.5q0 -72 27.5 -111.5t78.5 -39.5t78.5 39.5t27.5 111.5z" />
    <glyph glyph-name="one.dnom" horiz-adv-x="221" 
d="M130 340h27v-340h-30v319l-99 -60l-9 24z" />
    <glyph glyph-name="two.dnom" horiz-adv-x="316" 
d="M76 23l204 3v-26h-241v21l70 50q79 55 105 95q26 41 26 71q0 38 -24.5 60.5t-63.5 22.5q-69 0 -98 -69l-27 11q16 39 48.5 61t75.5 22q54 0 86 -29.5t32 -79.5q0 -37 -29 -81q-28 -42 -115 -99z" />
    <glyph glyph-name="three.dnom" horiz-adv-x="311" 
d="M275 90q0 -42 -33.5 -68.5t-85.5 -26.5q-97 0 -129 84l28 9q27 -69 101 -69q40 0 65.5 20t25.5 53q0 34 -26.5 53.5t-70.5 19.5h-22v21h22q41 0 64.5 19t23.5 49t-23 48.5t-60 18.5q-70 0 -101 -67l-27 8q36 83 127 83q50 0 81 -25t31 -66q0 -59 -73 -78q38 -7 60 -29.5
t22 -56.5z" />
    <glyph glyph-name="four.dnom" horiz-adv-x="323" 
d="M299 112v-21h-56v-91h-29v91h-191v14l187 235h33v-228h56zM218 317l-163 -205h159z" />
    <glyph glyph-name="five.dnom" horiz-adv-x="307" 
d="M273 111q0 -53 -34 -85.5t-89 -32.5q-45 0 -78 22.5t-49 61.5l30 10q25 -69 99 -69q42 0 67.5 25.5t25.5 66.5t-25 66.5t-66 25.5q-62 0 -93 -51l-25 6l23 183h203l-4 -24h-179l-20 -142q34 52 100 52q51 0 82.5 -31.5t31.5 -83.5z" />
    <glyph glyph-name="six.dnom" horiz-adv-x="324" 
d="M291 112q0 -52 -34.5 -85t-90.5 -33t-90.5 33t-34.5 85q0 47 28 82l108 146h39l-107 -129q28 17 65 17q52 0 84.5 -32t32.5 -84zM262 110q0 43 -26 69t-69 26q-44 0 -71 -26t-27 -68q0 -43 26.5 -68.5t70.5 -25.5q43 0 69.5 25.5t26.5 67.5z" />
    <glyph glyph-name="seven.dnom" horiz-adv-x="286" 
d="M18 340h248v-18l-158 -322h-34l165 315h-224z" />
    <glyph glyph-name="eight.dnom" horiz-adv-x="316" 
d="M281 88q0 -43 -33.5 -68.5t-88.5 -25.5q-56 0 -90 25.5t-34 67.5q0 34 22.5 57t58.5 32q-71 20 -71 81q0 40 31.5 64t82.5 24q50 0 81 -24t31 -63q0 -61 -70 -81q35 -7 57.5 -30.5t22.5 -58.5zM159 187q39 0 61.5 19t22.5 50t-23 49t-61 18q-39 0 -62.5 -18t-23.5 -48
q0 -31 23.5 -50.5t62.5 -19.5zM252 91q0 33 -25.5 54t-67.5 21q-44 0 -69.5 -21t-25.5 -54q0 -34 26 -53.5t69 -19.5t68 19.5t25 53.5z" />
    <glyph glyph-name="nine.dnom" horiz-adv-x="324" 
d="M283 228q0 -47 -28 -82l-108 -146h-39l107 129q-28 -17 -65 -17q-52 0 -84.5 32t-32.5 84t34.5 85t90.5 33t90.5 -33t34.5 -85zM255 229q0 43 -26.5 68.5t-70.5 25.5q-43 0 -69.5 -25.5t-26.5 -67.5q0 -43 26 -69t69 -26q44 0 71 26t27 68z" />
    <glyph glyph-name="zero.numr" horiz-adv-x="346" 
d="M37 532q0 79 37 126.5t99 47.5q63 0 99.5 -47.5t36.5 -126.5q0 -81 -36.5 -128.5t-99.5 -47.5t-99.5 47.5t-36.5 128.5zM279 532q0 70 -27.5 109.5t-78.5 39.5t-78.5 -39.5t-27.5 -109.5q0 -72 27.5 -111.5t78.5 -39.5t78.5 39.5t27.5 111.5z" />
    <glyph glyph-name="one.numr" horiz-adv-x="221" 
d="M130 701h27v-340h-30v319l-99 -60l-9 24z" />
    <glyph glyph-name="two.numr" horiz-adv-x="316" 
d="M76 384l204 3v-26h-241v21l70 50q79 55 105 95q26 41 26 71q0 38 -24.5 60.5t-63.5 22.5q-69 0 -98 -69l-27 11q16 39 48.5 61t75.5 22q54 0 86 -29.5t32 -79.5q0 -37 -29 -81q-28 -42 -115 -99z" />
    <glyph glyph-name="three.numr" horiz-adv-x="311" 
d="M275 451q0 -42 -33.5 -68.5t-85.5 -26.5q-97 0 -129 84l28 9q27 -69 101 -69q40 0 65.5 20t25.5 53q0 34 -26.5 53.5t-70.5 19.5h-22v21h22q41 0 64.5 19t23.5 49t-23 48.5t-60 18.5q-70 0 -101 -67l-27 8q36 83 127 83q50 0 81 -25t31 -66q0 -59 -73 -78q38 -7 60 -29.5
t22 -56.5z" />
    <glyph glyph-name="four.numr" horiz-adv-x="323" 
d="M299 473v-21h-56v-91h-29v91h-191v14l187 235h33v-228h56zM218 678l-163 -205h159z" />
    <glyph glyph-name="five.numr" horiz-adv-x="307" 
d="M273 472q0 -53 -34 -85.5t-89 -32.5q-45 0 -78 22.5t-49 61.5l30 10q25 -69 99 -69q42 0 67.5 25.5t25.5 66.5t-25 66.5t-66 25.5q-62 0 -93 -51l-25 6l23 183h203l-4 -24h-179l-20 -142q34 52 100 52q51 0 82.5 -31.5t31.5 -83.5z" />
    <glyph glyph-name="six.numr" horiz-adv-x="324" 
d="M291 473q0 -52 -34.5 -85t-90.5 -33t-90.5 33t-34.5 85q0 47 28 82l108 146h39l-107 -129q28 17 65 17q52 0 84.5 -32t32.5 -84zM262 471q0 43 -26 69t-69 26q-44 0 -71 -26t-27 -68q0 -43 26.5 -68.5t70.5 -25.5q43 0 69.5 25.5t26.5 67.5z" />
    <glyph glyph-name="seven.numr" horiz-adv-x="286" 
d="M18 701h248v-18l-158 -322h-34l165 315h-224z" />
    <glyph glyph-name="eight.numr" horiz-adv-x="316" 
d="M281 449q0 -43 -33.5 -68.5t-88.5 -25.5q-56 0 -90 25.5t-34 67.5q0 34 22.5 57t58.5 32q-71 20 -71 81q0 40 31.5 64t82.5 24q50 0 81 -24t31 -63q0 -61 -70 -81q35 -7 57.5 -30.5t22.5 -58.5zM159 548q39 0 61.5 19t22.5 50t-23 49t-61 18q-39 0 -62.5 -18t-23.5 -48
q0 -31 23.5 -50.5t62.5 -19.5zM252 452q0 33 -25.5 54t-67.5 21q-44 0 -69.5 -21t-25.5 -54q0 -34 26 -53.5t69 -19.5t68 19.5t25 53.5z" />
    <glyph glyph-name="nine.numr" horiz-adv-x="324" 
d="M283 589q0 -47 -28 -82l-108 -146h-39l107 129q-28 -17 -65 -17q-52 0 -84.5 32t-32.5 84t34.5 85t90.5 33t90.5 -33t34.5 -85zM255 590q0 43 -26.5 68.5t-70.5 25.5q-43 0 -69.5 -25.5t-26.5 -67.5q0 -43 26 -69t69 -26q44 0 71 26t27 68z" />
    <glyph glyph-name="uni2081.ss05" horiz-adv-x="277" 
d="M157 -67h101v-23h-234v23h103v296l-99 -60l-9 24l111 57h27v-317z" />
    <glyph glyph-name="one.dnom.ss05" horiz-adv-x="277" 
d="M157 23h101v-23h-234v23h103v296l-99 -60l-9 24l111 57h27v-317z" />
    <glyph glyph-name="one.numr.ss05" horiz-adv-x="277" 
d="M157 383h101v-23h-234v23h103v296l-99 -60l-9 24l111 57h27v-317z" />
    <glyph glyph-name="uni00B9.ss05" horiz-adv-x="277" 
d="M157 444h101v-23h-234v23h103v296l-99 -60l-9 24l111 57h27v-317z" />
    <glyph glyph-name="onehalf.ss05" horiz-adv-x="728" 
d="M157 383h101v-23h-234v23h103v296l-99 -60l-9 24l111 57h27v-317zM606 700h35l-264 -353l-254 -347h-38l265 350zM488 23l204 3v-26h-241v21l70 50q79 55 105 95q26 41 26 71q0 38 -24.5 60.5t-63.5 22.5q-69 0 -98 -69l-27 11q16 39 48.5 61t75.5 22q54 0 86 -29.5
t32 -79.5q0 -37 -29 -81q-28 -42 -115 -99z" />
    <glyph glyph-name="oneeighth.ss05" horiz-adv-x="731" 
d="M157 383h101v-23h-234v23h103v296l-99 -60l-9 24l111 57h27v-317zM606 700h35l-264 -353l-254 -347h-38l265 350zM696 88q0 -43 -33.5 -68.5t-88.5 -25.5q-56 0 -90 25.5t-34 67.5q0 34 22.5 57t58.5 32q-71 20 -71 81q0 40 31.5 64t82.5 24q50 0 81 -24t31 -63
q0 -61 -70 -81q35 -7 57.5 -30.5t22.5 -58.5zM574 187q39 0 61.5 19t22.5 50t-23 49t-61 18q-39 0 -62.5 -18t-23.5 -48q0 -31 23.5 -50.5t62.5 -19.5zM667 91q0 33 -25.5 54t-67.5 21q-44 0 -69.5 -21t-25.5 -54q0 -34 26 -53.5t69 -19.5t68 19.5t25 53.5z" />
    <glyph glyph-name="backslash.case" horiz-adv-x="378" 
d="M338 0h-32l-137 366l-129 334h32l123 -328z" />
    <glyph glyph-name="periodcentered.case" horiz-adv-x="183" 
d="M122 349q0 -13 -8 -21.5t-22 -8.5t-22.5 8.5t-8.5 21.5t8.5 21t22.5 8q13 0 21.5 -8t8.5 -21z" />
    <glyph glyph-name="bullet.case" horiz-adv-x="339" 
d="M265 349q0 -42 -27 -69t-69 -27t-69 27t-27 69q0 43 27 70t69 27t69 -27t27 -70z" />
    <glyph glyph-name="exclamdown.case" horiz-adv-x="261" 
d="M100 677q0 13 8.5 21.5t22.5 8.5q30 0 30 -30q0 -13 -8.5 -21t-21.5 -8q-14 0 -22.5 8t-8.5 21zM112 0l5 479h26l5 -479h-36z" />
    <glyph glyph-name="questiondown.case" horiz-adv-x="514" 
d="M250 677q0 14 8.5 22t21.5 8q14 0 22.5 -8.5t8.5 -21.5t-8.5 -21t-22.5 -8q-13 0 -21.5 8t-8.5 21zM295 479v-16q-3 -54 -25 -79.5t-78 -57.5q-34 -20 -57 -38q-51 -38 -51 -112q0 -70 46 -113t122 -43q68 0 118.5 36t75.5 101l34 -16q-31 -73 -89.5 -112t-138.5 -39
q-91 0 -146.5 51t-55.5 133q0 47 17 79q16 30 38.5 49t64.5 43q38 23 53 34.5t27.5 32.5t14.5 51v16h30z" />
    <glyph glyph-name="slash.case" horiz-adv-x="378" 
d="M40 0l143 372l123 328h32l-129 -334l-137 -366h-32z" />
    <glyph glyph-name="comma.tf" horiz-adv-x="300" 
d="M89 -148l-3 19q72 4 72 113q0 7 -9 10q-29 6 -29 29q0 13 8.5 21t21.5 8q32 0 32 -43q0 -38 -3 -60.5t-11.5 -46t-28 -35.5t-50.5 -15z" />
    <glyph glyph-name="period.tf" horiz-adv-x="300" 
d="M181 23q0 -13 -8 -21.5t-22 -8.5t-22.5 8.5t-8.5 21.5t8.5 21t22.5 8q13 0 21.5 -8t8.5 -21z" />
    <glyph glyph-name="braceleft.case" horiz-adv-x="323" 
d="M160 634q0 -16 3 -33l22 -131q2 -26 2 -27q0 -77 -70 -96q70 -19 70 -96q0 -1 -2 -27l-22 -130q-3 -16 -3 -32q0 -47 24 -74t65 -27h34v-27h-34q-56 0 -89 34.5t-33 92.5q0 15 3 33l22 130q2 24 2 25q0 39 -20.5 61.5t-56.5 22.5h-37v27h37q35 0 56 22.5t21 62.5
q0 1 -2 25l-22 130q-3 16 -3 33q0 58 33.5 92.5t88.5 34.5h34v-27h-34q-41 0 -65 -27t-24 -72z" />
    <glyph glyph-name="braceright.case" horiz-adv-x="323" 
d="M246 360h37v-27h-37q-36 0 -56.5 -22.5t-20.5 -61.5q0 -1 2 -25l22 -130q3 -18 3 -33q0 -58 -33 -92.5t-89 -34.5h-34v27h34q41 0 65 27t24 74q0 16 -3 32l-22 130q-2 26 -2 27q0 77 70 96q-70 19 -70 96q0 1 2 27l22 131q3 17 3 33q0 45 -24 72t-65 27h-34v27h34
q55 0 88.5 -34.5t33.5 -92.5q0 -17 -3 -33l-22 -130q-2 -24 -2 -25q0 -40 21 -62.5t56 -22.5z" />
    <glyph glyph-name="bracketleft.case" horiz-adv-x="320" 
d="M280 733h-155v-772h155v-27h-185v827h185v-28z" />
    <glyph glyph-name="bracketright.case" horiz-adv-x="320" 
d="M40 733v28h185v-827h-185v27h155v772h-155z" />
    <glyph glyph-name="parenleft.case" horiz-adv-x="280" 
d="M57 347q0 110 42.5 219t121.5 194h32q-164 -195 -164 -413t164 -413h-32q-79 85 -121.5 194t-42.5 219z" />
    <glyph glyph-name="parenright.case" horiz-adv-x="280" 
d="M59 -66h-32q164 195 164 413t-164 413h32q79 -85 121.5 -194t42.5 -219t-42.5 -219t-121.5 -194z" />
    <glyph glyph-name="emdash.case" horiz-adv-x="977" 
d="M59 370h858v-26h-858v26z" />
    <glyph glyph-name="endash.case" horiz-adv-x="578" 
d="M59 370h459v-26h-459v26z" />
    <glyph glyph-name="hyphen.case" horiz-adv-x="409" 
d="M59 372h290v-30h-290v30z" />
    <glyph glyph-name="guillemotleft.case" horiz-adv-x="445" 
d="M53 357l132 171h38l-141 -179l141 -178h-38l-132 170v16zM229 357l132 171h38l-141 -179l141 -178h-38l-132 170v16z" />
    <glyph glyph-name="guillemotright.case" horiz-adv-x="445" 
d="M216 357v-16l-132 -170h-38l141 178l-141 179h38zM392 357v-16l-132 -170h-38l141 178l-141 179h38z" />
    <glyph glyph-name="guilsinglleft.case" horiz-adv-x="270" 
d="M53 357l132 171h38l-141 -179l141 -178h-38l-132 170v16z" />
    <glyph glyph-name="guilsinglright.case" horiz-adv-x="270" 
d="M217 357v-16l-132 -170h-38l141 178l-141 179h38z" />
    <glyph glyph-name="space.tf" 
 />
    <glyph glyph-name="cent.tf" 
d="M330 -10v-95h-26v96q-99 6 -164.5 76.5t-65.5 173.5t65.5 174t164.5 77v113h26v-112q70 -2 122.5 -38t77.5 -98l-32 -11q-21 54 -64.5 85.5t-103.5 33.5v-447q60 2 104 33.5t64 86.5l33 -10q-25 -63 -77.5 -99.5t-123.5 -38.5zM304 19v445q-85 -6 -139.5 -68.5
t-54.5 -154.5q0 -93 54.5 -154.5t139.5 -67.5z" />
    <glyph glyph-name="currency.tf" 
d="M428 179l87 -88l-17 -18l-88 88q-45 -39 -110 -39q-64 0 -109 39l-88 -88l-18 18l88 88q-39 45 -39 110t39 108l-88 88l18 18l88 -88q44 39 110 39q65 0 109 -39l88 88l17 -18l-87 -87q39 -44 39 -109t-39 -110zM435 289q0 59 -39 100q-37 40 -96 40q-58 0 -97 -40
q-38 -41 -38 -100q0 -62 38.5 -102t97.5 -40t96 40q38 41 38 102z" />
    <glyph glyph-name="dollar.tf" 
d="M543 178q0 -84 -62.5 -136t-160.5 -52h-4v-95h-26v96q-87 8 -149 58.5t-84 131.5l38 9q20 -72 71.5 -116.5t123.5 -52.5v321q-58 17 -110 40q-100 47 -100 147q0 81 58 130.5t152 51.5v95h26v-96q80 -5 137 -49t79 -118l-36 -9q-19 65 -66 103t-114 43v-308
q77 -23 119 -42q108 -45 108 -152zM290 380v301q-77 -1 -125.5 -41.5t-48.5 -104.5q0 -59 41.5 -93t132.5 -62zM508 173q0 46 -26 77q-23 29 -60 46.5t-106 38.5v-316h6q82 0 134 43t52 111z" />
    <glyph glyph-name="Euro.tf" 
d="M526 215l35 -8q-24 -103 -84 -160t-146 -57q-98 0 -160.5 72t-79.5 201h-73v25h71q-3 30 -3 62q0 35 1 44h-69v25h71q14 137 77.5 214t164.5 77q86 0 146 -57t84 -159l-35 -8q-20 93 -70.5 143.5t-124.5 50.5q-86 0 -139.5 -68.5t-65.5 -192.5h245l-3 -25h-244
q-1 -9 -1 -44q0 -32 3 -62h230l-3 -25h-225q14 -116 67 -179.5t136 -63.5q74 0 124.5 51t70.5 144z" />
    <glyph glyph-name="sterling.tf" 
d="M98 27l450 3v-30h-495v30q89 47 125.5 87.5t36.5 91.5q0 31 -12 62h-133v27h119q-7 12 -35 49q-38 49 -53.5 83.5t-15.5 79.5q0 87 59.5 143.5t155.5 56.5q82 0 145 -43.5t93 -118.5l-35 -15q-24 69 -78 108t-126 39q-81 0 -129.5 -49t-48.5 -121q0 -41 14.5 -73
t50.5 -82q28 -40 38 -57h232v-27h-219q11 -30 11 -60q0 -107 -150 -184z" />
    <glyph glyph-name="yen.tf" 
d="M572 701l-241 -347h191v-25h-204v-105h204v-25h-204v-199h-34v199h-204v25h204v105h-204v25h191l-243 347h40l233 -332l231 332h40z" />
    <glyph glyph-name="plus.tf" 
d="M284 317h-184v28h184v190h31v-190h185v-28h-185v-190h-31v190z" />
    <glyph glyph-name="minus.tf" 
d="M100 317v28h400v-28h-400z" />
    <glyph glyph-name="multiply.tf" 
d="M281 331l-146 146l20 20l145 -146l146 146l20 -20l-146 -146l146 -146l-20 -20l-146 147l-146 -147l-19 20z" />
    <glyph glyph-name="divide.tf" 
d="M270 491q0 13 8.5 21.5t22.5 8.5q30 0 30 -30q0 -13 -8.5 -21t-21.5 -8q-14 0 -22.5 8t-8.5 21zM100 317v28h400v-28h-400zM331 171q0 -13 -8 -21.5t-22 -8.5t-22.5 8.5t-8.5 21.5t8.5 21t22.5 8q13 0 21.5 -8t8.5 -21z" />
    <glyph glyph-name="equal.tf" 
d="M111 419h378v-30h-378v30zM111 235h378v-30h-378v30z" />
    <glyph glyph-name="notequal.tf" 
d="M489 389h-146l-63 -154h209v-30h-221l-57 -141h-31l57 141h-126v30h138l63 154h-201v30h213l56 138h31l-56 -138h134v-30z" />
    <glyph glyph-name="greater.tf" 
d="M124 508l352 -163v-29l-352 -163v36l319 142l-319 142v35z" />
    <glyph glyph-name="less.tf" 
d="M476 508v-35l-319 -142l319 -142v-36l-352 163v29z" />
    <glyph glyph-name="greaterequal.tf" 
d="M124 508l352 -157v-28l-352 -156v35l318 136l-318 135v35zM124 0v29h352v-29h-352z" />
    <glyph glyph-name="lessequal.tf" 
d="M477 508v-35l-318 -135l318 -136v-35l-352 156v28zM125 0v29h352v-29h-352z" />
    <glyph glyph-name="plusminus.tf" 
d="M284 324h-184v27h184v184h31v-184h185v-27h-185v-184h-31v184zM100 0v27h400v-27h-400z" />
    <glyph glyph-name="approxequal.tf" 
d="M122 349l-24 6q6 38 31 61.5t66 23.5q17 0 34 -4t29 -8.5t48 -19.5q68 -30 97 -30q66 0 75 63l24 -6q-6 -39 -30.5 -62.5t-65.5 -23.5q-36 0 -111 33q-66 29 -97 29q-33 0 -52.5 -17.5t-23.5 -44.5zM122 189l-24 6q6 38 31 61.5t66 23.5q25 0 45 -6t66 -26q68 -30 97 -30
q66 0 75 63l24 -5q-14 -87 -96 -87q-38 0 -112 33q-66 29 -96 29q-33 0 -52.5 -17.5t-23.5 -44.5z" />
    <glyph glyph-name="trademark.ss09" horiz-adv-x="659" 
d="M23 678v22h234v-22h-104v-284h-25v284h-105zM581 700h38v-306h-25v281l-127 -281h-22l-122 280v-280h-24v306h39l119 -276z" />
    <glyph glyph-name="caron.alt" horiz-adv-x="500" 
d="M237 700h39l-28 -149h-23z" />
    </font>
</defs>
</svg>
